G04 #@! TF.GenerationSoftware,KiCad,Pcbnew,(5.1.2-1)-1*
G04 #@! TF.CreationDate,2019-09-21T15:52:31+01:00*
G04 #@! TF.ProjectId,onyx_robot,6f6e7978-5f72-46f6-926f-742e6b696361,rev?*
G04 #@! TF.SameCoordinates,Original*
G04 #@! TF.FileFunction,Legend,Top*
G04 #@! TF.FilePolarity,Positive*
%FSLAX46Y46*%
G04 Gerber Fmt 4.6, Leading zero omitted, Abs format (unit mm)*
G04 Created by KiCad (PCBNEW (5.1.2-1)-1) date 2019-09-21 15:52:31*
%MOMM*%
%LPD*%
G04 APERTURE LIST*
%ADD10C,0.150000*%
%ADD11C,0.120000*%
G04 APERTURE END LIST*
D10*
X45008800Y-59471560D02*
X45008800Y-89951560D01*
X45008800Y-89951560D02*
X52628800Y-89951560D01*
X52628800Y-89951560D02*
X52628800Y-59471560D01*
X52628800Y-59471560D02*
X45008800Y-59471560D01*
X69290000Y-81860000D02*
X53290000Y-81860000D01*
X69290000Y-59860000D02*
X69290000Y-81860000D01*
X53290000Y-59860000D02*
X69290000Y-59860000D01*
X53290000Y-81860000D02*
X53290000Y-59860000D01*
D11*
X73140000Y-69308922D02*
X73140000Y-69826078D01*
X74560000Y-69308922D02*
X74560000Y-69826078D01*
X74550000Y-73756078D02*
X74550000Y-73238922D01*
X73130000Y-73756078D02*
X73130000Y-73238922D01*
X79410000Y-65360000D02*
X76960000Y-65360000D01*
X77610000Y-68580000D02*
X79410000Y-68580000D01*
X87060000Y-82031000D02*
X87060000Y-80791000D01*
X85820000Y-82031000D02*
X87060000Y-82031000D01*
X78200000Y-70070000D02*
X86820000Y-70070000D01*
X78200000Y-81791000D02*
X86820000Y-81791000D01*
X86820000Y-81791000D02*
X86820000Y-70070000D01*
X78200000Y-81791000D02*
X78200000Y-70070000D01*
X83763200Y-59213579D02*
X83763200Y-58888021D01*
X82743200Y-59213579D02*
X82743200Y-58888021D01*
X85693600Y-59213579D02*
X85693600Y-58888021D01*
X84673600Y-59213579D02*
X84673600Y-58888021D01*
X75059000Y-50454779D02*
X75059000Y-50129221D01*
X74039000Y-50454779D02*
X74039000Y-50129221D01*
X75021600Y-58888021D02*
X75021600Y-59213579D01*
X76041600Y-58888021D02*
X76041600Y-59213579D01*
X76964000Y-50454779D02*
X76964000Y-50129221D01*
X75944000Y-50454779D02*
X75944000Y-50129221D01*
X77972000Y-59213579D02*
X77972000Y-58888021D01*
X76952000Y-59213579D02*
X76952000Y-58888021D01*
X79902400Y-59213579D02*
X79902400Y-58888021D01*
X78882400Y-59213579D02*
X78882400Y-58888021D01*
X80812800Y-58888021D02*
X80812800Y-59213579D01*
X81832800Y-58888021D02*
X81832800Y-59213579D01*
X77849000Y-50103721D02*
X77849000Y-50429279D01*
X78869000Y-50103721D02*
X78869000Y-50429279D01*
X77100000Y-80090000D02*
X71700000Y-80090000D01*
X77100000Y-76790000D02*
X71700000Y-76790000D01*
X77100000Y-80090000D02*
X77100000Y-76790000D01*
X62040000Y-89120000D02*
X62040000Y-83720000D01*
X65340000Y-89120000D02*
X65340000Y-83720000D01*
X62040000Y-89120000D02*
X65340000Y-89120000D01*
X73154000Y-50454779D02*
X73154000Y-50129221D01*
X72134000Y-50454779D02*
X72134000Y-50129221D01*
X82270000Y-66733922D02*
X82270000Y-67251078D01*
X83690000Y-66733922D02*
X83690000Y-67251078D01*
D10*
X87439500Y-80645000D02*
X87439500Y-40005000D01*
X87439500Y-40005000D02*
X95059500Y-40005000D01*
X95059500Y-40005000D02*
X95059500Y-80645000D01*
X95059500Y-80645000D02*
X87439500Y-80645000D01*
X83566000Y-48387000D02*
X86106000Y-48387000D01*
X80746000Y-48107000D02*
X82296000Y-48107000D01*
X83566000Y-48387000D02*
X83566000Y-50927000D01*
X82296000Y-51207000D02*
X80746000Y-51207000D01*
X80746000Y-51207000D02*
X80746000Y-48107000D01*
X83566000Y-50927000D02*
X86106000Y-50927000D01*
X86106000Y-50927000D02*
X86106000Y-48387000D01*
X73187180Y-61316480D02*
X85887180Y-61316480D01*
X85887180Y-61316480D02*
X85887180Y-63856480D01*
X85887180Y-63856480D02*
X73187180Y-63856480D01*
X70367180Y-61036480D02*
X71917180Y-61036480D01*
X73187180Y-61316480D02*
X73187180Y-63856480D01*
X71917180Y-64136480D02*
X70367180Y-64136480D01*
X70367180Y-64136480D02*
X70367180Y-61036480D01*
X71324140Y-59416560D02*
X71372400Y-59416560D01*
X74123120Y-58715520D02*
X74123120Y-59416560D01*
X74123120Y-59416560D02*
X73874200Y-59416560D01*
X71324140Y-59416560D02*
X71123480Y-59416560D01*
X71123480Y-59416560D02*
X71123480Y-58715520D01*
X85960840Y-54787360D02*
X85960840Y-54739100D01*
X85259800Y-51988380D02*
X85960840Y-51988380D01*
X85960840Y-51988380D02*
X85960840Y-52237300D01*
X85960840Y-54787360D02*
X85960840Y-54988020D01*
X85960840Y-54988020D02*
X85259800Y-54988020D01*
X86707600Y-90026100D02*
X66387600Y-90026100D01*
X66387600Y-82406100D02*
X86707600Y-82406100D01*
X86707600Y-90026100D02*
X86707600Y-82406100D01*
X66387600Y-82406100D02*
X66387600Y-90026100D01*
X59735600Y-85949400D02*
G75*
G03X59735600Y-85949400I-3000000J0D01*
G01*
X93911300Y-85949400D02*
G75*
G03X93911300Y-85949400I-3000000J0D01*
G01*
X86342100Y-44064800D02*
G75*
G03X86342100Y-44064800I-3000000J0D01*
G01*
X59904380Y-51307904D02*
X60713904Y-51307904D01*
X60809142Y-51260285D01*
X60856761Y-51212666D01*
X60904380Y-51117428D01*
X60904380Y-50926952D01*
X60856761Y-50831714D01*
X60809142Y-50784095D01*
X60713904Y-50736476D01*
X59904380Y-50736476D01*
X59904380Y-50355523D02*
X59904380Y-49736476D01*
X60285333Y-50069809D01*
X60285333Y-49926952D01*
X60332952Y-49831714D01*
X60380571Y-49784095D01*
X60475809Y-49736476D01*
X60713904Y-49736476D01*
X60809142Y-49784095D01*
X60856761Y-49831714D01*
X60904380Y-49926952D01*
X60904380Y-50212666D01*
X60856761Y-50307904D01*
X60809142Y-50355523D01*
X62150571Y-53578285D02*
X62150571Y-53244952D01*
X62674380Y-53102095D02*
X62674380Y-53578285D01*
X61674380Y-53578285D01*
X61674380Y-53102095D01*
X62626761Y-52721142D02*
X62674380Y-52578285D01*
X62674380Y-52340190D01*
X62626761Y-52244952D01*
X62579142Y-52197333D01*
X62483904Y-52149714D01*
X62388666Y-52149714D01*
X62293428Y-52197333D01*
X62245809Y-52244952D01*
X62198190Y-52340190D01*
X62150571Y-52530666D01*
X62102952Y-52625904D01*
X62055333Y-52673523D01*
X61960095Y-52721142D01*
X61864857Y-52721142D01*
X61769619Y-52673523D01*
X61722000Y-52625904D01*
X61674380Y-52530666D01*
X61674380Y-52292571D01*
X61722000Y-52149714D01*
X62674380Y-51721142D02*
X61674380Y-51721142D01*
X61674380Y-51340190D01*
X61722000Y-51244952D01*
X61769619Y-51197333D01*
X61864857Y-51149714D01*
X62007714Y-51149714D01*
X62102952Y-51197333D01*
X62150571Y-51244952D01*
X62198190Y-51340190D01*
X62198190Y-51721142D01*
X62293428Y-50721142D02*
X62293428Y-49959238D01*
X62674380Y-48959238D02*
X62674380Y-49530666D01*
X62674380Y-49244952D02*
X61674380Y-49244952D01*
X61817238Y-49340190D01*
X61912476Y-49435428D01*
X61960095Y-49530666D01*
X61769619Y-48578285D02*
X61722000Y-48530666D01*
X61674380Y-48435428D01*
X61674380Y-48197333D01*
X61722000Y-48102095D01*
X61769619Y-48054476D01*
X61864857Y-48006857D01*
X61960095Y-48006857D01*
X62102952Y-48054476D01*
X62674380Y-48625904D01*
X62674380Y-48006857D01*
X62150571Y-47578285D02*
X62150571Y-47244952D01*
X62674380Y-47102095D02*
X62674380Y-47578285D01*
X61674380Y-47578285D01*
X61674380Y-47102095D01*
X46477180Y-75477595D02*
X45477180Y-75477595D01*
X45477180Y-75096642D01*
X45524800Y-75001404D01*
X45572419Y-74953785D01*
X45667657Y-74906166D01*
X45810514Y-74906166D01*
X45905752Y-74953785D01*
X45953371Y-75001404D01*
X46000990Y-75096642D01*
X46000990Y-75477595D01*
X45572419Y-74525214D02*
X45524800Y-74477595D01*
X45477180Y-74382357D01*
X45477180Y-74144261D01*
X45524800Y-74049023D01*
X45572419Y-74001404D01*
X45667657Y-73953785D01*
X45762895Y-73953785D01*
X45905752Y-74001404D01*
X46477180Y-74572833D01*
X46477180Y-73953785D01*
X60772380Y-71971904D02*
X61581904Y-71971904D01*
X61677142Y-71924285D01*
X61724761Y-71876666D01*
X61772380Y-71781428D01*
X61772380Y-71590952D01*
X61724761Y-71495714D01*
X61677142Y-71448095D01*
X61581904Y-71400476D01*
X60772380Y-71400476D01*
X60867619Y-70971904D02*
X60820000Y-70924285D01*
X60772380Y-70829047D01*
X60772380Y-70590952D01*
X60820000Y-70495714D01*
X60867619Y-70448095D01*
X60962857Y-70400476D01*
X61058095Y-70400476D01*
X61200952Y-70448095D01*
X61772380Y-71019523D01*
X61772380Y-70400476D01*
X55742380Y-62745714D02*
X54742380Y-62745714D01*
X55742380Y-62174285D01*
X54742380Y-62174285D01*
X55647142Y-61126666D02*
X55694761Y-61174285D01*
X55742380Y-61317142D01*
X55742380Y-61412380D01*
X55694761Y-61555238D01*
X55599523Y-61650476D01*
X55504285Y-61698095D01*
X55313809Y-61745714D01*
X55170952Y-61745714D01*
X54980476Y-61698095D01*
X54885238Y-61650476D01*
X54790000Y-61555238D01*
X54742380Y-61412380D01*
X54742380Y-61317142D01*
X54790000Y-61174285D01*
X54837619Y-61126666D01*
X67742380Y-62769523D02*
X66742380Y-62769523D01*
X67742380Y-62198095D01*
X66742380Y-62198095D01*
X66742380Y-61531428D02*
X66742380Y-61340952D01*
X66790000Y-61245714D01*
X66885238Y-61150476D01*
X67075714Y-61102857D01*
X67409047Y-61102857D01*
X67599523Y-61150476D01*
X67694761Y-61245714D01*
X67742380Y-61340952D01*
X67742380Y-61531428D01*
X67694761Y-61626666D01*
X67599523Y-61721904D01*
X67409047Y-61769523D01*
X67075714Y-61769523D01*
X66885238Y-61721904D01*
X66790000Y-61626666D01*
X66742380Y-61531428D01*
X61647142Y-76845714D02*
X61694761Y-76893333D01*
X61742380Y-77036190D01*
X61742380Y-77131428D01*
X61694761Y-77274285D01*
X61599523Y-77369523D01*
X61504285Y-77417142D01*
X61313809Y-77464761D01*
X61170952Y-77464761D01*
X60980476Y-77417142D01*
X60885238Y-77369523D01*
X60790000Y-77274285D01*
X60742380Y-77131428D01*
X60742380Y-77036190D01*
X60790000Y-76893333D01*
X60837619Y-76845714D01*
X60742380Y-76226666D02*
X60742380Y-76036190D01*
X60790000Y-75940952D01*
X60885238Y-75845714D01*
X61075714Y-75798095D01*
X61409047Y-75798095D01*
X61599523Y-75845714D01*
X61694761Y-75940952D01*
X61742380Y-76036190D01*
X61742380Y-76226666D01*
X61694761Y-76321904D01*
X61599523Y-76417142D01*
X61409047Y-76464761D01*
X61075714Y-76464761D01*
X60885238Y-76417142D01*
X60790000Y-76321904D01*
X60742380Y-76226666D01*
X61742380Y-75369523D02*
X60742380Y-75369523D01*
X61456666Y-75036190D01*
X60742380Y-74702857D01*
X61742380Y-74702857D01*
X72527142Y-69736666D02*
X72574761Y-69784285D01*
X72622380Y-69927142D01*
X72622380Y-70022380D01*
X72574761Y-70165238D01*
X72479523Y-70260476D01*
X72384285Y-70308095D01*
X72193809Y-70355714D01*
X72050952Y-70355714D01*
X71860476Y-70308095D01*
X71765238Y-70260476D01*
X71670000Y-70165238D01*
X71622380Y-70022380D01*
X71622380Y-69927142D01*
X71670000Y-69784285D01*
X71717619Y-69736666D01*
X71717619Y-69355714D02*
X71670000Y-69308095D01*
X71622380Y-69212857D01*
X71622380Y-68974761D01*
X71670000Y-68879523D01*
X71717619Y-68831904D01*
X71812857Y-68784285D01*
X71908095Y-68784285D01*
X72050952Y-68831904D01*
X72622380Y-69403333D01*
X72622380Y-68784285D01*
X72547142Y-73664166D02*
X72594761Y-73711785D01*
X72642380Y-73854642D01*
X72642380Y-73949880D01*
X72594761Y-74092738D01*
X72499523Y-74187976D01*
X72404285Y-74235595D01*
X72213809Y-74283214D01*
X72070952Y-74283214D01*
X71880476Y-74235595D01*
X71785238Y-74187976D01*
X71690000Y-74092738D01*
X71642380Y-73949880D01*
X71642380Y-73854642D01*
X71690000Y-73711785D01*
X71737619Y-73664166D01*
X72642380Y-72711785D02*
X72642380Y-73283214D01*
X72642380Y-72997500D02*
X71642380Y-72997500D01*
X71785238Y-73092738D01*
X71880476Y-73187976D01*
X71928095Y-73283214D01*
X75372380Y-67721904D02*
X76181904Y-67721904D01*
X76277142Y-67674285D01*
X76324761Y-67626666D01*
X76372380Y-67531428D01*
X76372380Y-67340952D01*
X76324761Y-67245714D01*
X76277142Y-67198095D01*
X76181904Y-67150476D01*
X75372380Y-67150476D01*
X75705714Y-66245714D02*
X76372380Y-66245714D01*
X75324761Y-66483809D02*
X76039047Y-66721904D01*
X76039047Y-66102857D01*
X81282380Y-76601904D02*
X82091904Y-76601904D01*
X82187142Y-76554285D01*
X82234761Y-76506666D01*
X82282380Y-76411428D01*
X82282380Y-76220952D01*
X82234761Y-76125714D01*
X82187142Y-76078095D01*
X82091904Y-76030476D01*
X81282380Y-76030476D01*
X82282380Y-75030476D02*
X82282380Y-75601904D01*
X82282380Y-75316190D02*
X81282380Y-75316190D01*
X81425238Y-75411428D01*
X81520476Y-75506666D01*
X81568095Y-75601904D01*
X83679695Y-56910514D02*
X83292647Y-57181447D01*
X83679695Y-57374971D02*
X82866895Y-57374971D01*
X82866895Y-57065333D01*
X82905600Y-56987923D01*
X82944304Y-56949219D01*
X83021714Y-56910514D01*
X83137828Y-56910514D01*
X83215238Y-56949219D01*
X83253942Y-56987923D01*
X83292647Y-57065333D01*
X83292647Y-57374971D01*
X83679695Y-56136419D02*
X83679695Y-56600876D01*
X83679695Y-56368647D02*
X82866895Y-56368647D01*
X82983009Y-56446057D01*
X83060419Y-56523466D01*
X83099123Y-56600876D01*
X82866895Y-55865485D02*
X82866895Y-55362323D01*
X83176533Y-55633257D01*
X83176533Y-55517142D01*
X83215238Y-55439733D01*
X83253942Y-55401028D01*
X83331352Y-55362323D01*
X83524876Y-55362323D01*
X83602285Y-55401028D01*
X83640990Y-55439733D01*
X83679695Y-55517142D01*
X83679695Y-55749371D01*
X83640990Y-55826780D01*
X83602285Y-55865485D01*
X85584695Y-56910514D02*
X85197647Y-57181447D01*
X85584695Y-57374971D02*
X84771895Y-57374971D01*
X84771895Y-57065333D01*
X84810600Y-56987923D01*
X84849304Y-56949219D01*
X84926714Y-56910514D01*
X85042828Y-56910514D01*
X85120238Y-56949219D01*
X85158942Y-56987923D01*
X85197647Y-57065333D01*
X85197647Y-57374971D01*
X85584695Y-56136419D02*
X85584695Y-56600876D01*
X85584695Y-56368647D02*
X84771895Y-56368647D01*
X84888009Y-56446057D01*
X84965419Y-56523466D01*
X85004123Y-56600876D01*
X84849304Y-55826780D02*
X84810600Y-55788076D01*
X84771895Y-55710666D01*
X84771895Y-55517142D01*
X84810600Y-55439733D01*
X84849304Y-55401028D01*
X84926714Y-55362323D01*
X85004123Y-55362323D01*
X85120238Y-55401028D01*
X85584695Y-55865485D01*
X85584695Y-55362323D01*
X74916695Y-53481514D02*
X74529647Y-53752447D01*
X74916695Y-53945971D02*
X74103895Y-53945971D01*
X74103895Y-53636333D01*
X74142600Y-53558923D01*
X74181304Y-53520219D01*
X74258714Y-53481514D01*
X74374828Y-53481514D01*
X74452238Y-53520219D01*
X74490942Y-53558923D01*
X74529647Y-53636333D01*
X74529647Y-53945971D01*
X74916695Y-52707419D02*
X74916695Y-53171876D01*
X74916695Y-52939647D02*
X74103895Y-52939647D01*
X74220009Y-53017057D01*
X74297419Y-53094466D01*
X74336123Y-53171876D01*
X74916695Y-51933323D02*
X74916695Y-52397780D01*
X74916695Y-52165552D02*
X74103895Y-52165552D01*
X74220009Y-52242961D01*
X74297419Y-52320371D01*
X74336123Y-52397780D01*
X75932695Y-56910514D02*
X75545647Y-57181447D01*
X75932695Y-57374971D02*
X75119895Y-57374971D01*
X75119895Y-57065333D01*
X75158600Y-56987923D01*
X75197304Y-56949219D01*
X75274714Y-56910514D01*
X75390828Y-56910514D01*
X75468238Y-56949219D01*
X75506942Y-56987923D01*
X75545647Y-57065333D01*
X75545647Y-57374971D01*
X75932695Y-56136419D02*
X75932695Y-56600876D01*
X75932695Y-56368647D02*
X75119895Y-56368647D01*
X75236009Y-56446057D01*
X75313419Y-56523466D01*
X75352123Y-56600876D01*
X75119895Y-55633257D02*
X75119895Y-55555847D01*
X75158600Y-55478438D01*
X75197304Y-55439733D01*
X75274714Y-55401028D01*
X75429533Y-55362323D01*
X75623057Y-55362323D01*
X75777876Y-55401028D01*
X75855285Y-55439733D01*
X75893990Y-55478438D01*
X75932695Y-55555847D01*
X75932695Y-55633257D01*
X75893990Y-55710666D01*
X75855285Y-55749371D01*
X75777876Y-55788076D01*
X75623057Y-55826780D01*
X75429533Y-55826780D01*
X75274714Y-55788076D01*
X75197304Y-55749371D01*
X75158600Y-55710666D01*
X75119895Y-55633257D01*
X76821695Y-52713466D02*
X76434647Y-52984400D01*
X76821695Y-53177923D02*
X76008895Y-53177923D01*
X76008895Y-52868285D01*
X76047600Y-52790876D01*
X76086304Y-52752171D01*
X76163714Y-52713466D01*
X76279828Y-52713466D01*
X76357238Y-52752171D01*
X76395942Y-52790876D01*
X76434647Y-52868285D01*
X76434647Y-53177923D01*
X76821695Y-52326419D02*
X76821695Y-52171600D01*
X76782990Y-52094190D01*
X76744285Y-52055485D01*
X76628171Y-51978076D01*
X76473352Y-51939371D01*
X76163714Y-51939371D01*
X76086304Y-51978076D01*
X76047600Y-52016780D01*
X76008895Y-52094190D01*
X76008895Y-52249009D01*
X76047600Y-52326419D01*
X76086304Y-52365123D01*
X76163714Y-52403828D01*
X76357238Y-52403828D01*
X76434647Y-52365123D01*
X76473352Y-52326419D01*
X76512057Y-52249009D01*
X76512057Y-52094190D01*
X76473352Y-52016780D01*
X76434647Y-51978076D01*
X76357238Y-51939371D01*
X77837695Y-56904466D02*
X77450647Y-57175400D01*
X77837695Y-57368923D02*
X77024895Y-57368923D01*
X77024895Y-57059285D01*
X77063600Y-56981876D01*
X77102304Y-56943171D01*
X77179714Y-56904466D01*
X77295828Y-56904466D01*
X77373238Y-56943171D01*
X77411942Y-56981876D01*
X77450647Y-57059285D01*
X77450647Y-57368923D01*
X77373238Y-56440009D02*
X77334533Y-56517419D01*
X77295828Y-56556123D01*
X77218419Y-56594828D01*
X77179714Y-56594828D01*
X77102304Y-56556123D01*
X77063600Y-56517419D01*
X77024895Y-56440009D01*
X77024895Y-56285190D01*
X77063600Y-56207780D01*
X77102304Y-56169076D01*
X77179714Y-56130371D01*
X77218419Y-56130371D01*
X77295828Y-56169076D01*
X77334533Y-56207780D01*
X77373238Y-56285190D01*
X77373238Y-56440009D01*
X77411942Y-56517419D01*
X77450647Y-56556123D01*
X77528057Y-56594828D01*
X77682876Y-56594828D01*
X77760285Y-56556123D01*
X77798990Y-56517419D01*
X77837695Y-56440009D01*
X77837695Y-56285190D01*
X77798990Y-56207780D01*
X77760285Y-56169076D01*
X77682876Y-56130371D01*
X77528057Y-56130371D01*
X77450647Y-56169076D01*
X77411942Y-56207780D01*
X77373238Y-56285190D01*
X79742695Y-56904466D02*
X79355647Y-57175400D01*
X79742695Y-57368923D02*
X78929895Y-57368923D01*
X78929895Y-57059285D01*
X78968600Y-56981876D01*
X79007304Y-56943171D01*
X79084714Y-56904466D01*
X79200828Y-56904466D01*
X79278238Y-56943171D01*
X79316942Y-56981876D01*
X79355647Y-57059285D01*
X79355647Y-57368923D01*
X78929895Y-56633533D02*
X78929895Y-56091666D01*
X79742695Y-56440009D01*
X81647695Y-56904466D02*
X81260647Y-57175400D01*
X81647695Y-57368923D02*
X80834895Y-57368923D01*
X80834895Y-57059285D01*
X80873600Y-56981876D01*
X80912304Y-56943171D01*
X80989714Y-56904466D01*
X81105828Y-56904466D01*
X81183238Y-56943171D01*
X81221942Y-56981876D01*
X81260647Y-57059285D01*
X81260647Y-57368923D01*
X80834895Y-56207780D02*
X80834895Y-56362600D01*
X80873600Y-56440009D01*
X80912304Y-56478714D01*
X81028419Y-56556123D01*
X81183238Y-56594828D01*
X81492876Y-56594828D01*
X81570285Y-56556123D01*
X81608990Y-56517419D01*
X81647695Y-56440009D01*
X81647695Y-56285190D01*
X81608990Y-56207780D01*
X81570285Y-56169076D01*
X81492876Y-56130371D01*
X81299352Y-56130371D01*
X81221942Y-56169076D01*
X81183238Y-56207780D01*
X81144533Y-56285190D01*
X81144533Y-56440009D01*
X81183238Y-56517419D01*
X81221942Y-56556123D01*
X81299352Y-56594828D01*
X78726695Y-52713466D02*
X78339647Y-52984400D01*
X78726695Y-53177923D02*
X77913895Y-53177923D01*
X77913895Y-52868285D01*
X77952600Y-52790876D01*
X77991304Y-52752171D01*
X78068714Y-52713466D01*
X78184828Y-52713466D01*
X78262238Y-52752171D01*
X78300942Y-52790876D01*
X78339647Y-52868285D01*
X78339647Y-53177923D01*
X78726695Y-51939371D02*
X78726695Y-52403828D01*
X78726695Y-52171600D02*
X77913895Y-52171600D01*
X78030009Y-52249009D01*
X78107419Y-52326419D01*
X78146123Y-52403828D01*
X72961904Y-81392380D02*
X72961904Y-80392380D01*
X73200000Y-80392380D01*
X73342857Y-80440000D01*
X73438095Y-80535238D01*
X73485714Y-80630476D01*
X73533333Y-80820952D01*
X73533333Y-80963809D01*
X73485714Y-81154285D01*
X73438095Y-81249523D01*
X73342857Y-81344761D01*
X73200000Y-81392380D01*
X72961904Y-81392380D01*
X73914285Y-80487619D02*
X73961904Y-80440000D01*
X74057142Y-80392380D01*
X74295238Y-80392380D01*
X74390476Y-80440000D01*
X74438095Y-80487619D01*
X74485714Y-80582857D01*
X74485714Y-80678095D01*
X74438095Y-80820952D01*
X73866666Y-81392380D01*
X74485714Y-81392380D01*
X61642380Y-86458095D02*
X60642380Y-86458095D01*
X60642380Y-86220000D01*
X60690000Y-86077142D01*
X60785238Y-85981904D01*
X60880476Y-85934285D01*
X61070952Y-85886666D01*
X61213809Y-85886666D01*
X61404285Y-85934285D01*
X61499523Y-85981904D01*
X61594761Y-86077142D01*
X61642380Y-86220000D01*
X61642380Y-86458095D01*
X61642380Y-84934285D02*
X61642380Y-85505714D01*
X61642380Y-85220000D02*
X60642380Y-85220000D01*
X60785238Y-85315238D01*
X60880476Y-85410476D01*
X60928095Y-85505714D01*
X72934285Y-52840466D02*
X72972990Y-52879171D01*
X73011695Y-52995285D01*
X73011695Y-53072695D01*
X72972990Y-53188809D01*
X72895580Y-53266219D01*
X72818171Y-53304923D01*
X72663352Y-53343628D01*
X72547238Y-53343628D01*
X72392419Y-53304923D01*
X72315009Y-53266219D01*
X72237600Y-53188809D01*
X72198895Y-53072695D01*
X72198895Y-52995285D01*
X72237600Y-52879171D01*
X72276304Y-52840466D01*
X72469828Y-52143780D02*
X73011695Y-52143780D01*
X72160190Y-52337304D02*
X72740761Y-52530828D01*
X72740761Y-52027666D01*
X81677142Y-67146666D02*
X81724761Y-67194285D01*
X81772380Y-67337142D01*
X81772380Y-67432380D01*
X81724761Y-67575238D01*
X81629523Y-67670476D01*
X81534285Y-67718095D01*
X81343809Y-67765714D01*
X81200952Y-67765714D01*
X81010476Y-67718095D01*
X80915238Y-67670476D01*
X80820000Y-67575238D01*
X80772380Y-67432380D01*
X80772380Y-67337142D01*
X80820000Y-67194285D01*
X80867619Y-67146666D01*
X80772380Y-66813333D02*
X80772380Y-66194285D01*
X81153333Y-66527619D01*
X81153333Y-66384761D01*
X81200952Y-66289523D01*
X81248571Y-66241904D01*
X81343809Y-66194285D01*
X81581904Y-66194285D01*
X81677142Y-66241904D01*
X81724761Y-66289523D01*
X81772380Y-66384761D01*
X81772380Y-66670476D01*
X81724761Y-66765714D01*
X81677142Y-66813333D01*
X88844380Y-61063095D02*
X87844380Y-61063095D01*
X87844380Y-60682142D01*
X87892000Y-60586904D01*
X87939619Y-60539285D01*
X88034857Y-60491666D01*
X88177714Y-60491666D01*
X88272952Y-60539285D01*
X88320571Y-60586904D01*
X88368190Y-60682142D01*
X88368190Y-61063095D01*
X87844380Y-60158333D02*
X87844380Y-59539285D01*
X88225333Y-59872619D01*
X88225333Y-59729761D01*
X88272952Y-59634523D01*
X88320571Y-59586904D01*
X88415809Y-59539285D01*
X88653904Y-59539285D01*
X88749142Y-59586904D01*
X88796761Y-59634523D01*
X88844380Y-59729761D01*
X88844380Y-60015476D01*
X88796761Y-60110714D01*
X88749142Y-60158333D01*
X86414895Y-50279333D02*
X86995466Y-50279333D01*
X87111580Y-50318038D01*
X87188990Y-50395447D01*
X87227695Y-50511561D01*
X87227695Y-50588971D01*
X87227695Y-49892285D02*
X86414895Y-49892285D01*
X86414895Y-49582647D01*
X86453600Y-49505238D01*
X86492304Y-49466533D01*
X86569714Y-49427828D01*
X86685828Y-49427828D01*
X86763238Y-49466533D01*
X86801942Y-49505238D01*
X86840647Y-49582647D01*
X86840647Y-49892285D01*
X86492304Y-49118190D02*
X86453600Y-49079485D01*
X86414895Y-49002076D01*
X86414895Y-48808552D01*
X86453600Y-48731142D01*
X86492304Y-48692438D01*
X86569714Y-48653733D01*
X86647123Y-48653733D01*
X86763238Y-48692438D01*
X87227695Y-49156895D01*
X87227695Y-48653733D01*
X79964642Y-50709285D02*
X80003347Y-50593171D01*
X80042052Y-50554466D01*
X80119461Y-50515761D01*
X80235576Y-50515761D01*
X80312985Y-50554466D01*
X80351690Y-50593171D01*
X80390395Y-50670580D01*
X80390395Y-50980219D01*
X79577595Y-50980219D01*
X79577595Y-50709285D01*
X79616300Y-50631876D01*
X79655004Y-50593171D01*
X79732414Y-50554466D01*
X79809823Y-50554466D01*
X79887233Y-50593171D01*
X79925938Y-50631876D01*
X79964642Y-50709285D01*
X79964642Y-50980219D01*
X79577595Y-50012600D02*
X79577595Y-49857780D01*
X79616300Y-49780371D01*
X79693709Y-49702961D01*
X79848528Y-49664257D01*
X80119461Y-49664257D01*
X80274280Y-49702961D01*
X80351690Y-49780371D01*
X80390395Y-49857780D01*
X80390395Y-50012600D01*
X80351690Y-50090009D01*
X80274280Y-50167419D01*
X80119461Y-50206123D01*
X79848528Y-50206123D01*
X79693709Y-50167419D01*
X79616300Y-50090009D01*
X79577595Y-50012600D01*
X79577595Y-49161095D02*
X79577595Y-49006276D01*
X79616300Y-48928866D01*
X79693709Y-48851457D01*
X79848528Y-48812752D01*
X80119461Y-48812752D01*
X80274280Y-48851457D01*
X80351690Y-48928866D01*
X80390395Y-49006276D01*
X80390395Y-49161095D01*
X80351690Y-49238504D01*
X80274280Y-49315914D01*
X80119461Y-49354619D01*
X79848528Y-49354619D01*
X79693709Y-49315914D01*
X79616300Y-49238504D01*
X79577595Y-49161095D01*
X79577595Y-48580523D02*
X79577595Y-48116066D01*
X80390395Y-48348295D02*
X79577595Y-48348295D01*
X86943595Y-63172823D02*
X86130795Y-63172823D01*
X86130795Y-62863185D01*
X86169500Y-62785776D01*
X86208204Y-62747071D01*
X86285614Y-62708366D01*
X86401728Y-62708366D01*
X86479138Y-62747071D01*
X86517842Y-62785776D01*
X86556547Y-62863185D01*
X86556547Y-63172823D01*
X86401728Y-62011680D02*
X86943595Y-62011680D01*
X86092090Y-62205204D02*
X86672661Y-62398728D01*
X86672661Y-61895566D01*
X70707552Y-64965942D02*
X70436619Y-64965942D01*
X70436619Y-65391695D02*
X70436619Y-64578895D01*
X70823666Y-64578895D01*
X71017190Y-64578895D02*
X71481647Y-64578895D01*
X71249419Y-65391695D02*
X71249419Y-64578895D01*
X71752580Y-65391695D02*
X71752580Y-64578895D01*
X71946104Y-64578895D01*
X72062219Y-64617600D01*
X72139628Y-64695009D01*
X72178333Y-64772419D01*
X72217038Y-64927238D01*
X72217038Y-65043352D01*
X72178333Y-65198171D01*
X72139628Y-65275580D01*
X72062219Y-65352990D01*
X71946104Y-65391695D01*
X71752580Y-65391695D01*
X72565380Y-65391695D02*
X72565380Y-64578895D01*
X74600266Y-44342990D02*
X74716380Y-44381695D01*
X74909904Y-44381695D01*
X74987314Y-44342990D01*
X75026019Y-44304285D01*
X75064723Y-44226876D01*
X75064723Y-44149466D01*
X75026019Y-44072057D01*
X74987314Y-44033352D01*
X74909904Y-43994647D01*
X74755085Y-43955942D01*
X74677676Y-43917238D01*
X74638971Y-43878533D01*
X74600266Y-43801123D01*
X74600266Y-43723714D01*
X74638971Y-43646304D01*
X74677676Y-43607600D01*
X74755085Y-43568895D01*
X74948609Y-43568895D01*
X75064723Y-43607600D01*
X75335657Y-43568895D02*
X75529180Y-44381695D01*
X75684000Y-43801123D01*
X75838819Y-44381695D01*
X76032342Y-43568895D01*
X76767733Y-44381695D02*
X76303276Y-44381695D01*
X76535504Y-44381695D02*
X76535504Y-43568895D01*
X76458095Y-43685009D01*
X76380685Y-43762419D01*
X76303276Y-43801123D01*
X72503695Y-45224095D02*
X72116647Y-45495028D01*
X72503695Y-45688552D02*
X71690895Y-45688552D01*
X71690895Y-45378914D01*
X71729600Y-45301504D01*
X71768304Y-45262800D01*
X71845714Y-45224095D01*
X71961828Y-45224095D01*
X72039238Y-45262800D01*
X72077942Y-45301504D01*
X72116647Y-45378914D01*
X72116647Y-45688552D01*
X72077942Y-44875752D02*
X72077942Y-44604819D01*
X72503695Y-44488704D02*
X72503695Y-44875752D01*
X71690895Y-44875752D01*
X71690895Y-44488704D01*
X72464990Y-44179066D02*
X72503695Y-44062952D01*
X72503695Y-43869428D01*
X72464990Y-43792019D01*
X72426285Y-43753314D01*
X72348876Y-43714609D01*
X72271466Y-43714609D01*
X72194057Y-43753314D01*
X72155352Y-43792019D01*
X72116647Y-43869428D01*
X72077942Y-44024247D01*
X72039238Y-44101657D01*
X72000533Y-44140361D01*
X71923123Y-44179066D01*
X71845714Y-44179066D01*
X71768304Y-44140361D01*
X71729600Y-44101657D01*
X71690895Y-44024247D01*
X71690895Y-43830723D01*
X71729600Y-43714609D01*
X72077942Y-43366266D02*
X72077942Y-43095333D01*
X72503695Y-42979219D02*
X72503695Y-43366266D01*
X71690895Y-43366266D01*
X71690895Y-42979219D01*
X71690895Y-42746990D02*
X71690895Y-42282533D01*
X72503695Y-42514761D02*
X71690895Y-42514761D01*
X73015104Y-56337409D02*
X72976400Y-56414819D01*
X72898990Y-56492228D01*
X72782876Y-56608342D01*
X72744171Y-56685752D01*
X72744171Y-56763161D01*
X72937695Y-56724457D02*
X72898990Y-56801866D01*
X72821580Y-56879276D01*
X72666761Y-56917980D01*
X72395828Y-56917980D01*
X72241009Y-56879276D01*
X72163600Y-56801866D01*
X72124895Y-56724457D01*
X72124895Y-56569638D01*
X72163600Y-56492228D01*
X72241009Y-56414819D01*
X72395828Y-56376114D01*
X72666761Y-56376114D01*
X72821580Y-56414819D01*
X72898990Y-56492228D01*
X72937695Y-56569638D01*
X72937695Y-56724457D01*
X72937695Y-55602019D02*
X72937695Y-56066476D01*
X72937695Y-55834247D02*
X72124895Y-55834247D01*
X72241009Y-55911657D01*
X72318419Y-55989066D01*
X72357123Y-56066476D01*
X83455104Y-53557409D02*
X83416400Y-53634819D01*
X83338990Y-53712228D01*
X83222876Y-53828342D01*
X83184171Y-53905752D01*
X83184171Y-53983161D01*
X83377695Y-53944457D02*
X83338990Y-54021866D01*
X83261580Y-54099276D01*
X83106761Y-54137980D01*
X82835828Y-54137980D01*
X82681009Y-54099276D01*
X82603600Y-54021866D01*
X82564895Y-53944457D01*
X82564895Y-53789638D01*
X82603600Y-53712228D01*
X82681009Y-53634819D01*
X82835828Y-53596114D01*
X83106761Y-53596114D01*
X83261580Y-53634819D01*
X83338990Y-53712228D01*
X83377695Y-53789638D01*
X83377695Y-53944457D01*
X82642304Y-53286476D02*
X82603600Y-53247771D01*
X82564895Y-53170361D01*
X82564895Y-52976838D01*
X82603600Y-52899428D01*
X82642304Y-52860723D01*
X82719714Y-52822019D01*
X82797123Y-52822019D01*
X82913238Y-52860723D01*
X83377695Y-53325180D01*
X83377695Y-52822019D01*
X75822204Y-83722080D02*
X75822204Y-82722080D01*
X76203157Y-82722080D01*
X76298395Y-82769700D01*
X76346014Y-82817319D01*
X76393633Y-82912557D01*
X76393633Y-83055414D01*
X76346014Y-83150652D01*
X76298395Y-83198271D01*
X76203157Y-83245890D01*
X75822204Y-83245890D01*
X77346014Y-83722080D02*
X76774585Y-83722080D01*
X77060300Y-83722080D02*
X77060300Y-82722080D01*
X76965061Y-82864938D01*
X76869823Y-82960176D01*
X76774585Y-83007795D01*
M02*
