M48
;DRILL file {KiCad 0.201506192325+5795~23~ubuntu14.04.1-product} date Tue 18 Aug 2015 21:28:03 BST
;FORMAT={-:-/ absolute / metric / decimal}
FMAT,2
METRIC,TZ
T1C0.305
T2C1.000
T3C1.016
T4C1.300
T5C3.100
%
G90
G05
M71
T1
X52.324Y-82.296
X53.975Y-60.706
X53.992Y-44.459
X55.034Y-47.075
X55.88Y-55.372
X56.388Y-49.149
X58.039Y-45.339
X58.039Y-55.118
X59.309Y-60.579
X59.944Y-48.768
X60.833Y-46.355
X61.976Y-51.435
X64.008Y-52.197
X66.04Y-49.149
X66.04Y-52.578
X67.183Y-51.435
X69.723Y-42.293
X70.739Y-58.039
X70.866Y-42.293
X72.909Y-81.393
X73.042Y-74.672
X74.215Y-76.333
X74.215Y-77.476
X75.692Y-45.085
X76.708Y-61.341
X79.883Y-51.054
X80.01Y-56.896
X83.459Y-83.124
X83.877Y-74.301
X84.578Y-67.789
X84.739Y-83.124
X85.198Y-74.301
X85.217Y-78.867
X85.217Y-79.883
X86.004Y-83.124
X86.86Y-54.682
X89.654Y-54.682
X89.662Y-56.515
T2
X55.264Y-77.044
X67.264Y-77.044
T3
X62.357Y-82.804
X62.357Y-85.344
X62.357Y-87.884
X72.136Y-63.881
X74.676Y-63.881
X77.216Y-63.881
X79.756Y-63.881
X82.296Y-49.657
X82.296Y-63.881
X84.836Y-49.657
X84.836Y-63.881
T4
X48.057Y-62.012
X48.057Y-67.092
X48.057Y-72.172
X48.057Y-77.252
X48.057Y-82.332
X48.057Y-87.412
X55.214Y-64.794
X61.214Y-78.994
X67.005Y-86.906
X67.264Y-64.844
X72.085Y-86.906
X77.165Y-86.906
X82.245Y-86.906
X87.325Y-86.906
X92.011Y-42.545
X92.011Y-47.625
X92.011Y-52.705
X92.011Y-57.785
X92.011Y-62.865
X92.011Y-67.945
X92.011Y-73.025
X92.011Y-78.105
X92.405Y-86.906
T5
X56.388Y-86.106
X83.693Y-43.815
T0
M30
