G04 #@! TF.FileFunction,Copper,L2,Bot,Signal*
%FSLAX46Y46*%
G04 Gerber Fmt 4.6, Leading zero omitted, Abs format (unit mm)*
G04 Created by KiCad (PCBNEW 0.201506192325+5795~23~ubuntu14.04.1-product) date Sat 22 Aug 2015 00:19:35 BST*
%MOMM*%
G01*
G04 APERTURE LIST*
%ADD10C,0.100000*%
%ADD11R,3.000000X3.000000*%
%ADD12C,3.000000*%
%ADD13C,2.500000*%
%ADD14R,2.032000X2.032000*%
%ADD15O,2.032000X2.032000*%
%ADD16R,1.727200X2.032000*%
%ADD17O,1.727200X2.032000*%
%ADD18R,2.032000X1.727200*%
%ADD19O,2.032000X1.727200*%
%ADD20C,0.609600*%
%ADD21C,0.254000*%
%ADD22C,0.800000*%
G04 APERTURE END LIST*
D10*
D11*
X92011500Y-78105000D03*
D12*
X92011500Y-73025000D03*
X92011500Y-67945000D03*
X92011500Y-62865000D03*
X92011500Y-57785000D03*
X92011500Y-52705000D03*
X92011500Y-47625000D03*
X92011500Y-42545000D03*
D13*
X67264000Y-77044000D03*
D12*
X67264000Y-64844000D03*
X55214000Y-64794000D03*
D13*
X55264000Y-77044000D03*
D12*
X61214000Y-78994000D03*
D14*
X82296000Y-49657000D03*
D15*
X84836000Y-49657000D03*
D11*
X48056800Y-62011560D03*
D12*
X48056800Y-67091560D03*
X48056800Y-72171560D03*
X48056800Y-77251560D03*
X48056800Y-82331560D03*
X48056800Y-87411560D03*
D16*
X72136000Y-63881000D03*
D17*
X74676000Y-63881000D03*
X77216000Y-63881000D03*
X79756000Y-63881000D03*
X82296000Y-63881000D03*
X84836000Y-63881000D03*
D18*
X63987300Y-83041100D03*
D19*
X63987300Y-85581100D03*
X63987300Y-88121100D03*
D11*
X68927600Y-86978100D03*
D12*
X74007600Y-86978100D03*
X79087600Y-86978100D03*
X84167600Y-86978100D03*
D20*
X54144800Y-81301200D03*
X59275600Y-81275800D03*
X85217000Y-78867000D03*
X74214990Y-76333350D03*
X69723000Y-42293000D03*
X70866000Y-42293000D03*
X83459320Y-83124040D03*
X86004400Y-83124040D03*
X84739480Y-83124040D03*
X85197950Y-74301350D03*
X83877150Y-74301350D03*
X85217000Y-79883000D03*
X73041510Y-74672190D03*
X74214990Y-77476350D03*
X72909430Y-81393030D03*
X84578190Y-67788790D03*
X61968000Y-46731800D03*
X57980200Y-46300000D03*
X62933200Y-52040400D03*
X56659400Y-49170200D03*
X57954800Y-50465600D03*
X75023600Y-52700800D03*
X63060200Y-50364000D03*
X87545800Y-53488200D03*
X79875000Y-50059200D03*
X54906800Y-45106200D03*
X55033800Y-47074700D03*
X73601200Y-57069600D03*
X67022600Y-56536200D03*
X80010000Y-56896000D03*
X58039000Y-55118000D03*
X55880000Y-55372000D03*
X76708000Y-61341000D03*
X60833000Y-46355000D03*
X75692000Y-45085000D03*
X87291800Y-63165600D03*
X65143000Y-54072400D03*
X87317200Y-59025400D03*
X65066800Y-52802400D03*
X64000000Y-49271800D03*
X87012400Y-56891800D03*
D21*
X92011500Y-78105000D02*
X89370400Y-78105000D01*
X87469600Y-83676100D02*
X84167600Y-86978100D01*
X87469600Y-80005800D02*
X87469600Y-83676100D01*
X89370400Y-78105000D02*
X87469600Y-80005800D01*
X74007600Y-86978100D02*
X71327900Y-84298400D01*
X53114440Y-82331560D02*
X48056800Y-82331560D01*
X54144800Y-81301200D02*
X53114440Y-82331560D01*
X62298200Y-84298400D02*
X59275600Y-81275800D01*
X71327900Y-84298400D02*
X62298200Y-84298400D01*
D22*
X81284700Y-84095200D02*
X82488160Y-84095200D01*
X82488160Y-84095200D02*
X83459320Y-83124040D01*
X74007600Y-86978100D02*
X76890500Y-84095200D01*
X81284700Y-84095200D02*
X84167600Y-86978100D01*
X76890500Y-84095200D02*
X81284700Y-84095200D01*
D21*
X48056800Y-62011560D02*
X50510440Y-62011560D01*
X54100000Y-42293000D02*
X69723000Y-42293000D01*
X52959000Y-43434000D02*
X54100000Y-42293000D01*
X52959000Y-59563000D02*
X52959000Y-43434000D01*
X50510440Y-62011560D02*
X52959000Y-59563000D01*
X72136000Y-63881000D02*
X73041510Y-64786510D01*
X73041510Y-64786510D02*
X73041510Y-74672190D01*
X74214990Y-76333350D02*
X81692750Y-76333350D01*
X74214990Y-75845670D02*
X73041510Y-74672190D01*
X74214990Y-76333350D02*
X74214990Y-75845670D01*
X81692750Y-76333350D02*
X85217000Y-79883000D01*
X69723000Y-42293000D02*
X69723000Y-42291000D01*
X70866000Y-42293000D02*
X70866000Y-42291000D01*
X48056800Y-72171560D02*
X51054000Y-75168760D01*
X51054000Y-75168760D02*
X51054000Y-79334360D01*
X51054000Y-79334360D02*
X48056800Y-82331560D01*
X48056800Y-62011560D02*
X51054000Y-65008760D01*
X51054000Y-69174360D02*
X48056800Y-72171560D01*
X51054000Y-65008760D02*
X51054000Y-69174360D01*
X83459320Y-83124040D02*
X84739480Y-83124040D01*
X85197950Y-74301350D02*
X83877150Y-74301350D01*
X74214990Y-77476350D02*
X74214990Y-76333350D01*
X72909430Y-81393030D02*
X85611970Y-81393030D01*
X86493350Y-80511650D02*
X86493350Y-69058790D01*
X86493350Y-69058790D02*
X85223350Y-67788790D01*
X84578190Y-67788790D02*
X85223350Y-67788790D01*
X85611970Y-81393030D02*
X86493350Y-80511650D01*
X84578190Y-67788790D02*
X86775290Y-67788790D01*
X86775290Y-67788790D02*
X92011500Y-73025000D01*
D22*
X67264000Y-64844000D02*
X64368300Y-67739700D01*
X64368300Y-67739700D02*
X64368300Y-82660100D01*
X64368300Y-82660100D02*
X63987300Y-83041100D01*
X55214000Y-64794000D02*
X57942100Y-67522100D01*
X61853700Y-88121100D02*
X63987300Y-88121100D01*
X60850400Y-87117800D02*
X61853700Y-88121100D01*
X60850400Y-84768300D02*
X60850400Y-87117800D01*
X57942100Y-81860000D02*
X60850400Y-84768300D01*
X57942100Y-67522100D02*
X57942100Y-81860000D01*
D21*
X82296000Y-49657000D02*
X80945600Y-48306600D01*
X63542800Y-48306600D02*
X61968000Y-46731800D01*
X80945600Y-48306600D02*
X63542800Y-48306600D01*
X57980200Y-47062000D02*
X57980200Y-46300000D01*
X62958600Y-52040400D02*
X57980200Y-47062000D01*
X62933200Y-52040400D02*
X62958600Y-52040400D01*
X57954800Y-50465600D02*
X56659400Y-49170200D01*
X67327400Y-52700800D02*
X75023600Y-52700800D01*
X64990600Y-50364000D02*
X67327400Y-52700800D01*
X63060200Y-50364000D02*
X64990600Y-50364000D01*
X89044400Y-51989600D02*
X89044400Y-51735600D01*
X87545800Y-53488200D02*
X89044400Y-51989600D01*
X80637000Y-51735600D02*
X89044400Y-51735600D01*
X79875000Y-50973600D02*
X80637000Y-51735600D01*
X79875000Y-50059200D02*
X79875000Y-50973600D01*
X89044400Y-50592100D02*
X92011500Y-47625000D01*
X89044400Y-51735600D02*
X89044400Y-50592100D01*
X82296000Y-63881000D02*
X82719800Y-63457200D01*
X82719800Y-63457200D02*
X82719800Y-57476000D01*
X82719800Y-57476000D02*
X80332200Y-55088400D01*
X80332200Y-55088400D02*
X64889000Y-55088400D01*
X64889000Y-55088400D02*
X54906800Y-45106200D01*
X64508000Y-55753000D02*
X80031600Y-55753000D01*
X82059400Y-61577600D02*
X79756000Y-63881000D01*
X82059400Y-57780800D02*
X82059400Y-61577600D01*
X80031600Y-55753000D02*
X82059400Y-57780800D01*
X64508000Y-55753000D02*
X55829700Y-47074700D01*
X55829700Y-47074700D02*
X55033800Y-47074700D01*
X64508000Y-55753000D02*
X64516000Y-55753000D01*
X67556000Y-57069600D02*
X73601200Y-57069600D01*
X67022600Y-56536200D02*
X67556000Y-57069600D01*
X80010000Y-56896000D02*
X76454000Y-60452000D01*
X76454000Y-60452000D02*
X63373000Y-60452000D01*
X63373000Y-60452000D02*
X58039000Y-55118000D01*
X61849000Y-61341000D02*
X55880000Y-55372000D01*
X76708000Y-61341000D02*
X61849000Y-61341000D01*
X75692000Y-45085000D02*
X62103000Y-45085000D01*
X62103000Y-45085000D02*
X60833000Y-46355000D01*
X87291800Y-63225300D02*
X88384000Y-64317500D01*
X87291800Y-63165600D02*
X87291800Y-63225300D01*
X88384000Y-64317500D02*
X92011500Y-67945000D01*
X88384000Y-62352800D02*
X88384000Y-64317500D01*
X80484600Y-54453400D02*
X88384000Y-62352800D01*
X65524000Y-54453400D02*
X80484600Y-54453400D01*
X65143000Y-54072400D02*
X65524000Y-54453400D01*
X87317200Y-60397000D02*
X89785200Y-62865000D01*
X87317200Y-59025400D02*
X87317200Y-60397000D01*
X89785200Y-62865000D02*
X92011500Y-62865000D01*
X80662400Y-53742200D02*
X89785200Y-62865000D01*
X66006600Y-53742200D02*
X80662400Y-53742200D01*
X65066800Y-52802400D02*
X66006600Y-53742200D01*
X85594200Y-57785000D02*
X92011500Y-57785000D01*
X77081000Y-49271800D02*
X85594200Y-57785000D01*
X64000000Y-49271800D02*
X77081000Y-49271800D01*
X87012400Y-56891800D02*
X91199200Y-52705000D01*
X91199200Y-52705000D02*
X92011500Y-52705000D01*
X91884500Y-52578000D02*
X92011500Y-52705000D01*
G36*
X90803700Y-40733980D02*
X90803700Y-40733980D01*
X90202591Y-41334041D01*
X89876872Y-42118459D01*
X89876130Y-42967815D01*
X90200480Y-43752800D01*
X90800541Y-44353909D01*
X91584959Y-44679628D01*
X92434315Y-44680370D01*
X93219300Y-44356020D01*
X93820409Y-43755959D01*
X94146128Y-42971541D01*
X94146870Y-42122185D01*
X93822520Y-41337200D01*
X93222459Y-40736091D01*
X93099418Y-40685000D01*
X94315000Y-40685000D01*
X94315000Y-89315000D01*
X65030826Y-89315000D01*
X65231715Y-89180770D01*
X65556571Y-88694589D01*
X65670645Y-88121100D01*
X65556571Y-87547611D01*
X65231715Y-87061430D01*
X64916934Y-86851100D01*
X65231715Y-86640770D01*
X65556571Y-86154589D01*
X65670645Y-85581100D01*
X65556571Y-85007611D01*
X65438337Y-84830660D01*
X67427600Y-84830660D01*
X67185477Y-84877637D01*
X66972673Y-85017427D01*
X66830223Y-85228460D01*
X66780160Y-85478100D01*
X66780160Y-88478100D01*
X66827137Y-88720223D01*
X66966927Y-88933027D01*
X67177960Y-89075477D01*
X67427600Y-89125540D01*
X70427600Y-89125540D01*
X70669723Y-89078563D01*
X70882527Y-88938773D01*
X71024977Y-88727740D01*
X71075040Y-88478100D01*
X71075040Y-85643735D01*
X72493630Y-85643735D01*
X72174861Y-85803518D01*
X71864877Y-86594287D01*
X71881103Y-87443487D01*
X72174861Y-88152682D01*
X72493630Y-88312465D01*
X73648390Y-87157705D01*
X74007600Y-87157705D01*
X72673235Y-88492070D01*
X72833018Y-88810839D01*
X73623787Y-89120823D01*
X74472987Y-89104597D01*
X75182182Y-88810839D01*
X75341965Y-88492070D01*
X74007600Y-87157705D01*
X73648390Y-87157705D01*
X73827995Y-86978100D01*
X72493630Y-85643735D01*
X71075040Y-85643735D01*
X71075040Y-85478100D01*
X71028063Y-85235977D01*
X70888273Y-85023173D01*
X70677240Y-84880723D01*
X70451122Y-84835377D01*
X74391413Y-84835377D01*
X73542213Y-84851603D01*
X72833018Y-85145361D01*
X72673235Y-85464130D01*
X74007600Y-86798495D01*
X75162360Y-85643735D01*
X75521570Y-85643735D01*
X74187205Y-86978100D01*
X75521570Y-88312465D01*
X75840339Y-88152682D01*
X76150323Y-87361913D01*
X76134097Y-86512713D01*
X75840339Y-85803518D01*
X75521570Y-85643735D01*
X75162360Y-85643735D01*
X75341965Y-85464130D01*
X75182182Y-85145361D01*
X74410171Y-84842730D01*
X78664785Y-84842730D01*
X77879800Y-85167080D01*
X77278691Y-85767141D01*
X76952972Y-86551559D01*
X76952230Y-87400915D01*
X77276580Y-88185900D01*
X77876641Y-88787009D01*
X78661059Y-89112728D01*
X79510415Y-89113470D01*
X80295400Y-88789120D01*
X80896509Y-88189059D01*
X81222228Y-87404641D01*
X81222970Y-86555285D01*
X80898620Y-85770300D01*
X80772276Y-85643735D01*
X82653630Y-85643735D01*
X82334861Y-85803518D01*
X82024877Y-86594287D01*
X82041103Y-87443487D01*
X82334861Y-88152682D01*
X82653630Y-88312465D01*
X83808390Y-87157705D01*
X84167600Y-87157705D01*
X82833235Y-88492070D01*
X82993018Y-88810839D01*
X83783787Y-89120823D01*
X84632987Y-89104597D01*
X85342182Y-88810839D01*
X85501965Y-88492070D01*
X84167600Y-87157705D01*
X83808390Y-87157705D01*
X83987995Y-86978100D01*
X82653630Y-85643735D01*
X80772276Y-85643735D01*
X80298559Y-85169191D01*
X79514141Y-84843472D01*
X78664785Y-84842730D01*
X74410171Y-84842730D01*
X74391413Y-84835377D01*
X84551413Y-84835377D01*
X83702213Y-84851603D01*
X82993018Y-85145361D01*
X82833235Y-85464130D01*
X84167600Y-86798495D01*
X85322360Y-85643735D01*
X85681570Y-85643735D01*
X84347205Y-86978100D01*
X85681570Y-88312465D01*
X86000339Y-88152682D01*
X86310323Y-87361913D01*
X86294097Y-86512713D01*
X86000339Y-85803518D01*
X85681570Y-85643735D01*
X85322360Y-85643735D01*
X85501965Y-85464130D01*
X85342182Y-85145361D01*
X84551413Y-84835377D01*
X74391413Y-84835377D01*
X74391413Y-84835377D01*
X70451122Y-84835377D01*
X70427600Y-84830660D01*
X67427600Y-84830660D01*
X65438337Y-84830660D01*
X65231715Y-84521430D01*
X65215933Y-84510885D01*
X65245423Y-84505163D01*
X65458227Y-84365373D01*
X65600677Y-84154340D01*
X65650740Y-83904700D01*
X65650740Y-83764021D01*
X90478583Y-83764021D01*
X89675214Y-84095967D01*
X89060027Y-84710081D01*
X88726680Y-85512870D01*
X88725921Y-86382117D01*
X89057867Y-87185486D01*
X89671981Y-87800673D01*
X90474770Y-88134020D01*
X91344017Y-88134779D01*
X92147386Y-87802833D01*
X92762573Y-87188719D01*
X93095920Y-86385930D01*
X93096679Y-85516683D01*
X92764733Y-84713314D01*
X92150619Y-84098127D01*
X91347830Y-83764780D01*
X90478583Y-83764021D01*
X65650740Y-83764021D01*
X65650740Y-82177500D01*
X65603763Y-81935377D01*
X65463973Y-81722573D01*
X65403300Y-81681618D01*
X65403300Y-77476905D01*
X65665043Y-78110372D01*
X66194839Y-78641093D01*
X66887405Y-78928672D01*
X67637305Y-78929326D01*
X68330372Y-78642957D01*
X68861093Y-78113161D01*
X69148672Y-77420595D01*
X69149326Y-76670695D01*
X68862957Y-75977628D01*
X68333161Y-75446907D01*
X67640595Y-75159328D01*
X66890695Y-75158674D01*
X66197628Y-75445043D01*
X65666907Y-75974839D01*
X65403300Y-76609674D01*
X65403300Y-68168412D01*
X66664784Y-66906927D01*
X66837459Y-66978628D01*
X67686815Y-66979370D01*
X68002752Y-66848827D01*
X84392072Y-66848827D01*
X84046531Y-66991602D01*
X83781931Y-67255741D01*
X83638553Y-67601032D01*
X83638227Y-67974908D01*
X83781002Y-68320449D01*
X84045141Y-68585049D01*
X84390432Y-68728427D01*
X84764308Y-68728753D01*
X84991718Y-68634789D01*
X85731350Y-69374421D01*
X85731350Y-80196019D01*
X85296340Y-80631030D01*
X73476678Y-80631030D01*
X73442479Y-80596771D01*
X73097188Y-80453393D01*
X72723312Y-80453067D01*
X72377771Y-80595842D01*
X72113171Y-80859981D01*
X71969793Y-81205272D01*
X71969467Y-81579148D01*
X72112242Y-81924689D01*
X72376381Y-82189289D01*
X72721672Y-82332667D01*
X73095548Y-82332993D01*
X73441089Y-82190218D01*
X73476338Y-82155030D01*
X85611970Y-82155030D01*
X85903575Y-82097026D01*
X86150785Y-81931845D01*
X87032166Y-81050465D01*
X87197347Y-80803254D01*
X87255350Y-80511650D01*
X87255350Y-78232000D01*
X90035250Y-78232000D01*
X89876500Y-78390750D01*
X89876500Y-79731309D01*
X89973173Y-79964698D01*
X90151801Y-80143327D01*
X90385190Y-80240000D01*
X91725750Y-80240000D01*
X91884500Y-80081250D01*
X91884500Y-78232000D01*
X92138500Y-78232000D01*
X92138500Y-80081250D01*
X92297250Y-80240000D01*
X93637810Y-80240000D01*
X93871199Y-80143327D01*
X94049827Y-79964698D01*
X94146500Y-79731309D01*
X94146500Y-78390750D01*
X93987750Y-78232000D01*
X92138500Y-78232000D01*
X91884500Y-78232000D01*
X91884500Y-78232000D01*
X90035250Y-78232000D01*
X87255350Y-78232000D01*
X87255350Y-75970000D01*
X90385190Y-75970000D01*
X90151801Y-76066673D01*
X89973173Y-76245302D01*
X89876500Y-76478691D01*
X89876500Y-77819250D01*
X90035250Y-77978000D01*
X91884500Y-77978000D01*
X91884500Y-76128750D01*
X91725750Y-75970000D01*
X92297250Y-75970000D01*
X92138500Y-76128750D01*
X92138500Y-77978000D01*
X93987750Y-77978000D01*
X94146500Y-77819250D01*
X94146500Y-76478691D01*
X94049827Y-76245302D01*
X93871199Y-76066673D01*
X93637810Y-75970000D01*
X92297250Y-75970000D01*
X91725750Y-75970000D01*
X91725750Y-75970000D01*
X90385190Y-75970000D01*
X87255350Y-75970000D01*
X87255350Y-69346480D01*
X90061851Y-72152981D01*
X89876872Y-72598459D01*
X89876130Y-73447815D01*
X90200480Y-74232800D01*
X90800541Y-74833909D01*
X91584959Y-75159628D01*
X92434315Y-75160370D01*
X93219300Y-74836020D01*
X93820409Y-74235959D01*
X94146128Y-73451541D01*
X94146870Y-72602185D01*
X93822520Y-71817200D01*
X93222459Y-71216091D01*
X92438041Y-70890372D01*
X91588685Y-70889630D01*
X91139401Y-71075271D01*
X87314105Y-67249975D01*
X87128598Y-67126023D01*
X87066895Y-67084794D01*
X86775290Y-67026790D01*
X85145438Y-67026790D01*
X85111239Y-66992531D01*
X84765948Y-66849153D01*
X84392072Y-66848827D01*
X68002752Y-66848827D01*
X68471800Y-66655020D01*
X69072909Y-66054959D01*
X69398628Y-65270541D01*
X69399370Y-64421185D01*
X69228646Y-64008000D01*
X70796150Y-64008000D01*
X70637400Y-64166750D01*
X70637400Y-65023309D01*
X70734073Y-65256698D01*
X70912701Y-65435327D01*
X71146090Y-65532000D01*
X71850250Y-65532000D01*
X72009000Y-65373250D01*
X72009000Y-64008000D01*
X70796150Y-64008000D01*
X69228646Y-64008000D01*
X69075020Y-63636200D01*
X68474959Y-63035091D01*
X67690541Y-62709372D01*
X66841185Y-62708630D01*
X66056200Y-63032980D01*
X65455091Y-63633041D01*
X65129372Y-64417459D01*
X65128630Y-65266815D01*
X65201387Y-65442901D01*
X63636444Y-67007844D01*
X63412085Y-67343623D01*
X63333299Y-67739700D01*
X63333300Y-67739705D01*
X63333300Y-78532293D01*
X63025020Y-77786200D01*
X62424959Y-77185091D01*
X61640541Y-76859372D01*
X60791185Y-76858630D01*
X60006200Y-77182980D01*
X59405091Y-77783041D01*
X59079372Y-78567459D01*
X59078630Y-79416815D01*
X59402980Y-80201800D01*
X60003041Y-80802909D01*
X60787459Y-81128628D01*
X61636815Y-81129370D01*
X62421800Y-80805020D01*
X63022909Y-80204959D01*
X63333300Y-79457455D01*
X63333300Y-81530060D01*
X62971300Y-81530060D01*
X62729177Y-81577037D01*
X62516373Y-81716827D01*
X62373923Y-81927860D01*
X62323860Y-82177500D01*
X62323860Y-83904700D01*
X62370837Y-84146823D01*
X62510627Y-84359627D01*
X62721660Y-84502077D01*
X62760263Y-84509818D01*
X62742885Y-84521430D01*
X62418029Y-85007611D01*
X62303955Y-85581100D01*
X62418029Y-86154589D01*
X62742885Y-86640770D01*
X63057666Y-86851100D01*
X62742885Y-87061430D01*
X62726401Y-87086100D01*
X62282411Y-87086100D01*
X61885400Y-86689088D01*
X61885400Y-84768300D01*
X61806615Y-84372223D01*
X61806615Y-84372222D01*
X61656008Y-84146823D01*
X61582256Y-84036444D01*
X61582253Y-84036442D01*
X58977100Y-81431288D01*
X58977100Y-67522105D01*
X58977101Y-67522100D01*
X58898315Y-67126023D01*
X58673956Y-66790244D01*
X57276927Y-65393215D01*
X57348628Y-65220541D01*
X57349370Y-64371185D01*
X57025020Y-63586200D01*
X56424959Y-62985091D01*
X55640541Y-62659372D01*
X54791185Y-62658630D01*
X54006200Y-62982980D01*
X53405091Y-63583041D01*
X53079372Y-64367459D01*
X53078630Y-65216815D01*
X53402980Y-66001800D01*
X54003041Y-66602909D01*
X54787459Y-66928628D01*
X55636815Y-66929370D01*
X55812901Y-66856613D01*
X56907100Y-67950812D01*
X56907100Y-76084462D01*
X56862957Y-75977628D01*
X56333161Y-75446907D01*
X55640595Y-75159328D01*
X54890695Y-75158674D01*
X54197628Y-75445043D01*
X53666907Y-75974839D01*
X53379328Y-76667405D01*
X53378674Y-77417305D01*
X53665043Y-78110372D01*
X54194839Y-78641093D01*
X54887405Y-78928672D01*
X55637305Y-78929326D01*
X56330372Y-78642957D01*
X56861093Y-78113161D01*
X56907100Y-78002364D01*
X56907100Y-81859995D01*
X56907099Y-81860000D01*
X56985885Y-82256077D01*
X57210244Y-82591856D01*
X59815400Y-85197011D01*
X59815400Y-87117795D01*
X59815399Y-87117800D01*
X59894185Y-87513877D01*
X60118544Y-87849656D01*
X61121842Y-88852953D01*
X61121844Y-88852956D01*
X61323129Y-88987449D01*
X61457622Y-89077315D01*
X61853700Y-89156100D01*
X62726401Y-89156100D01*
X62742885Y-89180770D01*
X62943774Y-89315000D01*
X49040927Y-89315000D01*
X49264600Y-89222580D01*
X49865709Y-88622519D01*
X50191428Y-87838101D01*
X50192170Y-86988745D01*
X49867820Y-86203760D01*
X49267759Y-85602651D01*
X48483341Y-85276932D01*
X47633985Y-85276190D01*
X46849000Y-85600540D01*
X46247891Y-86200601D01*
X45922172Y-86985019D01*
X45921430Y-87834375D01*
X46245780Y-88619360D01*
X46845841Y-89220469D01*
X47073497Y-89315000D01*
X45685000Y-89315000D01*
X45685000Y-80997195D01*
X46542830Y-80997195D01*
X46224061Y-81156978D01*
X45914077Y-81947747D01*
X45930303Y-82796947D01*
X46224061Y-83506142D01*
X46542830Y-83665925D01*
X47697590Y-82511165D01*
X48056800Y-82511165D01*
X46722435Y-83845530D01*
X46882218Y-84164299D01*
X47672987Y-84474283D01*
X48522187Y-84458057D01*
X49231382Y-84164299D01*
X49391165Y-83845530D01*
X49309656Y-83764021D01*
X56302883Y-83764021D01*
X55499514Y-84095967D01*
X54884327Y-84710081D01*
X54550980Y-85512870D01*
X54550221Y-86382117D01*
X54882167Y-87185486D01*
X55496281Y-87800673D01*
X56299070Y-88134020D01*
X57168317Y-88134779D01*
X57971686Y-87802833D01*
X58586873Y-87188719D01*
X58920220Y-86385930D01*
X58920979Y-85516683D01*
X58589033Y-84713314D01*
X57974919Y-84098127D01*
X57172130Y-83764780D01*
X56302883Y-83764021D01*
X49309656Y-83764021D01*
X48056800Y-82511165D01*
X47697590Y-82511165D01*
X47877195Y-82331560D01*
X46542830Y-80997195D01*
X45685000Y-80997195D01*
X45685000Y-80188837D01*
X48440613Y-80188837D01*
X47591413Y-80205063D01*
X46882218Y-80498821D01*
X46722435Y-80817590D01*
X48056800Y-82151955D01*
X49211560Y-80997195D01*
X49570770Y-80997195D01*
X48236405Y-82331560D01*
X49570770Y-83665925D01*
X49889539Y-83506142D01*
X50199523Y-82715373D01*
X50183297Y-81866173D01*
X49889539Y-81156978D01*
X49570770Y-80997195D01*
X49211560Y-80997195D01*
X49391165Y-80817590D01*
X49231382Y-80498821D01*
X48440613Y-80188837D01*
X45685000Y-80188837D01*
X45685000Y-75116190D01*
X47633985Y-75116190D01*
X46849000Y-75440540D01*
X46247891Y-76040601D01*
X45922172Y-76825019D01*
X45921430Y-77674375D01*
X46245780Y-78459360D01*
X46845841Y-79060469D01*
X47630259Y-79386188D01*
X48479615Y-79386930D01*
X49264600Y-79062580D01*
X49865709Y-78462519D01*
X50191428Y-77678101D01*
X50192170Y-76828745D01*
X49867820Y-76043760D01*
X49267759Y-75442651D01*
X48483341Y-75116932D01*
X47633985Y-75116190D01*
X45685000Y-75116190D01*
X45685000Y-70837195D01*
X46542830Y-70837195D01*
X46224061Y-70996978D01*
X45914077Y-71787747D01*
X45930303Y-72636947D01*
X46224061Y-73346142D01*
X46542830Y-73505925D01*
X47697590Y-72351165D01*
X48056800Y-72351165D01*
X46722435Y-73685530D01*
X46882218Y-74004299D01*
X47672987Y-74314283D01*
X48522187Y-74298057D01*
X49231382Y-74004299D01*
X49391165Y-73685530D01*
X48056800Y-72351165D01*
X47697590Y-72351165D01*
X47877195Y-72171560D01*
X46542830Y-70837195D01*
X45685000Y-70837195D01*
X45685000Y-70028837D01*
X48440613Y-70028837D01*
X47591413Y-70045063D01*
X46882218Y-70338821D01*
X46722435Y-70657590D01*
X48056800Y-71991955D01*
X49211560Y-70837195D01*
X49570770Y-70837195D01*
X48236405Y-72171560D01*
X49570770Y-73505925D01*
X49889539Y-73346142D01*
X50199523Y-72555373D01*
X50183297Y-71706173D01*
X49889539Y-70996978D01*
X49570770Y-70837195D01*
X49211560Y-70837195D01*
X49391165Y-70657590D01*
X49231382Y-70338821D01*
X48440613Y-70028837D01*
X45685000Y-70028837D01*
X45685000Y-64956190D01*
X47633985Y-64956190D01*
X46849000Y-65280540D01*
X46247891Y-65880601D01*
X45922172Y-66665019D01*
X45921430Y-67514375D01*
X46245780Y-68299360D01*
X46845841Y-68900469D01*
X47630259Y-69226188D01*
X48479615Y-69226930D01*
X49264600Y-68902580D01*
X49865709Y-68302519D01*
X50191428Y-67518101D01*
X50192170Y-66668745D01*
X49867820Y-65883760D01*
X49267759Y-65282651D01*
X48483341Y-64956932D01*
X47633985Y-64956190D01*
X45685000Y-64956190D01*
X45685000Y-62138560D01*
X46080550Y-62138560D01*
X45921800Y-62297310D01*
X45921800Y-63637869D01*
X46018473Y-63871258D01*
X46197101Y-64049887D01*
X46430490Y-64146560D01*
X47771050Y-64146560D01*
X47929800Y-63987810D01*
X47929800Y-62138560D01*
X48183800Y-62138560D01*
X48183800Y-63987810D01*
X48342550Y-64146560D01*
X49683110Y-64146560D01*
X49916499Y-64049887D01*
X50095127Y-63871258D01*
X50191800Y-63637869D01*
X50191800Y-62297310D01*
X50124490Y-62230000D01*
X71146090Y-62230000D01*
X70912701Y-62326673D01*
X70734073Y-62505302D01*
X70637400Y-62738691D01*
X70637400Y-63595250D01*
X70796150Y-63754000D01*
X72009000Y-63754000D01*
X72009000Y-62388750D01*
X71850250Y-62230000D01*
X71146090Y-62230000D01*
X50124490Y-62230000D01*
X50033050Y-62138560D01*
X48183800Y-62138560D01*
X47929800Y-62138560D01*
X47929800Y-62138560D01*
X46080550Y-62138560D01*
X45685000Y-62138560D01*
X45685000Y-59876560D01*
X46430490Y-59876560D01*
X46197101Y-59973233D01*
X46018473Y-60151862D01*
X45921800Y-60385251D01*
X45921800Y-61725810D01*
X46080550Y-61884560D01*
X47929800Y-61884560D01*
X47929800Y-60035310D01*
X47771050Y-59876560D01*
X48342550Y-59876560D01*
X48183800Y-60035310D01*
X48183800Y-61884560D01*
X50033050Y-61884560D01*
X50191800Y-61725810D01*
X50191800Y-60385251D01*
X50095127Y-60151862D01*
X49916499Y-59973233D01*
X49683110Y-59876560D01*
X48342550Y-59876560D01*
X47771050Y-59876560D01*
X47771050Y-59876560D01*
X46430490Y-59876560D01*
X45685000Y-59876560D01*
X45685000Y-59461400D01*
X52679600Y-59461400D01*
X52728201Y-59451733D01*
X52769403Y-59424203D01*
X52796933Y-59383001D01*
X52806600Y-59334400D01*
X52806600Y-44145037D01*
X75505882Y-44145037D01*
X75160341Y-44287812D01*
X75125092Y-44323000D01*
X62103000Y-44323000D01*
X61811395Y-44381004D01*
X61564184Y-44546185D01*
X60695290Y-45415079D01*
X60646882Y-45415037D01*
X60301341Y-45557812D01*
X60036741Y-45821951D01*
X59893363Y-46167242D01*
X59893037Y-46541118D01*
X60035812Y-46886659D01*
X60299951Y-47151259D01*
X60645242Y-47294637D01*
X61019118Y-47294963D01*
X61159809Y-47236830D01*
X61170812Y-47263459D01*
X61434951Y-47528059D01*
X61780242Y-47671437D01*
X61830050Y-47671480D01*
X63003985Y-48845416D01*
X63125684Y-48926733D01*
X63060363Y-49084042D01*
X63060066Y-49424199D01*
X62874082Y-49424037D01*
X62528541Y-49566812D01*
X62263941Y-49830951D01*
X62135676Y-50139845D01*
X58791839Y-46796009D01*
X58919837Y-46487758D01*
X58920163Y-46113882D01*
X58777388Y-45768341D01*
X58513249Y-45503741D01*
X58167958Y-45360363D01*
X57794082Y-45360037D01*
X57448541Y-45502812D01*
X57183941Y-45766951D01*
X57040563Y-46112242D01*
X57040519Y-46162289D01*
X55846721Y-44968491D01*
X55846763Y-44920082D01*
X55703988Y-44574541D01*
X55439849Y-44309941D01*
X55094558Y-44166563D01*
X54720682Y-44166237D01*
X54375141Y-44309012D01*
X54110541Y-44573151D01*
X53967163Y-44918442D01*
X53966837Y-45292318D01*
X54109612Y-45637859D01*
X54373751Y-45902459D01*
X54719042Y-46045837D01*
X54768850Y-46045880D01*
X54857716Y-46134746D01*
X54847682Y-46134737D01*
X54502141Y-46277512D01*
X54237541Y-46541651D01*
X54094163Y-46886942D01*
X54093837Y-47260818D01*
X54236612Y-47606359D01*
X54500751Y-47870959D01*
X54846042Y-48014337D01*
X55219918Y-48014663D01*
X55553995Y-47876625D01*
X56089028Y-48411658D01*
X55863141Y-48637151D01*
X55719763Y-48982442D01*
X55719437Y-49356318D01*
X55862212Y-49701859D01*
X56126351Y-49966459D01*
X56471642Y-50109837D01*
X56521450Y-50109880D01*
X57014879Y-50603310D01*
X57014837Y-50651718D01*
X57157612Y-50997259D01*
X57421751Y-51261859D01*
X57767042Y-51405237D01*
X58140918Y-51405563D01*
X58486459Y-51262788D01*
X58713506Y-51036136D01*
X63969185Y-56291816D01*
X64216396Y-56456997D01*
X64508000Y-56515000D01*
X66082818Y-56515000D01*
X66082637Y-56722318D01*
X66225412Y-57067859D01*
X66489551Y-57332459D01*
X66834842Y-57475837D01*
X66884650Y-57475880D01*
X67017185Y-57608416D01*
X67264396Y-57773597D01*
X67556000Y-57831600D01*
X73033952Y-57831600D01*
X73068151Y-57865859D01*
X73413442Y-58009237D01*
X73787318Y-58009563D01*
X74132859Y-57866788D01*
X74397459Y-57602649D01*
X74540837Y-57257358D01*
X74541163Y-56883482D01*
X74398388Y-56537941D01*
X74375487Y-56515000D01*
X79150604Y-56515000D01*
X79070363Y-56708242D01*
X79070320Y-56758050D01*
X76138370Y-59690000D01*
X63688630Y-59690000D01*
X58978921Y-54980291D01*
X58978963Y-54931882D01*
X58836188Y-54586341D01*
X58572049Y-54321741D01*
X58226758Y-54178363D01*
X57852882Y-54178037D01*
X57507341Y-54320812D01*
X57242741Y-54584951D01*
X57099363Y-54930242D01*
X57099037Y-55304118D01*
X57241812Y-55649659D01*
X57505951Y-55914259D01*
X57851242Y-56057637D01*
X57901050Y-56057680D01*
X62422370Y-60579000D01*
X62164631Y-60579000D01*
X56819921Y-55234291D01*
X56819963Y-55185882D01*
X56677188Y-54840341D01*
X56413049Y-54575741D01*
X56067758Y-54432363D01*
X55693882Y-54432037D01*
X55348341Y-54574812D01*
X55083741Y-54838951D01*
X54940363Y-55184242D01*
X54940037Y-55558118D01*
X55082812Y-55903659D01*
X55346951Y-56168259D01*
X55692242Y-56311637D01*
X55742050Y-56311680D01*
X61310185Y-61879816D01*
X61458377Y-61978834D01*
X61557395Y-62044996D01*
X61849000Y-62103000D01*
X76140752Y-62103000D01*
X76174951Y-62137259D01*
X76520242Y-62280637D01*
X76797605Y-62280879D01*
X76642511Y-62311729D01*
X76156330Y-62636585D01*
X75946000Y-62951366D01*
X75735670Y-62636585D01*
X75249489Y-62311729D01*
X74676000Y-62197655D01*
X74102511Y-62311729D01*
X73616330Y-62636585D01*
X73601500Y-62658780D01*
X73537927Y-62505302D01*
X73359299Y-62326673D01*
X73125910Y-62230000D01*
X72421750Y-62230000D01*
X72263000Y-62388750D01*
X72263000Y-63754000D01*
X72283000Y-63754000D01*
X72283000Y-64008000D01*
X72263000Y-64008000D01*
X72263000Y-65373250D01*
X72421750Y-65532000D01*
X73125910Y-65532000D01*
X73359299Y-65435327D01*
X73537927Y-65256698D01*
X73601500Y-65103220D01*
X73616330Y-65125415D01*
X74102511Y-65450271D01*
X74676000Y-65564345D01*
X75249489Y-65450271D01*
X75735670Y-65125415D01*
X75946000Y-64810634D01*
X76156330Y-65125415D01*
X76642511Y-65450271D01*
X77216000Y-65564345D01*
X77789489Y-65450271D01*
X78275670Y-65125415D01*
X78486000Y-64810634D01*
X78696330Y-65125415D01*
X79182511Y-65450271D01*
X79756000Y-65564345D01*
X80329489Y-65450271D01*
X80815670Y-65125415D01*
X81026000Y-64810634D01*
X81236330Y-65125415D01*
X81722511Y-65450271D01*
X82296000Y-65564345D01*
X82869489Y-65450271D01*
X83355670Y-65125415D01*
X83566000Y-64810634D01*
X83776330Y-65125415D01*
X84262511Y-65450271D01*
X84836000Y-65564345D01*
X85409489Y-65450271D01*
X85895670Y-65125415D01*
X86220526Y-64639234D01*
X86334600Y-64065745D01*
X86334600Y-63696255D01*
X86220526Y-63122766D01*
X85895670Y-62636585D01*
X85409489Y-62311729D01*
X84836000Y-62197655D01*
X84262511Y-62311729D01*
X83776330Y-62636585D01*
X83566000Y-62951366D01*
X83481800Y-62825352D01*
X83481800Y-58528230D01*
X87179270Y-62225701D01*
X87105682Y-62225637D01*
X86760141Y-62368412D01*
X86495541Y-62632551D01*
X86352163Y-62977842D01*
X86351837Y-63351718D01*
X86494612Y-63697259D01*
X86758751Y-63961859D01*
X87087052Y-64098182D01*
X90061851Y-67072981D01*
X89876872Y-67518459D01*
X89876130Y-68367815D01*
X90200480Y-69152800D01*
X90800541Y-69753909D01*
X91584959Y-70079628D01*
X92434315Y-70080370D01*
X93219300Y-69756020D01*
X93820409Y-69155959D01*
X94146128Y-68371541D01*
X94146870Y-67522185D01*
X93822520Y-66737200D01*
X93222459Y-66136091D01*
X92438041Y-65810372D01*
X91588685Y-65809630D01*
X91139401Y-65995271D01*
X89146000Y-64001870D01*
X89146000Y-63303431D01*
X89246384Y-63403815D01*
X89473398Y-63555501D01*
X89493595Y-63568996D01*
X89785200Y-63627000D01*
X90016279Y-63627000D01*
X90200480Y-64072800D01*
X90800541Y-64673909D01*
X91584959Y-64999628D01*
X92434315Y-65000370D01*
X93219300Y-64676020D01*
X93820409Y-64075959D01*
X94146128Y-63291541D01*
X94146870Y-62442185D01*
X93822520Y-61657200D01*
X93222459Y-61056091D01*
X92438041Y-60730372D01*
X91588685Y-60729630D01*
X90803700Y-61053980D01*
X90202591Y-61654041D01*
X90041008Y-62043177D01*
X88079200Y-60081369D01*
X88079200Y-59592648D01*
X88113459Y-59558449D01*
X88256837Y-59213158D01*
X88257163Y-58839282D01*
X88136394Y-58547000D01*
X90016279Y-58547000D01*
X90200480Y-58992800D01*
X90800541Y-59593909D01*
X91584959Y-59919628D01*
X92434315Y-59920370D01*
X93219300Y-59596020D01*
X93820409Y-58995959D01*
X94146128Y-58211541D01*
X94146870Y-57362185D01*
X93822520Y-56577200D01*
X93222459Y-55976091D01*
X92438041Y-55650372D01*
X91588685Y-55649630D01*
X90803700Y-55973980D01*
X90202591Y-56574041D01*
X90016167Y-57023000D01*
X87958830Y-57023000D01*
X90634376Y-54347454D01*
X90800541Y-54513909D01*
X91584959Y-54839628D01*
X92434315Y-54840370D01*
X93219300Y-54516020D01*
X93820409Y-53915959D01*
X94146128Y-53131541D01*
X94146870Y-52282185D01*
X93822520Y-51497200D01*
X93222459Y-50896091D01*
X92438041Y-50570372D01*
X91588685Y-50569630D01*
X90803700Y-50893980D01*
X90202591Y-51494041D01*
X89876872Y-52278459D01*
X89876285Y-52950284D01*
X86874691Y-55951879D01*
X86826282Y-55951837D01*
X86480741Y-56094612D01*
X86216141Y-56358751D01*
X86072763Y-56704042D01*
X86072485Y-57023000D01*
X85909830Y-57023000D01*
X81384430Y-52497600D01*
X87458770Y-52497600D01*
X87408091Y-52548279D01*
X87359682Y-52548237D01*
X87014141Y-52691012D01*
X86749541Y-52955151D01*
X86606163Y-53300442D01*
X86605837Y-53674318D01*
X86748612Y-54019859D01*
X87012751Y-54284459D01*
X87358042Y-54427837D01*
X87731918Y-54428163D01*
X88077459Y-54285388D01*
X88342059Y-54021249D01*
X88485437Y-53675958D01*
X88485480Y-53626150D01*
X89583215Y-52528416D01*
X89748396Y-52281205D01*
X89772110Y-52161985D01*
X89806400Y-51989600D01*
X89806400Y-50907730D01*
X91139481Y-49574649D01*
X91584959Y-49759628D01*
X92434315Y-49760370D01*
X93219300Y-49436020D01*
X93820409Y-48835959D01*
X94146128Y-48051541D01*
X94146870Y-47202185D01*
X93822520Y-46417200D01*
X93222459Y-45816091D01*
X92438041Y-45490372D01*
X91588685Y-45489630D01*
X90803700Y-45813980D01*
X90202591Y-46414041D01*
X89876872Y-47198459D01*
X89876130Y-48047815D01*
X90061771Y-48497099D01*
X88505585Y-50053285D01*
X88340404Y-50300495D01*
X88282400Y-50592100D01*
X88282400Y-50973600D01*
X85797647Y-50973600D01*
X86173188Y-50625379D01*
X86441983Y-50039946D01*
X86323367Y-49784000D01*
X84963000Y-49784000D01*
X84963000Y-49804000D01*
X84709000Y-49804000D01*
X84709000Y-49784000D01*
X84689000Y-49784000D01*
X84689000Y-49530000D01*
X84709000Y-49530000D01*
X84709000Y-48170164D01*
X84453056Y-48051025D01*
X85218944Y-48051025D01*
X84963000Y-48170164D01*
X84963000Y-49530000D01*
X86323367Y-49530000D01*
X86441983Y-49274054D01*
X86173188Y-48688621D01*
X85700818Y-48250615D01*
X85218944Y-48051025D01*
X84453056Y-48051025D01*
X84453056Y-48051025D01*
X83971182Y-48250615D01*
X83874164Y-48340575D01*
X83772673Y-48186073D01*
X83561640Y-48043623D01*
X83312000Y-47993560D01*
X81710190Y-47993560D01*
X81484415Y-47767785D01*
X81340708Y-47671763D01*
X81237205Y-47602604D01*
X80945600Y-47544600D01*
X63858431Y-47544600D01*
X62907921Y-46594091D01*
X62907963Y-46545682D01*
X62765188Y-46200141D01*
X62501049Y-45935541D01*
X62380250Y-45885381D01*
X62418631Y-45847000D01*
X75124752Y-45847000D01*
X75158951Y-45881259D01*
X75504242Y-46024637D01*
X75878118Y-46024963D01*
X76223659Y-45882188D01*
X76488259Y-45618049D01*
X76631637Y-45272758D01*
X76631963Y-44898882D01*
X76489188Y-44553341D01*
X76225049Y-44288741D01*
X75879758Y-44145363D01*
X75505882Y-44145037D01*
X52806600Y-44145037D01*
X52806600Y-41879421D01*
X82909383Y-41879421D01*
X82106014Y-42211367D01*
X81490827Y-42825481D01*
X81157480Y-43628270D01*
X81156721Y-44497517D01*
X81488667Y-45300886D01*
X82102781Y-45916073D01*
X82905570Y-46249420D01*
X83774817Y-46250179D01*
X84578186Y-45918233D01*
X85193373Y-45304119D01*
X85526720Y-44501330D01*
X85527479Y-43632083D01*
X85195533Y-42828714D01*
X84581419Y-42213527D01*
X83778630Y-41880180D01*
X82909383Y-41879421D01*
X52806600Y-41879421D01*
X52806600Y-40685000D01*
X90922240Y-40685000D01*
X90803700Y-40733980D01*
X90803700Y-40733980D01*
G37*
X90803700Y-40733980D02*
X90803700Y-40733980D01*
X90202591Y-41334041D01*
X89876872Y-42118459D01*
X89876130Y-42967815D01*
X90200480Y-43752800D01*
X90800541Y-44353909D01*
X91584959Y-44679628D01*
X92434315Y-44680370D01*
X93219300Y-44356020D01*
X93820409Y-43755959D01*
X94146128Y-42971541D01*
X94146870Y-42122185D01*
X93822520Y-41337200D01*
X93222459Y-40736091D01*
X93099418Y-40685000D01*
X94315000Y-40685000D01*
X94315000Y-89315000D01*
X65030826Y-89315000D01*
X65231715Y-89180770D01*
X65556571Y-88694589D01*
X65670645Y-88121100D01*
X65556571Y-87547611D01*
X65231715Y-87061430D01*
X64916934Y-86851100D01*
X65231715Y-86640770D01*
X65556571Y-86154589D01*
X65670645Y-85581100D01*
X65556571Y-85007611D01*
X65438337Y-84830660D01*
X67427600Y-84830660D01*
X67185477Y-84877637D01*
X66972673Y-85017427D01*
X66830223Y-85228460D01*
X66780160Y-85478100D01*
X66780160Y-88478100D01*
X66827137Y-88720223D01*
X66966927Y-88933027D01*
X67177960Y-89075477D01*
X67427600Y-89125540D01*
X70427600Y-89125540D01*
X70669723Y-89078563D01*
X70882527Y-88938773D01*
X71024977Y-88727740D01*
X71075040Y-88478100D01*
X71075040Y-85643735D01*
X72493630Y-85643735D01*
X72174861Y-85803518D01*
X71864877Y-86594287D01*
X71881103Y-87443487D01*
X72174861Y-88152682D01*
X72493630Y-88312465D01*
X73648390Y-87157705D01*
X74007600Y-87157705D01*
X72673235Y-88492070D01*
X72833018Y-88810839D01*
X73623787Y-89120823D01*
X74472987Y-89104597D01*
X75182182Y-88810839D01*
X75341965Y-88492070D01*
X74007600Y-87157705D01*
X73648390Y-87157705D01*
X73827995Y-86978100D01*
X72493630Y-85643735D01*
X71075040Y-85643735D01*
X71075040Y-85478100D01*
X71028063Y-85235977D01*
X70888273Y-85023173D01*
X70677240Y-84880723D01*
X70451122Y-84835377D01*
X74391413Y-84835377D01*
X73542213Y-84851603D01*
X72833018Y-85145361D01*
X72673235Y-85464130D01*
X74007600Y-86798495D01*
X75162360Y-85643735D01*
X75521570Y-85643735D01*
X74187205Y-86978100D01*
X75521570Y-88312465D01*
X75840339Y-88152682D01*
X76150323Y-87361913D01*
X76134097Y-86512713D01*
X75840339Y-85803518D01*
X75521570Y-85643735D01*
X75162360Y-85643735D01*
X75341965Y-85464130D01*
X75182182Y-85145361D01*
X74410171Y-84842730D01*
X78664785Y-84842730D01*
X77879800Y-85167080D01*
X77278691Y-85767141D01*
X76952972Y-86551559D01*
X76952230Y-87400915D01*
X77276580Y-88185900D01*
X77876641Y-88787009D01*
X78661059Y-89112728D01*
X79510415Y-89113470D01*
X80295400Y-88789120D01*
X80896509Y-88189059D01*
X81222228Y-87404641D01*
X81222970Y-86555285D01*
X80898620Y-85770300D01*
X80772276Y-85643735D01*
X82653630Y-85643735D01*
X82334861Y-85803518D01*
X82024877Y-86594287D01*
X82041103Y-87443487D01*
X82334861Y-88152682D01*
X82653630Y-88312465D01*
X83808390Y-87157705D01*
X84167600Y-87157705D01*
X82833235Y-88492070D01*
X82993018Y-88810839D01*
X83783787Y-89120823D01*
X84632987Y-89104597D01*
X85342182Y-88810839D01*
X85501965Y-88492070D01*
X84167600Y-87157705D01*
X83808390Y-87157705D01*
X83987995Y-86978100D01*
X82653630Y-85643735D01*
X80772276Y-85643735D01*
X80298559Y-85169191D01*
X79514141Y-84843472D01*
X78664785Y-84842730D01*
X74410171Y-84842730D01*
X74391413Y-84835377D01*
X84551413Y-84835377D01*
X83702213Y-84851603D01*
X82993018Y-85145361D01*
X82833235Y-85464130D01*
X84167600Y-86798495D01*
X85322360Y-85643735D01*
X85681570Y-85643735D01*
X84347205Y-86978100D01*
X85681570Y-88312465D01*
X86000339Y-88152682D01*
X86310323Y-87361913D01*
X86294097Y-86512713D01*
X86000339Y-85803518D01*
X85681570Y-85643735D01*
X85322360Y-85643735D01*
X85501965Y-85464130D01*
X85342182Y-85145361D01*
X84551413Y-84835377D01*
X74391413Y-84835377D01*
X74391413Y-84835377D01*
X70451122Y-84835377D01*
X70427600Y-84830660D01*
X67427600Y-84830660D01*
X65438337Y-84830660D01*
X65231715Y-84521430D01*
X65215933Y-84510885D01*
X65245423Y-84505163D01*
X65458227Y-84365373D01*
X65600677Y-84154340D01*
X65650740Y-83904700D01*
X65650740Y-83764021D01*
X90478583Y-83764021D01*
X89675214Y-84095967D01*
X89060027Y-84710081D01*
X88726680Y-85512870D01*
X88725921Y-86382117D01*
X89057867Y-87185486D01*
X89671981Y-87800673D01*
X90474770Y-88134020D01*
X91344017Y-88134779D01*
X92147386Y-87802833D01*
X92762573Y-87188719D01*
X93095920Y-86385930D01*
X93096679Y-85516683D01*
X92764733Y-84713314D01*
X92150619Y-84098127D01*
X91347830Y-83764780D01*
X90478583Y-83764021D01*
X65650740Y-83764021D01*
X65650740Y-82177500D01*
X65603763Y-81935377D01*
X65463973Y-81722573D01*
X65403300Y-81681618D01*
X65403300Y-77476905D01*
X65665043Y-78110372D01*
X66194839Y-78641093D01*
X66887405Y-78928672D01*
X67637305Y-78929326D01*
X68330372Y-78642957D01*
X68861093Y-78113161D01*
X69148672Y-77420595D01*
X69149326Y-76670695D01*
X68862957Y-75977628D01*
X68333161Y-75446907D01*
X67640595Y-75159328D01*
X66890695Y-75158674D01*
X66197628Y-75445043D01*
X65666907Y-75974839D01*
X65403300Y-76609674D01*
X65403300Y-68168412D01*
X66664784Y-66906927D01*
X66837459Y-66978628D01*
X67686815Y-66979370D01*
X68002752Y-66848827D01*
X84392072Y-66848827D01*
X84046531Y-66991602D01*
X83781931Y-67255741D01*
X83638553Y-67601032D01*
X83638227Y-67974908D01*
X83781002Y-68320449D01*
X84045141Y-68585049D01*
X84390432Y-68728427D01*
X84764308Y-68728753D01*
X84991718Y-68634789D01*
X85731350Y-69374421D01*
X85731350Y-80196019D01*
X85296340Y-80631030D01*
X73476678Y-80631030D01*
X73442479Y-80596771D01*
X73097188Y-80453393D01*
X72723312Y-80453067D01*
X72377771Y-80595842D01*
X72113171Y-80859981D01*
X71969793Y-81205272D01*
X71969467Y-81579148D01*
X72112242Y-81924689D01*
X72376381Y-82189289D01*
X72721672Y-82332667D01*
X73095548Y-82332993D01*
X73441089Y-82190218D01*
X73476338Y-82155030D01*
X85611970Y-82155030D01*
X85903575Y-82097026D01*
X86150785Y-81931845D01*
X87032166Y-81050465D01*
X87197347Y-80803254D01*
X87255350Y-80511650D01*
X87255350Y-78232000D01*
X90035250Y-78232000D01*
X89876500Y-78390750D01*
X89876500Y-79731309D01*
X89973173Y-79964698D01*
X90151801Y-80143327D01*
X90385190Y-80240000D01*
X91725750Y-80240000D01*
X91884500Y-80081250D01*
X91884500Y-78232000D01*
X92138500Y-78232000D01*
X92138500Y-80081250D01*
X92297250Y-80240000D01*
X93637810Y-80240000D01*
X93871199Y-80143327D01*
X94049827Y-79964698D01*
X94146500Y-79731309D01*
X94146500Y-78390750D01*
X93987750Y-78232000D01*
X92138500Y-78232000D01*
X91884500Y-78232000D01*
X91884500Y-78232000D01*
X90035250Y-78232000D01*
X87255350Y-78232000D01*
X87255350Y-75970000D01*
X90385190Y-75970000D01*
X90151801Y-76066673D01*
X89973173Y-76245302D01*
X89876500Y-76478691D01*
X89876500Y-77819250D01*
X90035250Y-77978000D01*
X91884500Y-77978000D01*
X91884500Y-76128750D01*
X91725750Y-75970000D01*
X92297250Y-75970000D01*
X92138500Y-76128750D01*
X92138500Y-77978000D01*
X93987750Y-77978000D01*
X94146500Y-77819250D01*
X94146500Y-76478691D01*
X94049827Y-76245302D01*
X93871199Y-76066673D01*
X93637810Y-75970000D01*
X92297250Y-75970000D01*
X91725750Y-75970000D01*
X91725750Y-75970000D01*
X90385190Y-75970000D01*
X87255350Y-75970000D01*
X87255350Y-69346480D01*
X90061851Y-72152981D01*
X89876872Y-72598459D01*
X89876130Y-73447815D01*
X90200480Y-74232800D01*
X90800541Y-74833909D01*
X91584959Y-75159628D01*
X92434315Y-75160370D01*
X93219300Y-74836020D01*
X93820409Y-74235959D01*
X94146128Y-73451541D01*
X94146870Y-72602185D01*
X93822520Y-71817200D01*
X93222459Y-71216091D01*
X92438041Y-70890372D01*
X91588685Y-70889630D01*
X91139401Y-71075271D01*
X87314105Y-67249975D01*
X87128598Y-67126023D01*
X87066895Y-67084794D01*
X86775290Y-67026790D01*
X85145438Y-67026790D01*
X85111239Y-66992531D01*
X84765948Y-66849153D01*
X84392072Y-66848827D01*
X68002752Y-66848827D01*
X68471800Y-66655020D01*
X69072909Y-66054959D01*
X69398628Y-65270541D01*
X69399370Y-64421185D01*
X69228646Y-64008000D01*
X70796150Y-64008000D01*
X70637400Y-64166750D01*
X70637400Y-65023309D01*
X70734073Y-65256698D01*
X70912701Y-65435327D01*
X71146090Y-65532000D01*
X71850250Y-65532000D01*
X72009000Y-65373250D01*
X72009000Y-64008000D01*
X70796150Y-64008000D01*
X69228646Y-64008000D01*
X69075020Y-63636200D01*
X68474959Y-63035091D01*
X67690541Y-62709372D01*
X66841185Y-62708630D01*
X66056200Y-63032980D01*
X65455091Y-63633041D01*
X65129372Y-64417459D01*
X65128630Y-65266815D01*
X65201387Y-65442901D01*
X63636444Y-67007844D01*
X63412085Y-67343623D01*
X63333299Y-67739700D01*
X63333300Y-67739705D01*
X63333300Y-78532293D01*
X63025020Y-77786200D01*
X62424959Y-77185091D01*
X61640541Y-76859372D01*
X60791185Y-76858630D01*
X60006200Y-77182980D01*
X59405091Y-77783041D01*
X59079372Y-78567459D01*
X59078630Y-79416815D01*
X59402980Y-80201800D01*
X60003041Y-80802909D01*
X60787459Y-81128628D01*
X61636815Y-81129370D01*
X62421800Y-80805020D01*
X63022909Y-80204959D01*
X63333300Y-79457455D01*
X63333300Y-81530060D01*
X62971300Y-81530060D01*
X62729177Y-81577037D01*
X62516373Y-81716827D01*
X62373923Y-81927860D01*
X62323860Y-82177500D01*
X62323860Y-83904700D01*
X62370837Y-84146823D01*
X62510627Y-84359627D01*
X62721660Y-84502077D01*
X62760263Y-84509818D01*
X62742885Y-84521430D01*
X62418029Y-85007611D01*
X62303955Y-85581100D01*
X62418029Y-86154589D01*
X62742885Y-86640770D01*
X63057666Y-86851100D01*
X62742885Y-87061430D01*
X62726401Y-87086100D01*
X62282411Y-87086100D01*
X61885400Y-86689088D01*
X61885400Y-84768300D01*
X61806615Y-84372223D01*
X61806615Y-84372222D01*
X61656008Y-84146823D01*
X61582256Y-84036444D01*
X61582253Y-84036442D01*
X58977100Y-81431288D01*
X58977100Y-67522105D01*
X58977101Y-67522100D01*
X58898315Y-67126023D01*
X58673956Y-66790244D01*
X57276927Y-65393215D01*
X57348628Y-65220541D01*
X57349370Y-64371185D01*
X57025020Y-63586200D01*
X56424959Y-62985091D01*
X55640541Y-62659372D01*
X54791185Y-62658630D01*
X54006200Y-62982980D01*
X53405091Y-63583041D01*
X53079372Y-64367459D01*
X53078630Y-65216815D01*
X53402980Y-66001800D01*
X54003041Y-66602909D01*
X54787459Y-66928628D01*
X55636815Y-66929370D01*
X55812901Y-66856613D01*
X56907100Y-67950812D01*
X56907100Y-76084462D01*
X56862957Y-75977628D01*
X56333161Y-75446907D01*
X55640595Y-75159328D01*
X54890695Y-75158674D01*
X54197628Y-75445043D01*
X53666907Y-75974839D01*
X53379328Y-76667405D01*
X53378674Y-77417305D01*
X53665043Y-78110372D01*
X54194839Y-78641093D01*
X54887405Y-78928672D01*
X55637305Y-78929326D01*
X56330372Y-78642957D01*
X56861093Y-78113161D01*
X56907100Y-78002364D01*
X56907100Y-81859995D01*
X56907099Y-81860000D01*
X56985885Y-82256077D01*
X57210244Y-82591856D01*
X59815400Y-85197011D01*
X59815400Y-87117795D01*
X59815399Y-87117800D01*
X59894185Y-87513877D01*
X60118544Y-87849656D01*
X61121842Y-88852953D01*
X61121844Y-88852956D01*
X61323129Y-88987449D01*
X61457622Y-89077315D01*
X61853700Y-89156100D01*
X62726401Y-89156100D01*
X62742885Y-89180770D01*
X62943774Y-89315000D01*
X49040927Y-89315000D01*
X49264600Y-89222580D01*
X49865709Y-88622519D01*
X50191428Y-87838101D01*
X50192170Y-86988745D01*
X49867820Y-86203760D01*
X49267759Y-85602651D01*
X48483341Y-85276932D01*
X47633985Y-85276190D01*
X46849000Y-85600540D01*
X46247891Y-86200601D01*
X45922172Y-86985019D01*
X45921430Y-87834375D01*
X46245780Y-88619360D01*
X46845841Y-89220469D01*
X47073497Y-89315000D01*
X45685000Y-89315000D01*
X45685000Y-80997195D01*
X46542830Y-80997195D01*
X46224061Y-81156978D01*
X45914077Y-81947747D01*
X45930303Y-82796947D01*
X46224061Y-83506142D01*
X46542830Y-83665925D01*
X47697590Y-82511165D01*
X48056800Y-82511165D01*
X46722435Y-83845530D01*
X46882218Y-84164299D01*
X47672987Y-84474283D01*
X48522187Y-84458057D01*
X49231382Y-84164299D01*
X49391165Y-83845530D01*
X49309656Y-83764021D01*
X56302883Y-83764021D01*
X55499514Y-84095967D01*
X54884327Y-84710081D01*
X54550980Y-85512870D01*
X54550221Y-86382117D01*
X54882167Y-87185486D01*
X55496281Y-87800673D01*
X56299070Y-88134020D01*
X57168317Y-88134779D01*
X57971686Y-87802833D01*
X58586873Y-87188719D01*
X58920220Y-86385930D01*
X58920979Y-85516683D01*
X58589033Y-84713314D01*
X57974919Y-84098127D01*
X57172130Y-83764780D01*
X56302883Y-83764021D01*
X49309656Y-83764021D01*
X48056800Y-82511165D01*
X47697590Y-82511165D01*
X47877195Y-82331560D01*
X46542830Y-80997195D01*
X45685000Y-80997195D01*
X45685000Y-80188837D01*
X48440613Y-80188837D01*
X47591413Y-80205063D01*
X46882218Y-80498821D01*
X46722435Y-80817590D01*
X48056800Y-82151955D01*
X49211560Y-80997195D01*
X49570770Y-80997195D01*
X48236405Y-82331560D01*
X49570770Y-83665925D01*
X49889539Y-83506142D01*
X50199523Y-82715373D01*
X50183297Y-81866173D01*
X49889539Y-81156978D01*
X49570770Y-80997195D01*
X49211560Y-80997195D01*
X49391165Y-80817590D01*
X49231382Y-80498821D01*
X48440613Y-80188837D01*
X45685000Y-80188837D01*
X45685000Y-75116190D01*
X47633985Y-75116190D01*
X46849000Y-75440540D01*
X46247891Y-76040601D01*
X45922172Y-76825019D01*
X45921430Y-77674375D01*
X46245780Y-78459360D01*
X46845841Y-79060469D01*
X47630259Y-79386188D01*
X48479615Y-79386930D01*
X49264600Y-79062580D01*
X49865709Y-78462519D01*
X50191428Y-77678101D01*
X50192170Y-76828745D01*
X49867820Y-76043760D01*
X49267759Y-75442651D01*
X48483341Y-75116932D01*
X47633985Y-75116190D01*
X45685000Y-75116190D01*
X45685000Y-70837195D01*
X46542830Y-70837195D01*
X46224061Y-70996978D01*
X45914077Y-71787747D01*
X45930303Y-72636947D01*
X46224061Y-73346142D01*
X46542830Y-73505925D01*
X47697590Y-72351165D01*
X48056800Y-72351165D01*
X46722435Y-73685530D01*
X46882218Y-74004299D01*
X47672987Y-74314283D01*
X48522187Y-74298057D01*
X49231382Y-74004299D01*
X49391165Y-73685530D01*
X48056800Y-72351165D01*
X47697590Y-72351165D01*
X47877195Y-72171560D01*
X46542830Y-70837195D01*
X45685000Y-70837195D01*
X45685000Y-70028837D01*
X48440613Y-70028837D01*
X47591413Y-70045063D01*
X46882218Y-70338821D01*
X46722435Y-70657590D01*
X48056800Y-71991955D01*
X49211560Y-70837195D01*
X49570770Y-70837195D01*
X48236405Y-72171560D01*
X49570770Y-73505925D01*
X49889539Y-73346142D01*
X50199523Y-72555373D01*
X50183297Y-71706173D01*
X49889539Y-70996978D01*
X49570770Y-70837195D01*
X49211560Y-70837195D01*
X49391165Y-70657590D01*
X49231382Y-70338821D01*
X48440613Y-70028837D01*
X45685000Y-70028837D01*
X45685000Y-64956190D01*
X47633985Y-64956190D01*
X46849000Y-65280540D01*
X46247891Y-65880601D01*
X45922172Y-66665019D01*
X45921430Y-67514375D01*
X46245780Y-68299360D01*
X46845841Y-68900469D01*
X47630259Y-69226188D01*
X48479615Y-69226930D01*
X49264600Y-68902580D01*
X49865709Y-68302519D01*
X50191428Y-67518101D01*
X50192170Y-66668745D01*
X49867820Y-65883760D01*
X49267759Y-65282651D01*
X48483341Y-64956932D01*
X47633985Y-64956190D01*
X45685000Y-64956190D01*
X45685000Y-62138560D01*
X46080550Y-62138560D01*
X45921800Y-62297310D01*
X45921800Y-63637869D01*
X46018473Y-63871258D01*
X46197101Y-64049887D01*
X46430490Y-64146560D01*
X47771050Y-64146560D01*
X47929800Y-63987810D01*
X47929800Y-62138560D01*
X48183800Y-62138560D01*
X48183800Y-63987810D01*
X48342550Y-64146560D01*
X49683110Y-64146560D01*
X49916499Y-64049887D01*
X50095127Y-63871258D01*
X50191800Y-63637869D01*
X50191800Y-62297310D01*
X50124490Y-62230000D01*
X71146090Y-62230000D01*
X70912701Y-62326673D01*
X70734073Y-62505302D01*
X70637400Y-62738691D01*
X70637400Y-63595250D01*
X70796150Y-63754000D01*
X72009000Y-63754000D01*
X72009000Y-62388750D01*
X71850250Y-62230000D01*
X71146090Y-62230000D01*
X50124490Y-62230000D01*
X50033050Y-62138560D01*
X48183800Y-62138560D01*
X47929800Y-62138560D01*
X47929800Y-62138560D01*
X46080550Y-62138560D01*
X45685000Y-62138560D01*
X45685000Y-59876560D01*
X46430490Y-59876560D01*
X46197101Y-59973233D01*
X46018473Y-60151862D01*
X45921800Y-60385251D01*
X45921800Y-61725810D01*
X46080550Y-61884560D01*
X47929800Y-61884560D01*
X47929800Y-60035310D01*
X47771050Y-59876560D01*
X48342550Y-59876560D01*
X48183800Y-60035310D01*
X48183800Y-61884560D01*
X50033050Y-61884560D01*
X50191800Y-61725810D01*
X50191800Y-60385251D01*
X50095127Y-60151862D01*
X49916499Y-59973233D01*
X49683110Y-59876560D01*
X48342550Y-59876560D01*
X47771050Y-59876560D01*
X47771050Y-59876560D01*
X46430490Y-59876560D01*
X45685000Y-59876560D01*
X45685000Y-59461400D01*
X52679600Y-59461400D01*
X52728201Y-59451733D01*
X52769403Y-59424203D01*
X52796933Y-59383001D01*
X52806600Y-59334400D01*
X52806600Y-44145037D01*
X75505882Y-44145037D01*
X75160341Y-44287812D01*
X75125092Y-44323000D01*
X62103000Y-44323000D01*
X61811395Y-44381004D01*
X61564184Y-44546185D01*
X60695290Y-45415079D01*
X60646882Y-45415037D01*
X60301341Y-45557812D01*
X60036741Y-45821951D01*
X59893363Y-46167242D01*
X59893037Y-46541118D01*
X60035812Y-46886659D01*
X60299951Y-47151259D01*
X60645242Y-47294637D01*
X61019118Y-47294963D01*
X61159809Y-47236830D01*
X61170812Y-47263459D01*
X61434951Y-47528059D01*
X61780242Y-47671437D01*
X61830050Y-47671480D01*
X63003985Y-48845416D01*
X63125684Y-48926733D01*
X63060363Y-49084042D01*
X63060066Y-49424199D01*
X62874082Y-49424037D01*
X62528541Y-49566812D01*
X62263941Y-49830951D01*
X62135676Y-50139845D01*
X58791839Y-46796009D01*
X58919837Y-46487758D01*
X58920163Y-46113882D01*
X58777388Y-45768341D01*
X58513249Y-45503741D01*
X58167958Y-45360363D01*
X57794082Y-45360037D01*
X57448541Y-45502812D01*
X57183941Y-45766951D01*
X57040563Y-46112242D01*
X57040519Y-46162289D01*
X55846721Y-44968491D01*
X55846763Y-44920082D01*
X55703988Y-44574541D01*
X55439849Y-44309941D01*
X55094558Y-44166563D01*
X54720682Y-44166237D01*
X54375141Y-44309012D01*
X54110541Y-44573151D01*
X53967163Y-44918442D01*
X53966837Y-45292318D01*
X54109612Y-45637859D01*
X54373751Y-45902459D01*
X54719042Y-46045837D01*
X54768850Y-46045880D01*
X54857716Y-46134746D01*
X54847682Y-46134737D01*
X54502141Y-46277512D01*
X54237541Y-46541651D01*
X54094163Y-46886942D01*
X54093837Y-47260818D01*
X54236612Y-47606359D01*
X54500751Y-47870959D01*
X54846042Y-48014337D01*
X55219918Y-48014663D01*
X55553995Y-47876625D01*
X56089028Y-48411658D01*
X55863141Y-48637151D01*
X55719763Y-48982442D01*
X55719437Y-49356318D01*
X55862212Y-49701859D01*
X56126351Y-49966459D01*
X56471642Y-50109837D01*
X56521450Y-50109880D01*
X57014879Y-50603310D01*
X57014837Y-50651718D01*
X57157612Y-50997259D01*
X57421751Y-51261859D01*
X57767042Y-51405237D01*
X58140918Y-51405563D01*
X58486459Y-51262788D01*
X58713506Y-51036136D01*
X63969185Y-56291816D01*
X64216396Y-56456997D01*
X64508000Y-56515000D01*
X66082818Y-56515000D01*
X66082637Y-56722318D01*
X66225412Y-57067859D01*
X66489551Y-57332459D01*
X66834842Y-57475837D01*
X66884650Y-57475880D01*
X67017185Y-57608416D01*
X67264396Y-57773597D01*
X67556000Y-57831600D01*
X73033952Y-57831600D01*
X73068151Y-57865859D01*
X73413442Y-58009237D01*
X73787318Y-58009563D01*
X74132859Y-57866788D01*
X74397459Y-57602649D01*
X74540837Y-57257358D01*
X74541163Y-56883482D01*
X74398388Y-56537941D01*
X74375487Y-56515000D01*
X79150604Y-56515000D01*
X79070363Y-56708242D01*
X79070320Y-56758050D01*
X76138370Y-59690000D01*
X63688630Y-59690000D01*
X58978921Y-54980291D01*
X58978963Y-54931882D01*
X58836188Y-54586341D01*
X58572049Y-54321741D01*
X58226758Y-54178363D01*
X57852882Y-54178037D01*
X57507341Y-54320812D01*
X57242741Y-54584951D01*
X57099363Y-54930242D01*
X57099037Y-55304118D01*
X57241812Y-55649659D01*
X57505951Y-55914259D01*
X57851242Y-56057637D01*
X57901050Y-56057680D01*
X62422370Y-60579000D01*
X62164631Y-60579000D01*
X56819921Y-55234291D01*
X56819963Y-55185882D01*
X56677188Y-54840341D01*
X56413049Y-54575741D01*
X56067758Y-54432363D01*
X55693882Y-54432037D01*
X55348341Y-54574812D01*
X55083741Y-54838951D01*
X54940363Y-55184242D01*
X54940037Y-55558118D01*
X55082812Y-55903659D01*
X55346951Y-56168259D01*
X55692242Y-56311637D01*
X55742050Y-56311680D01*
X61310185Y-61879816D01*
X61458377Y-61978834D01*
X61557395Y-62044996D01*
X61849000Y-62103000D01*
X76140752Y-62103000D01*
X76174951Y-62137259D01*
X76520242Y-62280637D01*
X76797605Y-62280879D01*
X76642511Y-62311729D01*
X76156330Y-62636585D01*
X75946000Y-62951366D01*
X75735670Y-62636585D01*
X75249489Y-62311729D01*
X74676000Y-62197655D01*
X74102511Y-62311729D01*
X73616330Y-62636585D01*
X73601500Y-62658780D01*
X73537927Y-62505302D01*
X73359299Y-62326673D01*
X73125910Y-62230000D01*
X72421750Y-62230000D01*
X72263000Y-62388750D01*
X72263000Y-63754000D01*
X72283000Y-63754000D01*
X72283000Y-64008000D01*
X72263000Y-64008000D01*
X72263000Y-65373250D01*
X72421750Y-65532000D01*
X73125910Y-65532000D01*
X73359299Y-65435327D01*
X73537927Y-65256698D01*
X73601500Y-65103220D01*
X73616330Y-65125415D01*
X74102511Y-65450271D01*
X74676000Y-65564345D01*
X75249489Y-65450271D01*
X75735670Y-65125415D01*
X75946000Y-64810634D01*
X76156330Y-65125415D01*
X76642511Y-65450271D01*
X77216000Y-65564345D01*
X77789489Y-65450271D01*
X78275670Y-65125415D01*
X78486000Y-64810634D01*
X78696330Y-65125415D01*
X79182511Y-65450271D01*
X79756000Y-65564345D01*
X80329489Y-65450271D01*
X80815670Y-65125415D01*
X81026000Y-64810634D01*
X81236330Y-65125415D01*
X81722511Y-65450271D01*
X82296000Y-65564345D01*
X82869489Y-65450271D01*
X83355670Y-65125415D01*
X83566000Y-64810634D01*
X83776330Y-65125415D01*
X84262511Y-65450271D01*
X84836000Y-65564345D01*
X85409489Y-65450271D01*
X85895670Y-65125415D01*
X86220526Y-64639234D01*
X86334600Y-64065745D01*
X86334600Y-63696255D01*
X86220526Y-63122766D01*
X85895670Y-62636585D01*
X85409489Y-62311729D01*
X84836000Y-62197655D01*
X84262511Y-62311729D01*
X83776330Y-62636585D01*
X83566000Y-62951366D01*
X83481800Y-62825352D01*
X83481800Y-58528230D01*
X87179270Y-62225701D01*
X87105682Y-62225637D01*
X86760141Y-62368412D01*
X86495541Y-62632551D01*
X86352163Y-62977842D01*
X86351837Y-63351718D01*
X86494612Y-63697259D01*
X86758751Y-63961859D01*
X87087052Y-64098182D01*
X90061851Y-67072981D01*
X89876872Y-67518459D01*
X89876130Y-68367815D01*
X90200480Y-69152800D01*
X90800541Y-69753909D01*
X91584959Y-70079628D01*
X92434315Y-70080370D01*
X93219300Y-69756020D01*
X93820409Y-69155959D01*
X94146128Y-68371541D01*
X94146870Y-67522185D01*
X93822520Y-66737200D01*
X93222459Y-66136091D01*
X92438041Y-65810372D01*
X91588685Y-65809630D01*
X91139401Y-65995271D01*
X89146000Y-64001870D01*
X89146000Y-63303431D01*
X89246384Y-63403815D01*
X89473398Y-63555501D01*
X89493595Y-63568996D01*
X89785200Y-63627000D01*
X90016279Y-63627000D01*
X90200480Y-64072800D01*
X90800541Y-64673909D01*
X91584959Y-64999628D01*
X92434315Y-65000370D01*
X93219300Y-64676020D01*
X93820409Y-64075959D01*
X94146128Y-63291541D01*
X94146870Y-62442185D01*
X93822520Y-61657200D01*
X93222459Y-61056091D01*
X92438041Y-60730372D01*
X91588685Y-60729630D01*
X90803700Y-61053980D01*
X90202591Y-61654041D01*
X90041008Y-62043177D01*
X88079200Y-60081369D01*
X88079200Y-59592648D01*
X88113459Y-59558449D01*
X88256837Y-59213158D01*
X88257163Y-58839282D01*
X88136394Y-58547000D01*
X90016279Y-58547000D01*
X90200480Y-58992800D01*
X90800541Y-59593909D01*
X91584959Y-59919628D01*
X92434315Y-59920370D01*
X93219300Y-59596020D01*
X93820409Y-58995959D01*
X94146128Y-58211541D01*
X94146870Y-57362185D01*
X93822520Y-56577200D01*
X93222459Y-55976091D01*
X92438041Y-55650372D01*
X91588685Y-55649630D01*
X90803700Y-55973980D01*
X90202591Y-56574041D01*
X90016167Y-57023000D01*
X87958830Y-57023000D01*
X90634376Y-54347454D01*
X90800541Y-54513909D01*
X91584959Y-54839628D01*
X92434315Y-54840370D01*
X93219300Y-54516020D01*
X93820409Y-53915959D01*
X94146128Y-53131541D01*
X94146870Y-52282185D01*
X93822520Y-51497200D01*
X93222459Y-50896091D01*
X92438041Y-50570372D01*
X91588685Y-50569630D01*
X90803700Y-50893980D01*
X90202591Y-51494041D01*
X89876872Y-52278459D01*
X89876285Y-52950284D01*
X86874691Y-55951879D01*
X86826282Y-55951837D01*
X86480741Y-56094612D01*
X86216141Y-56358751D01*
X86072763Y-56704042D01*
X86072485Y-57023000D01*
X85909830Y-57023000D01*
X81384430Y-52497600D01*
X87458770Y-52497600D01*
X87408091Y-52548279D01*
X87359682Y-52548237D01*
X87014141Y-52691012D01*
X86749541Y-52955151D01*
X86606163Y-53300442D01*
X86605837Y-53674318D01*
X86748612Y-54019859D01*
X87012751Y-54284459D01*
X87358042Y-54427837D01*
X87731918Y-54428163D01*
X88077459Y-54285388D01*
X88342059Y-54021249D01*
X88485437Y-53675958D01*
X88485480Y-53626150D01*
X89583215Y-52528416D01*
X89748396Y-52281205D01*
X89772110Y-52161985D01*
X89806400Y-51989600D01*
X89806400Y-50907730D01*
X91139481Y-49574649D01*
X91584959Y-49759628D01*
X92434315Y-49760370D01*
X93219300Y-49436020D01*
X93820409Y-48835959D01*
X94146128Y-48051541D01*
X94146870Y-47202185D01*
X93822520Y-46417200D01*
X93222459Y-45816091D01*
X92438041Y-45490372D01*
X91588685Y-45489630D01*
X90803700Y-45813980D01*
X90202591Y-46414041D01*
X89876872Y-47198459D01*
X89876130Y-48047815D01*
X90061771Y-48497099D01*
X88505585Y-50053285D01*
X88340404Y-50300495D01*
X88282400Y-50592100D01*
X88282400Y-50973600D01*
X85797647Y-50973600D01*
X86173188Y-50625379D01*
X86441983Y-50039946D01*
X86323367Y-49784000D01*
X84963000Y-49784000D01*
X84963000Y-49804000D01*
X84709000Y-49804000D01*
X84709000Y-49784000D01*
X84689000Y-49784000D01*
X84689000Y-49530000D01*
X84709000Y-49530000D01*
X84709000Y-48170164D01*
X84453056Y-48051025D01*
X85218944Y-48051025D01*
X84963000Y-48170164D01*
X84963000Y-49530000D01*
X86323367Y-49530000D01*
X86441983Y-49274054D01*
X86173188Y-48688621D01*
X85700818Y-48250615D01*
X85218944Y-48051025D01*
X84453056Y-48051025D01*
X84453056Y-48051025D01*
X83971182Y-48250615D01*
X83874164Y-48340575D01*
X83772673Y-48186073D01*
X83561640Y-48043623D01*
X83312000Y-47993560D01*
X81710190Y-47993560D01*
X81484415Y-47767785D01*
X81340708Y-47671763D01*
X81237205Y-47602604D01*
X80945600Y-47544600D01*
X63858431Y-47544600D01*
X62907921Y-46594091D01*
X62907963Y-46545682D01*
X62765188Y-46200141D01*
X62501049Y-45935541D01*
X62380250Y-45885381D01*
X62418631Y-45847000D01*
X75124752Y-45847000D01*
X75158951Y-45881259D01*
X75504242Y-46024637D01*
X75878118Y-46024963D01*
X76223659Y-45882188D01*
X76488259Y-45618049D01*
X76631637Y-45272758D01*
X76631963Y-44898882D01*
X76489188Y-44553341D01*
X76225049Y-44288741D01*
X75879758Y-44145363D01*
X75505882Y-44145037D01*
X52806600Y-44145037D01*
X52806600Y-41879421D01*
X82909383Y-41879421D01*
X82106014Y-42211367D01*
X81490827Y-42825481D01*
X81157480Y-43628270D01*
X81156721Y-44497517D01*
X81488667Y-45300886D01*
X82102781Y-45916073D01*
X82905570Y-46249420D01*
X83774817Y-46250179D01*
X84578186Y-45918233D01*
X85193373Y-45304119D01*
X85526720Y-44501330D01*
X85527479Y-43632083D01*
X85195533Y-42828714D01*
X84581419Y-42213527D01*
X83778630Y-41880180D01*
X82909383Y-41879421D01*
X52806600Y-41879421D01*
X52806600Y-40685000D01*
X90922240Y-40685000D01*
X90803700Y-40733980D01*
M02*
