M48
; DRILL file {KiCad (5.1.2-1)-1} date Saturday, 03 August 2019 at 00:50:47
; FORMAT={-:-/ absolute / inch / decimal}
; #@! TF.CreationDate,2019-08-03T00:50:47+01:00
; #@! TF.GenerationSoftware,Kicad,Pcbnew,(5.1.2-1)-1
; #@! TF.FileFunction,Plated,1,2,PTH
FMAT,2
INCH
T1C0.0120
T2C0.0394
T3C0.0400
T4C0.0512
%
G90
G05
T1
X2.1617Y-1.7758
X2.1667Y-1.8533
X2.2Y-2.18
X2.2307Y-1.9358
X2.2817Y-1.9868
X2.2827Y-1.8228
X2.2845Y-2.121
X2.395Y-1.825
X2.4057Y-1.9283
X2.4397Y-1.8398
X2.4777Y-2.0488
X2.5197Y-1.9398
X2.5617Y-2.0788
X2.5647Y-2.1288
X2.6387Y-2.2258
X2.745Y-1.6651
X2.79Y-1.6651
X2.8635Y-2.0835
X2.9544Y-2.236
X2.98Y-1.775
X2.9975Y-2.2369
X3.0875Y-2.25
X3.1425Y-1.9744
X3.2378Y-2.0992
X3.4326Y-2.4851
X3.4465Y-2.3866
T2
X3.337Y-2.8874
X3.337Y-2.9874
X3.337Y-3.0874
T3
X3.24Y-1.955
X3.34Y-1.955
X2.8314Y-2.464
X2.9314Y-2.464
X3.0314Y-2.464
X3.1314Y-2.464
X3.2314Y-2.464
X3.3314Y-2.464
T4
X3.6225Y-1.675
X3.6225Y-1.875
X3.6225Y-2.075
X3.6225Y-2.275
X3.6225Y-2.475
X3.6225Y-2.675
X3.6225Y-2.875
X3.6225Y-3.075
X1.892Y-2.4414
X1.892Y-2.6414
X1.892Y-2.8414
X1.892Y-3.0414
X1.892Y-3.2414
X1.892Y-3.4414
X2.7137Y-3.4243
X2.9137Y-3.4243
X3.1137Y-3.4243
X3.3137Y-3.4243
X2.1768Y-2.5732
X2.1768Y-3.0535
X2.413Y-3.1323
X2.6492Y-2.5732
X2.6492Y-3.0535
T0
M30
