G04 #@! TF.GenerationSoftware,KiCad,Pcbnew,(5.1.5-0-10_14)*
G04 #@! TF.CreationDate,2020-07-18T00:58:46+01:00*
G04 #@! TF.ProjectId,onyx_robot,6f6e7978-5f72-46f6-926f-742e6b696361,rev?*
G04 #@! TF.SameCoordinates,Original*
G04 #@! TF.FileFunction,Soldermask,Bot*
G04 #@! TF.FilePolarity,Negative*
%FSLAX46Y46*%
G04 Gerber Fmt 4.6, Leading zero omitted, Abs format (unit mm)*
G04 Created by KiCad (PCBNEW (5.1.5-0-10_14)) date 2020-07-18 00:58:46*
%MOMM*%
%LPD*%
G04 APERTURE LIST*
%ADD10C,0.100000*%
%ADD11O,1.700000X1.700000*%
%ADD12R,1.700000X1.700000*%
%ADD13R,3.000000X3.000000*%
%ADD14C,3.000000*%
%ADD15C,2.600000*%
%ADD16O,2.300000X1.500000*%
%ADD17R,2.300000X1.500000*%
%ADD18R,1.727200X2.032000*%
%ADD19O,1.727200X2.032000*%
%ADD20C,3.100000*%
G04 APERTURE END LIST*
D10*
G36*
X62597600Y-75364200D02*
G01*
X62597600Y-74864200D01*
X62598202Y-74864200D01*
X62598202Y-74839666D01*
X62603012Y-74790835D01*
X62612584Y-74742710D01*
X62626828Y-74695755D01*
X62645605Y-74650422D01*
X62668736Y-74607149D01*
X62695996Y-74566350D01*
X62727124Y-74528421D01*
X62761821Y-74493724D01*
X62799750Y-74462596D01*
X62840549Y-74435336D01*
X62883822Y-74412205D01*
X62929155Y-74393428D01*
X62976110Y-74379184D01*
X63024235Y-74369612D01*
X63073066Y-74364802D01*
X63097600Y-74364802D01*
X63097600Y-74364200D01*
X63597600Y-74364200D01*
X63597600Y-74364802D01*
X63622134Y-74364802D01*
X63670965Y-74369612D01*
X63719090Y-74379184D01*
X63766045Y-74393428D01*
X63811378Y-74412205D01*
X63854651Y-74435336D01*
X63895450Y-74462596D01*
X63933379Y-74493724D01*
X63968076Y-74528421D01*
X63999204Y-74566350D01*
X64026464Y-74607149D01*
X64049595Y-74650422D01*
X64068372Y-74695755D01*
X64082616Y-74742710D01*
X64092188Y-74790835D01*
X64096998Y-74839666D01*
X64096998Y-74864200D01*
X64097600Y-74864200D01*
X64097600Y-75364200D01*
X62597600Y-75364200D01*
G37*
G36*
X64096998Y-76164200D02*
G01*
X64096998Y-76188734D01*
X64092188Y-76237565D01*
X64082616Y-76285690D01*
X64068372Y-76332645D01*
X64049595Y-76377978D01*
X64026464Y-76421251D01*
X63999204Y-76462050D01*
X63968076Y-76499979D01*
X63933379Y-76534676D01*
X63895450Y-76565804D01*
X63854651Y-76593064D01*
X63811378Y-76616195D01*
X63766045Y-76634972D01*
X63719090Y-76649216D01*
X63670965Y-76658788D01*
X63622134Y-76663598D01*
X63597600Y-76663598D01*
X63597600Y-76664200D01*
X63097600Y-76664200D01*
X63097600Y-76663598D01*
X63073066Y-76663598D01*
X63024235Y-76658788D01*
X62976110Y-76649216D01*
X62929155Y-76634972D01*
X62883822Y-76616195D01*
X62840549Y-76593064D01*
X62799750Y-76565804D01*
X62761821Y-76534676D01*
X62727124Y-76499979D01*
X62695996Y-76462050D01*
X62668736Y-76421251D01*
X62645605Y-76377978D01*
X62626828Y-76332645D01*
X62612584Y-76285690D01*
X62603012Y-76237565D01*
X62598202Y-76188734D01*
X62598202Y-76164200D01*
X62597600Y-76164200D01*
X62597600Y-75664200D01*
X64097600Y-75664200D01*
X64097600Y-76164200D01*
X64096998Y-76164200D01*
G37*
G36*
X64096998Y-72724800D02*
G01*
X64096998Y-72749334D01*
X64092188Y-72798165D01*
X64082616Y-72846290D01*
X64068372Y-72893245D01*
X64049595Y-72938578D01*
X64026464Y-72981851D01*
X63999204Y-73022650D01*
X63968076Y-73060579D01*
X63933379Y-73095276D01*
X63895450Y-73126404D01*
X63854651Y-73153664D01*
X63811378Y-73176795D01*
X63766045Y-73195572D01*
X63719090Y-73209816D01*
X63670965Y-73219388D01*
X63622134Y-73224198D01*
X63597600Y-73224198D01*
X63597600Y-73224800D01*
X63097600Y-73224800D01*
X63097600Y-73224198D01*
X63073066Y-73224198D01*
X63024235Y-73219388D01*
X62976110Y-73209816D01*
X62929155Y-73195572D01*
X62883822Y-73176795D01*
X62840549Y-73153664D01*
X62799750Y-73126404D01*
X62761821Y-73095276D01*
X62727124Y-73060579D01*
X62695996Y-73022650D01*
X62668736Y-72981851D01*
X62645605Y-72938578D01*
X62626828Y-72893245D01*
X62612584Y-72846290D01*
X62603012Y-72798165D01*
X62598202Y-72749334D01*
X62598202Y-72724800D01*
X62597600Y-72724800D01*
X62597600Y-72224800D01*
X64097600Y-72224800D01*
X64097600Y-72724800D01*
X64096998Y-72724800D01*
G37*
G36*
X62597600Y-71924800D02*
G01*
X62597600Y-71424800D01*
X62598202Y-71424800D01*
X62598202Y-71400266D01*
X62603012Y-71351435D01*
X62612584Y-71303310D01*
X62626828Y-71256355D01*
X62645605Y-71211022D01*
X62668736Y-71167749D01*
X62695996Y-71126950D01*
X62727124Y-71089021D01*
X62761821Y-71054324D01*
X62799750Y-71023196D01*
X62840549Y-70995936D01*
X62883822Y-70972805D01*
X62929155Y-70954028D01*
X62976110Y-70939784D01*
X63024235Y-70930212D01*
X63073066Y-70925402D01*
X63097600Y-70925402D01*
X63097600Y-70924800D01*
X63597600Y-70924800D01*
X63597600Y-70925402D01*
X63622134Y-70925402D01*
X63670965Y-70930212D01*
X63719090Y-70939784D01*
X63766045Y-70954028D01*
X63811378Y-70972805D01*
X63854651Y-70995936D01*
X63895450Y-71023196D01*
X63933379Y-71054324D01*
X63968076Y-71089021D01*
X63999204Y-71126950D01*
X64026464Y-71167749D01*
X64049595Y-71211022D01*
X64068372Y-71256355D01*
X64082616Y-71303310D01*
X64092188Y-71351435D01*
X64096998Y-71400266D01*
X64096998Y-71424800D01*
X64097600Y-71424800D01*
X64097600Y-71924800D01*
X62597600Y-71924800D01*
G37*
G36*
X62597600Y-68495800D02*
G01*
X62597600Y-67995800D01*
X62598202Y-67995800D01*
X62598202Y-67971266D01*
X62603012Y-67922435D01*
X62612584Y-67874310D01*
X62626828Y-67827355D01*
X62645605Y-67782022D01*
X62668736Y-67738749D01*
X62695996Y-67697950D01*
X62727124Y-67660021D01*
X62761821Y-67625324D01*
X62799750Y-67594196D01*
X62840549Y-67566936D01*
X62883822Y-67543805D01*
X62929155Y-67525028D01*
X62976110Y-67510784D01*
X63024235Y-67501212D01*
X63073066Y-67496402D01*
X63097600Y-67496402D01*
X63097600Y-67495800D01*
X63597600Y-67495800D01*
X63597600Y-67496402D01*
X63622134Y-67496402D01*
X63670965Y-67501212D01*
X63719090Y-67510784D01*
X63766045Y-67525028D01*
X63811378Y-67543805D01*
X63854651Y-67566936D01*
X63895450Y-67594196D01*
X63933379Y-67625324D01*
X63968076Y-67660021D01*
X63999204Y-67697950D01*
X64026464Y-67738749D01*
X64049595Y-67782022D01*
X64068372Y-67827355D01*
X64082616Y-67874310D01*
X64092188Y-67922435D01*
X64096998Y-67971266D01*
X64096998Y-67995800D01*
X64097600Y-67995800D01*
X64097600Y-68495800D01*
X62597600Y-68495800D01*
G37*
G36*
X64096998Y-69295800D02*
G01*
X64096998Y-69320334D01*
X64092188Y-69369165D01*
X64082616Y-69417290D01*
X64068372Y-69464245D01*
X64049595Y-69509578D01*
X64026464Y-69552851D01*
X63999204Y-69593650D01*
X63968076Y-69631579D01*
X63933379Y-69666276D01*
X63895450Y-69697404D01*
X63854651Y-69724664D01*
X63811378Y-69747795D01*
X63766045Y-69766572D01*
X63719090Y-69780816D01*
X63670965Y-69790388D01*
X63622134Y-69795198D01*
X63597600Y-69795198D01*
X63597600Y-69795800D01*
X63097600Y-69795800D01*
X63097600Y-69795198D01*
X63073066Y-69795198D01*
X63024235Y-69790388D01*
X62976110Y-69780816D01*
X62929155Y-69766572D01*
X62883822Y-69747795D01*
X62840549Y-69724664D01*
X62799750Y-69697404D01*
X62761821Y-69666276D01*
X62727124Y-69631579D01*
X62695996Y-69593650D01*
X62668736Y-69552851D01*
X62645605Y-69509578D01*
X62626828Y-69464245D01*
X62612584Y-69417290D01*
X62603012Y-69369165D01*
X62598202Y-69320334D01*
X62598202Y-69295800D01*
X62597600Y-69295800D01*
X62597600Y-68795800D01*
X64097600Y-68795800D01*
X64097600Y-69295800D01*
X64096998Y-69295800D01*
G37*
D11*
X84836000Y-49657000D03*
D12*
X82296000Y-49657000D03*
D11*
X64389000Y-88595200D03*
X64389000Y-86055200D03*
D12*
X64389000Y-83515200D03*
D13*
X48056800Y-62011560D03*
D14*
X48056800Y-67091560D03*
X48056800Y-72171560D03*
X48056800Y-77251560D03*
X48056800Y-82331560D03*
X48056800Y-87411560D03*
X61290000Y-79560000D03*
D15*
X67290000Y-77560000D03*
X55290000Y-77560000D03*
D14*
X67290000Y-65360000D03*
X55290000Y-65360000D03*
D16*
X84760000Y-73340000D03*
X84760000Y-75880000D03*
D17*
X84760000Y-78420000D03*
D13*
X92011500Y-78105000D03*
D14*
X92011500Y-73025000D03*
X92011500Y-67945000D03*
X92011500Y-62865000D03*
X92011500Y-57785000D03*
X92011500Y-52705000D03*
X92011500Y-47625000D03*
X92011500Y-42545000D03*
D18*
X71917180Y-62586480D03*
D19*
X74457180Y-62586480D03*
X76997180Y-62586480D03*
X79537180Y-62586480D03*
X82077180Y-62586480D03*
X84617180Y-62586480D03*
D13*
X68927600Y-86978100D03*
D14*
X74007600Y-86978100D03*
X79087600Y-86978100D03*
X84167600Y-86978100D03*
D20*
X56735600Y-85949400D03*
X90911300Y-85949400D03*
X83342100Y-44064800D03*
M02*
