M48
;DRILL file {KiCad 0.201506192325+5795~23~ubuntu14.04.1-product} date Sat 22 Aug 2015 00:19:37 BST
;FORMAT={-:-/ absolute / metric / decimal}
FMAT,2
METRIC,TZ
T1C0.305
T2C1.000
T3C1.016
T4C1.300
T5C3.100
%
G90
G05
M71
T1
X54.145Y-81.301
X54.907Y-45.106
X55.034Y-47.075
X55.88Y-55.372
X56.659Y-49.17
X57.955Y-50.466
X57.98Y-46.3
X58.039Y-55.118
X59.276Y-81.276
X60.833Y-46.355
X61.968Y-46.732
X62.933Y-52.04
X63.06Y-50.364
X64.Y-49.272
X65.067Y-52.802
X65.143Y-54.072
X67.023Y-56.536
X69.723Y-42.293
X70.866Y-42.293
X72.909Y-81.393
X73.042Y-74.672
X73.601Y-57.07
X74.215Y-76.333
X74.215Y-77.476
X75.024Y-52.701
X75.692Y-45.085
X76.708Y-61.341
X79.875Y-50.059
X80.01Y-56.896
X83.459Y-83.124
X83.877Y-74.301
X84.578Y-67.789
X84.739Y-83.124
X85.198Y-74.301
X85.217Y-78.867
X85.217Y-79.883
X86.004Y-83.124
X87.012Y-56.892
X87.292Y-63.166
X87.317Y-59.025
X87.546Y-53.488
T2
X55.264Y-77.044
X67.264Y-77.044
T3
X63.987Y-83.041
X63.987Y-85.581
X63.987Y-88.121
X72.136Y-63.881
X74.676Y-63.881
X77.216Y-63.881
X79.756Y-63.881
X82.296Y-49.657
X82.296Y-63.881
X84.836Y-49.657
X84.836Y-63.881
T4
X48.057Y-62.012
X48.057Y-67.092
X48.057Y-72.172
X48.057Y-77.252
X48.057Y-82.332
X48.057Y-87.412
X55.214Y-64.794
X61.214Y-78.994
X67.264Y-64.844
X68.928Y-86.978
X74.008Y-86.978
X79.088Y-86.978
X84.168Y-86.978
X92.011Y-42.545
X92.011Y-47.625
X92.011Y-52.705
X92.011Y-57.785
X92.011Y-62.865
X92.011Y-67.945
X92.011Y-73.025
X92.011Y-78.105
T5
X56.736Y-85.949
X83.342Y-44.065
X90.911Y-85.949
T0
M30
