G04 #@! TF.FileFunction,Paste,Top*
%FSLAX46Y46*%
G04 Gerber Fmt 4.6, Leading zero omitted, Abs format (unit mm)*
G04 Created by KiCad (PCBNEW 0.201506192325+5795~23~ubuntu14.04.1-product) date Sun 30 Aug 2015 22:32:50 BST*
%MOMM*%
G01*
G04 APERTURE LIST*
%ADD10C,0.100000*%
%ADD11R,6.600000X2.300000*%
%ADD12R,1.000000X0.600000*%
%ADD13R,1.000000X0.450000*%
%ADD14R,1.060000X0.650000*%
%ADD15R,1.000000X1.600000*%
%ADD16R,1.600000X1.000000*%
%ADD17R,0.800000X0.750000*%
%ADD18R,0.750000X0.800000*%
%ADD19R,2.499360X1.800860*%
%ADD20R,1.800860X2.499360*%
%ADD21R,0.800100X0.800100*%
%ADD22R,0.900000X0.500000*%
%ADD23R,0.500000X0.900000*%
%ADD24O,2.400000X1.100000*%
%ADD25R,1.100000X2.400000*%
%ADD26O,1.100000X2.400000*%
%ADD27R,0.700000X0.600000*%
%ADD28R,0.600000X0.700000*%
G04 APERTURE END LIST*
D10*
D11*
X78482470Y-70367550D03*
X78482470Y-66067550D03*
D12*
X73492000Y-45919000D03*
X73492000Y-42219000D03*
X77892000Y-45919000D03*
X77892000Y-42219000D03*
D13*
X75692000Y-46594000D03*
X75692000Y-41544000D03*
D14*
X75355270Y-74540070D03*
X75355270Y-75490070D03*
X75355270Y-76440070D03*
X77555270Y-76440070D03*
X77555270Y-74540070D03*
X77555270Y-75490070D03*
D15*
X81113500Y-77216000D03*
X84113500Y-77216000D03*
D16*
X84071080Y-66702420D03*
X84071080Y-69702420D03*
D17*
X75732470Y-72717550D03*
X77232470Y-72717550D03*
D18*
X72644000Y-51042000D03*
X72644000Y-49542000D03*
D19*
X80577690Y-73945750D03*
X84575650Y-73945750D03*
D20*
X71749540Y-70732260D03*
X71749540Y-66734300D03*
D21*
X73573300Y-57765560D03*
X71673300Y-57765560D03*
X72623300Y-59764540D03*
X84309840Y-52538200D03*
X84309840Y-54438200D03*
X86308820Y-53488200D03*
D22*
X72842120Y-77737400D03*
X72842120Y-76237400D03*
X72842120Y-74943400D03*
X72842120Y-73443400D03*
D23*
X79572550Y-77933550D03*
X78072550Y-77933550D03*
X76875070Y-77933550D03*
X75375070Y-77933550D03*
X73735500Y-52692300D03*
X75235500Y-52692300D03*
D22*
X81322800Y-58300800D03*
X81322800Y-59800800D03*
X79392400Y-59800800D03*
X79392400Y-58300800D03*
X77462000Y-59800800D03*
X77462000Y-58300800D03*
X76454000Y-51042000D03*
X76454000Y-49542000D03*
X75531600Y-58300800D03*
X75531600Y-59800800D03*
X74549000Y-51042000D03*
X74549000Y-49542000D03*
D24*
X69725000Y-55303000D03*
X69725000Y-53303000D03*
X69725000Y-51303000D03*
X69725000Y-49303000D03*
X69725000Y-47303000D03*
X69725000Y-45303000D03*
D25*
X53975000Y-58293000D03*
D26*
X55975000Y-58293000D03*
X57975000Y-58293000D03*
X59975000Y-58293000D03*
X61975000Y-58293000D03*
X63975000Y-58293000D03*
X65975000Y-58293000D03*
X67975000Y-58293000D03*
X67975000Y-42293000D03*
X65975000Y-42293000D03*
X63975000Y-42293000D03*
X61975000Y-42293000D03*
X59975000Y-42293000D03*
X57975000Y-42293000D03*
X55975000Y-42293000D03*
X53975000Y-42293000D03*
D22*
X85183600Y-59800800D03*
X85183600Y-58300800D03*
X83253200Y-59800800D03*
X83253200Y-58300800D03*
X78351000Y-49537800D03*
X78351000Y-51037800D03*
D27*
X86136100Y-69016720D03*
X86136100Y-67616720D03*
X79870300Y-52767000D03*
X79870300Y-54167000D03*
X78359000Y-52767000D03*
X78359000Y-54167000D03*
D19*
X80398240Y-80305520D03*
X84396200Y-80305520D03*
D27*
X82626200Y-54192400D03*
X82626200Y-52792400D03*
X76860400Y-52767000D03*
X76860400Y-54167000D03*
D28*
X84351900Y-56476900D03*
X85751900Y-56476900D03*
M02*
