G04 #@! TF.GenerationSoftware,KiCad,Pcbnew,(5.1.2-1)-1*
G04 #@! TF.CreationDate,2019-08-03T00:50:44+01:00*
G04 #@! TF.ProjectId,onyx_robot,6f6e7978-5f72-46f6-926f-742e6b696361,rev?*
G04 #@! TF.SameCoordinates,Original*
G04 #@! TF.FileFunction,Paste,Top*
G04 #@! TF.FilePolarity,Positive*
%FSLAX46Y46*%
G04 Gerber Fmt 4.6, Leading zero omitted, Abs format (unit mm)*
G04 Created by KiCad (PCBNEW (5.1.2-1)-1) date 2019-08-03 00:50:44*
%MOMM*%
%LPD*%
G04 APERTURE LIST*
%ADD10O,2.400000X1.100000*%
%ADD11R,1.100000X2.400000*%
%ADD12O,1.100000X2.400000*%
%ADD13C,0.100000*%
%ADD14C,0.975000*%
%ADD15R,1.060000X0.650000*%
%ADD16C,0.875000*%
%ADD17R,2.500000X1.800000*%
%ADD18R,1.800000X2.500000*%
%ADD19R,1.000000X0.600000*%
%ADD20R,1.000000X0.450000*%
%ADD21R,0.800100X0.800100*%
G04 APERTURE END LIST*
D10*
X69725000Y-55303000D03*
X69725000Y-53303000D03*
X69725000Y-51303000D03*
X69725000Y-49303000D03*
X69725000Y-47303000D03*
X69725000Y-45303000D03*
D11*
X53975000Y-58293000D03*
D12*
X55975000Y-58293000D03*
X57975000Y-58293000D03*
X59975000Y-58293000D03*
X61975000Y-58293000D03*
X63975000Y-58293000D03*
X65975000Y-58293000D03*
X67975000Y-58293000D03*
X67975000Y-42293000D03*
X65975000Y-42293000D03*
X63975000Y-42293000D03*
X61975000Y-42293000D03*
X59975000Y-42293000D03*
X57975000Y-42293000D03*
X55975000Y-42293000D03*
X53975000Y-42293000D03*
D13*
G36*
X74330142Y-70018674D02*
G01*
X74353803Y-70022184D01*
X74377007Y-70027996D01*
X74399529Y-70036054D01*
X74421153Y-70046282D01*
X74441670Y-70058579D01*
X74460883Y-70072829D01*
X74478607Y-70088893D01*
X74494671Y-70106617D01*
X74508921Y-70125830D01*
X74521218Y-70146347D01*
X74531446Y-70167971D01*
X74539504Y-70190493D01*
X74545316Y-70213697D01*
X74548826Y-70237358D01*
X74550000Y-70261250D01*
X74550000Y-70748750D01*
X74548826Y-70772642D01*
X74545316Y-70796303D01*
X74539504Y-70819507D01*
X74531446Y-70842029D01*
X74521218Y-70863653D01*
X74508921Y-70884170D01*
X74494671Y-70903383D01*
X74478607Y-70921107D01*
X74460883Y-70937171D01*
X74441670Y-70951421D01*
X74421153Y-70963718D01*
X74399529Y-70973946D01*
X74377007Y-70982004D01*
X74353803Y-70987816D01*
X74330142Y-70991326D01*
X74306250Y-70992500D01*
X73393750Y-70992500D01*
X73369858Y-70991326D01*
X73346197Y-70987816D01*
X73322993Y-70982004D01*
X73300471Y-70973946D01*
X73278847Y-70963718D01*
X73258330Y-70951421D01*
X73239117Y-70937171D01*
X73221393Y-70921107D01*
X73205329Y-70903383D01*
X73191079Y-70884170D01*
X73178782Y-70863653D01*
X73168554Y-70842029D01*
X73160496Y-70819507D01*
X73154684Y-70796303D01*
X73151174Y-70772642D01*
X73150000Y-70748750D01*
X73150000Y-70261250D01*
X73151174Y-70237358D01*
X73154684Y-70213697D01*
X73160496Y-70190493D01*
X73168554Y-70167971D01*
X73178782Y-70146347D01*
X73191079Y-70125830D01*
X73205329Y-70106617D01*
X73221393Y-70088893D01*
X73239117Y-70072829D01*
X73258330Y-70058579D01*
X73278847Y-70046282D01*
X73300471Y-70036054D01*
X73322993Y-70027996D01*
X73346197Y-70022184D01*
X73369858Y-70018674D01*
X73393750Y-70017500D01*
X74306250Y-70017500D01*
X74330142Y-70018674D01*
X74330142Y-70018674D01*
G37*
D14*
X73850000Y-70505000D03*
D13*
G36*
X74330142Y-68143674D02*
G01*
X74353803Y-68147184D01*
X74377007Y-68152996D01*
X74399529Y-68161054D01*
X74421153Y-68171282D01*
X74441670Y-68183579D01*
X74460883Y-68197829D01*
X74478607Y-68213893D01*
X74494671Y-68231617D01*
X74508921Y-68250830D01*
X74521218Y-68271347D01*
X74531446Y-68292971D01*
X74539504Y-68315493D01*
X74545316Y-68338697D01*
X74548826Y-68362358D01*
X74550000Y-68386250D01*
X74550000Y-68873750D01*
X74548826Y-68897642D01*
X74545316Y-68921303D01*
X74539504Y-68944507D01*
X74531446Y-68967029D01*
X74521218Y-68988653D01*
X74508921Y-69009170D01*
X74494671Y-69028383D01*
X74478607Y-69046107D01*
X74460883Y-69062171D01*
X74441670Y-69076421D01*
X74421153Y-69088718D01*
X74399529Y-69098946D01*
X74377007Y-69107004D01*
X74353803Y-69112816D01*
X74330142Y-69116326D01*
X74306250Y-69117500D01*
X73393750Y-69117500D01*
X73369858Y-69116326D01*
X73346197Y-69112816D01*
X73322993Y-69107004D01*
X73300471Y-69098946D01*
X73278847Y-69088718D01*
X73258330Y-69076421D01*
X73239117Y-69062171D01*
X73221393Y-69046107D01*
X73205329Y-69028383D01*
X73191079Y-69009170D01*
X73178782Y-68988653D01*
X73168554Y-68967029D01*
X73160496Y-68944507D01*
X73154684Y-68921303D01*
X73151174Y-68897642D01*
X73150000Y-68873750D01*
X73150000Y-68386250D01*
X73151174Y-68362358D01*
X73154684Y-68338697D01*
X73160496Y-68315493D01*
X73168554Y-68292971D01*
X73178782Y-68271347D01*
X73191079Y-68250830D01*
X73205329Y-68231617D01*
X73221393Y-68213893D01*
X73239117Y-68197829D01*
X73258330Y-68183579D01*
X73278847Y-68171282D01*
X73300471Y-68161054D01*
X73322993Y-68152996D01*
X73346197Y-68147184D01*
X73369858Y-68143674D01*
X73393750Y-68142500D01*
X74306250Y-68142500D01*
X74330142Y-68143674D01*
X74330142Y-68143674D01*
G37*
D14*
X73850000Y-68630000D03*
D13*
G36*
X74320142Y-72073674D02*
G01*
X74343803Y-72077184D01*
X74367007Y-72082996D01*
X74389529Y-72091054D01*
X74411153Y-72101282D01*
X74431670Y-72113579D01*
X74450883Y-72127829D01*
X74468607Y-72143893D01*
X74484671Y-72161617D01*
X74498921Y-72180830D01*
X74511218Y-72201347D01*
X74521446Y-72222971D01*
X74529504Y-72245493D01*
X74535316Y-72268697D01*
X74538826Y-72292358D01*
X74540000Y-72316250D01*
X74540000Y-72803750D01*
X74538826Y-72827642D01*
X74535316Y-72851303D01*
X74529504Y-72874507D01*
X74521446Y-72897029D01*
X74511218Y-72918653D01*
X74498921Y-72939170D01*
X74484671Y-72958383D01*
X74468607Y-72976107D01*
X74450883Y-72992171D01*
X74431670Y-73006421D01*
X74411153Y-73018718D01*
X74389529Y-73028946D01*
X74367007Y-73037004D01*
X74343803Y-73042816D01*
X74320142Y-73046326D01*
X74296250Y-73047500D01*
X73383750Y-73047500D01*
X73359858Y-73046326D01*
X73336197Y-73042816D01*
X73312993Y-73037004D01*
X73290471Y-73028946D01*
X73268847Y-73018718D01*
X73248330Y-73006421D01*
X73229117Y-72992171D01*
X73211393Y-72976107D01*
X73195329Y-72958383D01*
X73181079Y-72939170D01*
X73168782Y-72918653D01*
X73158554Y-72897029D01*
X73150496Y-72874507D01*
X73144684Y-72851303D01*
X73141174Y-72827642D01*
X73140000Y-72803750D01*
X73140000Y-72316250D01*
X73141174Y-72292358D01*
X73144684Y-72268697D01*
X73150496Y-72245493D01*
X73158554Y-72222971D01*
X73168782Y-72201347D01*
X73181079Y-72180830D01*
X73195329Y-72161617D01*
X73211393Y-72143893D01*
X73229117Y-72127829D01*
X73248330Y-72113579D01*
X73268847Y-72101282D01*
X73290471Y-72091054D01*
X73312993Y-72082996D01*
X73336197Y-72077184D01*
X73359858Y-72073674D01*
X73383750Y-72072500D01*
X74296250Y-72072500D01*
X74320142Y-72073674D01*
X74320142Y-72073674D01*
G37*
D14*
X73840000Y-72560000D03*
D13*
G36*
X74320142Y-73948674D02*
G01*
X74343803Y-73952184D01*
X74367007Y-73957996D01*
X74389529Y-73966054D01*
X74411153Y-73976282D01*
X74431670Y-73988579D01*
X74450883Y-74002829D01*
X74468607Y-74018893D01*
X74484671Y-74036617D01*
X74498921Y-74055830D01*
X74511218Y-74076347D01*
X74521446Y-74097971D01*
X74529504Y-74120493D01*
X74535316Y-74143697D01*
X74538826Y-74167358D01*
X74540000Y-74191250D01*
X74540000Y-74678750D01*
X74538826Y-74702642D01*
X74535316Y-74726303D01*
X74529504Y-74749507D01*
X74521446Y-74772029D01*
X74511218Y-74793653D01*
X74498921Y-74814170D01*
X74484671Y-74833383D01*
X74468607Y-74851107D01*
X74450883Y-74867171D01*
X74431670Y-74881421D01*
X74411153Y-74893718D01*
X74389529Y-74903946D01*
X74367007Y-74912004D01*
X74343803Y-74917816D01*
X74320142Y-74921326D01*
X74296250Y-74922500D01*
X73383750Y-74922500D01*
X73359858Y-74921326D01*
X73336197Y-74917816D01*
X73312993Y-74912004D01*
X73290471Y-74903946D01*
X73268847Y-74893718D01*
X73248330Y-74881421D01*
X73229117Y-74867171D01*
X73211393Y-74851107D01*
X73195329Y-74833383D01*
X73181079Y-74814170D01*
X73168782Y-74793653D01*
X73158554Y-74772029D01*
X73150496Y-74749507D01*
X73144684Y-74726303D01*
X73141174Y-74702642D01*
X73140000Y-74678750D01*
X73140000Y-74191250D01*
X73141174Y-74167358D01*
X73144684Y-74143697D01*
X73150496Y-74120493D01*
X73158554Y-74097971D01*
X73168782Y-74076347D01*
X73181079Y-74055830D01*
X73195329Y-74036617D01*
X73211393Y-74018893D01*
X73229117Y-74002829D01*
X73248330Y-73988579D01*
X73268847Y-73976282D01*
X73290471Y-73966054D01*
X73312993Y-73957996D01*
X73336197Y-73952184D01*
X73359858Y-73948674D01*
X73383750Y-73947500D01*
X74296250Y-73947500D01*
X74320142Y-73948674D01*
X74320142Y-73948674D01*
G37*
D14*
X73840000Y-74435000D03*
D15*
X79610000Y-66020000D03*
X79610000Y-67920000D03*
X77410000Y-67920000D03*
X77410000Y-66970000D03*
X77410000Y-66020000D03*
D13*
G36*
X83530891Y-57826853D02*
G01*
X83552126Y-57830003D01*
X83572950Y-57835219D01*
X83593162Y-57842451D01*
X83612568Y-57851630D01*
X83630981Y-57862666D01*
X83648224Y-57875454D01*
X83664130Y-57889870D01*
X83678546Y-57905776D01*
X83691334Y-57923019D01*
X83702370Y-57941432D01*
X83711549Y-57960838D01*
X83718781Y-57981050D01*
X83723997Y-58001874D01*
X83727147Y-58023109D01*
X83728200Y-58044550D01*
X83728200Y-58482050D01*
X83727147Y-58503491D01*
X83723997Y-58524726D01*
X83718781Y-58545550D01*
X83711549Y-58565762D01*
X83702370Y-58585168D01*
X83691334Y-58603581D01*
X83678546Y-58620824D01*
X83664130Y-58636730D01*
X83648224Y-58651146D01*
X83630981Y-58663934D01*
X83612568Y-58674970D01*
X83593162Y-58684149D01*
X83572950Y-58691381D01*
X83552126Y-58696597D01*
X83530891Y-58699747D01*
X83509450Y-58700800D01*
X82996950Y-58700800D01*
X82975509Y-58699747D01*
X82954274Y-58696597D01*
X82933450Y-58691381D01*
X82913238Y-58684149D01*
X82893832Y-58674970D01*
X82875419Y-58663934D01*
X82858176Y-58651146D01*
X82842270Y-58636730D01*
X82827854Y-58620824D01*
X82815066Y-58603581D01*
X82804030Y-58585168D01*
X82794851Y-58565762D01*
X82787619Y-58545550D01*
X82782403Y-58524726D01*
X82779253Y-58503491D01*
X82778200Y-58482050D01*
X82778200Y-58044550D01*
X82779253Y-58023109D01*
X82782403Y-58001874D01*
X82787619Y-57981050D01*
X82794851Y-57960838D01*
X82804030Y-57941432D01*
X82815066Y-57923019D01*
X82827854Y-57905776D01*
X82842270Y-57889870D01*
X82858176Y-57875454D01*
X82875419Y-57862666D01*
X82893832Y-57851630D01*
X82913238Y-57842451D01*
X82933450Y-57835219D01*
X82954274Y-57830003D01*
X82975509Y-57826853D01*
X82996950Y-57825800D01*
X83509450Y-57825800D01*
X83530891Y-57826853D01*
X83530891Y-57826853D01*
G37*
D16*
X83253200Y-58263300D03*
D13*
G36*
X83530891Y-59401853D02*
G01*
X83552126Y-59405003D01*
X83572950Y-59410219D01*
X83593162Y-59417451D01*
X83612568Y-59426630D01*
X83630981Y-59437666D01*
X83648224Y-59450454D01*
X83664130Y-59464870D01*
X83678546Y-59480776D01*
X83691334Y-59498019D01*
X83702370Y-59516432D01*
X83711549Y-59535838D01*
X83718781Y-59556050D01*
X83723997Y-59576874D01*
X83727147Y-59598109D01*
X83728200Y-59619550D01*
X83728200Y-60057050D01*
X83727147Y-60078491D01*
X83723997Y-60099726D01*
X83718781Y-60120550D01*
X83711549Y-60140762D01*
X83702370Y-60160168D01*
X83691334Y-60178581D01*
X83678546Y-60195824D01*
X83664130Y-60211730D01*
X83648224Y-60226146D01*
X83630981Y-60238934D01*
X83612568Y-60249970D01*
X83593162Y-60259149D01*
X83572950Y-60266381D01*
X83552126Y-60271597D01*
X83530891Y-60274747D01*
X83509450Y-60275800D01*
X82996950Y-60275800D01*
X82975509Y-60274747D01*
X82954274Y-60271597D01*
X82933450Y-60266381D01*
X82913238Y-60259149D01*
X82893832Y-60249970D01*
X82875419Y-60238934D01*
X82858176Y-60226146D01*
X82842270Y-60211730D01*
X82827854Y-60195824D01*
X82815066Y-60178581D01*
X82804030Y-60160168D01*
X82794851Y-60140762D01*
X82787619Y-60120550D01*
X82782403Y-60099726D01*
X82779253Y-60078491D01*
X82778200Y-60057050D01*
X82778200Y-59619550D01*
X82779253Y-59598109D01*
X82782403Y-59576874D01*
X82787619Y-59556050D01*
X82794851Y-59535838D01*
X82804030Y-59516432D01*
X82815066Y-59498019D01*
X82827854Y-59480776D01*
X82842270Y-59464870D01*
X82858176Y-59450454D01*
X82875419Y-59437666D01*
X82893832Y-59426630D01*
X82913238Y-59417451D01*
X82933450Y-59410219D01*
X82954274Y-59405003D01*
X82975509Y-59401853D01*
X82996950Y-59400800D01*
X83509450Y-59400800D01*
X83530891Y-59401853D01*
X83530891Y-59401853D01*
G37*
D16*
X83253200Y-59838300D03*
D13*
G36*
X85461291Y-57826853D02*
G01*
X85482526Y-57830003D01*
X85503350Y-57835219D01*
X85523562Y-57842451D01*
X85542968Y-57851630D01*
X85561381Y-57862666D01*
X85578624Y-57875454D01*
X85594530Y-57889870D01*
X85608946Y-57905776D01*
X85621734Y-57923019D01*
X85632770Y-57941432D01*
X85641949Y-57960838D01*
X85649181Y-57981050D01*
X85654397Y-58001874D01*
X85657547Y-58023109D01*
X85658600Y-58044550D01*
X85658600Y-58482050D01*
X85657547Y-58503491D01*
X85654397Y-58524726D01*
X85649181Y-58545550D01*
X85641949Y-58565762D01*
X85632770Y-58585168D01*
X85621734Y-58603581D01*
X85608946Y-58620824D01*
X85594530Y-58636730D01*
X85578624Y-58651146D01*
X85561381Y-58663934D01*
X85542968Y-58674970D01*
X85523562Y-58684149D01*
X85503350Y-58691381D01*
X85482526Y-58696597D01*
X85461291Y-58699747D01*
X85439850Y-58700800D01*
X84927350Y-58700800D01*
X84905909Y-58699747D01*
X84884674Y-58696597D01*
X84863850Y-58691381D01*
X84843638Y-58684149D01*
X84824232Y-58674970D01*
X84805819Y-58663934D01*
X84788576Y-58651146D01*
X84772670Y-58636730D01*
X84758254Y-58620824D01*
X84745466Y-58603581D01*
X84734430Y-58585168D01*
X84725251Y-58565762D01*
X84718019Y-58545550D01*
X84712803Y-58524726D01*
X84709653Y-58503491D01*
X84708600Y-58482050D01*
X84708600Y-58044550D01*
X84709653Y-58023109D01*
X84712803Y-58001874D01*
X84718019Y-57981050D01*
X84725251Y-57960838D01*
X84734430Y-57941432D01*
X84745466Y-57923019D01*
X84758254Y-57905776D01*
X84772670Y-57889870D01*
X84788576Y-57875454D01*
X84805819Y-57862666D01*
X84824232Y-57851630D01*
X84843638Y-57842451D01*
X84863850Y-57835219D01*
X84884674Y-57830003D01*
X84905909Y-57826853D01*
X84927350Y-57825800D01*
X85439850Y-57825800D01*
X85461291Y-57826853D01*
X85461291Y-57826853D01*
G37*
D16*
X85183600Y-58263300D03*
D13*
G36*
X85461291Y-59401853D02*
G01*
X85482526Y-59405003D01*
X85503350Y-59410219D01*
X85523562Y-59417451D01*
X85542968Y-59426630D01*
X85561381Y-59437666D01*
X85578624Y-59450454D01*
X85594530Y-59464870D01*
X85608946Y-59480776D01*
X85621734Y-59498019D01*
X85632770Y-59516432D01*
X85641949Y-59535838D01*
X85649181Y-59556050D01*
X85654397Y-59576874D01*
X85657547Y-59598109D01*
X85658600Y-59619550D01*
X85658600Y-60057050D01*
X85657547Y-60078491D01*
X85654397Y-60099726D01*
X85649181Y-60120550D01*
X85641949Y-60140762D01*
X85632770Y-60160168D01*
X85621734Y-60178581D01*
X85608946Y-60195824D01*
X85594530Y-60211730D01*
X85578624Y-60226146D01*
X85561381Y-60238934D01*
X85542968Y-60249970D01*
X85523562Y-60259149D01*
X85503350Y-60266381D01*
X85482526Y-60271597D01*
X85461291Y-60274747D01*
X85439850Y-60275800D01*
X84927350Y-60275800D01*
X84905909Y-60274747D01*
X84884674Y-60271597D01*
X84863850Y-60266381D01*
X84843638Y-60259149D01*
X84824232Y-60249970D01*
X84805819Y-60238934D01*
X84788576Y-60226146D01*
X84772670Y-60211730D01*
X84758254Y-60195824D01*
X84745466Y-60178581D01*
X84734430Y-60160168D01*
X84725251Y-60140762D01*
X84718019Y-60120550D01*
X84712803Y-60099726D01*
X84709653Y-60078491D01*
X84708600Y-60057050D01*
X84708600Y-59619550D01*
X84709653Y-59598109D01*
X84712803Y-59576874D01*
X84718019Y-59556050D01*
X84725251Y-59535838D01*
X84734430Y-59516432D01*
X84745466Y-59498019D01*
X84758254Y-59480776D01*
X84772670Y-59464870D01*
X84788576Y-59450454D01*
X84805819Y-59437666D01*
X84824232Y-59426630D01*
X84843638Y-59417451D01*
X84863850Y-59410219D01*
X84884674Y-59405003D01*
X84905909Y-59401853D01*
X84927350Y-59400800D01*
X85439850Y-59400800D01*
X85461291Y-59401853D01*
X85461291Y-59401853D01*
G37*
D16*
X85183600Y-59838300D03*
D13*
G36*
X74826691Y-49068053D02*
G01*
X74847926Y-49071203D01*
X74868750Y-49076419D01*
X74888962Y-49083651D01*
X74908368Y-49092830D01*
X74926781Y-49103866D01*
X74944024Y-49116654D01*
X74959930Y-49131070D01*
X74974346Y-49146976D01*
X74987134Y-49164219D01*
X74998170Y-49182632D01*
X75007349Y-49202038D01*
X75014581Y-49222250D01*
X75019797Y-49243074D01*
X75022947Y-49264309D01*
X75024000Y-49285750D01*
X75024000Y-49723250D01*
X75022947Y-49744691D01*
X75019797Y-49765926D01*
X75014581Y-49786750D01*
X75007349Y-49806962D01*
X74998170Y-49826368D01*
X74987134Y-49844781D01*
X74974346Y-49862024D01*
X74959930Y-49877930D01*
X74944024Y-49892346D01*
X74926781Y-49905134D01*
X74908368Y-49916170D01*
X74888962Y-49925349D01*
X74868750Y-49932581D01*
X74847926Y-49937797D01*
X74826691Y-49940947D01*
X74805250Y-49942000D01*
X74292750Y-49942000D01*
X74271309Y-49940947D01*
X74250074Y-49937797D01*
X74229250Y-49932581D01*
X74209038Y-49925349D01*
X74189632Y-49916170D01*
X74171219Y-49905134D01*
X74153976Y-49892346D01*
X74138070Y-49877930D01*
X74123654Y-49862024D01*
X74110866Y-49844781D01*
X74099830Y-49826368D01*
X74090651Y-49806962D01*
X74083419Y-49786750D01*
X74078203Y-49765926D01*
X74075053Y-49744691D01*
X74074000Y-49723250D01*
X74074000Y-49285750D01*
X74075053Y-49264309D01*
X74078203Y-49243074D01*
X74083419Y-49222250D01*
X74090651Y-49202038D01*
X74099830Y-49182632D01*
X74110866Y-49164219D01*
X74123654Y-49146976D01*
X74138070Y-49131070D01*
X74153976Y-49116654D01*
X74171219Y-49103866D01*
X74189632Y-49092830D01*
X74209038Y-49083651D01*
X74229250Y-49076419D01*
X74250074Y-49071203D01*
X74271309Y-49068053D01*
X74292750Y-49067000D01*
X74805250Y-49067000D01*
X74826691Y-49068053D01*
X74826691Y-49068053D01*
G37*
D16*
X74549000Y-49504500D03*
D13*
G36*
X74826691Y-50643053D02*
G01*
X74847926Y-50646203D01*
X74868750Y-50651419D01*
X74888962Y-50658651D01*
X74908368Y-50667830D01*
X74926781Y-50678866D01*
X74944024Y-50691654D01*
X74959930Y-50706070D01*
X74974346Y-50721976D01*
X74987134Y-50739219D01*
X74998170Y-50757632D01*
X75007349Y-50777038D01*
X75014581Y-50797250D01*
X75019797Y-50818074D01*
X75022947Y-50839309D01*
X75024000Y-50860750D01*
X75024000Y-51298250D01*
X75022947Y-51319691D01*
X75019797Y-51340926D01*
X75014581Y-51361750D01*
X75007349Y-51381962D01*
X74998170Y-51401368D01*
X74987134Y-51419781D01*
X74974346Y-51437024D01*
X74959930Y-51452930D01*
X74944024Y-51467346D01*
X74926781Y-51480134D01*
X74908368Y-51491170D01*
X74888962Y-51500349D01*
X74868750Y-51507581D01*
X74847926Y-51512797D01*
X74826691Y-51515947D01*
X74805250Y-51517000D01*
X74292750Y-51517000D01*
X74271309Y-51515947D01*
X74250074Y-51512797D01*
X74229250Y-51507581D01*
X74209038Y-51500349D01*
X74189632Y-51491170D01*
X74171219Y-51480134D01*
X74153976Y-51467346D01*
X74138070Y-51452930D01*
X74123654Y-51437024D01*
X74110866Y-51419781D01*
X74099830Y-51401368D01*
X74090651Y-51381962D01*
X74083419Y-51361750D01*
X74078203Y-51340926D01*
X74075053Y-51319691D01*
X74074000Y-51298250D01*
X74074000Y-50860750D01*
X74075053Y-50839309D01*
X74078203Y-50818074D01*
X74083419Y-50797250D01*
X74090651Y-50777038D01*
X74099830Y-50757632D01*
X74110866Y-50739219D01*
X74123654Y-50721976D01*
X74138070Y-50706070D01*
X74153976Y-50691654D01*
X74171219Y-50678866D01*
X74189632Y-50667830D01*
X74209038Y-50658651D01*
X74229250Y-50651419D01*
X74250074Y-50646203D01*
X74271309Y-50643053D01*
X74292750Y-50642000D01*
X74805250Y-50642000D01*
X74826691Y-50643053D01*
X74826691Y-50643053D01*
G37*
D16*
X74549000Y-51079500D03*
D13*
G36*
X75809291Y-59401853D02*
G01*
X75830526Y-59405003D01*
X75851350Y-59410219D01*
X75871562Y-59417451D01*
X75890968Y-59426630D01*
X75909381Y-59437666D01*
X75926624Y-59450454D01*
X75942530Y-59464870D01*
X75956946Y-59480776D01*
X75969734Y-59498019D01*
X75980770Y-59516432D01*
X75989949Y-59535838D01*
X75997181Y-59556050D01*
X76002397Y-59576874D01*
X76005547Y-59598109D01*
X76006600Y-59619550D01*
X76006600Y-60057050D01*
X76005547Y-60078491D01*
X76002397Y-60099726D01*
X75997181Y-60120550D01*
X75989949Y-60140762D01*
X75980770Y-60160168D01*
X75969734Y-60178581D01*
X75956946Y-60195824D01*
X75942530Y-60211730D01*
X75926624Y-60226146D01*
X75909381Y-60238934D01*
X75890968Y-60249970D01*
X75871562Y-60259149D01*
X75851350Y-60266381D01*
X75830526Y-60271597D01*
X75809291Y-60274747D01*
X75787850Y-60275800D01*
X75275350Y-60275800D01*
X75253909Y-60274747D01*
X75232674Y-60271597D01*
X75211850Y-60266381D01*
X75191638Y-60259149D01*
X75172232Y-60249970D01*
X75153819Y-60238934D01*
X75136576Y-60226146D01*
X75120670Y-60211730D01*
X75106254Y-60195824D01*
X75093466Y-60178581D01*
X75082430Y-60160168D01*
X75073251Y-60140762D01*
X75066019Y-60120550D01*
X75060803Y-60099726D01*
X75057653Y-60078491D01*
X75056600Y-60057050D01*
X75056600Y-59619550D01*
X75057653Y-59598109D01*
X75060803Y-59576874D01*
X75066019Y-59556050D01*
X75073251Y-59535838D01*
X75082430Y-59516432D01*
X75093466Y-59498019D01*
X75106254Y-59480776D01*
X75120670Y-59464870D01*
X75136576Y-59450454D01*
X75153819Y-59437666D01*
X75172232Y-59426630D01*
X75191638Y-59417451D01*
X75211850Y-59410219D01*
X75232674Y-59405003D01*
X75253909Y-59401853D01*
X75275350Y-59400800D01*
X75787850Y-59400800D01*
X75809291Y-59401853D01*
X75809291Y-59401853D01*
G37*
D16*
X75531600Y-59838300D03*
D13*
G36*
X75809291Y-57826853D02*
G01*
X75830526Y-57830003D01*
X75851350Y-57835219D01*
X75871562Y-57842451D01*
X75890968Y-57851630D01*
X75909381Y-57862666D01*
X75926624Y-57875454D01*
X75942530Y-57889870D01*
X75956946Y-57905776D01*
X75969734Y-57923019D01*
X75980770Y-57941432D01*
X75989949Y-57960838D01*
X75997181Y-57981050D01*
X76002397Y-58001874D01*
X76005547Y-58023109D01*
X76006600Y-58044550D01*
X76006600Y-58482050D01*
X76005547Y-58503491D01*
X76002397Y-58524726D01*
X75997181Y-58545550D01*
X75989949Y-58565762D01*
X75980770Y-58585168D01*
X75969734Y-58603581D01*
X75956946Y-58620824D01*
X75942530Y-58636730D01*
X75926624Y-58651146D01*
X75909381Y-58663934D01*
X75890968Y-58674970D01*
X75871562Y-58684149D01*
X75851350Y-58691381D01*
X75830526Y-58696597D01*
X75809291Y-58699747D01*
X75787850Y-58700800D01*
X75275350Y-58700800D01*
X75253909Y-58699747D01*
X75232674Y-58696597D01*
X75211850Y-58691381D01*
X75191638Y-58684149D01*
X75172232Y-58674970D01*
X75153819Y-58663934D01*
X75136576Y-58651146D01*
X75120670Y-58636730D01*
X75106254Y-58620824D01*
X75093466Y-58603581D01*
X75082430Y-58585168D01*
X75073251Y-58565762D01*
X75066019Y-58545550D01*
X75060803Y-58524726D01*
X75057653Y-58503491D01*
X75056600Y-58482050D01*
X75056600Y-58044550D01*
X75057653Y-58023109D01*
X75060803Y-58001874D01*
X75066019Y-57981050D01*
X75073251Y-57960838D01*
X75082430Y-57941432D01*
X75093466Y-57923019D01*
X75106254Y-57905776D01*
X75120670Y-57889870D01*
X75136576Y-57875454D01*
X75153819Y-57862666D01*
X75172232Y-57851630D01*
X75191638Y-57842451D01*
X75211850Y-57835219D01*
X75232674Y-57830003D01*
X75253909Y-57826853D01*
X75275350Y-57825800D01*
X75787850Y-57825800D01*
X75809291Y-57826853D01*
X75809291Y-57826853D01*
G37*
D16*
X75531600Y-58263300D03*
D13*
G36*
X76731691Y-49068053D02*
G01*
X76752926Y-49071203D01*
X76773750Y-49076419D01*
X76793962Y-49083651D01*
X76813368Y-49092830D01*
X76831781Y-49103866D01*
X76849024Y-49116654D01*
X76864930Y-49131070D01*
X76879346Y-49146976D01*
X76892134Y-49164219D01*
X76903170Y-49182632D01*
X76912349Y-49202038D01*
X76919581Y-49222250D01*
X76924797Y-49243074D01*
X76927947Y-49264309D01*
X76929000Y-49285750D01*
X76929000Y-49723250D01*
X76927947Y-49744691D01*
X76924797Y-49765926D01*
X76919581Y-49786750D01*
X76912349Y-49806962D01*
X76903170Y-49826368D01*
X76892134Y-49844781D01*
X76879346Y-49862024D01*
X76864930Y-49877930D01*
X76849024Y-49892346D01*
X76831781Y-49905134D01*
X76813368Y-49916170D01*
X76793962Y-49925349D01*
X76773750Y-49932581D01*
X76752926Y-49937797D01*
X76731691Y-49940947D01*
X76710250Y-49942000D01*
X76197750Y-49942000D01*
X76176309Y-49940947D01*
X76155074Y-49937797D01*
X76134250Y-49932581D01*
X76114038Y-49925349D01*
X76094632Y-49916170D01*
X76076219Y-49905134D01*
X76058976Y-49892346D01*
X76043070Y-49877930D01*
X76028654Y-49862024D01*
X76015866Y-49844781D01*
X76004830Y-49826368D01*
X75995651Y-49806962D01*
X75988419Y-49786750D01*
X75983203Y-49765926D01*
X75980053Y-49744691D01*
X75979000Y-49723250D01*
X75979000Y-49285750D01*
X75980053Y-49264309D01*
X75983203Y-49243074D01*
X75988419Y-49222250D01*
X75995651Y-49202038D01*
X76004830Y-49182632D01*
X76015866Y-49164219D01*
X76028654Y-49146976D01*
X76043070Y-49131070D01*
X76058976Y-49116654D01*
X76076219Y-49103866D01*
X76094632Y-49092830D01*
X76114038Y-49083651D01*
X76134250Y-49076419D01*
X76155074Y-49071203D01*
X76176309Y-49068053D01*
X76197750Y-49067000D01*
X76710250Y-49067000D01*
X76731691Y-49068053D01*
X76731691Y-49068053D01*
G37*
D16*
X76454000Y-49504500D03*
D13*
G36*
X76731691Y-50643053D02*
G01*
X76752926Y-50646203D01*
X76773750Y-50651419D01*
X76793962Y-50658651D01*
X76813368Y-50667830D01*
X76831781Y-50678866D01*
X76849024Y-50691654D01*
X76864930Y-50706070D01*
X76879346Y-50721976D01*
X76892134Y-50739219D01*
X76903170Y-50757632D01*
X76912349Y-50777038D01*
X76919581Y-50797250D01*
X76924797Y-50818074D01*
X76927947Y-50839309D01*
X76929000Y-50860750D01*
X76929000Y-51298250D01*
X76927947Y-51319691D01*
X76924797Y-51340926D01*
X76919581Y-51361750D01*
X76912349Y-51381962D01*
X76903170Y-51401368D01*
X76892134Y-51419781D01*
X76879346Y-51437024D01*
X76864930Y-51452930D01*
X76849024Y-51467346D01*
X76831781Y-51480134D01*
X76813368Y-51491170D01*
X76793962Y-51500349D01*
X76773750Y-51507581D01*
X76752926Y-51512797D01*
X76731691Y-51515947D01*
X76710250Y-51517000D01*
X76197750Y-51517000D01*
X76176309Y-51515947D01*
X76155074Y-51512797D01*
X76134250Y-51507581D01*
X76114038Y-51500349D01*
X76094632Y-51491170D01*
X76076219Y-51480134D01*
X76058976Y-51467346D01*
X76043070Y-51452930D01*
X76028654Y-51437024D01*
X76015866Y-51419781D01*
X76004830Y-51401368D01*
X75995651Y-51381962D01*
X75988419Y-51361750D01*
X75983203Y-51340926D01*
X75980053Y-51319691D01*
X75979000Y-51298250D01*
X75979000Y-50860750D01*
X75980053Y-50839309D01*
X75983203Y-50818074D01*
X75988419Y-50797250D01*
X75995651Y-50777038D01*
X76004830Y-50757632D01*
X76015866Y-50739219D01*
X76028654Y-50721976D01*
X76043070Y-50706070D01*
X76058976Y-50691654D01*
X76076219Y-50678866D01*
X76094632Y-50667830D01*
X76114038Y-50658651D01*
X76134250Y-50651419D01*
X76155074Y-50646203D01*
X76176309Y-50643053D01*
X76197750Y-50642000D01*
X76710250Y-50642000D01*
X76731691Y-50643053D01*
X76731691Y-50643053D01*
G37*
D16*
X76454000Y-51079500D03*
D13*
G36*
X77739691Y-57826853D02*
G01*
X77760926Y-57830003D01*
X77781750Y-57835219D01*
X77801962Y-57842451D01*
X77821368Y-57851630D01*
X77839781Y-57862666D01*
X77857024Y-57875454D01*
X77872930Y-57889870D01*
X77887346Y-57905776D01*
X77900134Y-57923019D01*
X77911170Y-57941432D01*
X77920349Y-57960838D01*
X77927581Y-57981050D01*
X77932797Y-58001874D01*
X77935947Y-58023109D01*
X77937000Y-58044550D01*
X77937000Y-58482050D01*
X77935947Y-58503491D01*
X77932797Y-58524726D01*
X77927581Y-58545550D01*
X77920349Y-58565762D01*
X77911170Y-58585168D01*
X77900134Y-58603581D01*
X77887346Y-58620824D01*
X77872930Y-58636730D01*
X77857024Y-58651146D01*
X77839781Y-58663934D01*
X77821368Y-58674970D01*
X77801962Y-58684149D01*
X77781750Y-58691381D01*
X77760926Y-58696597D01*
X77739691Y-58699747D01*
X77718250Y-58700800D01*
X77205750Y-58700800D01*
X77184309Y-58699747D01*
X77163074Y-58696597D01*
X77142250Y-58691381D01*
X77122038Y-58684149D01*
X77102632Y-58674970D01*
X77084219Y-58663934D01*
X77066976Y-58651146D01*
X77051070Y-58636730D01*
X77036654Y-58620824D01*
X77023866Y-58603581D01*
X77012830Y-58585168D01*
X77003651Y-58565762D01*
X76996419Y-58545550D01*
X76991203Y-58524726D01*
X76988053Y-58503491D01*
X76987000Y-58482050D01*
X76987000Y-58044550D01*
X76988053Y-58023109D01*
X76991203Y-58001874D01*
X76996419Y-57981050D01*
X77003651Y-57960838D01*
X77012830Y-57941432D01*
X77023866Y-57923019D01*
X77036654Y-57905776D01*
X77051070Y-57889870D01*
X77066976Y-57875454D01*
X77084219Y-57862666D01*
X77102632Y-57851630D01*
X77122038Y-57842451D01*
X77142250Y-57835219D01*
X77163074Y-57830003D01*
X77184309Y-57826853D01*
X77205750Y-57825800D01*
X77718250Y-57825800D01*
X77739691Y-57826853D01*
X77739691Y-57826853D01*
G37*
D16*
X77462000Y-58263300D03*
D13*
G36*
X77739691Y-59401853D02*
G01*
X77760926Y-59405003D01*
X77781750Y-59410219D01*
X77801962Y-59417451D01*
X77821368Y-59426630D01*
X77839781Y-59437666D01*
X77857024Y-59450454D01*
X77872930Y-59464870D01*
X77887346Y-59480776D01*
X77900134Y-59498019D01*
X77911170Y-59516432D01*
X77920349Y-59535838D01*
X77927581Y-59556050D01*
X77932797Y-59576874D01*
X77935947Y-59598109D01*
X77937000Y-59619550D01*
X77937000Y-60057050D01*
X77935947Y-60078491D01*
X77932797Y-60099726D01*
X77927581Y-60120550D01*
X77920349Y-60140762D01*
X77911170Y-60160168D01*
X77900134Y-60178581D01*
X77887346Y-60195824D01*
X77872930Y-60211730D01*
X77857024Y-60226146D01*
X77839781Y-60238934D01*
X77821368Y-60249970D01*
X77801962Y-60259149D01*
X77781750Y-60266381D01*
X77760926Y-60271597D01*
X77739691Y-60274747D01*
X77718250Y-60275800D01*
X77205750Y-60275800D01*
X77184309Y-60274747D01*
X77163074Y-60271597D01*
X77142250Y-60266381D01*
X77122038Y-60259149D01*
X77102632Y-60249970D01*
X77084219Y-60238934D01*
X77066976Y-60226146D01*
X77051070Y-60211730D01*
X77036654Y-60195824D01*
X77023866Y-60178581D01*
X77012830Y-60160168D01*
X77003651Y-60140762D01*
X76996419Y-60120550D01*
X76991203Y-60099726D01*
X76988053Y-60078491D01*
X76987000Y-60057050D01*
X76987000Y-59619550D01*
X76988053Y-59598109D01*
X76991203Y-59576874D01*
X76996419Y-59556050D01*
X77003651Y-59535838D01*
X77012830Y-59516432D01*
X77023866Y-59498019D01*
X77036654Y-59480776D01*
X77051070Y-59464870D01*
X77066976Y-59450454D01*
X77084219Y-59437666D01*
X77102632Y-59426630D01*
X77122038Y-59417451D01*
X77142250Y-59410219D01*
X77163074Y-59405003D01*
X77184309Y-59401853D01*
X77205750Y-59400800D01*
X77718250Y-59400800D01*
X77739691Y-59401853D01*
X77739691Y-59401853D01*
G37*
D16*
X77462000Y-59838300D03*
D13*
G36*
X79670091Y-57826853D02*
G01*
X79691326Y-57830003D01*
X79712150Y-57835219D01*
X79732362Y-57842451D01*
X79751768Y-57851630D01*
X79770181Y-57862666D01*
X79787424Y-57875454D01*
X79803330Y-57889870D01*
X79817746Y-57905776D01*
X79830534Y-57923019D01*
X79841570Y-57941432D01*
X79850749Y-57960838D01*
X79857981Y-57981050D01*
X79863197Y-58001874D01*
X79866347Y-58023109D01*
X79867400Y-58044550D01*
X79867400Y-58482050D01*
X79866347Y-58503491D01*
X79863197Y-58524726D01*
X79857981Y-58545550D01*
X79850749Y-58565762D01*
X79841570Y-58585168D01*
X79830534Y-58603581D01*
X79817746Y-58620824D01*
X79803330Y-58636730D01*
X79787424Y-58651146D01*
X79770181Y-58663934D01*
X79751768Y-58674970D01*
X79732362Y-58684149D01*
X79712150Y-58691381D01*
X79691326Y-58696597D01*
X79670091Y-58699747D01*
X79648650Y-58700800D01*
X79136150Y-58700800D01*
X79114709Y-58699747D01*
X79093474Y-58696597D01*
X79072650Y-58691381D01*
X79052438Y-58684149D01*
X79033032Y-58674970D01*
X79014619Y-58663934D01*
X78997376Y-58651146D01*
X78981470Y-58636730D01*
X78967054Y-58620824D01*
X78954266Y-58603581D01*
X78943230Y-58585168D01*
X78934051Y-58565762D01*
X78926819Y-58545550D01*
X78921603Y-58524726D01*
X78918453Y-58503491D01*
X78917400Y-58482050D01*
X78917400Y-58044550D01*
X78918453Y-58023109D01*
X78921603Y-58001874D01*
X78926819Y-57981050D01*
X78934051Y-57960838D01*
X78943230Y-57941432D01*
X78954266Y-57923019D01*
X78967054Y-57905776D01*
X78981470Y-57889870D01*
X78997376Y-57875454D01*
X79014619Y-57862666D01*
X79033032Y-57851630D01*
X79052438Y-57842451D01*
X79072650Y-57835219D01*
X79093474Y-57830003D01*
X79114709Y-57826853D01*
X79136150Y-57825800D01*
X79648650Y-57825800D01*
X79670091Y-57826853D01*
X79670091Y-57826853D01*
G37*
D16*
X79392400Y-58263300D03*
D13*
G36*
X79670091Y-59401853D02*
G01*
X79691326Y-59405003D01*
X79712150Y-59410219D01*
X79732362Y-59417451D01*
X79751768Y-59426630D01*
X79770181Y-59437666D01*
X79787424Y-59450454D01*
X79803330Y-59464870D01*
X79817746Y-59480776D01*
X79830534Y-59498019D01*
X79841570Y-59516432D01*
X79850749Y-59535838D01*
X79857981Y-59556050D01*
X79863197Y-59576874D01*
X79866347Y-59598109D01*
X79867400Y-59619550D01*
X79867400Y-60057050D01*
X79866347Y-60078491D01*
X79863197Y-60099726D01*
X79857981Y-60120550D01*
X79850749Y-60140762D01*
X79841570Y-60160168D01*
X79830534Y-60178581D01*
X79817746Y-60195824D01*
X79803330Y-60211730D01*
X79787424Y-60226146D01*
X79770181Y-60238934D01*
X79751768Y-60249970D01*
X79732362Y-60259149D01*
X79712150Y-60266381D01*
X79691326Y-60271597D01*
X79670091Y-60274747D01*
X79648650Y-60275800D01*
X79136150Y-60275800D01*
X79114709Y-60274747D01*
X79093474Y-60271597D01*
X79072650Y-60266381D01*
X79052438Y-60259149D01*
X79033032Y-60249970D01*
X79014619Y-60238934D01*
X78997376Y-60226146D01*
X78981470Y-60211730D01*
X78967054Y-60195824D01*
X78954266Y-60178581D01*
X78943230Y-60160168D01*
X78934051Y-60140762D01*
X78926819Y-60120550D01*
X78921603Y-60099726D01*
X78918453Y-60078491D01*
X78917400Y-60057050D01*
X78917400Y-59619550D01*
X78918453Y-59598109D01*
X78921603Y-59576874D01*
X78926819Y-59556050D01*
X78934051Y-59535838D01*
X78943230Y-59516432D01*
X78954266Y-59498019D01*
X78967054Y-59480776D01*
X78981470Y-59464870D01*
X78997376Y-59450454D01*
X79014619Y-59437666D01*
X79033032Y-59426630D01*
X79052438Y-59417451D01*
X79072650Y-59410219D01*
X79093474Y-59405003D01*
X79114709Y-59401853D01*
X79136150Y-59400800D01*
X79648650Y-59400800D01*
X79670091Y-59401853D01*
X79670091Y-59401853D01*
G37*
D16*
X79392400Y-59838300D03*
D13*
G36*
X81600491Y-59401853D02*
G01*
X81621726Y-59405003D01*
X81642550Y-59410219D01*
X81662762Y-59417451D01*
X81682168Y-59426630D01*
X81700581Y-59437666D01*
X81717824Y-59450454D01*
X81733730Y-59464870D01*
X81748146Y-59480776D01*
X81760934Y-59498019D01*
X81771970Y-59516432D01*
X81781149Y-59535838D01*
X81788381Y-59556050D01*
X81793597Y-59576874D01*
X81796747Y-59598109D01*
X81797800Y-59619550D01*
X81797800Y-60057050D01*
X81796747Y-60078491D01*
X81793597Y-60099726D01*
X81788381Y-60120550D01*
X81781149Y-60140762D01*
X81771970Y-60160168D01*
X81760934Y-60178581D01*
X81748146Y-60195824D01*
X81733730Y-60211730D01*
X81717824Y-60226146D01*
X81700581Y-60238934D01*
X81682168Y-60249970D01*
X81662762Y-60259149D01*
X81642550Y-60266381D01*
X81621726Y-60271597D01*
X81600491Y-60274747D01*
X81579050Y-60275800D01*
X81066550Y-60275800D01*
X81045109Y-60274747D01*
X81023874Y-60271597D01*
X81003050Y-60266381D01*
X80982838Y-60259149D01*
X80963432Y-60249970D01*
X80945019Y-60238934D01*
X80927776Y-60226146D01*
X80911870Y-60211730D01*
X80897454Y-60195824D01*
X80884666Y-60178581D01*
X80873630Y-60160168D01*
X80864451Y-60140762D01*
X80857219Y-60120550D01*
X80852003Y-60099726D01*
X80848853Y-60078491D01*
X80847800Y-60057050D01*
X80847800Y-59619550D01*
X80848853Y-59598109D01*
X80852003Y-59576874D01*
X80857219Y-59556050D01*
X80864451Y-59535838D01*
X80873630Y-59516432D01*
X80884666Y-59498019D01*
X80897454Y-59480776D01*
X80911870Y-59464870D01*
X80927776Y-59450454D01*
X80945019Y-59437666D01*
X80963432Y-59426630D01*
X80982838Y-59417451D01*
X81003050Y-59410219D01*
X81023874Y-59405003D01*
X81045109Y-59401853D01*
X81066550Y-59400800D01*
X81579050Y-59400800D01*
X81600491Y-59401853D01*
X81600491Y-59401853D01*
G37*
D16*
X81322800Y-59838300D03*
D13*
G36*
X81600491Y-57826853D02*
G01*
X81621726Y-57830003D01*
X81642550Y-57835219D01*
X81662762Y-57842451D01*
X81682168Y-57851630D01*
X81700581Y-57862666D01*
X81717824Y-57875454D01*
X81733730Y-57889870D01*
X81748146Y-57905776D01*
X81760934Y-57923019D01*
X81771970Y-57941432D01*
X81781149Y-57960838D01*
X81788381Y-57981050D01*
X81793597Y-58001874D01*
X81796747Y-58023109D01*
X81797800Y-58044550D01*
X81797800Y-58482050D01*
X81796747Y-58503491D01*
X81793597Y-58524726D01*
X81788381Y-58545550D01*
X81781149Y-58565762D01*
X81771970Y-58585168D01*
X81760934Y-58603581D01*
X81748146Y-58620824D01*
X81733730Y-58636730D01*
X81717824Y-58651146D01*
X81700581Y-58663934D01*
X81682168Y-58674970D01*
X81662762Y-58684149D01*
X81642550Y-58691381D01*
X81621726Y-58696597D01*
X81600491Y-58699747D01*
X81579050Y-58700800D01*
X81066550Y-58700800D01*
X81045109Y-58699747D01*
X81023874Y-58696597D01*
X81003050Y-58691381D01*
X80982838Y-58684149D01*
X80963432Y-58674970D01*
X80945019Y-58663934D01*
X80927776Y-58651146D01*
X80911870Y-58636730D01*
X80897454Y-58620824D01*
X80884666Y-58603581D01*
X80873630Y-58585168D01*
X80864451Y-58565762D01*
X80857219Y-58545550D01*
X80852003Y-58524726D01*
X80848853Y-58503491D01*
X80847800Y-58482050D01*
X80847800Y-58044550D01*
X80848853Y-58023109D01*
X80852003Y-58001874D01*
X80857219Y-57981050D01*
X80864451Y-57960838D01*
X80873630Y-57941432D01*
X80884666Y-57923019D01*
X80897454Y-57905776D01*
X80911870Y-57889870D01*
X80927776Y-57875454D01*
X80945019Y-57862666D01*
X80963432Y-57851630D01*
X80982838Y-57842451D01*
X81003050Y-57835219D01*
X81023874Y-57830003D01*
X81045109Y-57826853D01*
X81066550Y-57825800D01*
X81579050Y-57825800D01*
X81600491Y-57826853D01*
X81600491Y-57826853D01*
G37*
D16*
X81322800Y-58263300D03*
D13*
G36*
X78636691Y-50617553D02*
G01*
X78657926Y-50620703D01*
X78678750Y-50625919D01*
X78698962Y-50633151D01*
X78718368Y-50642330D01*
X78736781Y-50653366D01*
X78754024Y-50666154D01*
X78769930Y-50680570D01*
X78784346Y-50696476D01*
X78797134Y-50713719D01*
X78808170Y-50732132D01*
X78817349Y-50751538D01*
X78824581Y-50771750D01*
X78829797Y-50792574D01*
X78832947Y-50813809D01*
X78834000Y-50835250D01*
X78834000Y-51272750D01*
X78832947Y-51294191D01*
X78829797Y-51315426D01*
X78824581Y-51336250D01*
X78817349Y-51356462D01*
X78808170Y-51375868D01*
X78797134Y-51394281D01*
X78784346Y-51411524D01*
X78769930Y-51427430D01*
X78754024Y-51441846D01*
X78736781Y-51454634D01*
X78718368Y-51465670D01*
X78698962Y-51474849D01*
X78678750Y-51482081D01*
X78657926Y-51487297D01*
X78636691Y-51490447D01*
X78615250Y-51491500D01*
X78102750Y-51491500D01*
X78081309Y-51490447D01*
X78060074Y-51487297D01*
X78039250Y-51482081D01*
X78019038Y-51474849D01*
X77999632Y-51465670D01*
X77981219Y-51454634D01*
X77963976Y-51441846D01*
X77948070Y-51427430D01*
X77933654Y-51411524D01*
X77920866Y-51394281D01*
X77909830Y-51375868D01*
X77900651Y-51356462D01*
X77893419Y-51336250D01*
X77888203Y-51315426D01*
X77885053Y-51294191D01*
X77884000Y-51272750D01*
X77884000Y-50835250D01*
X77885053Y-50813809D01*
X77888203Y-50792574D01*
X77893419Y-50771750D01*
X77900651Y-50751538D01*
X77909830Y-50732132D01*
X77920866Y-50713719D01*
X77933654Y-50696476D01*
X77948070Y-50680570D01*
X77963976Y-50666154D01*
X77981219Y-50653366D01*
X77999632Y-50642330D01*
X78019038Y-50633151D01*
X78039250Y-50625919D01*
X78060074Y-50620703D01*
X78081309Y-50617553D01*
X78102750Y-50616500D01*
X78615250Y-50616500D01*
X78636691Y-50617553D01*
X78636691Y-50617553D01*
G37*
D16*
X78359000Y-51054000D03*
D13*
G36*
X78636691Y-49042553D02*
G01*
X78657926Y-49045703D01*
X78678750Y-49050919D01*
X78698962Y-49058151D01*
X78718368Y-49067330D01*
X78736781Y-49078366D01*
X78754024Y-49091154D01*
X78769930Y-49105570D01*
X78784346Y-49121476D01*
X78797134Y-49138719D01*
X78808170Y-49157132D01*
X78817349Y-49176538D01*
X78824581Y-49196750D01*
X78829797Y-49217574D01*
X78832947Y-49238809D01*
X78834000Y-49260250D01*
X78834000Y-49697750D01*
X78832947Y-49719191D01*
X78829797Y-49740426D01*
X78824581Y-49761250D01*
X78817349Y-49781462D01*
X78808170Y-49800868D01*
X78797134Y-49819281D01*
X78784346Y-49836524D01*
X78769930Y-49852430D01*
X78754024Y-49866846D01*
X78736781Y-49879634D01*
X78718368Y-49890670D01*
X78698962Y-49899849D01*
X78678750Y-49907081D01*
X78657926Y-49912297D01*
X78636691Y-49915447D01*
X78615250Y-49916500D01*
X78102750Y-49916500D01*
X78081309Y-49915447D01*
X78060074Y-49912297D01*
X78039250Y-49907081D01*
X78019038Y-49899849D01*
X77999632Y-49890670D01*
X77981219Y-49879634D01*
X77963976Y-49866846D01*
X77948070Y-49852430D01*
X77933654Y-49836524D01*
X77920866Y-49819281D01*
X77909830Y-49800868D01*
X77900651Y-49781462D01*
X77893419Y-49761250D01*
X77888203Y-49740426D01*
X77885053Y-49719191D01*
X77884000Y-49697750D01*
X77884000Y-49260250D01*
X77885053Y-49238809D01*
X77888203Y-49217574D01*
X77893419Y-49196750D01*
X77900651Y-49176538D01*
X77909830Y-49157132D01*
X77920866Y-49138719D01*
X77933654Y-49121476D01*
X77948070Y-49105570D01*
X77963976Y-49091154D01*
X77981219Y-49078366D01*
X77999632Y-49067330D01*
X78019038Y-49058151D01*
X78039250Y-49050919D01*
X78060074Y-49045703D01*
X78081309Y-49042553D01*
X78102750Y-49041500D01*
X78615250Y-49041500D01*
X78636691Y-49042553D01*
X78636691Y-49042553D01*
G37*
D16*
X78359000Y-49479000D03*
D17*
X71700000Y-78440000D03*
X75700000Y-78440000D03*
D18*
X63690000Y-83720000D03*
X63690000Y-87720000D03*
D13*
G36*
X72921691Y-49068053D02*
G01*
X72942926Y-49071203D01*
X72963750Y-49076419D01*
X72983962Y-49083651D01*
X73003368Y-49092830D01*
X73021781Y-49103866D01*
X73039024Y-49116654D01*
X73054930Y-49131070D01*
X73069346Y-49146976D01*
X73082134Y-49164219D01*
X73093170Y-49182632D01*
X73102349Y-49202038D01*
X73109581Y-49222250D01*
X73114797Y-49243074D01*
X73117947Y-49264309D01*
X73119000Y-49285750D01*
X73119000Y-49723250D01*
X73117947Y-49744691D01*
X73114797Y-49765926D01*
X73109581Y-49786750D01*
X73102349Y-49806962D01*
X73093170Y-49826368D01*
X73082134Y-49844781D01*
X73069346Y-49862024D01*
X73054930Y-49877930D01*
X73039024Y-49892346D01*
X73021781Y-49905134D01*
X73003368Y-49916170D01*
X72983962Y-49925349D01*
X72963750Y-49932581D01*
X72942926Y-49937797D01*
X72921691Y-49940947D01*
X72900250Y-49942000D01*
X72387750Y-49942000D01*
X72366309Y-49940947D01*
X72345074Y-49937797D01*
X72324250Y-49932581D01*
X72304038Y-49925349D01*
X72284632Y-49916170D01*
X72266219Y-49905134D01*
X72248976Y-49892346D01*
X72233070Y-49877930D01*
X72218654Y-49862024D01*
X72205866Y-49844781D01*
X72194830Y-49826368D01*
X72185651Y-49806962D01*
X72178419Y-49786750D01*
X72173203Y-49765926D01*
X72170053Y-49744691D01*
X72169000Y-49723250D01*
X72169000Y-49285750D01*
X72170053Y-49264309D01*
X72173203Y-49243074D01*
X72178419Y-49222250D01*
X72185651Y-49202038D01*
X72194830Y-49182632D01*
X72205866Y-49164219D01*
X72218654Y-49146976D01*
X72233070Y-49131070D01*
X72248976Y-49116654D01*
X72266219Y-49103866D01*
X72284632Y-49092830D01*
X72304038Y-49083651D01*
X72324250Y-49076419D01*
X72345074Y-49071203D01*
X72366309Y-49068053D01*
X72387750Y-49067000D01*
X72900250Y-49067000D01*
X72921691Y-49068053D01*
X72921691Y-49068053D01*
G37*
D16*
X72644000Y-49504500D03*
D13*
G36*
X72921691Y-50643053D02*
G01*
X72942926Y-50646203D01*
X72963750Y-50651419D01*
X72983962Y-50658651D01*
X73003368Y-50667830D01*
X73021781Y-50678866D01*
X73039024Y-50691654D01*
X73054930Y-50706070D01*
X73069346Y-50721976D01*
X73082134Y-50739219D01*
X73093170Y-50757632D01*
X73102349Y-50777038D01*
X73109581Y-50797250D01*
X73114797Y-50818074D01*
X73117947Y-50839309D01*
X73119000Y-50860750D01*
X73119000Y-51298250D01*
X73117947Y-51319691D01*
X73114797Y-51340926D01*
X73109581Y-51361750D01*
X73102349Y-51381962D01*
X73093170Y-51401368D01*
X73082134Y-51419781D01*
X73069346Y-51437024D01*
X73054930Y-51452930D01*
X73039024Y-51467346D01*
X73021781Y-51480134D01*
X73003368Y-51491170D01*
X72983962Y-51500349D01*
X72963750Y-51507581D01*
X72942926Y-51512797D01*
X72921691Y-51515947D01*
X72900250Y-51517000D01*
X72387750Y-51517000D01*
X72366309Y-51515947D01*
X72345074Y-51512797D01*
X72324250Y-51507581D01*
X72304038Y-51500349D01*
X72284632Y-51491170D01*
X72266219Y-51480134D01*
X72248976Y-51467346D01*
X72233070Y-51452930D01*
X72218654Y-51437024D01*
X72205866Y-51419781D01*
X72194830Y-51401368D01*
X72185651Y-51381962D01*
X72178419Y-51361750D01*
X72173203Y-51340926D01*
X72170053Y-51319691D01*
X72169000Y-51298250D01*
X72169000Y-50860750D01*
X72170053Y-50839309D01*
X72173203Y-50818074D01*
X72178419Y-50797250D01*
X72185651Y-50777038D01*
X72194830Y-50757632D01*
X72205866Y-50739219D01*
X72218654Y-50721976D01*
X72233070Y-50706070D01*
X72248976Y-50691654D01*
X72266219Y-50678866D01*
X72284632Y-50667830D01*
X72304038Y-50658651D01*
X72324250Y-50651419D01*
X72345074Y-50646203D01*
X72366309Y-50643053D01*
X72387750Y-50642000D01*
X72900250Y-50642000D01*
X72921691Y-50643053D01*
X72921691Y-50643053D01*
G37*
D16*
X72644000Y-51079500D03*
D13*
G36*
X83460142Y-67443674D02*
G01*
X83483803Y-67447184D01*
X83507007Y-67452996D01*
X83529529Y-67461054D01*
X83551153Y-67471282D01*
X83571670Y-67483579D01*
X83590883Y-67497829D01*
X83608607Y-67513893D01*
X83624671Y-67531617D01*
X83638921Y-67550830D01*
X83651218Y-67571347D01*
X83661446Y-67592971D01*
X83669504Y-67615493D01*
X83675316Y-67638697D01*
X83678826Y-67662358D01*
X83680000Y-67686250D01*
X83680000Y-68173750D01*
X83678826Y-68197642D01*
X83675316Y-68221303D01*
X83669504Y-68244507D01*
X83661446Y-68267029D01*
X83651218Y-68288653D01*
X83638921Y-68309170D01*
X83624671Y-68328383D01*
X83608607Y-68346107D01*
X83590883Y-68362171D01*
X83571670Y-68376421D01*
X83551153Y-68388718D01*
X83529529Y-68398946D01*
X83507007Y-68407004D01*
X83483803Y-68412816D01*
X83460142Y-68416326D01*
X83436250Y-68417500D01*
X82523750Y-68417500D01*
X82499858Y-68416326D01*
X82476197Y-68412816D01*
X82452993Y-68407004D01*
X82430471Y-68398946D01*
X82408847Y-68388718D01*
X82388330Y-68376421D01*
X82369117Y-68362171D01*
X82351393Y-68346107D01*
X82335329Y-68328383D01*
X82321079Y-68309170D01*
X82308782Y-68288653D01*
X82298554Y-68267029D01*
X82290496Y-68244507D01*
X82284684Y-68221303D01*
X82281174Y-68197642D01*
X82280000Y-68173750D01*
X82280000Y-67686250D01*
X82281174Y-67662358D01*
X82284684Y-67638697D01*
X82290496Y-67615493D01*
X82298554Y-67592971D01*
X82308782Y-67571347D01*
X82321079Y-67550830D01*
X82335329Y-67531617D01*
X82351393Y-67513893D01*
X82369117Y-67497829D01*
X82388330Y-67483579D01*
X82408847Y-67471282D01*
X82430471Y-67461054D01*
X82452993Y-67452996D01*
X82476197Y-67447184D01*
X82499858Y-67443674D01*
X82523750Y-67442500D01*
X83436250Y-67442500D01*
X83460142Y-67443674D01*
X83460142Y-67443674D01*
G37*
D14*
X82980000Y-67930000D03*
D13*
G36*
X83460142Y-65568674D02*
G01*
X83483803Y-65572184D01*
X83507007Y-65577996D01*
X83529529Y-65586054D01*
X83551153Y-65596282D01*
X83571670Y-65608579D01*
X83590883Y-65622829D01*
X83608607Y-65638893D01*
X83624671Y-65656617D01*
X83638921Y-65675830D01*
X83651218Y-65696347D01*
X83661446Y-65717971D01*
X83669504Y-65740493D01*
X83675316Y-65763697D01*
X83678826Y-65787358D01*
X83680000Y-65811250D01*
X83680000Y-66298750D01*
X83678826Y-66322642D01*
X83675316Y-66346303D01*
X83669504Y-66369507D01*
X83661446Y-66392029D01*
X83651218Y-66413653D01*
X83638921Y-66434170D01*
X83624671Y-66453383D01*
X83608607Y-66471107D01*
X83590883Y-66487171D01*
X83571670Y-66501421D01*
X83551153Y-66513718D01*
X83529529Y-66523946D01*
X83507007Y-66532004D01*
X83483803Y-66537816D01*
X83460142Y-66541326D01*
X83436250Y-66542500D01*
X82523750Y-66542500D01*
X82499858Y-66541326D01*
X82476197Y-66537816D01*
X82452993Y-66532004D01*
X82430471Y-66523946D01*
X82408847Y-66513718D01*
X82388330Y-66501421D01*
X82369117Y-66487171D01*
X82351393Y-66471107D01*
X82335329Y-66453383D01*
X82321079Y-66434170D01*
X82308782Y-66413653D01*
X82298554Y-66392029D01*
X82290496Y-66369507D01*
X82284684Y-66346303D01*
X82281174Y-66322642D01*
X82280000Y-66298750D01*
X82280000Y-65811250D01*
X82281174Y-65787358D01*
X82284684Y-65763697D01*
X82290496Y-65740493D01*
X82298554Y-65717971D01*
X82308782Y-65696347D01*
X82321079Y-65675830D01*
X82335329Y-65656617D01*
X82351393Y-65638893D01*
X82369117Y-65622829D01*
X82388330Y-65608579D01*
X82408847Y-65596282D01*
X82430471Y-65586054D01*
X82452993Y-65577996D01*
X82476197Y-65572184D01*
X82499858Y-65568674D01*
X82523750Y-65567500D01*
X83436250Y-65567500D01*
X83460142Y-65568674D01*
X83460142Y-65568674D01*
G37*
D14*
X82980000Y-66055000D03*
D19*
X73492000Y-45919000D03*
X73492000Y-42219000D03*
X77892000Y-45919000D03*
X77892000Y-42219000D03*
D20*
X75692000Y-46594000D03*
X75692000Y-41544000D03*
D21*
X73573300Y-57765560D03*
X71673300Y-57765560D03*
X72623300Y-59764540D03*
X84309840Y-52538200D03*
X84309840Y-54438200D03*
X86308820Y-53488200D03*
M02*
