G04 #@! TF.FileFunction,Legend,Top*
%FSLAX46Y46*%
G04 Gerber Fmt 4.6, Leading zero omitted, Abs format (unit mm)*
G04 Created by KiCad (PCBNEW 0.201506192325+5795~23~ubuntu14.04.1-product) date Sat 22 Aug 2015 00:19:35 BST*
%MOMM*%
G01*
G04 APERTURE LIST*
%ADD10C,0.100000*%
%ADD11C,0.150000*%
G04 APERTURE END LIST*
D10*
D11*
X69350000Y-64515904D02*
X69302381Y-64611142D01*
X69302381Y-64753999D01*
X69350000Y-64896857D01*
X69445238Y-64992095D01*
X69540476Y-65039714D01*
X69730952Y-65087333D01*
X69873810Y-65087333D01*
X70064286Y-65039714D01*
X70159524Y-64992095D01*
X70254762Y-64896857D01*
X70302381Y-64753999D01*
X70302381Y-64658761D01*
X70254762Y-64515904D01*
X70207143Y-64468285D01*
X69873810Y-64468285D01*
X69873810Y-64658761D01*
X70302381Y-64039714D02*
X69302381Y-64039714D01*
X70302381Y-63468285D01*
X69302381Y-63468285D01*
X70302381Y-62992095D02*
X69302381Y-62992095D01*
X69302381Y-62754000D01*
X69350000Y-62611142D01*
X69445238Y-62515904D01*
X69540476Y-62468285D01*
X69730952Y-62420666D01*
X69873810Y-62420666D01*
X70064286Y-62468285D01*
X70159524Y-62515904D01*
X70254762Y-62611142D01*
X70302381Y-62754000D01*
X70302381Y-62992095D01*
X87439500Y-80645000D02*
X87439500Y-40005000D01*
X87439500Y-40005000D02*
X95059500Y-40005000D01*
X95059500Y-40005000D02*
X95059500Y-80645000D01*
X95059500Y-80645000D02*
X87439500Y-80645000D01*
X68914000Y-63994000D02*
X68914000Y-60694000D01*
X68914000Y-60694000D02*
X53514000Y-60694000D01*
X53514000Y-60694000D02*
X53514000Y-64044000D01*
X62564000Y-80294000D02*
X68914000Y-80294000D01*
X68914000Y-80294000D02*
X68914000Y-65744000D01*
X59814000Y-80294000D02*
X53514000Y-80294000D01*
X53514000Y-80294000D02*
X53514000Y-65544000D01*
X53564000Y-80294000D02*
X59814000Y-80294000D01*
X65414000Y-64844000D02*
X62964000Y-64844000D01*
X57014000Y-64844000D02*
X59514000Y-64844000D01*
X67264000Y-75444000D02*
X67264000Y-72944000D01*
X61264000Y-76344000D02*
X61264000Y-77144000D01*
X55264000Y-72944000D02*
X55264000Y-75444000D01*
X61264000Y-69544000D02*
X61264000Y-68044000D01*
X61264000Y-68044000D02*
X58764000Y-63444000D01*
X64864000Y-69544000D02*
X64864000Y-76344000D01*
X61264000Y-69544000D02*
X64864000Y-69544000D01*
X61264000Y-76344000D02*
X64864000Y-76344000D01*
X55264000Y-72944000D02*
X59464000Y-72944000D01*
X63064000Y-72944000D02*
X67264000Y-72944000D01*
X63064000Y-70944000D02*
X59464000Y-74944000D01*
X63064000Y-74944000D02*
X59464000Y-74944000D01*
X59464000Y-74944000D02*
X59464000Y-70944000D01*
X59464000Y-70944000D02*
X63064000Y-70944000D01*
X63064000Y-70944000D02*
X63064000Y-74944000D01*
X83566000Y-48387000D02*
X86106000Y-48387000D01*
X80746000Y-48107000D02*
X82296000Y-48107000D01*
X83566000Y-48387000D02*
X83566000Y-50927000D01*
X82296000Y-51207000D02*
X80746000Y-51207000D01*
X80746000Y-51207000D02*
X80746000Y-48107000D01*
X83566000Y-50927000D02*
X86106000Y-50927000D01*
X86106000Y-50927000D02*
X86106000Y-48387000D01*
X45008800Y-59471560D02*
X45008800Y-89951560D01*
X45008800Y-89951560D02*
X52628800Y-89951560D01*
X52628800Y-89951560D02*
X52628800Y-59471560D01*
X52628800Y-59471560D02*
X45008800Y-59471560D01*
X73406000Y-62611000D02*
X86106000Y-62611000D01*
X86106000Y-62611000D02*
X86106000Y-65151000D01*
X86106000Y-65151000D02*
X73406000Y-65151000D01*
X70586000Y-62331000D02*
X72136000Y-62331000D01*
X73406000Y-62611000D02*
X73406000Y-65151000D01*
X72136000Y-65431000D02*
X70586000Y-65431000D01*
X70586000Y-65431000D02*
X70586000Y-62331000D01*
X76211150Y-76304670D02*
G75*
G03X76211150Y-76304670I-100000J0D01*
G01*
X76761150Y-76554670D02*
X76261150Y-76554670D01*
X76761150Y-79454670D02*
X76761150Y-76554670D01*
X76261150Y-79454670D02*
X76761150Y-79454670D01*
X76261150Y-76554670D02*
X76261150Y-79454670D01*
X62717300Y-84311100D02*
X62717300Y-89391100D01*
X62717300Y-89391100D02*
X65257300Y-89391100D01*
X65257300Y-89391100D02*
X65257300Y-84311100D01*
X65537300Y-81491100D02*
X65537300Y-83041100D01*
X65257300Y-84311100D02*
X62717300Y-84311100D01*
X62437300Y-83041100D02*
X62437300Y-81491100D01*
X62437300Y-81491100D02*
X65537300Y-81491100D01*
X83657950Y-78762750D02*
X81657950Y-78762750D01*
X81657950Y-80812750D02*
X83657950Y-80812750D01*
X85563350Y-71732150D02*
X85563350Y-69732150D01*
X83513350Y-69732150D02*
X83513350Y-71732150D01*
X76188350Y-74632150D02*
X76888350Y-74632150D01*
X76888350Y-75832150D02*
X76188350Y-75832150D01*
X72044000Y-50642000D02*
X72044000Y-49942000D01*
X73244000Y-49942000D02*
X73244000Y-50642000D01*
X80833410Y-78210410D02*
X80833410Y-77859890D01*
X80833410Y-74710290D02*
X80833410Y-75060810D01*
X84882990Y-78210410D02*
X84882990Y-77859890D01*
X80382110Y-78210410D02*
X80382110Y-77859890D01*
X80382110Y-74710290D02*
X80382110Y-75060810D01*
X84882990Y-74710290D02*
X84882990Y-75060810D01*
X80382110Y-78210410D02*
X84882990Y-78210410D01*
X80382110Y-74710290D02*
X84882990Y-74710290D01*
X73378060Y-72157140D02*
X73027540Y-72157140D01*
X69877940Y-72157140D02*
X70228460Y-72157140D01*
X73378060Y-68107560D02*
X73027540Y-68107560D01*
X73378060Y-72608440D02*
X73027540Y-72608440D01*
X69877940Y-72608440D02*
X70228460Y-72608440D01*
X69877940Y-68107560D02*
X70228460Y-68107560D01*
X73378060Y-72608440D02*
X73378060Y-68107560D01*
X69877940Y-72608440D02*
X69877940Y-68107560D01*
X71336840Y-60412240D02*
X71385100Y-60412240D01*
X74135820Y-59711200D02*
X74135820Y-60412240D01*
X74135820Y-60412240D02*
X73886900Y-60412240D01*
X71336840Y-60412240D02*
X71136180Y-60412240D01*
X71136180Y-60412240D02*
X71136180Y-59711200D01*
X85960840Y-54787360D02*
X85960840Y-54739100D01*
X85259800Y-51988380D02*
X85960840Y-51988380D01*
X85960840Y-51988380D02*
X85960840Y-52237300D01*
X85960840Y-54787360D02*
X85960840Y-54988020D01*
X85960840Y-54988020D02*
X85259800Y-54988020D01*
X73573000Y-79002000D02*
X73573000Y-80002000D01*
X72223000Y-80002000D02*
X72223000Y-79002000D01*
X73573000Y-76208000D02*
X73573000Y-77208000D01*
X72223000Y-77208000D02*
X72223000Y-76208000D01*
X78378430Y-79773150D02*
X79378430Y-79773150D01*
X79378430Y-81123150D02*
X78378430Y-81123150D01*
X75680950Y-79773150D02*
X76680950Y-79773150D01*
X76680950Y-81123150D02*
X75680950Y-81123150D01*
X77885800Y-53655200D02*
X76885800Y-53655200D01*
X76885800Y-52305200D02*
X77885800Y-52305200D01*
X80647800Y-59550800D02*
X80647800Y-58550800D01*
X81997800Y-58550800D02*
X81997800Y-59550800D01*
X80067400Y-58550800D02*
X80067400Y-59550800D01*
X78717400Y-59550800D02*
X78717400Y-58550800D01*
X78137000Y-58550800D02*
X78137000Y-59550800D01*
X76787000Y-59550800D02*
X76787000Y-58550800D01*
X77129000Y-49792000D02*
X77129000Y-50792000D01*
X75779000Y-50792000D02*
X75779000Y-49792000D01*
X76206600Y-58550800D02*
X76206600Y-59550800D01*
X74856600Y-59550800D02*
X74856600Y-58550800D01*
X75224000Y-49792000D02*
X75224000Y-50792000D01*
X73874000Y-50792000D02*
X73874000Y-49792000D01*
X85858600Y-58550800D02*
X85858600Y-59550800D01*
X84508600Y-59550800D02*
X84508600Y-58550800D01*
X83928200Y-58550800D02*
X83928200Y-59550800D01*
X82578200Y-59550800D02*
X82578200Y-58550800D01*
X77676000Y-50787800D02*
X77676000Y-49787800D01*
X79026000Y-49787800D02*
X79026000Y-50787800D01*
X86707600Y-90026100D02*
X66387600Y-90026100D01*
X66387600Y-82406100D02*
X86707600Y-82406100D01*
X86707600Y-90026100D02*
X86707600Y-82406100D01*
X66387600Y-82406100D02*
X66387600Y-90026100D01*
X59735600Y-85949400D02*
G75*
G03X59735600Y-85949400I-3000000J0D01*
G01*
X93911300Y-85949400D02*
G75*
G03X93911300Y-85949400I-3000000J0D01*
G01*
X86342100Y-44064800D02*
G75*
G03X86342100Y-44064800I-3000000J0D01*
G01*
X88844381Y-61063095D02*
X87844381Y-61063095D01*
X87844381Y-60682142D01*
X87892000Y-60586904D01*
X87939619Y-60539285D01*
X88034857Y-60491666D01*
X88177714Y-60491666D01*
X88272952Y-60539285D01*
X88320571Y-60586904D01*
X88368190Y-60682142D01*
X88368190Y-61063095D01*
X87844381Y-60158333D02*
X87844381Y-59539285D01*
X88225333Y-59872619D01*
X88225333Y-59729761D01*
X88272952Y-59634523D01*
X88320571Y-59586904D01*
X88415810Y-59539285D01*
X88653905Y-59539285D01*
X88749143Y-59586904D01*
X88796762Y-59634523D01*
X88844381Y-59729761D01*
X88844381Y-60015476D01*
X88796762Y-60110714D01*
X88749143Y-60158333D01*
X60452095Y-64349381D02*
X60452095Y-65158905D01*
X60499714Y-65254143D01*
X60547333Y-65301762D01*
X60642571Y-65349381D01*
X60833048Y-65349381D01*
X60928286Y-65301762D01*
X60975905Y-65254143D01*
X61023524Y-65158905D01*
X61023524Y-64349381D01*
X61452095Y-64444619D02*
X61499714Y-64397000D01*
X61594952Y-64349381D01*
X61833048Y-64349381D01*
X61928286Y-64397000D01*
X61975905Y-64444619D01*
X62023524Y-64539857D01*
X62023524Y-64635095D01*
X61975905Y-64777952D01*
X61404476Y-65349381D01*
X62023524Y-65349381D01*
X86312381Y-50435333D02*
X87026667Y-50435333D01*
X87169524Y-50482953D01*
X87264762Y-50578191D01*
X87312381Y-50721048D01*
X87312381Y-50816286D01*
X87312381Y-49959143D02*
X86312381Y-49959143D01*
X86312381Y-49578190D01*
X86360000Y-49482952D01*
X86407619Y-49435333D01*
X86502857Y-49387714D01*
X86645714Y-49387714D01*
X86740952Y-49435333D01*
X86788571Y-49482952D01*
X86836190Y-49578190D01*
X86836190Y-49959143D01*
X86407619Y-49006762D02*
X86360000Y-48959143D01*
X86312381Y-48863905D01*
X86312381Y-48625809D01*
X86360000Y-48530571D01*
X86407619Y-48482952D01*
X86502857Y-48435333D01*
X86598095Y-48435333D01*
X86740952Y-48482952D01*
X87312381Y-49054381D01*
X87312381Y-48435333D01*
X79854371Y-50959142D02*
X79901990Y-50816285D01*
X79949610Y-50768666D01*
X80044848Y-50721047D01*
X80187705Y-50721047D01*
X80282943Y-50768666D01*
X80330562Y-50816285D01*
X80378181Y-50911523D01*
X80378181Y-51292476D01*
X79378181Y-51292476D01*
X79378181Y-50959142D01*
X79425800Y-50863904D01*
X79473419Y-50816285D01*
X79568657Y-50768666D01*
X79663895Y-50768666D01*
X79759133Y-50816285D01*
X79806752Y-50863904D01*
X79854371Y-50959142D01*
X79854371Y-51292476D01*
X79378181Y-50102000D02*
X79378181Y-49911523D01*
X79425800Y-49816285D01*
X79521038Y-49721047D01*
X79711514Y-49673428D01*
X80044848Y-49673428D01*
X80235324Y-49721047D01*
X80330562Y-49816285D01*
X80378181Y-49911523D01*
X80378181Y-50102000D01*
X80330562Y-50197238D01*
X80235324Y-50292476D01*
X80044848Y-50340095D01*
X79711514Y-50340095D01*
X79521038Y-50292476D01*
X79425800Y-50197238D01*
X79378181Y-50102000D01*
X79378181Y-49054381D02*
X79378181Y-48863904D01*
X79425800Y-48768666D01*
X79521038Y-48673428D01*
X79711514Y-48625809D01*
X80044848Y-48625809D01*
X80235324Y-48673428D01*
X80330562Y-48768666D01*
X80378181Y-48863904D01*
X80378181Y-49054381D01*
X80330562Y-49149619D01*
X80235324Y-49244857D01*
X80044848Y-49292476D01*
X79711514Y-49292476D01*
X79521038Y-49244857D01*
X79425800Y-49149619D01*
X79378181Y-49054381D01*
X79378181Y-48340095D02*
X79378181Y-47768666D01*
X80378181Y-48054381D02*
X79378181Y-48054381D01*
X78446334Y-71191381D02*
X77970143Y-71191381D01*
X77970143Y-70191381D01*
X79303477Y-71191381D02*
X78732048Y-71191381D01*
X79017762Y-71191381D02*
X79017762Y-70191381D01*
X78922524Y-70334238D01*
X78827286Y-70429476D01*
X78732048Y-70477095D01*
X51752381Y-75486095D02*
X50752381Y-75486095D01*
X50752381Y-75105142D01*
X50800000Y-75009904D01*
X50847619Y-74962285D01*
X50942857Y-74914666D01*
X51085714Y-74914666D01*
X51180952Y-74962285D01*
X51228571Y-75009904D01*
X51276190Y-75105142D01*
X51276190Y-75486095D01*
X50847619Y-74533714D02*
X50800000Y-74486095D01*
X50752381Y-74390857D01*
X50752381Y-74152761D01*
X50800000Y-74057523D01*
X50847619Y-74009904D01*
X50942857Y-73962285D01*
X51038095Y-73962285D01*
X51180952Y-74009904D01*
X51752381Y-74581333D01*
X51752381Y-73962285D01*
X77739905Y-66564381D02*
X77739905Y-65564381D01*
X78120858Y-65564381D01*
X78216096Y-65612000D01*
X78263715Y-65659619D01*
X78311334Y-65754857D01*
X78311334Y-65897714D01*
X78263715Y-65992952D01*
X78216096Y-66040571D01*
X78120858Y-66088190D01*
X77739905Y-66088190D01*
X79168477Y-65897714D02*
X79168477Y-66564381D01*
X78930381Y-65516762D02*
X78692286Y-66231048D01*
X79311334Y-66231048D01*
X77501810Y-61722571D02*
X77168476Y-61722571D01*
X77168476Y-62246381D02*
X77168476Y-61246381D01*
X77644667Y-61246381D01*
X77882762Y-61246381D02*
X78454191Y-61246381D01*
X78168476Y-62246381D02*
X78168476Y-61246381D01*
X78787524Y-62246381D02*
X78787524Y-61246381D01*
X79025619Y-61246381D01*
X79168477Y-61294000D01*
X79263715Y-61389238D01*
X79311334Y-61484476D01*
X79358953Y-61674952D01*
X79358953Y-61817810D01*
X79311334Y-62008286D01*
X79263715Y-62103524D01*
X79168477Y-62198762D01*
X79025619Y-62246381D01*
X78787524Y-62246381D01*
X79787524Y-62246381D02*
X79787524Y-61246381D01*
X74350667Y-44418762D02*
X74493524Y-44466381D01*
X74731620Y-44466381D01*
X74826858Y-44418762D01*
X74874477Y-44371143D01*
X74922096Y-44275905D01*
X74922096Y-44180667D01*
X74874477Y-44085429D01*
X74826858Y-44037810D01*
X74731620Y-43990190D01*
X74541143Y-43942571D01*
X74445905Y-43894952D01*
X74398286Y-43847333D01*
X74350667Y-43752095D01*
X74350667Y-43656857D01*
X74398286Y-43561619D01*
X74445905Y-43514000D01*
X74541143Y-43466381D01*
X74779239Y-43466381D01*
X74922096Y-43514000D01*
X75255429Y-43466381D02*
X75493524Y-44466381D01*
X75684001Y-43752095D01*
X75874477Y-44466381D01*
X76112572Y-43466381D01*
X77017334Y-44466381D02*
X76445905Y-44466381D01*
X76731619Y-44466381D02*
X76731619Y-43466381D01*
X76636381Y-43609238D01*
X76541143Y-43704476D01*
X76445905Y-43752095D01*
X72427981Y-45771181D02*
X71951790Y-46104515D01*
X72427981Y-46342610D02*
X71427981Y-46342610D01*
X71427981Y-45961657D01*
X71475600Y-45866419D01*
X71523219Y-45818800D01*
X71618457Y-45771181D01*
X71761314Y-45771181D01*
X71856552Y-45818800D01*
X71904171Y-45866419D01*
X71951790Y-45961657D01*
X71951790Y-46342610D01*
X71904171Y-45342610D02*
X71904171Y-45009276D01*
X72427981Y-44866419D02*
X72427981Y-45342610D01*
X71427981Y-45342610D01*
X71427981Y-44866419D01*
X72380362Y-44485467D02*
X72427981Y-44342610D01*
X72427981Y-44104514D01*
X72380362Y-44009276D01*
X72332743Y-43961657D01*
X72237505Y-43914038D01*
X72142267Y-43914038D01*
X72047029Y-43961657D01*
X71999410Y-44009276D01*
X71951790Y-44104514D01*
X71904171Y-44294991D01*
X71856552Y-44390229D01*
X71808933Y-44437848D01*
X71713695Y-44485467D01*
X71618457Y-44485467D01*
X71523219Y-44437848D01*
X71475600Y-44390229D01*
X71427981Y-44294991D01*
X71427981Y-44056895D01*
X71475600Y-43914038D01*
X71904171Y-43485467D02*
X71904171Y-43152133D01*
X72427981Y-43009276D02*
X72427981Y-43485467D01*
X71427981Y-43485467D01*
X71427981Y-43009276D01*
X71427981Y-42723562D02*
X71427981Y-42152133D01*
X72427981Y-42437848D02*
X71427981Y-42437848D01*
X73874381Y-80898905D02*
X74683905Y-80898905D01*
X74779143Y-80851286D01*
X74826762Y-80803667D01*
X74874381Y-80708429D01*
X74874381Y-80517952D01*
X74826762Y-80422714D01*
X74779143Y-80375095D01*
X74683905Y-80327476D01*
X73874381Y-80327476D01*
X74874381Y-79327476D02*
X74874381Y-79898905D01*
X74874381Y-79613191D02*
X73874381Y-79613191D01*
X74017238Y-79708429D01*
X74112476Y-79803667D01*
X74160095Y-79898905D01*
X61018681Y-83438433D02*
X61732967Y-83438433D01*
X61875824Y-83486053D01*
X61971062Y-83581291D01*
X62018681Y-83724148D01*
X62018681Y-83819386D01*
X62018681Y-82962243D02*
X61018681Y-82962243D01*
X61018681Y-82581290D01*
X61066300Y-82486052D01*
X61113919Y-82438433D01*
X61209157Y-82390814D01*
X61352014Y-82390814D01*
X61447252Y-82438433D01*
X61494871Y-82486052D01*
X61542490Y-82581290D01*
X61542490Y-82962243D01*
X62018681Y-81438433D02*
X62018681Y-82009862D01*
X62018681Y-81724148D02*
X61018681Y-81724148D01*
X61161538Y-81819386D01*
X61256776Y-81914624D01*
X61304395Y-82009862D01*
X82510334Y-81891143D02*
X82462715Y-81938762D01*
X82319858Y-81986381D01*
X82224620Y-81986381D01*
X82081762Y-81938762D01*
X81986524Y-81843524D01*
X81938905Y-81748286D01*
X81891286Y-81557810D01*
X81891286Y-81414952D01*
X81938905Y-81224476D01*
X81986524Y-81129238D01*
X82081762Y-81034000D01*
X82224620Y-80986381D01*
X82319858Y-80986381D01*
X82462715Y-81034000D01*
X82510334Y-81081619D01*
X83462715Y-81986381D02*
X82891286Y-81986381D01*
X83177000Y-81986381D02*
X83177000Y-80986381D01*
X83081762Y-81129238D01*
X82986524Y-81224476D01*
X82891286Y-81272095D01*
X84288334Y-68048143D02*
X84240715Y-68095762D01*
X84097858Y-68143381D01*
X84002620Y-68143381D01*
X83859762Y-68095762D01*
X83764524Y-68000524D01*
X83716905Y-67905286D01*
X83669286Y-67714810D01*
X83669286Y-67571952D01*
X83716905Y-67381476D01*
X83764524Y-67286238D01*
X83859762Y-67191000D01*
X84002620Y-67143381D01*
X84097858Y-67143381D01*
X84240715Y-67191000D01*
X84288334Y-67238619D01*
X84669286Y-67238619D02*
X84716905Y-67191000D01*
X84812143Y-67143381D01*
X85050239Y-67143381D01*
X85145477Y-67191000D01*
X85193096Y-67238619D01*
X85240715Y-67333857D01*
X85240715Y-67429095D01*
X85193096Y-67571952D01*
X84621667Y-68143381D01*
X85240715Y-68143381D01*
X74779143Y-75604666D02*
X74826762Y-75652285D01*
X74874381Y-75795142D01*
X74874381Y-75890380D01*
X74826762Y-76033238D01*
X74731524Y-76128476D01*
X74636286Y-76176095D01*
X74445810Y-76223714D01*
X74302952Y-76223714D01*
X74112476Y-76176095D01*
X74017238Y-76128476D01*
X73922000Y-76033238D01*
X73874381Y-75890380D01*
X73874381Y-75795142D01*
X73922000Y-75652285D01*
X73969619Y-75604666D01*
X73874381Y-75271333D02*
X73874381Y-74652285D01*
X74255333Y-74985619D01*
X74255333Y-74842761D01*
X74302952Y-74747523D01*
X74350571Y-74699904D01*
X74445810Y-74652285D01*
X74683905Y-74652285D01*
X74779143Y-74699904D01*
X74826762Y-74747523D01*
X74874381Y-74842761D01*
X74874381Y-75128476D01*
X74826762Y-75223714D01*
X74779143Y-75271333D01*
X73069343Y-48092266D02*
X73116962Y-48139885D01*
X73164581Y-48282742D01*
X73164581Y-48377980D01*
X73116962Y-48520838D01*
X73021724Y-48616076D01*
X72926486Y-48663695D01*
X72736010Y-48711314D01*
X72593152Y-48711314D01*
X72402676Y-48663695D01*
X72307438Y-48616076D01*
X72212200Y-48520838D01*
X72164581Y-48377980D01*
X72164581Y-48282742D01*
X72212200Y-48139885D01*
X72259819Y-48092266D01*
X72497914Y-47235123D02*
X73164581Y-47235123D01*
X72116962Y-47473219D02*
X72831248Y-47711314D01*
X72831248Y-47092266D01*
X82311905Y-74438381D02*
X82311905Y-73438381D01*
X82550000Y-73438381D01*
X82692858Y-73486000D01*
X82788096Y-73581238D01*
X82835715Y-73676476D01*
X82883334Y-73866952D01*
X82883334Y-74009810D01*
X82835715Y-74200286D01*
X82788096Y-74295524D01*
X82692858Y-74390762D01*
X82550000Y-74438381D01*
X82311905Y-74438381D01*
X83835715Y-74438381D02*
X83264286Y-74438381D01*
X83550000Y-74438381D02*
X83550000Y-73438381D01*
X83454762Y-73581238D01*
X83359524Y-73676476D01*
X83264286Y-73724095D01*
X79232095Y-78502381D02*
X79232095Y-77502381D01*
X79803524Y-78502381D02*
X79374952Y-77930952D01*
X79803524Y-77502381D02*
X79232095Y-78073810D01*
X85351905Y-78216667D02*
X85828096Y-78216667D01*
X85256667Y-78502381D02*
X85590000Y-77502381D01*
X85923334Y-78502381D01*
X69365905Y-74874381D02*
X69365905Y-73874381D01*
X69604000Y-73874381D01*
X69746858Y-73922000D01*
X69842096Y-74017238D01*
X69889715Y-74112476D01*
X69937334Y-74302952D01*
X69937334Y-74445810D01*
X69889715Y-74636286D01*
X69842096Y-74731524D01*
X69746858Y-74826762D01*
X69604000Y-74874381D01*
X69365905Y-74874381D01*
X70318286Y-73969619D02*
X70365905Y-73922000D01*
X70461143Y-73874381D01*
X70699239Y-73874381D01*
X70794477Y-73922000D01*
X70842096Y-73969619D01*
X70889715Y-74064857D01*
X70889715Y-74160095D01*
X70842096Y-74302952D01*
X70270667Y-74874381D01*
X70889715Y-74874381D01*
X73850381Y-73485905D02*
X72850381Y-73485905D01*
X73850381Y-72914476D02*
X73278952Y-73343048D01*
X72850381Y-72914476D02*
X73421810Y-73485905D01*
X73564667Y-67620095D02*
X73564667Y-67143904D01*
X73850381Y-67715333D02*
X72850381Y-67382000D01*
X73850381Y-67048666D01*
X72540762Y-58023619D02*
X72445524Y-57976000D01*
X72350286Y-57880762D01*
X72207429Y-57737905D01*
X72112190Y-57690286D01*
X72016952Y-57690286D01*
X72064571Y-57928381D02*
X71969333Y-57880762D01*
X71874095Y-57785524D01*
X71826476Y-57595048D01*
X71826476Y-57261714D01*
X71874095Y-57071238D01*
X71969333Y-56976000D01*
X72064571Y-56928381D01*
X72255048Y-56928381D01*
X72350286Y-56976000D01*
X72445524Y-57071238D01*
X72493143Y-57261714D01*
X72493143Y-57595048D01*
X72445524Y-57785524D01*
X72350286Y-57880762D01*
X72255048Y-57928381D01*
X72064571Y-57928381D01*
X73445524Y-57928381D02*
X72874095Y-57928381D01*
X73159809Y-57928381D02*
X73159809Y-56928381D01*
X73064571Y-57071238D01*
X72969333Y-57166476D01*
X72874095Y-57214095D01*
X83572219Y-53583438D02*
X83524600Y-53678676D01*
X83429362Y-53773914D01*
X83286505Y-53916771D01*
X83238886Y-54012010D01*
X83238886Y-54107248D01*
X83476981Y-54059629D02*
X83429362Y-54154867D01*
X83334124Y-54250105D01*
X83143648Y-54297724D01*
X82810314Y-54297724D01*
X82619838Y-54250105D01*
X82524600Y-54154867D01*
X82476981Y-54059629D01*
X82476981Y-53869152D01*
X82524600Y-53773914D01*
X82619838Y-53678676D01*
X82810314Y-53631057D01*
X83143648Y-53631057D01*
X83334124Y-53678676D01*
X83429362Y-53773914D01*
X83476981Y-53869152D01*
X83476981Y-54059629D01*
X82572219Y-53250105D02*
X82524600Y-53202486D01*
X82476981Y-53107248D01*
X82476981Y-52869152D01*
X82524600Y-52773914D01*
X82572219Y-52726295D01*
X82667457Y-52678676D01*
X82762695Y-52678676D01*
X82905552Y-52726295D01*
X83476981Y-53297724D01*
X83476981Y-52678676D01*
X71826381Y-79668666D02*
X71350190Y-80002000D01*
X71826381Y-80240095D02*
X70826381Y-80240095D01*
X70826381Y-79859142D01*
X70874000Y-79763904D01*
X70921619Y-79716285D01*
X71016857Y-79668666D01*
X71159714Y-79668666D01*
X71254952Y-79716285D01*
X71302571Y-79763904D01*
X71350190Y-79859142D01*
X71350190Y-80240095D01*
X71826381Y-78716285D02*
X71826381Y-79287714D01*
X71826381Y-79002000D02*
X70826381Y-79002000D01*
X70969238Y-79097238D01*
X71064476Y-79192476D01*
X71112095Y-79287714D01*
X71826381Y-76874666D02*
X71350190Y-77208000D01*
X71826381Y-77446095D02*
X70826381Y-77446095D01*
X70826381Y-77065142D01*
X70874000Y-76969904D01*
X70921619Y-76922285D01*
X71016857Y-76874666D01*
X71159714Y-76874666D01*
X71254952Y-76922285D01*
X71302571Y-76969904D01*
X71350190Y-77065142D01*
X71350190Y-77446095D01*
X70921619Y-76493714D02*
X70874000Y-76446095D01*
X70826381Y-76350857D01*
X70826381Y-76112761D01*
X70874000Y-76017523D01*
X70921619Y-75969904D01*
X71016857Y-75922285D01*
X71112095Y-75922285D01*
X71254952Y-75969904D01*
X71826381Y-76541333D01*
X71826381Y-75922285D01*
X78827334Y-82240381D02*
X78494000Y-81764190D01*
X78255905Y-82240381D02*
X78255905Y-81240381D01*
X78636858Y-81240381D01*
X78732096Y-81288000D01*
X78779715Y-81335619D01*
X78827334Y-81430857D01*
X78827334Y-81573714D01*
X78779715Y-81668952D01*
X78732096Y-81716571D01*
X78636858Y-81764190D01*
X78255905Y-81764190D01*
X79160667Y-81240381D02*
X79779715Y-81240381D01*
X79446381Y-81621333D01*
X79589239Y-81621333D01*
X79684477Y-81668952D01*
X79732096Y-81716571D01*
X79779715Y-81811810D01*
X79779715Y-82049905D01*
X79732096Y-82145143D01*
X79684477Y-82192762D01*
X79589239Y-82240381D01*
X79303524Y-82240381D01*
X79208286Y-82192762D01*
X79160667Y-82145143D01*
X76033334Y-82240381D02*
X75700000Y-81764190D01*
X75461905Y-82240381D02*
X75461905Y-81240381D01*
X75842858Y-81240381D01*
X75938096Y-81288000D01*
X75985715Y-81335619D01*
X76033334Y-81430857D01*
X76033334Y-81573714D01*
X75985715Y-81668952D01*
X75938096Y-81716571D01*
X75842858Y-81764190D01*
X75461905Y-81764190D01*
X76890477Y-81573714D02*
X76890477Y-82240381D01*
X76652381Y-81192762D02*
X76414286Y-81907048D01*
X77033334Y-81907048D01*
X79793981Y-53146866D02*
X79317790Y-53480200D01*
X79793981Y-53718295D02*
X78793981Y-53718295D01*
X78793981Y-53337342D01*
X78841600Y-53242104D01*
X78889219Y-53194485D01*
X78984457Y-53146866D01*
X79127314Y-53146866D01*
X79222552Y-53194485D01*
X79270171Y-53242104D01*
X79317790Y-53337342D01*
X79317790Y-53718295D01*
X78793981Y-52242104D02*
X78793981Y-52718295D01*
X79270171Y-52765914D01*
X79222552Y-52718295D01*
X79174933Y-52623057D01*
X79174933Y-52384961D01*
X79222552Y-52289723D01*
X79270171Y-52242104D01*
X79365410Y-52194485D01*
X79603505Y-52194485D01*
X79698743Y-52242104D01*
X79746362Y-52289723D01*
X79793981Y-52384961D01*
X79793981Y-52623057D01*
X79746362Y-52718295D01*
X79698743Y-52765914D01*
X81825981Y-57058466D02*
X81349790Y-57391800D01*
X81825981Y-57629895D02*
X80825981Y-57629895D01*
X80825981Y-57248942D01*
X80873600Y-57153704D01*
X80921219Y-57106085D01*
X81016457Y-57058466D01*
X81159314Y-57058466D01*
X81254552Y-57106085D01*
X81302171Y-57153704D01*
X81349790Y-57248942D01*
X81349790Y-57629895D01*
X80825981Y-56201323D02*
X80825981Y-56391800D01*
X80873600Y-56487038D01*
X80921219Y-56534657D01*
X81064076Y-56629895D01*
X81254552Y-56677514D01*
X81635505Y-56677514D01*
X81730743Y-56629895D01*
X81778362Y-56582276D01*
X81825981Y-56487038D01*
X81825981Y-56296561D01*
X81778362Y-56201323D01*
X81730743Y-56153704D01*
X81635505Y-56106085D01*
X81397410Y-56106085D01*
X81302171Y-56153704D01*
X81254552Y-56201323D01*
X81206933Y-56296561D01*
X81206933Y-56487038D01*
X81254552Y-56582276D01*
X81302171Y-56629895D01*
X81397410Y-56677514D01*
X79895581Y-57058466D02*
X79419390Y-57391800D01*
X79895581Y-57629895D02*
X78895581Y-57629895D01*
X78895581Y-57248942D01*
X78943200Y-57153704D01*
X78990819Y-57106085D01*
X79086057Y-57058466D01*
X79228914Y-57058466D01*
X79324152Y-57106085D01*
X79371771Y-57153704D01*
X79419390Y-57248942D01*
X79419390Y-57629895D01*
X78895581Y-56725133D02*
X78895581Y-56058466D01*
X79895581Y-56487038D01*
X77863581Y-57007666D02*
X77387390Y-57341000D01*
X77863581Y-57579095D02*
X76863581Y-57579095D01*
X76863581Y-57198142D01*
X76911200Y-57102904D01*
X76958819Y-57055285D01*
X77054057Y-57007666D01*
X77196914Y-57007666D01*
X77292152Y-57055285D01*
X77339771Y-57102904D01*
X77387390Y-57198142D01*
X77387390Y-57579095D01*
X77292152Y-56436238D02*
X77244533Y-56531476D01*
X77196914Y-56579095D01*
X77101676Y-56626714D01*
X77054057Y-56626714D01*
X76958819Y-56579095D01*
X76911200Y-56531476D01*
X76863581Y-56436238D01*
X76863581Y-56245761D01*
X76911200Y-56150523D01*
X76958819Y-56102904D01*
X77054057Y-56055285D01*
X77101676Y-56055285D01*
X77196914Y-56102904D01*
X77244533Y-56150523D01*
X77292152Y-56245761D01*
X77292152Y-56436238D01*
X77339771Y-56531476D01*
X77387390Y-56579095D01*
X77482629Y-56626714D01*
X77673105Y-56626714D01*
X77768343Y-56579095D01*
X77815962Y-56531476D01*
X77863581Y-56436238D01*
X77863581Y-56245761D01*
X77815962Y-56150523D01*
X77768343Y-56102904D01*
X77673105Y-56055285D01*
X77482629Y-56055285D01*
X77387390Y-56102904D01*
X77339771Y-56150523D01*
X77292152Y-56245761D01*
X76949181Y-48320866D02*
X76472990Y-48654200D01*
X76949181Y-48892295D02*
X75949181Y-48892295D01*
X75949181Y-48511342D01*
X75996800Y-48416104D01*
X76044419Y-48368485D01*
X76139657Y-48320866D01*
X76282514Y-48320866D01*
X76377752Y-48368485D01*
X76425371Y-48416104D01*
X76472990Y-48511342D01*
X76472990Y-48892295D01*
X76949181Y-47844676D02*
X76949181Y-47654200D01*
X76901562Y-47558961D01*
X76853943Y-47511342D01*
X76711086Y-47416104D01*
X76520610Y-47368485D01*
X76139657Y-47368485D01*
X76044419Y-47416104D01*
X75996800Y-47463723D01*
X75949181Y-47558961D01*
X75949181Y-47749438D01*
X75996800Y-47844676D01*
X76044419Y-47892295D01*
X76139657Y-47939914D01*
X76377752Y-47939914D01*
X76472990Y-47892295D01*
X76520610Y-47844676D01*
X76568229Y-47749438D01*
X76568229Y-47558961D01*
X76520610Y-47463723D01*
X76472990Y-47416104D01*
X76377752Y-47368485D01*
X76009381Y-57026657D02*
X75533190Y-57359991D01*
X76009381Y-57598086D02*
X75009381Y-57598086D01*
X75009381Y-57217133D01*
X75057000Y-57121895D01*
X75104619Y-57074276D01*
X75199857Y-57026657D01*
X75342714Y-57026657D01*
X75437952Y-57074276D01*
X75485571Y-57121895D01*
X75533190Y-57217133D01*
X75533190Y-57598086D01*
X76009381Y-56074276D02*
X76009381Y-56645705D01*
X76009381Y-56359991D02*
X75009381Y-56359991D01*
X75152238Y-56455229D01*
X75247476Y-56550467D01*
X75295095Y-56645705D01*
X75009381Y-55455229D02*
X75009381Y-55359990D01*
X75057000Y-55264752D01*
X75104619Y-55217133D01*
X75199857Y-55169514D01*
X75390333Y-55121895D01*
X75628429Y-55121895D01*
X75818905Y-55169514D01*
X75914143Y-55217133D01*
X75961762Y-55264752D01*
X76009381Y-55359990D01*
X76009381Y-55455229D01*
X75961762Y-55550467D01*
X75914143Y-55598086D01*
X75818905Y-55645705D01*
X75628429Y-55693324D01*
X75390333Y-55693324D01*
X75199857Y-55645705D01*
X75104619Y-55598086D01*
X75057000Y-55550467D01*
X75009381Y-55455229D01*
X75018781Y-48365257D02*
X74542590Y-48698591D01*
X75018781Y-48936686D02*
X74018781Y-48936686D01*
X74018781Y-48555733D01*
X74066400Y-48460495D01*
X74114019Y-48412876D01*
X74209257Y-48365257D01*
X74352114Y-48365257D01*
X74447352Y-48412876D01*
X74494971Y-48460495D01*
X74542590Y-48555733D01*
X74542590Y-48936686D01*
X75018781Y-47412876D02*
X75018781Y-47984305D01*
X75018781Y-47698591D02*
X74018781Y-47698591D01*
X74161638Y-47793829D01*
X74256876Y-47889067D01*
X74304495Y-47984305D01*
X75018781Y-46460495D02*
X75018781Y-47031924D01*
X75018781Y-46746210D02*
X74018781Y-46746210D01*
X74161638Y-46841448D01*
X74256876Y-46936686D01*
X74304495Y-47031924D01*
X59904381Y-51307905D02*
X60713905Y-51307905D01*
X60809143Y-51260286D01*
X60856762Y-51212667D01*
X60904381Y-51117429D01*
X60904381Y-50926952D01*
X60856762Y-50831714D01*
X60809143Y-50784095D01*
X60713905Y-50736476D01*
X59904381Y-50736476D01*
X59904381Y-50355524D02*
X59904381Y-49736476D01*
X60285333Y-50069810D01*
X60285333Y-49926952D01*
X60332952Y-49831714D01*
X60380571Y-49784095D01*
X60475810Y-49736476D01*
X60713905Y-49736476D01*
X60809143Y-49784095D01*
X60856762Y-49831714D01*
X60904381Y-49926952D01*
X60904381Y-50212667D01*
X60856762Y-50307905D01*
X60809143Y-50355524D01*
X62150571Y-53578286D02*
X62150571Y-53244952D01*
X62674381Y-53102095D02*
X62674381Y-53578286D01*
X61674381Y-53578286D01*
X61674381Y-53102095D01*
X62626762Y-52721143D02*
X62674381Y-52578286D01*
X62674381Y-52340190D01*
X62626762Y-52244952D01*
X62579143Y-52197333D01*
X62483905Y-52149714D01*
X62388667Y-52149714D01*
X62293429Y-52197333D01*
X62245810Y-52244952D01*
X62198190Y-52340190D01*
X62150571Y-52530667D01*
X62102952Y-52625905D01*
X62055333Y-52673524D01*
X61960095Y-52721143D01*
X61864857Y-52721143D01*
X61769619Y-52673524D01*
X61722000Y-52625905D01*
X61674381Y-52530667D01*
X61674381Y-52292571D01*
X61722000Y-52149714D01*
X62674381Y-51721143D02*
X61674381Y-51721143D01*
X61674381Y-51340190D01*
X61722000Y-51244952D01*
X61769619Y-51197333D01*
X61864857Y-51149714D01*
X62007714Y-51149714D01*
X62102952Y-51197333D01*
X62150571Y-51244952D01*
X62198190Y-51340190D01*
X62198190Y-51721143D01*
X62293429Y-50721143D02*
X62293429Y-49959238D01*
X62674381Y-48959238D02*
X62674381Y-49530667D01*
X62674381Y-49244953D02*
X61674381Y-49244953D01*
X61817238Y-49340191D01*
X61912476Y-49435429D01*
X61960095Y-49530667D01*
X61769619Y-48578286D02*
X61722000Y-48530667D01*
X61674381Y-48435429D01*
X61674381Y-48197333D01*
X61722000Y-48102095D01*
X61769619Y-48054476D01*
X61864857Y-48006857D01*
X61960095Y-48006857D01*
X62102952Y-48054476D01*
X62674381Y-48625905D01*
X62674381Y-48006857D01*
X62150571Y-47578286D02*
X62150571Y-47244952D01*
X62674381Y-47102095D02*
X62674381Y-47578286D01*
X61674381Y-47578286D01*
X61674381Y-47102095D01*
X85661381Y-57102857D02*
X85185190Y-57436191D01*
X85661381Y-57674286D02*
X84661381Y-57674286D01*
X84661381Y-57293333D01*
X84709000Y-57198095D01*
X84756619Y-57150476D01*
X84851857Y-57102857D01*
X84994714Y-57102857D01*
X85089952Y-57150476D01*
X85137571Y-57198095D01*
X85185190Y-57293333D01*
X85185190Y-57674286D01*
X85661381Y-56150476D02*
X85661381Y-56721905D01*
X85661381Y-56436191D02*
X84661381Y-56436191D01*
X84804238Y-56531429D01*
X84899476Y-56626667D01*
X84947095Y-56721905D01*
X84756619Y-55769524D02*
X84709000Y-55721905D01*
X84661381Y-55626667D01*
X84661381Y-55388571D01*
X84709000Y-55293333D01*
X84756619Y-55245714D01*
X84851857Y-55198095D01*
X84947095Y-55198095D01*
X85089952Y-55245714D01*
X85661381Y-55817143D01*
X85661381Y-55198095D01*
X83705581Y-57052057D02*
X83229390Y-57385391D01*
X83705581Y-57623486D02*
X82705581Y-57623486D01*
X82705581Y-57242533D01*
X82753200Y-57147295D01*
X82800819Y-57099676D01*
X82896057Y-57052057D01*
X83038914Y-57052057D01*
X83134152Y-57099676D01*
X83181771Y-57147295D01*
X83229390Y-57242533D01*
X83229390Y-57623486D01*
X83705581Y-56099676D02*
X83705581Y-56671105D01*
X83705581Y-56385391D02*
X82705581Y-56385391D01*
X82848438Y-56480629D01*
X82943676Y-56575867D01*
X82991295Y-56671105D01*
X82705581Y-55766343D02*
X82705581Y-55147295D01*
X83086533Y-55480629D01*
X83086533Y-55337771D01*
X83134152Y-55242533D01*
X83181771Y-55194914D01*
X83277010Y-55147295D01*
X83515105Y-55147295D01*
X83610343Y-55194914D01*
X83657962Y-55242533D01*
X83705581Y-55337771D01*
X83705581Y-55623486D01*
X83657962Y-55718724D01*
X83610343Y-55766343D01*
X78854181Y-48314457D02*
X78377990Y-48647791D01*
X78854181Y-48885886D02*
X77854181Y-48885886D01*
X77854181Y-48504933D01*
X77901800Y-48409695D01*
X77949419Y-48362076D01*
X78044657Y-48314457D01*
X78187514Y-48314457D01*
X78282752Y-48362076D01*
X78330371Y-48409695D01*
X78377990Y-48504933D01*
X78377990Y-48885886D01*
X78854181Y-47362076D02*
X78854181Y-47933505D01*
X78854181Y-47647791D02*
X77854181Y-47647791D01*
X77997038Y-47743029D01*
X78092276Y-47838267D01*
X78139895Y-47933505D01*
X78187514Y-46504933D02*
X78854181Y-46504933D01*
X77806562Y-46743029D02*
X78520848Y-46981124D01*
X78520848Y-46362076D01*
X75809505Y-91494481D02*
X75809505Y-90494481D01*
X76190458Y-90494481D01*
X76285696Y-90542100D01*
X76333315Y-90589719D01*
X76380934Y-90684957D01*
X76380934Y-90827814D01*
X76333315Y-90923052D01*
X76285696Y-90970671D01*
X76190458Y-91018290D01*
X75809505Y-91018290D01*
X77333315Y-91494481D02*
X76761886Y-91494481D01*
X77047600Y-91494481D02*
X77047600Y-90494481D01*
X76952362Y-90637338D01*
X76857124Y-90732576D01*
X76761886Y-90780195D01*
X55402267Y-82439381D02*
X55068933Y-81963190D01*
X54830838Y-82439381D02*
X54830838Y-81439381D01*
X55211791Y-81439381D01*
X55307029Y-81487000D01*
X55354648Y-81534619D01*
X55402267Y-81629857D01*
X55402267Y-81772714D01*
X55354648Y-81867952D01*
X55307029Y-81915571D01*
X55211791Y-81963190D01*
X54830838Y-81963190D01*
X55830838Y-81915571D02*
X56164172Y-81915571D01*
X56307029Y-82439381D02*
X55830838Y-82439381D01*
X55830838Y-81439381D01*
X56307029Y-81439381D01*
X57068934Y-81915571D02*
X56735600Y-81915571D01*
X56735600Y-82439381D02*
X56735600Y-81439381D01*
X57211791Y-81439381D01*
X57735600Y-81439381D02*
X57735600Y-81677476D01*
X57497505Y-81582238D02*
X57735600Y-81677476D01*
X57973696Y-81582238D01*
X57592743Y-81867952D02*
X57735600Y-81677476D01*
X57878458Y-81867952D01*
X58497505Y-81439381D02*
X58497505Y-81677476D01*
X58259410Y-81582238D02*
X58497505Y-81677476D01*
X58735601Y-81582238D01*
X58354648Y-81867952D02*
X58497505Y-81677476D01*
X58640363Y-81867952D01*
X89577967Y-82439381D02*
X89244633Y-81963190D01*
X89006538Y-82439381D02*
X89006538Y-81439381D01*
X89387491Y-81439381D01*
X89482729Y-81487000D01*
X89530348Y-81534619D01*
X89577967Y-81629857D01*
X89577967Y-81772714D01*
X89530348Y-81867952D01*
X89482729Y-81915571D01*
X89387491Y-81963190D01*
X89006538Y-81963190D01*
X90006538Y-81915571D02*
X90339872Y-81915571D01*
X90482729Y-82439381D02*
X90006538Y-82439381D01*
X90006538Y-81439381D01*
X90482729Y-81439381D01*
X91244634Y-81915571D02*
X90911300Y-81915571D01*
X90911300Y-82439381D02*
X90911300Y-81439381D01*
X91387491Y-81439381D01*
X91911300Y-81439381D02*
X91911300Y-81677476D01*
X91673205Y-81582238D02*
X91911300Y-81677476D01*
X92149396Y-81582238D01*
X91768443Y-81867952D02*
X91911300Y-81677476D01*
X92054158Y-81867952D01*
X92673205Y-81439381D02*
X92673205Y-81677476D01*
X92435110Y-81582238D02*
X92673205Y-81677476D01*
X92911301Y-81582238D01*
X92530348Y-81867952D02*
X92673205Y-81677476D01*
X92816063Y-81867952D01*
X82008767Y-40554781D02*
X81675433Y-40078590D01*
X81437338Y-40554781D02*
X81437338Y-39554781D01*
X81818291Y-39554781D01*
X81913529Y-39602400D01*
X81961148Y-39650019D01*
X82008767Y-39745257D01*
X82008767Y-39888114D01*
X81961148Y-39983352D01*
X81913529Y-40030971D01*
X81818291Y-40078590D01*
X81437338Y-40078590D01*
X82437338Y-40030971D02*
X82770672Y-40030971D01*
X82913529Y-40554781D02*
X82437338Y-40554781D01*
X82437338Y-39554781D01*
X82913529Y-39554781D01*
X83675434Y-40030971D02*
X83342100Y-40030971D01*
X83342100Y-40554781D02*
X83342100Y-39554781D01*
X83818291Y-39554781D01*
X84342100Y-39554781D02*
X84342100Y-39792876D01*
X84104005Y-39697638D02*
X84342100Y-39792876D01*
X84580196Y-39697638D01*
X84199243Y-39983352D02*
X84342100Y-39792876D01*
X84484958Y-39983352D01*
X85104005Y-39554781D02*
X85104005Y-39792876D01*
X84865910Y-39697638D02*
X85104005Y-39792876D01*
X85342101Y-39697638D01*
X84961148Y-39983352D02*
X85104005Y-39792876D01*
X85246863Y-39983352D01*
M02*
