G04 #@! TF.FileFunction,Copper,L1,Top,Signal*
%FSLAX46Y46*%
G04 Gerber Fmt 4.6, Leading zero omitted, Abs format (unit mm)*
G04 Created by KiCad (PCBNEW 0.201506192325+5795~23~ubuntu14.04.1-product) date Wed 01 Jul 2015 18:25:52 BST*
%MOMM*%
G01*
G04 APERTURE LIST*
%ADD10C,0.100000*%
%ADD11R,3.000000X3.000000*%
%ADD12C,3.000000*%
%ADD13C,2.500000*%
%ADD14R,2.032000X2.032000*%
%ADD15O,2.032000X2.032000*%
%ADD16R,6.600000X2.300000*%
%ADD17R,1.727200X2.032000*%
%ADD18O,1.727200X2.032000*%
%ADD19R,1.000000X0.600000*%
%ADD20R,1.000000X0.450000*%
%ADD21R,1.060000X0.650000*%
%ADD22R,2.032000X1.727200*%
%ADD23O,2.032000X1.727200*%
%ADD24R,1.000000X1.600000*%
%ADD25R,1.600000X1.000000*%
%ADD26R,0.800000X0.750000*%
%ADD27R,0.750000X0.800000*%
%ADD28R,2.499360X1.800860*%
%ADD29R,1.800860X2.499360*%
%ADD30R,0.800100X0.800100*%
%ADD31R,0.900000X0.500000*%
%ADD32R,0.500000X0.900000*%
%ADD33O,2.400000X1.100000*%
%ADD34R,1.100000X2.400000*%
%ADD35O,1.100000X2.400000*%
%ADD36C,0.609600*%
%ADD37C,0.254000*%
%ADD38C,0.800000*%
G04 APERTURE END LIST*
D10*
D11*
X92011500Y-78105000D03*
D12*
X92011500Y-73025000D03*
X92011500Y-67945000D03*
X92011500Y-62865000D03*
X92011500Y-57785000D03*
X92011500Y-52705000D03*
X92011500Y-47625000D03*
X92011500Y-42545000D03*
D11*
X67005200Y-86906100D03*
D12*
X72085200Y-86906100D03*
X77165200Y-86906100D03*
X82245200Y-86906100D03*
X87325200Y-86906100D03*
X92405200Y-86906100D03*
D13*
X67264000Y-77044000D03*
D12*
X67264000Y-64844000D03*
X55214000Y-64794000D03*
D13*
X55264000Y-77044000D03*
D12*
X61214000Y-78994000D03*
D14*
X82296000Y-49657000D03*
D15*
X84836000Y-49657000D03*
D16*
X78538350Y-72882150D03*
X78538350Y-68582150D03*
D11*
X48056800Y-62011560D03*
D12*
X48056800Y-67091560D03*
X48056800Y-72171560D03*
X48056800Y-77251560D03*
X48056800Y-82331560D03*
X48056800Y-87411560D03*
D17*
X72136000Y-63881000D03*
D18*
X74676000Y-63881000D03*
X77216000Y-63881000D03*
X79756000Y-63881000D03*
X82296000Y-63881000D03*
X84836000Y-63881000D03*
D19*
X73492000Y-45919000D03*
X73492000Y-42219000D03*
X77892000Y-45919000D03*
X77892000Y-42219000D03*
D20*
X75692000Y-46594000D03*
X75692000Y-41544000D03*
D21*
X75411150Y-77054670D03*
X75411150Y-78004670D03*
X75411150Y-78954670D03*
X77611150Y-78954670D03*
X77611150Y-77054670D03*
X77611150Y-78004670D03*
D22*
X62357000Y-82804000D03*
D23*
X62357000Y-85344000D03*
X62357000Y-87884000D03*
D24*
X81157950Y-79787750D03*
X84157950Y-79787750D03*
D25*
X84538350Y-69232150D03*
X84538350Y-72232150D03*
D26*
X75788350Y-75232150D03*
X77288350Y-75232150D03*
D27*
X72644000Y-51042000D03*
X72644000Y-49542000D03*
D28*
X80633570Y-76460350D03*
X84631530Y-76460350D03*
D29*
X71628000Y-72356980D03*
X71628000Y-68359020D03*
D30*
X71770240Y-58105000D03*
X71770240Y-60005000D03*
X73769220Y-59055000D03*
X83886000Y-54848760D03*
X85786000Y-54848760D03*
X84836000Y-52849780D03*
D31*
X72898000Y-80252000D03*
X72898000Y-78752000D03*
X72898000Y-77458000D03*
X72898000Y-75958000D03*
D32*
X79628430Y-80448150D03*
X78128430Y-80448150D03*
X76930950Y-80448150D03*
X75430950Y-80448150D03*
D31*
X75565000Y-58305000D03*
X75565000Y-59805000D03*
X81280000Y-58305000D03*
X81280000Y-59805000D03*
X79375000Y-59805000D03*
X79375000Y-58305000D03*
X77470000Y-59805000D03*
X77470000Y-58305000D03*
X76454000Y-51042000D03*
X76454000Y-49542000D03*
X78359000Y-51042000D03*
X78359000Y-49542000D03*
X74549000Y-51042000D03*
X74549000Y-49542000D03*
D33*
X69725000Y-55303000D03*
X69725000Y-53303000D03*
X69725000Y-51303000D03*
X69725000Y-49303000D03*
X69725000Y-47303000D03*
X69725000Y-45303000D03*
D34*
X53975000Y-58293000D03*
D35*
X55975000Y-58293000D03*
X57975000Y-58293000D03*
X59975000Y-58293000D03*
X61975000Y-58293000D03*
X63975000Y-58293000D03*
X65975000Y-58293000D03*
X67975000Y-58293000D03*
X67975000Y-42293000D03*
X65975000Y-42293000D03*
X63975000Y-42293000D03*
X61975000Y-42293000D03*
X59975000Y-42293000D03*
X57975000Y-42293000D03*
X55975000Y-42293000D03*
X53975000Y-42293000D03*
D36*
X85217000Y-78867000D03*
X52324000Y-82296000D03*
X74214990Y-76333350D03*
X69723000Y-42293000D03*
X70866000Y-42293000D03*
X83459320Y-83124040D03*
X86004400Y-83124040D03*
X84739480Y-83124040D03*
X85197950Y-74301350D03*
X83877150Y-74301350D03*
X85217000Y-79883000D03*
X73041510Y-74672190D03*
X74214990Y-77476350D03*
X72909430Y-81393030D03*
X84578190Y-67788790D03*
X59944000Y-48768000D03*
X89662000Y-56515000D03*
X67183000Y-51435000D03*
X59309000Y-60579000D03*
X53975000Y-60706000D03*
X61976000Y-51435000D03*
X64008000Y-52197000D03*
X66040000Y-52578000D03*
X79883000Y-51054000D03*
X66040000Y-49149000D03*
X58039000Y-45339000D03*
X89662000Y-54864000D03*
X86995000Y-54864000D03*
X53975000Y-45212000D03*
X56007000Y-45212000D03*
X70739000Y-58039000D03*
X56388000Y-49149000D03*
X80010000Y-56896000D03*
X58039000Y-55118000D03*
X55880000Y-55372000D03*
X76708000Y-61341000D03*
X60833000Y-46355000D03*
X75692000Y-45085000D03*
D37*
X71628000Y-72356980D02*
X73660000Y-70324980D01*
X79375000Y-60452000D02*
X77597000Y-62230000D01*
X77597000Y-62230000D02*
X76581000Y-62230000D01*
X76581000Y-62230000D02*
X75946000Y-62865000D01*
X75946000Y-62865000D02*
X75946000Y-65151000D01*
X75946000Y-65151000D02*
X73660000Y-67437000D01*
X79375000Y-60452000D02*
X79375000Y-59805000D01*
X73660000Y-70324980D02*
X73660000Y-67437000D01*
D38*
X61214000Y-78994000D02*
X63500000Y-78994000D01*
X67056000Y-82550000D02*
X71120000Y-82550000D01*
X63500000Y-78994000D02*
X67056000Y-82550000D01*
X55264000Y-77044000D02*
X59264000Y-77044000D01*
X59264000Y-77044000D02*
X61214000Y-78994000D01*
D37*
X71628000Y-72356980D02*
X71120000Y-72864980D01*
X71120000Y-72864980D02*
X71120000Y-82550000D01*
D38*
X71120000Y-82550000D02*
X71247000Y-82550000D01*
X71247000Y-82550000D02*
X81157950Y-82550000D01*
X81157950Y-79787750D02*
X81157950Y-82550000D01*
X81157950Y-82550000D02*
X81157950Y-82638900D01*
X81157950Y-85818850D02*
X82245200Y-86906100D01*
X81157950Y-82854800D02*
X81157950Y-85818850D01*
X81157950Y-82638900D02*
X81157950Y-82854800D01*
D37*
X81157950Y-80790950D02*
X81157950Y-79787750D01*
X81246751Y-80879751D02*
X81157950Y-80790950D01*
X77611150Y-78004670D02*
X79374870Y-78004670D01*
X79374870Y-78004670D02*
X81157950Y-79787750D01*
X81157950Y-79787750D02*
X80497550Y-80448150D01*
X80497550Y-80448150D02*
X79628430Y-80448150D01*
X84631530Y-76460350D02*
X85217000Y-77045820D01*
X85217000Y-77045820D02*
X85217000Y-78867000D01*
X85217000Y-79883000D02*
X85217000Y-78867000D01*
X67005200Y-86906100D02*
X66713100Y-86614000D01*
X66713100Y-86614000D02*
X61087000Y-86614000D01*
X59436000Y-82296000D02*
X52324000Y-82296000D01*
X60325000Y-83185000D02*
X59436000Y-82296000D01*
X60325000Y-85852000D02*
X60325000Y-83185000D01*
X61087000Y-86614000D02*
X60325000Y-85852000D01*
X84836000Y-49657000D02*
X87249000Y-49657000D01*
X87787850Y-72232150D02*
X84538350Y-72232150D01*
X88392000Y-71628000D02*
X87787850Y-72232150D01*
X88392000Y-50800000D02*
X88392000Y-71628000D01*
X87249000Y-49657000D02*
X88392000Y-50800000D01*
X70866000Y-42293000D02*
X73418000Y-42293000D01*
X73418000Y-42293000D02*
X73492000Y-42219000D01*
X78359000Y-49542000D02*
X78359000Y-48133000D01*
X78359000Y-48133000D02*
X80518000Y-45974000D01*
X67975000Y-42293000D02*
X69723000Y-42293000D01*
X69723000Y-42293000D02*
X70866000Y-42293000D01*
X70866000Y-42293000D02*
X70868000Y-42293000D01*
X72009000Y-48907000D02*
X72644000Y-49542000D01*
X72009000Y-43434000D02*
X72009000Y-48907000D01*
X70868000Y-42293000D02*
X72009000Y-43434000D01*
X67975000Y-42293000D02*
X68836000Y-42293000D01*
X75565000Y-59805000D02*
X75970000Y-59805000D01*
X75970000Y-59805000D02*
X77470000Y-58305000D01*
X75565000Y-59805000D02*
X74519220Y-59805000D01*
X74519220Y-59805000D02*
X73769220Y-59055000D01*
X73769220Y-59055000D02*
X73769220Y-62247780D01*
X73769220Y-62247780D02*
X72136000Y-63881000D01*
X77892000Y-42219000D02*
X77892000Y-43348000D01*
X84836000Y-48133000D02*
X84836000Y-49657000D01*
X84074000Y-47371000D02*
X84836000Y-48133000D01*
X81915000Y-47371000D02*
X84074000Y-47371000D01*
X77892000Y-43348000D02*
X80518000Y-45974000D01*
X80518000Y-45974000D02*
X81915000Y-47371000D01*
X73418000Y-42293000D02*
X74178000Y-43053000D01*
X77058000Y-43053000D02*
X77892000Y-42219000D01*
X74178000Y-43053000D02*
X77058000Y-43053000D01*
X84836000Y-52849780D02*
X84836000Y-49657000D01*
X87325200Y-86906100D02*
X84157950Y-83738850D01*
X84157950Y-83738850D02*
X84157950Y-79787750D01*
X84157950Y-79787750D02*
X84157950Y-82425410D01*
X84157950Y-82425410D02*
X83459320Y-83124040D01*
X84739480Y-83124040D02*
X86004400Y-83124040D01*
X84631530Y-76460350D02*
X85197950Y-75893930D01*
X85197950Y-75893930D02*
X85197950Y-74301350D01*
X83877150Y-74301350D02*
X83877150Y-72893350D01*
X83877150Y-72893350D02*
X84538350Y-72232150D01*
X84157950Y-79787750D02*
X85147150Y-79787750D01*
X85147150Y-79787750D02*
X85217000Y-79883000D01*
X75430950Y-80448150D02*
X75430950Y-80436150D01*
X75430950Y-80436150D02*
X76500990Y-79366110D01*
X76500990Y-79366110D02*
X76500990Y-78345030D01*
X76500990Y-78345030D02*
X76160630Y-78004670D01*
X76160630Y-78004670D02*
X75411150Y-78004670D01*
X73034350Y-74679350D02*
X73041510Y-74672190D01*
X72907350Y-75982150D02*
X72907350Y-74679350D01*
X74743310Y-78004670D02*
X74214990Y-77476350D01*
X74743310Y-78004670D02*
X75411150Y-78004670D01*
X84538350Y-72232150D02*
X84538350Y-79407350D01*
X84538350Y-79407350D02*
X84157950Y-79787750D01*
X72907350Y-81390950D02*
X72909430Y-81393030D01*
X72907350Y-81390950D02*
X72907350Y-80232150D01*
X84538350Y-69232150D02*
X87376000Y-66394500D01*
X80899000Y-55499000D02*
X72009000Y-55499000D01*
X87376000Y-61976000D02*
X80899000Y-55499000D01*
X87376000Y-66394500D02*
X87376000Y-61976000D01*
X67975000Y-58293000D02*
X69215000Y-58293000D01*
X69215000Y-58293000D02*
X72009000Y-55499000D01*
X72009000Y-51677000D02*
X72644000Y-51042000D01*
X72009000Y-55499000D02*
X72009000Y-51677000D01*
X72644000Y-51042000D02*
X74549000Y-51042000D01*
X74549000Y-51042000D02*
X76454000Y-51042000D01*
X77216000Y-63881000D02*
X81280000Y-59817000D01*
X81280000Y-59817000D02*
X81280000Y-59805000D01*
X77470000Y-63627000D02*
X77216000Y-63881000D01*
X77216000Y-63881000D02*
X77216000Y-67259800D01*
X77216000Y-67259800D02*
X78538350Y-68582150D01*
X84538350Y-67828630D02*
X84538350Y-69232150D01*
X84578190Y-67788790D02*
X84538350Y-67828630D01*
X84538350Y-69232150D02*
X79188350Y-69232150D01*
X79188350Y-69232150D02*
X78538350Y-68582150D01*
X75788350Y-75232150D02*
X75788350Y-76677470D01*
X75788350Y-76677470D02*
X75411150Y-77054670D01*
X77288350Y-75232150D02*
X78538350Y-73982150D01*
X78538350Y-73982150D02*
X78538350Y-72882150D01*
X80633570Y-76460350D02*
X78538350Y-74365130D01*
X78538350Y-74365130D02*
X78538350Y-72882150D01*
X80633570Y-76460350D02*
X80039250Y-77054670D01*
X80039250Y-77054670D02*
X77611150Y-77054670D01*
X77611150Y-77054670D02*
X77288350Y-76731870D01*
X77288350Y-76731870D02*
X77288350Y-75232150D01*
X71628000Y-68359020D02*
X67264000Y-72723020D01*
X67264000Y-72723020D02*
X67264000Y-77044000D01*
X71770240Y-60005000D02*
X70104000Y-61671240D01*
X70104000Y-66835020D02*
X71628000Y-68359020D01*
X70104000Y-61671240D02*
X70104000Y-66835020D01*
D38*
X62357000Y-85344000D02*
X63627000Y-85344000D01*
X63627000Y-85344000D02*
X64897000Y-84074000D01*
X64897000Y-84074000D02*
X69253100Y-84074000D01*
X69253100Y-84074000D02*
X72085200Y-86906100D01*
D37*
X82296000Y-49657000D02*
X81661000Y-50292000D01*
X81661000Y-50292000D02*
X77204000Y-50292000D01*
X77204000Y-50292000D02*
X76454000Y-49542000D01*
X61975000Y-46737000D02*
X61975000Y-42293000D01*
X59944000Y-48768000D02*
X61975000Y-46737000D01*
X61976000Y-42294000D02*
X61975000Y-42293000D01*
X83886000Y-54848760D02*
X82296000Y-53258760D01*
X82296000Y-53258760D02*
X82296000Y-49657000D01*
X89662000Y-84162900D02*
X89662000Y-56515000D01*
X67183000Y-51435000D02*
X67315000Y-51303000D01*
X69725000Y-51303000D02*
X67315000Y-51303000D01*
X89662000Y-84162900D02*
X92405200Y-86906100D01*
X48056800Y-67091560D02*
X53975000Y-61173360D01*
X59975000Y-59913000D02*
X59975000Y-58293000D01*
X59309000Y-60579000D02*
X59975000Y-59913000D01*
X53975000Y-61173360D02*
X53975000Y-60706000D01*
X63975000Y-42293000D02*
X63975000Y-45880000D01*
X50419000Y-74889360D02*
X48056800Y-77251560D01*
X50419000Y-65659000D02*
X50419000Y-74889360D01*
X54991000Y-61087000D02*
X50419000Y-65659000D01*
X54991000Y-54864000D02*
X54991000Y-61087000D01*
X63975000Y-45880000D02*
X54991000Y-54864000D01*
X69725000Y-49303000D02*
X67537000Y-49303000D01*
X51054000Y-84414360D02*
X48056800Y-87411560D01*
X51054000Y-65913000D02*
X51054000Y-84414360D01*
X57023000Y-59944000D02*
X51054000Y-65913000D01*
X57023000Y-54864000D02*
X57023000Y-59944000D01*
X61722000Y-50165000D02*
X57023000Y-54864000D01*
X66675000Y-50165000D02*
X61722000Y-50165000D01*
X67537000Y-49303000D02*
X66675000Y-50165000D01*
X61975000Y-51436000D02*
X61975000Y-58293000D01*
X61976000Y-51435000D02*
X61975000Y-51436000D01*
X64008000Y-52197000D02*
X63975000Y-52230000D01*
X63975000Y-52230000D02*
X63975000Y-58293000D01*
X64008000Y-58260000D02*
X63975000Y-58293000D01*
X65975000Y-52643000D02*
X65975000Y-58293000D01*
X66040000Y-52578000D02*
X65975000Y-52643000D01*
X78359000Y-51042000D02*
X79871000Y-51042000D01*
X79871000Y-51042000D02*
X79883000Y-51054000D01*
X65975000Y-49084000D02*
X65975000Y-42293000D01*
X66040000Y-49149000D02*
X65975000Y-49084000D01*
X57975000Y-45275000D02*
X57975000Y-42293000D01*
X58039000Y-45339000D02*
X57975000Y-45275000D01*
X92011500Y-42545000D02*
X89662000Y-44894500D01*
X89662000Y-44894500D02*
X89662000Y-54864000D01*
X86995000Y-54864000D02*
X85801240Y-54864000D01*
X85786000Y-54848760D02*
X85801240Y-54864000D01*
X53975000Y-42293000D02*
X53975000Y-45212000D01*
X55975000Y-42293000D02*
X55975000Y-45180000D01*
X56007000Y-45212000D02*
X55975000Y-45180000D01*
X70805000Y-58105000D02*
X70739000Y-58039000D01*
X70805000Y-58105000D02*
X71770240Y-58105000D01*
X75565000Y-58305000D02*
X74918000Y-57658000D01*
X72217240Y-57658000D02*
X71770240Y-58105000D01*
X74918000Y-57658000D02*
X72217240Y-57658000D01*
X59975000Y-45562000D02*
X59975000Y-42293000D01*
X56388000Y-49149000D02*
X59975000Y-45562000D01*
X77611150Y-78954670D02*
X78128430Y-79471950D01*
X78128430Y-79471950D02*
X78128430Y-80448150D01*
X76930950Y-80448150D02*
X78128430Y-80448150D01*
X81280000Y-58305000D02*
X81280000Y-58166000D01*
X81280000Y-58166000D02*
X80010000Y-56896000D01*
X58039000Y-55118000D02*
X57975000Y-55182000D01*
X57975000Y-55182000D02*
X57975000Y-58293000D01*
X58039000Y-58229000D02*
X57975000Y-58293000D01*
X77470000Y-59805000D02*
X77470000Y-60579000D01*
X55880000Y-55372000D02*
X55880000Y-58198000D01*
X77470000Y-60579000D02*
X76708000Y-61341000D01*
X55880000Y-58198000D02*
X55975000Y-58293000D01*
X55880000Y-58198000D02*
X55975000Y-58293000D01*
X77470000Y-59805000D02*
X77875000Y-59805000D01*
X77875000Y-59805000D02*
X79375000Y-58305000D01*
X60833000Y-46355000D02*
X53975000Y-53213000D01*
X53975000Y-53213000D02*
X53975000Y-58293000D01*
X74549000Y-49542000D02*
X74549000Y-46976000D01*
X74549000Y-46976000D02*
X73492000Y-45919000D01*
X77892000Y-45919000D02*
X77058000Y-45085000D01*
X74326000Y-45085000D02*
X73492000Y-45919000D01*
X77058000Y-45085000D02*
X75692000Y-45085000D01*
X75692000Y-45085000D02*
X74326000Y-45085000D01*
X72907350Y-78732150D02*
X72907350Y-77482150D01*
X72907350Y-78732150D02*
X75061630Y-78732150D01*
X75188630Y-78732150D02*
X75411150Y-78954670D01*
G36*
X86493350Y-70161150D02*
X75063350Y-70161150D01*
X75063350Y-67367150D01*
X86493350Y-67367150D01*
X86493350Y-70161150D01*
X86493350Y-70161150D01*
G37*
X86493350Y-70161150D02*
X75063350Y-70161150D01*
X75063350Y-67367150D01*
X86493350Y-67367150D01*
X86493350Y-70161150D01*
G36*
X76333350Y-77093544D02*
X76153744Y-77273150D01*
X75063350Y-77273150D01*
X75063350Y-74733150D01*
X76333350Y-74733150D01*
X76333350Y-77093544D01*
X76333350Y-77093544D01*
G37*
X76333350Y-77093544D02*
X76153744Y-77273150D01*
X75063350Y-77273150D01*
X75063350Y-74733150D01*
X76333350Y-74733150D01*
X76333350Y-77093544D01*
G36*
X81921350Y-81337150D02*
X79381350Y-81337150D01*
X79381350Y-79432150D01*
X79381351Y-79432150D01*
X79371683Y-79383549D01*
X79344153Y-79342347D01*
X78505093Y-78503287D01*
X78501428Y-78484396D01*
X78417554Y-78356714D01*
X78290934Y-78271244D01*
X78141150Y-78241206D01*
X77095350Y-78241206D01*
X77095350Y-77781150D01*
X81921350Y-77781150D01*
X81921350Y-81337150D01*
X81921350Y-81337150D01*
G37*
X81921350Y-81337150D02*
X79381350Y-81337150D01*
X79381350Y-79432150D01*
X79381351Y-79432150D01*
X79371683Y-79383549D01*
X79344153Y-79342347D01*
X78505093Y-78503287D01*
X78501428Y-78484396D01*
X78417554Y-78356714D01*
X78290934Y-78271244D01*
X78141150Y-78241206D01*
X77095350Y-78241206D01*
X77095350Y-77781150D01*
X81921350Y-77781150D01*
X81921350Y-81337150D01*
G36*
X86487000Y-83693000D02*
X82931000Y-83693000D01*
X82931000Y-71628000D01*
X86487000Y-71628000D01*
X86487000Y-83693000D01*
X86487000Y-83693000D01*
G37*
X86487000Y-83693000D02*
X82931000Y-83693000D01*
X82931000Y-71628000D01*
X86487000Y-71628000D01*
X86487000Y-83693000D01*
G36*
X81921350Y-77273150D02*
X77020955Y-77273150D01*
X76841350Y-77093544D01*
X76841350Y-74098150D01*
X76831683Y-74049549D01*
X76804153Y-74008347D01*
X76762951Y-73980817D01*
X76714350Y-73971150D01*
X75063350Y-73971150D01*
X75063350Y-71685150D01*
X81921350Y-71685150D01*
X81921350Y-77273150D01*
X81921350Y-77273150D01*
G37*
X81921350Y-77273150D02*
X77020955Y-77273150D01*
X76841350Y-77093544D01*
X76841350Y-74098150D01*
X76831683Y-74049549D01*
X76804153Y-74008347D01*
X76762951Y-73980817D01*
X76714350Y-73971150D01*
X75063350Y-73971150D01*
X75063350Y-71685150D01*
X81921350Y-71685150D01*
X81921350Y-77273150D01*
M02*
