G04 #@! TF.FileFunction,Copper,L1,Top,Signal*
%FSLAX46Y46*%
G04 Gerber Fmt 4.6, Leading zero omitted, Abs format (unit mm)*
G04 Created by KiCad (PCBNEW 0.201506192325+5795~23~ubuntu14.04.1-product) date Sat 22 Aug 2015 00:19:35 BST*
%MOMM*%
G01*
G04 APERTURE LIST*
%ADD10C,0.100000*%
%ADD11R,3.000000X3.000000*%
%ADD12C,3.000000*%
%ADD13C,2.500000*%
%ADD14R,2.032000X2.032000*%
%ADD15O,2.032000X2.032000*%
%ADD16R,6.600000X2.300000*%
%ADD17R,1.727200X2.032000*%
%ADD18O,1.727200X2.032000*%
%ADD19R,1.000000X0.600000*%
%ADD20R,1.000000X0.450000*%
%ADD21R,1.060000X0.650000*%
%ADD22R,2.032000X1.727200*%
%ADD23O,2.032000X1.727200*%
%ADD24R,1.000000X1.600000*%
%ADD25R,1.600000X1.000000*%
%ADD26R,0.800000X0.750000*%
%ADD27R,0.750000X0.800000*%
%ADD28R,2.499360X1.800860*%
%ADD29R,1.800860X2.499360*%
%ADD30R,0.800100X0.800100*%
%ADD31R,0.900000X0.500000*%
%ADD32R,0.500000X0.900000*%
%ADD33O,2.400000X1.100000*%
%ADD34R,1.100000X2.400000*%
%ADD35O,1.100000X2.400000*%
%ADD36C,0.609600*%
%ADD37C,0.800000*%
%ADD38C,0.254000*%
G04 APERTURE END LIST*
D10*
D11*
X92011500Y-78105000D03*
D12*
X92011500Y-73025000D03*
X92011500Y-67945000D03*
X92011500Y-62865000D03*
X92011500Y-57785000D03*
X92011500Y-52705000D03*
X92011500Y-47625000D03*
X92011500Y-42545000D03*
D13*
X67264000Y-77044000D03*
D12*
X67264000Y-64844000D03*
X55214000Y-64794000D03*
D13*
X55264000Y-77044000D03*
D12*
X61214000Y-78994000D03*
D14*
X82296000Y-49657000D03*
D15*
X84836000Y-49657000D03*
D16*
X78538350Y-72882150D03*
X78538350Y-68582150D03*
D11*
X48056800Y-62011560D03*
D12*
X48056800Y-67091560D03*
X48056800Y-72171560D03*
X48056800Y-77251560D03*
X48056800Y-82331560D03*
X48056800Y-87411560D03*
D17*
X72136000Y-63881000D03*
D18*
X74676000Y-63881000D03*
X77216000Y-63881000D03*
X79756000Y-63881000D03*
X82296000Y-63881000D03*
X84836000Y-63881000D03*
D19*
X73492000Y-45919000D03*
X73492000Y-42219000D03*
X77892000Y-45919000D03*
X77892000Y-42219000D03*
D20*
X75692000Y-46594000D03*
X75692000Y-41544000D03*
D21*
X75411150Y-77054670D03*
X75411150Y-78004670D03*
X75411150Y-78954670D03*
X77611150Y-78954670D03*
X77611150Y-77054670D03*
X77611150Y-78004670D03*
D22*
X63987300Y-83041100D03*
D23*
X63987300Y-85581100D03*
X63987300Y-88121100D03*
D24*
X81157950Y-79787750D03*
X84157950Y-79787750D03*
D25*
X84538350Y-69232150D03*
X84538350Y-72232150D03*
D26*
X75788350Y-75232150D03*
X77288350Y-75232150D03*
D27*
X72644000Y-51042000D03*
X72644000Y-49542000D03*
D28*
X80633570Y-76460350D03*
X84631530Y-76460350D03*
D29*
X71628000Y-72356980D03*
X71628000Y-68359020D03*
D30*
X73586000Y-58761240D03*
X71686000Y-58761240D03*
X72636000Y-60760220D03*
X84309840Y-52538200D03*
X84309840Y-54438200D03*
X86308820Y-53488200D03*
D31*
X72898000Y-80252000D03*
X72898000Y-78752000D03*
X72898000Y-77458000D03*
X72898000Y-75958000D03*
D32*
X79628430Y-80448150D03*
X78128430Y-80448150D03*
X76930950Y-80448150D03*
X75430950Y-80448150D03*
X76635800Y-52980200D03*
X78135800Y-52980200D03*
D31*
X81322800Y-58300800D03*
X81322800Y-59800800D03*
X79392400Y-59800800D03*
X79392400Y-58300800D03*
X77462000Y-59800800D03*
X77462000Y-58300800D03*
X76454000Y-51042000D03*
X76454000Y-49542000D03*
X75531600Y-59800800D03*
X75531600Y-58300800D03*
X74549000Y-51042000D03*
X74549000Y-49542000D03*
D33*
X69725000Y-55303000D03*
X69725000Y-53303000D03*
X69725000Y-51303000D03*
X69725000Y-49303000D03*
X69725000Y-47303000D03*
X69725000Y-45303000D03*
D34*
X53975000Y-58293000D03*
D35*
X55975000Y-58293000D03*
X57975000Y-58293000D03*
X59975000Y-58293000D03*
X61975000Y-58293000D03*
X63975000Y-58293000D03*
X65975000Y-58293000D03*
X67975000Y-58293000D03*
X67975000Y-42293000D03*
X65975000Y-42293000D03*
X63975000Y-42293000D03*
X61975000Y-42293000D03*
X59975000Y-42293000D03*
X57975000Y-42293000D03*
X55975000Y-42293000D03*
X53975000Y-42293000D03*
D31*
X85183600Y-59800800D03*
X85183600Y-58300800D03*
X83253200Y-59800800D03*
X83253200Y-58300800D03*
X78351000Y-49537800D03*
X78351000Y-51037800D03*
D11*
X68927600Y-86978100D03*
D12*
X74007600Y-86978100D03*
X79087600Y-86978100D03*
X84167600Y-86978100D03*
D36*
X54144800Y-81301200D03*
X59275600Y-81275800D03*
X85217000Y-78867000D03*
X74214990Y-76333350D03*
X69723000Y-42293000D03*
X70866000Y-42293000D03*
X83459320Y-83124040D03*
X86004400Y-83124040D03*
X84739480Y-83124040D03*
X85197950Y-74301350D03*
X83877150Y-74301350D03*
X85217000Y-79883000D03*
X73041510Y-74672190D03*
X74214990Y-77476350D03*
X72909430Y-81393030D03*
X84578190Y-67788790D03*
X61968000Y-46731800D03*
X57980200Y-46300000D03*
X62933200Y-52040400D03*
X56659400Y-49170200D03*
X57954800Y-50465600D03*
X75023600Y-52700800D03*
X63060200Y-50364000D03*
X87545800Y-53488200D03*
X79875000Y-50059200D03*
X54906800Y-45106200D03*
X55033800Y-47074700D03*
X73601200Y-57069600D03*
X67022600Y-56536200D03*
X80010000Y-56896000D03*
X58039000Y-55118000D03*
X55880000Y-55372000D03*
X76708000Y-61341000D03*
X60833000Y-46355000D03*
X75692000Y-45085000D03*
X87291800Y-63165600D03*
X65143000Y-54072400D03*
X87317200Y-59025400D03*
X65066800Y-52802400D03*
X64000000Y-49271800D03*
X87012400Y-56891800D03*
D37*
X55264000Y-77044000D02*
X59264000Y-77044000D01*
X59264000Y-77044000D02*
X61214000Y-78994000D01*
X61214000Y-78994000D02*
X64829700Y-78994000D01*
X64829700Y-78994000D02*
X68385700Y-82550000D01*
X68385700Y-82550000D02*
X71120000Y-82550000D01*
X79087600Y-86978100D02*
X79087600Y-84620350D01*
X79087600Y-84620350D02*
X81157950Y-82550000D01*
D38*
X71628000Y-72356980D02*
X73660000Y-70324980D01*
X79375000Y-60452000D02*
X77597000Y-62230000D01*
X77597000Y-62230000D02*
X76581000Y-62230000D01*
X76581000Y-62230000D02*
X75946000Y-62865000D01*
X75946000Y-62865000D02*
X75946000Y-65151000D01*
X75946000Y-65151000D02*
X73660000Y-67437000D01*
X79375000Y-60452000D02*
X79375000Y-59805000D01*
X73660000Y-70324980D02*
X73660000Y-67437000D01*
X71628000Y-72356980D02*
X71120000Y-72864980D01*
X71120000Y-72864980D02*
X71120000Y-82550000D01*
D37*
X81157950Y-79787750D02*
X81157950Y-82550000D01*
D38*
X81157950Y-80790950D02*
X81157950Y-79787750D01*
X81246751Y-80879751D02*
X81157950Y-80790950D01*
X77611150Y-78004670D02*
X79374870Y-78004670D01*
X79374870Y-78004670D02*
X81157950Y-79787750D01*
X81157950Y-79787750D02*
X80497550Y-80448150D01*
X80497550Y-80448150D02*
X79628430Y-80448150D01*
D37*
X71120000Y-82550000D02*
X71247000Y-82550000D01*
X71247000Y-82550000D02*
X81157950Y-82550000D01*
D38*
X54170200Y-81275800D02*
X54144800Y-81301200D01*
X59275600Y-81275800D02*
X54170200Y-81275800D01*
X84836000Y-49657000D02*
X85336000Y-50157000D01*
X85336000Y-50157000D02*
X85336000Y-53412040D01*
X85336000Y-53412040D02*
X84309840Y-54438200D01*
X71686000Y-58761240D02*
X71686000Y-58812000D01*
X71686000Y-58812000D02*
X72610600Y-59736600D01*
X72610600Y-59736600D02*
X73271000Y-59736600D01*
X73271000Y-59736600D02*
X75201400Y-61667000D01*
X72136000Y-63881000D02*
X72136000Y-62751200D01*
X76471400Y-59240600D02*
X75531600Y-58300800D01*
X76471400Y-60397000D02*
X76471400Y-59240600D01*
X74922000Y-61946400D02*
X75201400Y-61667000D01*
X75201400Y-61667000D02*
X76471400Y-60397000D01*
X72940800Y-61946400D02*
X74922000Y-61946400D01*
X72136000Y-62751200D02*
X72940800Y-61946400D01*
X75531600Y-58300800D02*
X77462000Y-58300800D01*
X92011500Y-78105000D02*
X86276180Y-78105000D01*
X86276180Y-78105000D02*
X84631530Y-76460350D01*
D37*
X84167600Y-86978100D02*
X84167600Y-83832320D01*
X84167600Y-83832320D02*
X83459320Y-83124040D01*
D38*
X84631530Y-76460350D02*
X85217000Y-77045820D01*
X85217000Y-77045820D02*
X85217000Y-78867000D01*
X85217000Y-79883000D02*
X85217000Y-78867000D01*
X84836000Y-49657000D02*
X87249000Y-49657000D01*
X87787850Y-72232150D02*
X84538350Y-72232150D01*
X88392000Y-71628000D02*
X87787850Y-72232150D01*
X88392000Y-50800000D02*
X88392000Y-55190000D01*
X88392000Y-55190000D02*
X88392000Y-71628000D01*
X87249000Y-49657000D02*
X88392000Y-50800000D01*
X70866000Y-42293000D02*
X73418000Y-42293000D01*
X73418000Y-42293000D02*
X73492000Y-42219000D01*
X67975000Y-42293000D02*
X69723000Y-42293000D01*
X69723000Y-42293000D02*
X70866000Y-42293000D01*
X70866000Y-42293000D02*
X70868000Y-42293000D01*
X72009000Y-48907000D02*
X72644000Y-49542000D01*
X72009000Y-43434000D02*
X72009000Y-48907000D01*
X70868000Y-42293000D02*
X72009000Y-43434000D01*
X67975000Y-42293000D02*
X68836000Y-42293000D01*
X77892000Y-42219000D02*
X77892000Y-43348000D01*
X84836000Y-48133000D02*
X84836000Y-49657000D01*
X84074000Y-47371000D02*
X84836000Y-48133000D01*
X81915000Y-47371000D02*
X84074000Y-47371000D01*
X77892000Y-43348000D02*
X80518000Y-45974000D01*
X80518000Y-45974000D02*
X81915000Y-47371000D01*
X73418000Y-42293000D02*
X74178000Y-43053000D01*
X77058000Y-43053000D02*
X77892000Y-42219000D01*
X74178000Y-43053000D02*
X77058000Y-43053000D01*
X84157950Y-79787750D02*
X84157950Y-82425410D01*
X84157950Y-82425410D02*
X83459320Y-83124040D01*
X84739480Y-83124040D02*
X86004400Y-83124040D01*
X84631530Y-76460350D02*
X85197950Y-75893930D01*
X85197950Y-75893930D02*
X85197950Y-74301350D01*
X83877150Y-74301350D02*
X83877150Y-72893350D01*
X83877150Y-72893350D02*
X84538350Y-72232150D01*
X84157950Y-79787750D02*
X85147150Y-79787750D01*
X85147150Y-79787750D02*
X85217000Y-79883000D01*
X75430950Y-80448150D02*
X75430950Y-80436150D01*
X75430950Y-80436150D02*
X76500990Y-79366110D01*
X76500990Y-79366110D02*
X76500990Y-78345030D01*
X76500990Y-78345030D02*
X76160630Y-78004670D01*
X76160630Y-78004670D02*
X75411150Y-78004670D01*
X73034350Y-74679350D02*
X73041510Y-74672190D01*
X72907350Y-75982150D02*
X72907350Y-74679350D01*
X74743310Y-78004670D02*
X74214990Y-77476350D01*
X74743310Y-78004670D02*
X75411150Y-78004670D01*
X84538350Y-72232150D02*
X84538350Y-79407350D01*
X84538350Y-79407350D02*
X84157950Y-79787750D01*
X83253200Y-59800800D02*
X82782600Y-59800800D01*
X82782600Y-59800800D02*
X82288000Y-60295400D01*
X81322800Y-59800800D02*
X81793400Y-59800800D01*
X81793400Y-59800800D02*
X82288000Y-60295400D01*
X77216000Y-63881000D02*
X79531600Y-61565400D01*
X79531600Y-61565400D02*
X81297400Y-61565400D01*
X81297400Y-61565400D02*
X82288000Y-60574800D01*
X82288000Y-60574800D02*
X82288000Y-60295400D01*
X80033500Y-55526300D02*
X71981700Y-55526300D01*
X82288000Y-60295400D02*
X82288000Y-57780800D01*
X82288000Y-57780800D02*
X80033500Y-55526300D01*
X85183600Y-59800800D02*
X83253200Y-59800800D01*
X76454000Y-51042000D02*
X78346800Y-51042000D01*
X78346800Y-51042000D02*
X78351000Y-51037800D01*
X72907350Y-81390950D02*
X72909430Y-81393030D01*
X72907350Y-81390950D02*
X72907350Y-80232150D01*
X67975000Y-58293000D02*
X69215000Y-58293000D01*
X69215000Y-58293000D02*
X71981700Y-55526300D01*
X71981700Y-55526300D02*
X72007100Y-55500900D01*
X72009000Y-55499000D02*
X72009000Y-51677000D01*
X72009000Y-51677000D02*
X72644000Y-51042000D01*
X72007100Y-55500900D02*
X72009000Y-55499000D01*
X72644000Y-51042000D02*
X74549000Y-51042000D01*
X74549000Y-51042000D02*
X76454000Y-51042000D01*
X81280000Y-59817000D02*
X81280000Y-59805000D01*
X77216000Y-63881000D02*
X77216000Y-67259800D01*
X77216000Y-67259800D02*
X78538350Y-68582150D01*
X84538350Y-67828630D02*
X84538350Y-69232150D01*
X84578190Y-67788790D02*
X84538350Y-67828630D01*
X84538350Y-69232150D02*
X79188350Y-69232150D01*
X79188350Y-69232150D02*
X78538350Y-68582150D01*
X75788350Y-75232150D02*
X75788350Y-76677470D01*
X75788350Y-76677470D02*
X75411150Y-77054670D01*
X77288350Y-75232150D02*
X78538350Y-73982150D01*
X78538350Y-73982150D02*
X78538350Y-72882150D01*
X80633570Y-76460350D02*
X78538350Y-74365130D01*
X78538350Y-74365130D02*
X78538350Y-72882150D01*
X80633570Y-76460350D02*
X80039250Y-77054670D01*
X80039250Y-77054670D02*
X77611150Y-77054670D01*
X77611150Y-77054670D02*
X77288350Y-76731870D01*
X77288350Y-76731870D02*
X77288350Y-75232150D01*
X72636000Y-60760220D02*
X71129780Y-60760220D01*
X70096000Y-66827020D02*
X71628000Y-68359020D01*
X70096000Y-61794000D02*
X70096000Y-66827020D01*
X71129780Y-60760220D02*
X70096000Y-61794000D01*
X71628000Y-68359020D02*
X67264000Y-72723020D01*
X67264000Y-72723020D02*
X67264000Y-77044000D01*
X84309840Y-52538200D02*
X82296000Y-50524360D01*
X82296000Y-50524360D02*
X82296000Y-49657000D01*
X76454000Y-49542000D02*
X77689400Y-48306600D01*
X80945600Y-48306600D02*
X82296000Y-49657000D01*
X77689400Y-48306600D02*
X80945600Y-48306600D01*
X61975000Y-46737000D02*
X61975000Y-42293000D01*
X61975000Y-46731800D02*
X61975000Y-46737000D01*
X61968000Y-46731800D02*
X61975000Y-46731800D01*
X61976000Y-42294000D02*
X61975000Y-42293000D01*
X48056800Y-87411560D02*
X52874800Y-82593560D01*
X57975000Y-46294800D02*
X57975000Y-42293000D01*
X57980200Y-46300000D02*
X57975000Y-46294800D01*
X62971300Y-52078500D02*
X62933200Y-52040400D01*
X62971300Y-60816100D02*
X62971300Y-52078500D01*
X61866400Y-61921000D02*
X62971300Y-60816100D01*
X53433600Y-61921000D02*
X61866400Y-61921000D01*
X52874800Y-62479800D02*
X53433600Y-61921000D01*
X52874800Y-82593560D02*
X52874800Y-62479800D01*
X48056800Y-67091560D02*
X50066440Y-67091560D01*
X59975000Y-45854600D02*
X59975000Y-42293000D01*
X56659400Y-49170200D02*
X59975000Y-45854600D01*
X54957600Y-53462800D02*
X57954800Y-50465600D01*
X54957600Y-59965200D02*
X54957600Y-53462800D01*
X54500400Y-60422400D02*
X54957600Y-59965200D01*
X52620800Y-60422400D02*
X54500400Y-60422400D01*
X51427000Y-61616200D02*
X52620800Y-60422400D01*
X51427000Y-65731000D02*
X51427000Y-61616200D01*
X50066440Y-67091560D02*
X51427000Y-65731000D01*
X59975000Y-58293000D02*
X59975000Y-53449200D01*
X75303000Y-52980200D02*
X76635800Y-52980200D01*
X75023600Y-52700800D02*
X75303000Y-52980200D01*
X59975000Y-53449200D02*
X63060200Y-50364000D01*
X86308820Y-53488200D02*
X87545800Y-53488200D01*
X78351000Y-49537800D02*
X79353600Y-49537800D01*
X79353600Y-49537800D02*
X79875000Y-50059200D01*
X54906800Y-45106200D02*
X53975000Y-44174400D01*
X53975000Y-44174400D02*
X53975000Y-42293000D01*
X53992400Y-42310400D02*
X53975000Y-42293000D01*
X55975000Y-46133500D02*
X55975000Y-42293000D01*
X55033800Y-47074700D02*
X55975000Y-46133500D01*
X65975000Y-42293000D02*
X65975000Y-55488600D01*
X73586000Y-57084800D02*
X73586000Y-58761240D01*
X73601200Y-57069600D02*
X73586000Y-57084800D01*
X65975000Y-55488600D02*
X67022600Y-56536200D01*
X75531600Y-59800800D02*
X74625560Y-59800800D01*
X74625560Y-59800800D02*
X73586000Y-58761240D01*
X73586000Y-58761240D02*
X73652000Y-58695240D01*
X77611150Y-78954670D02*
X78128430Y-79471950D01*
X78128430Y-79471950D02*
X78128430Y-80448150D01*
X76930950Y-80448150D02*
X78128430Y-80448150D01*
X81280000Y-58305000D02*
X81280000Y-58166000D01*
X81280000Y-58166000D02*
X80010000Y-56896000D01*
X58039000Y-55118000D02*
X57975000Y-55182000D01*
X57975000Y-55182000D02*
X57975000Y-58293000D01*
X58039000Y-58229000D02*
X57975000Y-58293000D01*
X77470000Y-59805000D02*
X77470000Y-60579000D01*
X55880000Y-55372000D02*
X55880000Y-58198000D01*
X77470000Y-60579000D02*
X76708000Y-61341000D01*
X55880000Y-58198000D02*
X55975000Y-58293000D01*
X55880000Y-58198000D02*
X55975000Y-58293000D01*
X77470000Y-59805000D02*
X77875000Y-59805000D01*
X77875000Y-59805000D02*
X79375000Y-58305000D01*
X60833000Y-46355000D02*
X53975000Y-53213000D01*
X53975000Y-53213000D02*
X53975000Y-58293000D01*
X74549000Y-49542000D02*
X74549000Y-46976000D01*
X74549000Y-46976000D02*
X73492000Y-45919000D01*
X77892000Y-45919000D02*
X77058000Y-45085000D01*
X74326000Y-45085000D02*
X73492000Y-45919000D01*
X77058000Y-45085000D02*
X75692000Y-45085000D01*
X75692000Y-45085000D02*
X74326000Y-45085000D01*
X72907350Y-78732150D02*
X72907350Y-77482150D01*
X72907350Y-78732150D02*
X75061630Y-78732150D01*
X75188630Y-78732150D02*
X75411150Y-78954670D01*
X48056800Y-77251560D02*
X50117240Y-77251560D01*
X61975000Y-60339200D02*
X61975000Y-58293000D01*
X61206000Y-61108200D02*
X61975000Y-60339200D01*
X52976400Y-61108200D02*
X61206000Y-61108200D01*
X52138200Y-61946400D02*
X52976400Y-61108200D01*
X52138200Y-75230600D02*
X52138200Y-61946400D01*
X50117240Y-77251560D02*
X52138200Y-75230600D01*
X85183600Y-58300800D02*
X87291800Y-60409000D01*
X87291800Y-60409000D02*
X87291800Y-63165600D01*
X65975000Y-58293000D02*
X65975000Y-56657000D01*
X65143000Y-55825000D02*
X65143000Y-54072400D01*
X65975000Y-56657000D02*
X65143000Y-55825000D01*
X83253200Y-58300800D02*
X84078000Y-57476000D01*
X85767800Y-57476000D02*
X87317200Y-59025400D01*
X84078000Y-57476000D02*
X85767800Y-57476000D01*
X63975000Y-58293000D02*
X63975000Y-53894200D01*
X63975000Y-53894200D02*
X65066800Y-52802400D01*
X64008000Y-58260000D02*
X63975000Y-58293000D01*
X63975000Y-42293000D02*
X63975000Y-49246800D01*
X63975000Y-49246800D02*
X64000000Y-49271800D01*
X78135800Y-52980200D02*
X78935200Y-52980200D01*
X82846800Y-56891800D02*
X87012400Y-56891800D01*
X78935200Y-52980200D02*
X82846800Y-56891800D01*
D37*
X63987300Y-85581100D02*
X67530600Y-85581100D01*
X67530600Y-85581100D02*
X68927600Y-86978100D01*
D38*
G36*
X86493350Y-70161150D02*
X75063350Y-70161150D01*
X75063350Y-67367150D01*
X86493350Y-67367150D01*
X86493350Y-70161150D01*
X86493350Y-70161150D01*
G37*
X86493350Y-70161150D02*
X75063350Y-70161150D01*
X75063350Y-67367150D01*
X86493350Y-67367150D01*
X86493350Y-70161150D01*
G36*
X76333350Y-77093544D02*
X76153744Y-77273150D01*
X75063350Y-77273150D01*
X75063350Y-74733150D01*
X76333350Y-74733150D01*
X76333350Y-77093544D01*
X76333350Y-77093544D01*
G37*
X76333350Y-77093544D02*
X76153744Y-77273150D01*
X75063350Y-77273150D01*
X75063350Y-74733150D01*
X76333350Y-74733150D01*
X76333350Y-77093544D01*
G36*
X81921350Y-81337150D02*
X79381350Y-81337150D01*
X79381350Y-79432150D01*
X79381351Y-79432150D01*
X79371683Y-79383549D01*
X79344153Y-79342347D01*
X78505093Y-78503287D01*
X78501428Y-78484396D01*
X78417554Y-78356714D01*
X78290934Y-78271244D01*
X78141150Y-78241206D01*
X77095350Y-78241206D01*
X77095350Y-77781150D01*
X81921350Y-77781150D01*
X81921350Y-81337150D01*
X81921350Y-81337150D01*
G37*
X81921350Y-81337150D02*
X79381350Y-81337150D01*
X79381350Y-79432150D01*
X79381351Y-79432150D01*
X79371683Y-79383549D01*
X79344153Y-79342347D01*
X78505093Y-78503287D01*
X78501428Y-78484396D01*
X78417554Y-78356714D01*
X78290934Y-78271244D01*
X78141150Y-78241206D01*
X77095350Y-78241206D01*
X77095350Y-77781150D01*
X81921350Y-77781150D01*
X81921350Y-81337150D01*
G36*
X86487000Y-83693000D02*
X82931000Y-83693000D01*
X82931000Y-71628000D01*
X86487000Y-71628000D01*
X86487000Y-83693000D01*
X86487000Y-83693000D01*
G37*
X86487000Y-83693000D02*
X82931000Y-83693000D01*
X82931000Y-71628000D01*
X86487000Y-71628000D01*
X86487000Y-83693000D01*
G36*
X81921350Y-77273150D02*
X77020955Y-77273150D01*
X76841350Y-77093544D01*
X76841350Y-74098150D01*
X76831683Y-74049549D01*
X76804153Y-74008347D01*
X76762951Y-73980817D01*
X76714350Y-73971150D01*
X75063350Y-73971150D01*
X75063350Y-71685150D01*
X81921350Y-71685150D01*
X81921350Y-77273150D01*
X81921350Y-77273150D01*
G37*
X81921350Y-77273150D02*
X77020955Y-77273150D01*
X76841350Y-77093544D01*
X76841350Y-74098150D01*
X76831683Y-74049549D01*
X76804153Y-74008347D01*
X76762951Y-73980817D01*
X76714350Y-73971150D01*
X75063350Y-73971150D01*
X75063350Y-71685150D01*
X81921350Y-71685150D01*
X81921350Y-77273150D01*
M02*
