G04 #@! TF.GenerationSoftware,KiCad,Pcbnew,(5.1.2-1)-1*
G04 #@! TF.CreationDate,2019-09-21T15:52:31+01:00*
G04 #@! TF.ProjectId,onyx_robot,6f6e7978-5f72-46f6-926f-742e6b696361,rev?*
G04 #@! TF.SameCoordinates,Original*
G04 #@! TF.FileFunction,Legend,Bot*
G04 #@! TF.FilePolarity,Positive*
%FSLAX46Y46*%
G04 Gerber Fmt 4.6, Leading zero omitted, Abs format (unit mm)*
G04 Created by KiCad (PCBNEW (5.1.2-1)-1) date 2019-09-21 15:52:31*
%MOMM*%
%LPD*%
G04 APERTURE LIST*
%ADD10C,0.300000*%
%ADD11C,0.150000*%
G04 APERTURE END LIST*
D10*
X89653306Y-59896337D02*
X89501784Y-59037708D01*
X90259398Y-59290246D02*
X89198738Y-58229586D01*
X88794677Y-58633647D01*
X88744169Y-58785170D01*
X88744169Y-58886185D01*
X88794677Y-59037708D01*
X88946200Y-59189231D01*
X89097723Y-59239738D01*
X89198738Y-59239738D01*
X89350261Y-59189231D01*
X89754322Y-58785170D01*
X89198738Y-60249891D02*
X89097723Y-60451921D01*
X88845184Y-60704459D01*
X88693662Y-60754967D01*
X88592646Y-60754967D01*
X88441123Y-60704459D01*
X88340108Y-60603444D01*
X88289601Y-60451921D01*
X88289601Y-60350906D01*
X88340108Y-60199383D01*
X88491631Y-59946845D01*
X88542139Y-59795322D01*
X88542139Y-59694307D01*
X88491631Y-59542784D01*
X88390616Y-59441769D01*
X88239093Y-59391261D01*
X88138078Y-59391261D01*
X87986555Y-59441769D01*
X87734017Y-59694307D01*
X87633001Y-59896337D01*
X87279448Y-60148876D02*
X86673356Y-60754967D01*
X88037062Y-61512582D02*
X86976402Y-60451921D01*
X90259398Y-49130246D02*
X89198738Y-48069586D01*
X88794677Y-48473647D01*
X88744169Y-48625170D01*
X88744169Y-48726185D01*
X88794677Y-48877708D01*
X88946200Y-49029231D01*
X89097723Y-49079738D01*
X89198738Y-49079738D01*
X89350261Y-49029231D01*
X89754322Y-48625170D01*
X89198738Y-50190906D02*
X88138078Y-49130246D01*
X88138078Y-50140398D02*
X87784524Y-50493952D01*
X88188585Y-51201059D02*
X88693662Y-50695982D01*
X87633001Y-49635322D01*
X87127925Y-50140398D01*
X86774372Y-50493952D02*
X86067265Y-51201059D01*
X87835032Y-51554612D01*
X87127925Y-52261719D01*
X85461173Y-51807150D02*
X85259143Y-52009181D01*
X85208635Y-52160704D01*
X85208635Y-52362734D01*
X85360158Y-52615272D01*
X85713712Y-52968826D01*
X85966250Y-53120348D01*
X86168280Y-53120348D01*
X86319803Y-53069841D01*
X86521834Y-52867810D01*
X86572341Y-52716287D01*
X86572341Y-52514257D01*
X86420818Y-52261719D01*
X86067265Y-51908165D01*
X85814727Y-51756643D01*
X85612696Y-51756643D01*
X85461173Y-51807150D01*
X88693662Y-73974662D02*
X89198738Y-73469586D01*
X89754322Y-73924154D01*
X89653306Y-73924154D01*
X89501784Y-73974662D01*
X89249245Y-74227200D01*
X89198738Y-74378723D01*
X89198738Y-74479738D01*
X89249245Y-74631261D01*
X89501784Y-74883799D01*
X89653306Y-74934307D01*
X89754322Y-74934307D01*
X89905845Y-74883799D01*
X90158383Y-74631261D01*
X90208890Y-74479738D01*
X90208890Y-74378723D01*
X88340108Y-74328215D02*
X89047215Y-75742429D01*
X87633001Y-75035322D01*
X88545962Y-79481677D02*
X88596469Y-79330154D01*
X88747992Y-79178632D01*
X88950023Y-79077616D01*
X89152053Y-79077616D01*
X89303576Y-79128124D01*
X89556114Y-79279647D01*
X89707637Y-79431170D01*
X89859160Y-79683708D01*
X89909667Y-79835231D01*
X89909667Y-80037261D01*
X89808652Y-80239292D01*
X89707637Y-80340307D01*
X89505606Y-80441322D01*
X89404591Y-80441322D01*
X89051038Y-80087769D01*
X89253068Y-79885738D01*
X89051038Y-80996906D02*
X87990378Y-79936246D01*
X88444946Y-81602998D01*
X87384286Y-80542337D01*
X87939870Y-82108074D02*
X86879210Y-81047414D01*
X86626672Y-81299952D01*
X86525656Y-81501982D01*
X86525656Y-81704013D01*
X86576164Y-81855536D01*
X86727687Y-82108074D01*
X86879210Y-82259597D01*
X87131748Y-82411120D01*
X87283271Y-82461627D01*
X87485301Y-82461627D01*
X87687332Y-82360612D01*
X87939870Y-82108074D01*
X90259398Y-69349231D02*
X90158383Y-69551261D01*
X89905845Y-69803799D01*
X89754322Y-69854307D01*
X89653306Y-69854307D01*
X89501784Y-69803799D01*
X89400768Y-69702784D01*
X89350261Y-69551261D01*
X89350261Y-69450246D01*
X89400768Y-69298723D01*
X89552291Y-69046185D01*
X89602799Y-68894662D01*
X89602799Y-68793647D01*
X89552291Y-68642124D01*
X89451276Y-68541109D01*
X89299753Y-68490601D01*
X89198738Y-68490601D01*
X89047215Y-68541109D01*
X88794677Y-68793647D01*
X88693662Y-68995677D01*
X89249245Y-70460398D02*
X88188585Y-69399738D01*
X87936047Y-69652276D01*
X87835032Y-69854307D01*
X87835032Y-70056337D01*
X87885540Y-70207860D01*
X88037062Y-70460398D01*
X88188585Y-70611921D01*
X88441123Y-70763444D01*
X88592646Y-70813952D01*
X88794677Y-70813952D01*
X88996707Y-70712937D01*
X89249245Y-70460398D01*
X87936047Y-71167505D02*
X87430971Y-71672582D01*
X88340108Y-71369536D02*
X86925895Y-70662429D01*
X87633001Y-72076643D01*
X90259398Y-64269231D02*
X90158383Y-64471261D01*
X89905845Y-64723799D01*
X89754322Y-64774307D01*
X89653306Y-64774307D01*
X89501784Y-64723799D01*
X89400768Y-64622784D01*
X89350261Y-64471261D01*
X89350261Y-64370246D01*
X89400768Y-64218723D01*
X89552291Y-63966185D01*
X89602799Y-63814662D01*
X89602799Y-63713647D01*
X89552291Y-63562124D01*
X89451276Y-63461109D01*
X89299753Y-63410601D01*
X89198738Y-63410601D01*
X89047215Y-63461109D01*
X88794677Y-63713647D01*
X88693662Y-63915677D01*
X88542139Y-65885475D02*
X88643154Y-65885475D01*
X88845184Y-65784459D01*
X88946200Y-65683444D01*
X89047215Y-65481414D01*
X89047215Y-65279383D01*
X88996707Y-65127860D01*
X88845184Y-64875322D01*
X88693662Y-64723799D01*
X88441123Y-64572276D01*
X88289601Y-64521769D01*
X88087570Y-64521769D01*
X87885540Y-64622784D01*
X87784524Y-64723799D01*
X87683509Y-64925830D01*
X87683509Y-65026845D01*
X87683509Y-66946135D02*
X88188585Y-66441059D01*
X87127925Y-65380398D01*
X89754322Y-54715322D02*
X90259398Y-54210246D01*
X89198738Y-53149586D01*
X88845184Y-54513292D02*
X88491631Y-54866845D01*
X88895692Y-55573952D02*
X89400768Y-55068876D01*
X88340108Y-54008215D01*
X87835032Y-54513292D01*
X88441123Y-56028520D02*
X87380463Y-54967860D01*
X87127925Y-55220398D01*
X87026910Y-55422429D01*
X87026910Y-55624459D01*
X87077417Y-55775982D01*
X87228940Y-56028520D01*
X87380463Y-56180043D01*
X87633001Y-56331566D01*
X87784524Y-56382074D01*
X87986555Y-56382074D01*
X88188585Y-56281059D01*
X88441123Y-56028520D01*
X51234937Y-60150622D02*
X51184430Y-60302145D01*
X51032907Y-60453667D01*
X50830876Y-60554683D01*
X50628846Y-60554683D01*
X50477323Y-60504175D01*
X50224785Y-60352652D01*
X50073262Y-60201129D01*
X49921739Y-59948591D01*
X49871232Y-59797068D01*
X49871232Y-59595038D01*
X49972247Y-59393007D01*
X50073262Y-59291992D01*
X50275293Y-59190977D01*
X50376308Y-59190977D01*
X50729861Y-59544530D01*
X50527831Y-59746561D01*
X50729861Y-58635393D02*
X51790521Y-59696053D01*
X51335953Y-58029301D01*
X52396613Y-59089962D01*
X51841029Y-57524225D02*
X52901689Y-58584885D01*
X53154227Y-58332347D01*
X53255243Y-58130317D01*
X53255243Y-57928286D01*
X53204735Y-57776763D01*
X53053212Y-57524225D01*
X52901689Y-57372702D01*
X52649151Y-57221179D01*
X52497628Y-57170672D01*
X52295598Y-57170672D01*
X52093567Y-57271687D01*
X51841029Y-57524225D01*
X51425437Y-70907522D02*
X51374930Y-71059045D01*
X51223407Y-71210567D01*
X51021376Y-71311583D01*
X50819346Y-71311583D01*
X50667823Y-71261075D01*
X50415285Y-71109552D01*
X50263762Y-70958029D01*
X50112239Y-70705491D01*
X50061732Y-70553968D01*
X50061732Y-70351938D01*
X50162747Y-70149907D01*
X50263762Y-70048892D01*
X50465793Y-69947877D01*
X50566808Y-69947877D01*
X50920361Y-70301430D01*
X50718331Y-70503461D01*
X50920361Y-69392293D02*
X51981021Y-70452953D01*
X51526453Y-68786201D01*
X52587113Y-69846862D01*
X52031529Y-68281125D02*
X53092189Y-69341785D01*
X53344727Y-69089247D01*
X53445743Y-68887217D01*
X53445743Y-68685186D01*
X53395235Y-68533663D01*
X53243712Y-68281125D01*
X53092189Y-68129602D01*
X52839651Y-67978079D01*
X52688128Y-67927572D01*
X52486098Y-67927572D01*
X52284067Y-68028587D01*
X52031529Y-68281125D01*
X51298437Y-81118322D02*
X51247930Y-81269845D01*
X51096407Y-81421367D01*
X50894376Y-81522383D01*
X50692346Y-81522383D01*
X50540823Y-81471875D01*
X50288285Y-81320352D01*
X50136762Y-81168829D01*
X49985239Y-80916291D01*
X49934732Y-80764768D01*
X49934732Y-80562738D01*
X50035747Y-80360707D01*
X50136762Y-80259692D01*
X50338793Y-80158677D01*
X50439808Y-80158677D01*
X50793361Y-80512230D01*
X50591331Y-80714261D01*
X50793361Y-79603093D02*
X51854021Y-80663753D01*
X51399453Y-78997001D01*
X52460113Y-80057662D01*
X51904529Y-78491925D02*
X52965189Y-79552585D01*
X53217727Y-79300047D01*
X53318743Y-79098017D01*
X53318743Y-78895986D01*
X53268235Y-78744463D01*
X53116712Y-78491925D01*
X52965189Y-78340402D01*
X52712651Y-78188879D01*
X52561128Y-78138372D01*
X52359098Y-78138372D01*
X52157067Y-78239387D01*
X51904529Y-78491925D01*
X49440601Y-85666968D02*
X49541616Y-85464938D01*
X49794154Y-85212400D01*
X49945677Y-85161892D01*
X50046693Y-85161892D01*
X50198215Y-85212400D01*
X50299231Y-85313415D01*
X50349738Y-85464938D01*
X50349738Y-85565953D01*
X50299231Y-85717476D01*
X50147708Y-85970014D01*
X50097200Y-86121537D01*
X50097200Y-86222552D01*
X50147708Y-86374075D01*
X50248723Y-86475090D01*
X50400246Y-86525598D01*
X50501261Y-86525598D01*
X50652784Y-86475090D01*
X50905322Y-86222552D01*
X51006337Y-86020522D01*
X50450754Y-84555801D02*
X51511414Y-85616461D01*
X51056845Y-83949709D01*
X52117505Y-85010369D01*
X51561921Y-83444633D02*
X52622582Y-84505293D01*
X52976135Y-83141587D02*
X53077150Y-82939556D01*
X53077150Y-82838541D01*
X53026643Y-82687018D01*
X52875120Y-82535495D01*
X52723597Y-82484988D01*
X52622582Y-82484988D01*
X52471059Y-82535495D01*
X52066998Y-82939556D01*
X53127658Y-84000217D01*
X53481211Y-83646663D01*
X53531719Y-83495140D01*
X53531719Y-83394125D01*
X53481211Y-83242602D01*
X53380196Y-83141587D01*
X53228673Y-83091079D01*
X53127658Y-83091079D01*
X52976135Y-83141587D01*
X52622582Y-83495140D01*
X49580301Y-75317053D02*
X50640961Y-76377713D01*
X50893499Y-76125175D01*
X50994515Y-75923145D01*
X50994515Y-75721114D01*
X50944007Y-75569591D01*
X50792484Y-75317053D01*
X50640961Y-75165530D01*
X50388423Y-75014007D01*
X50236900Y-74963500D01*
X50034870Y-74963500D01*
X49832839Y-75064515D01*
X49580301Y-75317053D01*
X51903652Y-75115023D02*
X52105682Y-74912992D01*
X52156190Y-74761469D01*
X52156190Y-74559439D01*
X52004667Y-74306901D01*
X51651114Y-73953347D01*
X51398576Y-73801824D01*
X51196545Y-73801824D01*
X51045022Y-73852332D01*
X50842992Y-74054362D01*
X50792484Y-74205885D01*
X50792484Y-74407916D01*
X50944007Y-74660454D01*
X51297560Y-75014007D01*
X51550098Y-75165530D01*
X51752129Y-75165530D01*
X51903652Y-75115023D01*
X53014820Y-74003855D02*
X53216850Y-73801824D01*
X53267358Y-73650301D01*
X53267358Y-73448271D01*
X53115835Y-73195733D01*
X52762282Y-72842179D01*
X52509743Y-72690656D01*
X52307713Y-72690656D01*
X52156190Y-72741164D01*
X51954159Y-72943195D01*
X51903652Y-73094717D01*
X51903652Y-73296748D01*
X52055175Y-73549286D01*
X52408728Y-73902840D01*
X52661266Y-74054362D01*
X52863297Y-74054362D01*
X53014820Y-74003855D01*
X53469388Y-71427966D02*
X53620911Y-72286595D01*
X52863297Y-72034057D02*
X53923957Y-73094717D01*
X54328018Y-72690656D01*
X54378526Y-72539134D01*
X54378526Y-72438118D01*
X54328018Y-72286595D01*
X54176495Y-72135073D01*
X54024972Y-72084565D01*
X53923957Y-72084565D01*
X53772434Y-72135073D01*
X53368373Y-72539134D01*
X68543169Y-83857614D02*
X69149261Y-84463706D01*
X68846215Y-84160660D02*
X69906875Y-83100000D01*
X69856367Y-83352538D01*
X69856367Y-83554568D01*
X69906875Y-83706091D01*
X69098753Y-82493908D02*
X69098753Y-82392893D01*
X69048245Y-82241370D01*
X68795707Y-81988832D01*
X68644184Y-81938324D01*
X68543169Y-81938324D01*
X68391646Y-81988832D01*
X68290631Y-82089847D01*
X68189616Y-82291878D01*
X68189616Y-83504061D01*
X67533017Y-82847462D01*
X68290631Y-81483756D02*
X66876417Y-82190862D01*
X67583524Y-80776649D01*
X66320834Y-81837309D02*
X65512712Y-81029187D01*
X66219818Y-79412943D02*
X66017788Y-79210912D01*
X65866265Y-79160405D01*
X65664234Y-79160405D01*
X65411696Y-79311928D01*
X65058143Y-79665481D01*
X64906620Y-79918019D01*
X64906620Y-80120050D01*
X64957128Y-80271573D01*
X65159158Y-80473603D01*
X65310681Y-80524111D01*
X65512712Y-80524111D01*
X65765250Y-80372588D01*
X66118803Y-80019034D01*
X66270326Y-79766496D01*
X66270326Y-79564466D01*
X66219818Y-79412943D01*
X65310681Y-78503806D02*
X64452051Y-79362435D01*
X64300528Y-79412943D01*
X64199513Y-79412943D01*
X64047990Y-79362435D01*
X63845960Y-79160405D01*
X63795452Y-79008882D01*
X63795452Y-78907867D01*
X63845960Y-78756344D01*
X64704590Y-77897714D01*
X64351036Y-77544161D02*
X63744945Y-76938069D01*
X62987330Y-78301775D02*
X64047990Y-77241115D01*
X78499969Y-83959214D02*
X79106061Y-84565306D01*
X78803015Y-84262260D02*
X79863675Y-83201600D01*
X79813167Y-83454138D01*
X79813167Y-83656168D01*
X79863675Y-83807691D01*
X79055553Y-82595508D02*
X79055553Y-82494493D01*
X79005045Y-82342970D01*
X78752507Y-82090432D01*
X78600984Y-82039924D01*
X78499969Y-82039924D01*
X78348446Y-82090432D01*
X78247431Y-82191447D01*
X78146416Y-82393478D01*
X78146416Y-83605661D01*
X77489817Y-82949062D01*
X78247431Y-81585356D02*
X76833217Y-82292462D01*
X77540324Y-80878249D01*
X50110485Y-65674537D02*
X50464038Y-65320984D01*
X50059977Y-64613877D02*
X49554901Y-65118953D01*
X50615561Y-66179613D01*
X51120637Y-65674537D01*
X51474191Y-65320984D02*
X51120637Y-63553217D01*
X52181298Y-64613877D02*
X50413531Y-64260323D01*
X51524698Y-63149156D02*
X52585359Y-64209816D01*
X52938912Y-63856262D02*
X53545004Y-63250171D01*
X52181298Y-62492556D02*
X53241958Y-63553217D01*
X84437722Y-83152262D02*
X84589245Y-83202769D01*
X84740767Y-83354292D01*
X84841783Y-83556323D01*
X84841783Y-83758353D01*
X84791275Y-83909876D01*
X84639752Y-84162414D01*
X84488229Y-84313937D01*
X84235691Y-84465460D01*
X84084168Y-84515967D01*
X83882138Y-84515967D01*
X83680107Y-84414952D01*
X83579092Y-84313937D01*
X83478077Y-84111906D01*
X83478077Y-84010891D01*
X83831630Y-83657338D01*
X84033661Y-83859368D01*
X82922493Y-83657338D02*
X83983153Y-82596678D01*
X82316401Y-83051246D01*
X83377062Y-81990586D01*
X81811325Y-82546170D02*
X82871985Y-81485510D01*
X82619447Y-81232972D01*
X82417417Y-81131956D01*
X82215386Y-81131956D01*
X82063863Y-81182464D01*
X81811325Y-81333987D01*
X81659802Y-81485510D01*
X81508279Y-81738048D01*
X81457772Y-81889571D01*
X81457772Y-82091601D01*
X81558787Y-82293632D01*
X81811325Y-82546170D01*
X74404722Y-83177662D02*
X74556245Y-83228169D01*
X74707767Y-83379692D01*
X74808783Y-83581723D01*
X74808783Y-83783753D01*
X74758275Y-83935276D01*
X74606752Y-84187814D01*
X74455229Y-84339337D01*
X74202691Y-84490860D01*
X74051168Y-84541367D01*
X73849138Y-84541367D01*
X73647107Y-84440352D01*
X73546092Y-84339337D01*
X73445077Y-84137306D01*
X73445077Y-84036291D01*
X73798630Y-83682738D01*
X74000661Y-83884768D01*
X72889493Y-83682738D02*
X73950153Y-82622078D01*
X72283401Y-83076646D01*
X73344062Y-82015986D01*
X71778325Y-82571570D02*
X72838985Y-81510910D01*
X72586447Y-81258372D01*
X72384417Y-81157356D01*
X72182386Y-81157356D01*
X72030863Y-81207864D01*
X71778325Y-81359387D01*
X71626802Y-81510910D01*
X71475279Y-81763448D01*
X71424772Y-81914971D01*
X71424772Y-82117001D01*
X71525787Y-82319032D01*
X71778325Y-82571570D01*
X79418142Y-43361571D02*
X78846714Y-43361571D01*
X79203857Y-42861571D02*
X79203857Y-44147285D01*
X79132428Y-44290142D01*
X78989571Y-44361571D01*
X78846714Y-44361571D01*
X78346714Y-44361571D02*
X78346714Y-43361571D01*
X78346714Y-42861571D02*
X78418142Y-42933000D01*
X78346714Y-43004428D01*
X78275285Y-42933000D01*
X78346714Y-42861571D01*
X78346714Y-43004428D01*
X77632428Y-44361571D02*
X77632428Y-43361571D01*
X77632428Y-43504428D02*
X77561000Y-43433000D01*
X77418142Y-43361571D01*
X77203857Y-43361571D01*
X77061000Y-43433000D01*
X76989571Y-43575857D01*
X76989571Y-44361571D01*
X76989571Y-43575857D02*
X76918142Y-43433000D01*
X76775285Y-43361571D01*
X76561000Y-43361571D01*
X76418142Y-43433000D01*
X76346714Y-43575857D01*
X76346714Y-44361571D01*
X75632428Y-44361571D02*
X75632428Y-42861571D01*
X74989571Y-44361571D02*
X74989571Y-43575857D01*
X75061000Y-43433000D01*
X75203857Y-43361571D01*
X75418142Y-43361571D01*
X75561000Y-43433000D01*
X75632428Y-43504428D01*
X73632428Y-44361571D02*
X73632428Y-43575857D01*
X73703857Y-43433000D01*
X73846714Y-43361571D01*
X74132428Y-43361571D01*
X74275285Y-43433000D01*
X73632428Y-44290142D02*
X73775285Y-44361571D01*
X74132428Y-44361571D01*
X74275285Y-44290142D01*
X74346714Y-44147285D01*
X74346714Y-44004428D01*
X74275285Y-43861571D01*
X74132428Y-43790142D01*
X73775285Y-43790142D01*
X73632428Y-43718714D01*
X73061000Y-43361571D02*
X72775285Y-44361571D01*
X72489571Y-43647285D01*
X72203857Y-44361571D01*
X71918142Y-43361571D01*
X70775285Y-44290142D02*
X70918142Y-44361571D01*
X71203857Y-44361571D01*
X71346714Y-44290142D01*
X71418142Y-44147285D01*
X71418142Y-43575857D01*
X71346714Y-43433000D01*
X71203857Y-43361571D01*
X70918142Y-43361571D01*
X70775285Y-43433000D01*
X70703857Y-43575857D01*
X70703857Y-43718714D01*
X71418142Y-43861571D01*
X70132428Y-44290142D02*
X69989571Y-44361571D01*
X69703857Y-44361571D01*
X69561000Y-44290142D01*
X69489571Y-44147285D01*
X69489571Y-44075857D01*
X69561000Y-43933000D01*
X69703857Y-43861571D01*
X69918142Y-43861571D01*
X70061000Y-43790142D01*
X70132428Y-43647285D01*
X70132428Y-43575857D01*
X70061000Y-43433000D01*
X69918142Y-43361571D01*
X69703857Y-43361571D01*
X69561000Y-43433000D01*
X68846714Y-44218714D02*
X68775285Y-44290142D01*
X68846714Y-44361571D01*
X68918142Y-44290142D01*
X68846714Y-44218714D01*
X68846714Y-44361571D01*
X67489571Y-44290142D02*
X67632428Y-44361571D01*
X67918142Y-44361571D01*
X68061000Y-44290142D01*
X68132428Y-44218714D01*
X68203857Y-44075857D01*
X68203857Y-43647285D01*
X68132428Y-43504428D01*
X68061000Y-43433000D01*
X67918142Y-43361571D01*
X67632428Y-43361571D01*
X67489571Y-43433000D01*
X66632428Y-44361571D02*
X66775285Y-44290142D01*
X66846714Y-44218714D01*
X66918142Y-44075857D01*
X66918142Y-43647285D01*
X66846714Y-43504428D01*
X66775285Y-43433000D01*
X66632428Y-43361571D01*
X66418142Y-43361571D01*
X66275285Y-43433000D01*
X66203857Y-43504428D01*
X66132428Y-43647285D01*
X66132428Y-44075857D01*
X66203857Y-44218714D01*
X66275285Y-44290142D01*
X66418142Y-44361571D01*
X66632428Y-44361571D01*
X65489571Y-44361571D02*
X65489571Y-43361571D01*
X65489571Y-43504428D02*
X65418142Y-43433000D01*
X65275285Y-43361571D01*
X65061000Y-43361571D01*
X64918142Y-43433000D01*
X64846714Y-43575857D01*
X64846714Y-44361571D01*
X64846714Y-43575857D02*
X64775285Y-43433000D01*
X64632428Y-43361571D01*
X64418142Y-43361571D01*
X64275285Y-43433000D01*
X64203857Y-43575857D01*
X64203857Y-44361571D01*
X62418142Y-42790142D02*
X63703857Y-44718714D01*
X61918142Y-43361571D02*
X61918142Y-44861571D01*
X61918142Y-43433000D02*
X61775285Y-43361571D01*
X61489571Y-43361571D01*
X61346714Y-43433000D01*
X61275285Y-43504428D01*
X61203857Y-43647285D01*
X61203857Y-44075857D01*
X61275285Y-44218714D01*
X61346714Y-44290142D01*
X61489571Y-44361571D01*
X61775285Y-44361571D01*
X61918142Y-44290142D01*
X59918142Y-44290142D02*
X60061000Y-44361571D01*
X60346714Y-44361571D01*
X60489571Y-44290142D01*
X60561000Y-44218714D01*
X60632428Y-44075857D01*
X60632428Y-43647285D01*
X60561000Y-43504428D01*
X60489571Y-43433000D01*
X60346714Y-43361571D01*
X60061000Y-43361571D01*
X59918142Y-43433000D01*
X59275285Y-44361571D02*
X59275285Y-42861571D01*
X59275285Y-43433000D02*
X59132428Y-43361571D01*
X58846714Y-43361571D01*
X58703857Y-43433000D01*
X58632428Y-43504428D01*
X58561000Y-43647285D01*
X58561000Y-44075857D01*
X58632428Y-44218714D01*
X58703857Y-44290142D01*
X58846714Y-44361571D01*
X59132428Y-44361571D01*
X59275285Y-44290142D01*
X56846714Y-42790142D02*
X58132428Y-44718714D01*
X56132428Y-44361571D02*
X56275285Y-44290142D01*
X56346714Y-44218714D01*
X56418142Y-44075857D01*
X56418142Y-43647285D01*
X56346714Y-43504428D01*
X56275285Y-43433000D01*
X56132428Y-43361571D01*
X55918142Y-43361571D01*
X55775285Y-43433000D01*
X55703857Y-43504428D01*
X55632428Y-43647285D01*
X55632428Y-44075857D01*
X55703857Y-44218714D01*
X55775285Y-44290142D01*
X55918142Y-44361571D01*
X56132428Y-44361571D01*
X54989571Y-44361571D02*
X54989571Y-43361571D01*
X54989571Y-43647285D02*
X54918142Y-43504428D01*
X54846714Y-43433000D01*
X54703857Y-43361571D01*
X54561000Y-43361571D01*
X54203857Y-42861571D02*
X53275285Y-42861571D01*
X53775285Y-43433000D01*
X53561000Y-43433000D01*
X53418142Y-43504428D01*
X53346714Y-43575857D01*
X53275285Y-43718714D01*
X53275285Y-44075857D01*
X53346714Y-44218714D01*
X53418142Y-44290142D01*
X53561000Y-44361571D01*
X53989571Y-44361571D01*
X54132428Y-44290142D01*
X54203857Y-44218714D01*
X78632428Y-46840142D02*
X78775285Y-46911571D01*
X79061000Y-46911571D01*
X79203857Y-46840142D01*
X79275285Y-46697285D01*
X79275285Y-46125857D01*
X79203857Y-45983000D01*
X79061000Y-45911571D01*
X78775285Y-45911571D01*
X78632428Y-45983000D01*
X78561000Y-46125857D01*
X78561000Y-46268714D01*
X79275285Y-46411571D01*
X77275285Y-46911571D02*
X77275285Y-45411571D01*
X77275285Y-46840142D02*
X77418142Y-46911571D01*
X77703857Y-46911571D01*
X77846714Y-46840142D01*
X77918142Y-46768714D01*
X77989571Y-46625857D01*
X77989571Y-46197285D01*
X77918142Y-46054428D01*
X77846714Y-45983000D01*
X77703857Y-45911571D01*
X77418142Y-45911571D01*
X77275285Y-45983000D01*
X76561000Y-46911571D02*
X76561000Y-45911571D01*
X76561000Y-45411571D02*
X76632428Y-45483000D01*
X76561000Y-45554428D01*
X76489571Y-45483000D01*
X76561000Y-45411571D01*
X76561000Y-45554428D01*
X75846714Y-45911571D02*
X75846714Y-46911571D01*
X75846714Y-46054428D02*
X75775285Y-45983000D01*
X75632428Y-45911571D01*
X75418142Y-45911571D01*
X75275285Y-45983000D01*
X75203857Y-46125857D01*
X75203857Y-46911571D01*
X74489571Y-46911571D02*
X74489571Y-45411571D01*
X74489571Y-45983000D02*
X74346714Y-45911571D01*
X74061000Y-45911571D01*
X73918142Y-45983000D01*
X73846714Y-46054428D01*
X73775285Y-46197285D01*
X73775285Y-46625857D01*
X73846714Y-46768714D01*
X73918142Y-46840142D01*
X74061000Y-46911571D01*
X74346714Y-46911571D01*
X74489571Y-46840142D01*
X72489571Y-45911571D02*
X72489571Y-46911571D01*
X73132428Y-45911571D02*
X73132428Y-46697285D01*
X73061000Y-46840142D01*
X72918142Y-46911571D01*
X72703857Y-46911571D01*
X72561000Y-46840142D01*
X72489571Y-46768714D01*
X71775285Y-46911571D02*
X71775285Y-45911571D01*
X71775285Y-46197285D02*
X71703857Y-46054428D01*
X71632428Y-45983000D01*
X71489571Y-45911571D01*
X71346714Y-45911571D01*
X70203857Y-45911571D02*
X70203857Y-47125857D01*
X70275285Y-47268714D01*
X70346714Y-47340142D01*
X70489571Y-47411571D01*
X70703857Y-47411571D01*
X70846714Y-47340142D01*
X70203857Y-46840142D02*
X70346714Y-46911571D01*
X70632428Y-46911571D01*
X70775285Y-46840142D01*
X70846714Y-46768714D01*
X70918142Y-46625857D01*
X70918142Y-46197285D01*
X70846714Y-46054428D01*
X70775285Y-45983000D01*
X70632428Y-45911571D01*
X70346714Y-45911571D01*
X70203857Y-45983000D01*
X69489571Y-46911571D02*
X69489571Y-45411571D01*
X68846714Y-46911571D02*
X68846714Y-46125857D01*
X68918142Y-45983000D01*
X69061000Y-45911571D01*
X69275285Y-45911571D01*
X69418142Y-45983000D01*
X69489571Y-46054428D01*
X68132428Y-46911571D02*
X68132428Y-45411571D01*
X67489571Y-46911571D02*
X67489571Y-46125857D01*
X67561000Y-45983000D01*
X67703857Y-45911571D01*
X67918142Y-45911571D01*
X68061000Y-45983000D01*
X68132428Y-46054428D01*
X66132428Y-46911571D02*
X66132428Y-46125857D01*
X66203857Y-45983000D01*
X66346714Y-45911571D01*
X66632428Y-45911571D01*
X66775285Y-45983000D01*
X66132428Y-46840142D02*
X66275285Y-46911571D01*
X66632428Y-46911571D01*
X66775285Y-46840142D01*
X66846714Y-46697285D01*
X66846714Y-46554428D01*
X66775285Y-46411571D01*
X66632428Y-46340142D01*
X66275285Y-46340142D01*
X66132428Y-46268714D01*
X64775285Y-46840142D02*
X64918142Y-46911571D01*
X65203857Y-46911571D01*
X65346714Y-46840142D01*
X65418142Y-46768714D01*
X65489571Y-46625857D01*
X65489571Y-46197285D01*
X65418142Y-46054428D01*
X65346714Y-45983000D01*
X65203857Y-45911571D01*
X64918142Y-45911571D01*
X64775285Y-45983000D01*
X64132428Y-46911571D02*
X64132428Y-45411571D01*
X63989571Y-46340142D02*
X63561000Y-46911571D01*
X63561000Y-45911571D02*
X64132428Y-46483000D01*
X62703857Y-46911571D02*
X62846714Y-46840142D01*
X62918142Y-46697285D01*
X62918142Y-45411571D01*
X61489571Y-46911571D02*
X61489571Y-46125857D01*
X61561000Y-45983000D01*
X61703857Y-45911571D01*
X61989571Y-45911571D01*
X62132428Y-45983000D01*
X61489571Y-46840142D02*
X61632428Y-46911571D01*
X61989571Y-46911571D01*
X62132428Y-46840142D01*
X62203857Y-46697285D01*
X62203857Y-46554428D01*
X62132428Y-46411571D01*
X61989571Y-46340142D01*
X61632428Y-46340142D01*
X61489571Y-46268714D01*
X60775285Y-46911571D02*
X60775285Y-45411571D01*
X60775285Y-45983000D02*
X60632428Y-45911571D01*
X60346714Y-45911571D01*
X60203857Y-45983000D01*
X60132428Y-46054428D01*
X60061000Y-46197285D01*
X60061000Y-46625857D01*
X60132428Y-46768714D01*
X60203857Y-46840142D01*
X60346714Y-46911571D01*
X60632428Y-46911571D01*
X60775285Y-46840142D01*
X59418142Y-46768714D02*
X59346714Y-46840142D01*
X59418142Y-46911571D01*
X59489571Y-46840142D01*
X59418142Y-46768714D01*
X59418142Y-46911571D01*
X58061000Y-46840142D02*
X58203857Y-46911571D01*
X58489571Y-46911571D01*
X58632428Y-46840142D01*
X58703857Y-46768714D01*
X58775285Y-46625857D01*
X58775285Y-46197285D01*
X58703857Y-46054428D01*
X58632428Y-45983000D01*
X58489571Y-45911571D01*
X58203857Y-45911571D01*
X58061000Y-45983000D01*
X57203857Y-46911571D02*
X57346714Y-46840142D01*
X57418142Y-46768714D01*
X57489571Y-46625857D01*
X57489571Y-46197285D01*
X57418142Y-46054428D01*
X57346714Y-45983000D01*
X57203857Y-45911571D01*
X56989571Y-45911571D01*
X56846714Y-45983000D01*
X56775285Y-46054428D01*
X56703857Y-46197285D01*
X56703857Y-46625857D01*
X56775285Y-46768714D01*
X56846714Y-46840142D01*
X56989571Y-46911571D01*
X57203857Y-46911571D01*
X56061000Y-46911571D02*
X56061000Y-45911571D01*
X56061000Y-46054428D02*
X55989571Y-45983000D01*
X55846714Y-45911571D01*
X55632428Y-45911571D01*
X55489571Y-45983000D01*
X55418142Y-46125857D01*
X55418142Y-46911571D01*
X55418142Y-46125857D02*
X55346714Y-45983000D01*
X55203857Y-45911571D01*
X54989571Y-45911571D01*
X54846714Y-45983000D01*
X54775285Y-46125857D01*
X54775285Y-46911571D01*
D11*
X63111000Y-55872000D02*
X62111000Y-55872000D01*
X62111000Y-55872000D02*
X62111000Y-57872000D01*
X62111000Y-57872000D02*
X63111000Y-57872000D01*
X63111000Y-57872000D02*
X63111000Y-55872000D01*
X63111000Y-58872000D02*
X62111000Y-58872000D01*
X62111000Y-58872000D02*
X62111000Y-60872000D01*
X62111000Y-60872000D02*
X63111000Y-60872000D01*
X63111000Y-60872000D02*
X63111000Y-58872000D01*
X61111000Y-55872000D02*
X61111000Y-60872000D01*
X61111000Y-60872000D02*
X60111000Y-60872000D01*
X60111000Y-60872000D02*
X60111000Y-58872000D01*
X60111000Y-58872000D02*
X58611000Y-58872000D01*
X61111000Y-55872000D02*
X60111000Y-55872000D01*
X60111000Y-55872000D02*
X60111000Y-57872000D01*
X60111000Y-57872000D02*
X58611000Y-57872000D01*
X64111000Y-55872000D02*
X64111000Y-60872000D01*
X64111000Y-60872000D02*
X65111000Y-60872000D01*
X65111000Y-60872000D02*
X65111000Y-58872000D01*
X65111000Y-58872000D02*
X66611000Y-58872000D01*
X64111000Y-55872000D02*
X65111000Y-55872000D01*
X65111000Y-55872000D02*
X65111000Y-57872000D01*
X65111000Y-57872000D02*
X66611000Y-57872000D01*
X65111000Y-54872000D02*
X64111000Y-54872000D01*
X64111000Y-54872000D02*
X64111000Y-49872000D01*
X64111000Y-49872000D02*
X65111000Y-49872000D01*
X65111000Y-49872000D02*
X65111000Y-51872000D01*
X65111000Y-51872000D02*
X66611000Y-51872000D01*
X65111000Y-54872000D02*
X65111000Y-52872000D01*
X65111000Y-52872000D02*
X66611000Y-52872000D01*
X61111000Y-49872000D02*
X61111000Y-50872000D01*
X61111000Y-50872000D02*
X63111000Y-50872000D01*
X63111000Y-50872000D02*
X63111000Y-51872000D01*
X63111000Y-51872000D02*
X61111000Y-51872000D01*
X61111000Y-51872000D02*
X61111000Y-52872000D01*
X61111000Y-52872000D02*
X63111000Y-52872000D01*
X63111000Y-52872000D02*
X63111000Y-53872000D01*
X63111000Y-53872000D02*
X61111000Y-53872000D01*
X61111000Y-53872000D02*
X61111000Y-54872000D01*
X61111000Y-54872000D02*
X60111000Y-54872000D01*
X60111000Y-54872000D02*
X60111000Y-52872000D01*
X60111000Y-52872000D02*
X58611000Y-52872000D01*
X61111000Y-49872000D02*
X60111000Y-49872000D01*
X60111000Y-49872000D02*
X60111000Y-51872000D01*
X60111000Y-51872000D02*
X58611000Y-51872000D01*
X58111000Y-53372000D02*
X58111000Y-57372000D01*
X57111000Y-53372000D02*
X57111000Y-57372000D01*
X67111000Y-53372000D02*
X67111000Y-57372000D01*
X68111000Y-53372000D02*
X68111000Y-57372000D01*
X58111000Y-53372000D02*
G75*
G02X58611000Y-52872000I500000J0D01*
G01*
X57111000Y-53372000D02*
G75*
G02X58611000Y-51872000I1500000J0D01*
G01*
X58611000Y-57872000D02*
G75*
G02X58111000Y-57372000I0J500000D01*
G01*
X58611000Y-58872000D02*
G75*
G02X57111000Y-57372000I0J1500000D01*
G01*
X66611000Y-52872000D02*
G75*
G02X67111000Y-53372000I0J-500000D01*
G01*
X66611000Y-51872000D02*
G75*
G02X68111000Y-53372000I0J-1500000D01*
G01*
X67111000Y-57372000D02*
G75*
G02X66611000Y-57872000I-500000J0D01*
G01*
X68111000Y-57372000D02*
G75*
G02X66611000Y-58872000I-1500000J0D01*
G01*
M02*
