M48
;DRILL file {KiCad 0.201506192325+5795~23~ubuntu14.04.1-product} date Sun 30 Aug 2015 22:32:52 BST
;FORMAT={-:-/ absolute / metric / decimal}
FMAT,2
METRIC,TZ
T1C0.305
T2C1.000
T3C1.016
T4C1.300
T5C3.100
%
G90
G05
M71
T1
X54.907Y-45.106
X55.034Y-47.075
X55.593Y-80.628
X55.88Y-55.372
X56.659Y-49.17
X57.955Y-50.466
X57.98Y-46.3
X58.026Y-53.874
X60.571Y-82.457
X60.833Y-46.355
X61.104Y-48.98
X61.968Y-46.732
X62.933Y-52.04
X64.Y-49.272
X65.067Y-52.802
X65.143Y-54.072
X67.023Y-56.536
X69.723Y-42.293
X70.866Y-42.293
X72.733Y-52.921
X72.854Y-78.878
X74.159Y-73.819
X74.159Y-74.962
X75.041Y-56.795
X75.692Y-45.085
X76.136Y-56.818
X78.422Y-57.151
X79.875Y-50.059
X81.407Y-52.502
X83.821Y-71.787
X84.522Y-65.274
X85.142Y-71.787
X85.161Y-76.352
X85.161Y-77.368
X86.218Y-79.553
X86.218Y-80.65
X87.262Y-56.667
X87.518Y-59.172
X87.539Y-61.244
X87.546Y-53.488
T2
X55.264Y-77.044
X67.264Y-77.044
T3
X63.987Y-83.041
X63.987Y-85.581
X63.987Y-88.121
X71.917Y-62.586
X74.457Y-62.586
X76.997Y-62.586
X79.537Y-62.586
X82.077Y-62.586
X82.296Y-49.657
X84.617Y-62.586
X84.836Y-49.657
T4
X48.057Y-62.012
X48.057Y-67.092
X48.057Y-72.172
X48.057Y-77.252
X48.057Y-82.332
X48.057Y-87.412
X55.214Y-64.794
X61.214Y-78.994
X67.264Y-64.844
X68.928Y-86.978
X74.008Y-86.978
X79.088Y-86.978
X84.168Y-86.978
X92.011Y-42.545
X92.011Y-47.625
X92.011Y-52.705
X92.011Y-57.785
X92.011Y-62.865
X92.011Y-67.945
X92.011Y-73.025
X92.011Y-78.105
T5
X56.736Y-85.949
X83.342Y-44.065
X90.911Y-85.949
T0
M30
