G04 #@! TF.FileFunction,Copper,L2,Bot,Signal*
%FSLAX46Y46*%
G04 Gerber Fmt 4.6, Leading zero omitted, Abs format (unit mm)*
G04 Created by KiCad (PCBNEW 0.201506192325+5795~23~ubuntu14.04.1-product) date Sun 30 Aug 2015 22:32:50 BST*
%MOMM*%
G01*
G04 APERTURE LIST*
%ADD10C,0.100000*%
%ADD11R,3.000000X3.000000*%
%ADD12C,3.000000*%
%ADD13C,2.500000*%
%ADD14R,2.032000X2.032000*%
%ADD15O,2.032000X2.032000*%
%ADD16R,1.727200X2.032000*%
%ADD17O,1.727200X2.032000*%
%ADD18R,2.032000X1.727200*%
%ADD19O,2.032000X1.727200*%
%ADD20R,0.700000X0.600000*%
%ADD21C,0.609600*%
%ADD22C,0.254000*%
%ADD23C,0.800000*%
G04 APERTURE END LIST*
D10*
D11*
X92011500Y-78105000D03*
D12*
X92011500Y-73025000D03*
X92011500Y-67945000D03*
X92011500Y-62865000D03*
X92011500Y-57785000D03*
X92011500Y-52705000D03*
X92011500Y-47625000D03*
X92011500Y-42545000D03*
D13*
X67264000Y-77044000D03*
D12*
X67264000Y-64844000D03*
X55214000Y-64794000D03*
D13*
X55264000Y-77044000D03*
D12*
X61214000Y-78994000D03*
D14*
X82296000Y-49657000D03*
D15*
X84836000Y-49657000D03*
D11*
X48056800Y-62011560D03*
D12*
X48056800Y-67091560D03*
X48056800Y-72171560D03*
X48056800Y-77251560D03*
X48056800Y-82331560D03*
X48056800Y-87411560D03*
D16*
X71917180Y-62586480D03*
D17*
X74457180Y-62586480D03*
X76997180Y-62586480D03*
X79537180Y-62586480D03*
X82077180Y-62586480D03*
X84617180Y-62586480D03*
D18*
X63987300Y-83041100D03*
D19*
X63987300Y-85581100D03*
X63987300Y-88121100D03*
D11*
X68927600Y-86978100D03*
D12*
X74007600Y-86978100D03*
X79087600Y-86978100D03*
X84167600Y-86978100D03*
D20*
X51981100Y-86002900D03*
X51981100Y-87402900D03*
X51981100Y-75842900D03*
X51981100Y-77242900D03*
X51981100Y-65695600D03*
X51981100Y-67095600D03*
D21*
X60571000Y-82456900D03*
X55592600Y-80628100D03*
X86217760Y-80650080D03*
X86217760Y-79552800D03*
X74159110Y-73818750D03*
X85161120Y-76352400D03*
X69723000Y-42293000D03*
X70866000Y-42293000D03*
X85142070Y-71786750D03*
X83821270Y-71786750D03*
X85161120Y-77368400D03*
X74159110Y-74961750D03*
X72853550Y-78878430D03*
X84522310Y-65274190D03*
X61968000Y-46731800D03*
X57980200Y-46300000D03*
X62933200Y-52040400D03*
X56659400Y-49170200D03*
X57954800Y-50465600D03*
X61104400Y-48979700D03*
X72732900Y-52920900D03*
X87545800Y-53488200D03*
X79875000Y-50059200D03*
X54906800Y-45106200D03*
X55033800Y-47074700D03*
X67022600Y-56536200D03*
X75041380Y-56795280D03*
X76136120Y-56818140D03*
X58025920Y-53874280D03*
X55880000Y-55372000D03*
X78422120Y-57150880D03*
X60833000Y-46355000D03*
X75692000Y-45085000D03*
X87518240Y-59171840D03*
X65143000Y-54072400D03*
X65066800Y-52802400D03*
X87538560Y-61244480D03*
X87261700Y-56667400D03*
X64000000Y-49271800D03*
X81407000Y-52501800D03*
D22*
X48056800Y-72171560D02*
X51728140Y-75842900D01*
X51728140Y-75842900D02*
X51981100Y-75842900D01*
X51981100Y-86002900D02*
X52770000Y-86002900D01*
X53526300Y-85246600D02*
X53526300Y-80628100D01*
X52770000Y-86002900D02*
X53526300Y-85246600D01*
X48056800Y-62011560D02*
X52730400Y-62011560D01*
X52768500Y-62001400D02*
X52730400Y-62001400D01*
X52740560Y-62001400D02*
X52768500Y-62001400D01*
X52730400Y-62011560D02*
X52740560Y-62001400D01*
X51728140Y-75842900D02*
X51981100Y-75842900D01*
X48056800Y-82331560D02*
X51728140Y-86002900D01*
X51728140Y-86002900D02*
X51981100Y-86002900D01*
X51981100Y-75842900D02*
X52730400Y-75842900D01*
X52628800Y-75831700D02*
X52730400Y-75831700D01*
X52719200Y-75831700D02*
X52628800Y-75831700D01*
X52730400Y-75842900D02*
X52719200Y-75831700D01*
X51981100Y-65695600D02*
X52730400Y-65695600D01*
X52641500Y-65697100D02*
X52730400Y-65697100D01*
X52728900Y-65697100D02*
X52641500Y-65697100D01*
X52730400Y-65695600D02*
X52728900Y-65697100D01*
X55592600Y-80628100D02*
X53526300Y-80628100D01*
X74007600Y-86978100D02*
X71353300Y-84323800D01*
X62437900Y-84323800D02*
X71353300Y-84323800D01*
X60571000Y-82456900D02*
X62437900Y-84323800D01*
X53526300Y-80628100D02*
X52730400Y-79832200D01*
X52730400Y-79832200D02*
X52730400Y-75831700D01*
X52730400Y-75831700D02*
X52730400Y-72910700D01*
X52730400Y-72910700D02*
X52730400Y-65697100D01*
X52730400Y-65697100D02*
X52730400Y-62814200D01*
X52730400Y-62814200D02*
X52730400Y-62001400D01*
X52730400Y-62001400D02*
X52730400Y-59791600D01*
X92011500Y-78105000D02*
X88762840Y-78105000D01*
X88762840Y-78105000D02*
X86217760Y-80650080D01*
X84167600Y-86978100D02*
X86217760Y-84927940D01*
X86217760Y-84927940D02*
X86217760Y-80650080D01*
X86217760Y-80650080D02*
X86217760Y-79552800D01*
D23*
X84167600Y-86978100D02*
X80758040Y-83568540D01*
X77417160Y-83568540D02*
X74007600Y-86978100D01*
X80758040Y-83568540D02*
X77417160Y-83568540D01*
D22*
X71917180Y-62586480D02*
X71917180Y-71576820D01*
X71917180Y-71576820D02*
X74159110Y-73818750D01*
X52959000Y-59563000D02*
X52959000Y-59563000D01*
X52959000Y-59563000D02*
X52730400Y-59791600D01*
X52959000Y-59563000D02*
X52959000Y-43434000D01*
X52959000Y-43434000D02*
X54100000Y-42293000D01*
X54100000Y-42293000D02*
X69723000Y-42293000D01*
X74159110Y-73818750D02*
X81636870Y-73818750D01*
X81636870Y-73818750D02*
X85161120Y-77368400D01*
X69723000Y-42293000D02*
X69723000Y-42291000D01*
X70866000Y-42293000D02*
X70866000Y-42291000D01*
X85142070Y-71786750D02*
X83821270Y-71786750D01*
X74159110Y-74961750D02*
X74159110Y-73818750D01*
X91991180Y-73004680D02*
X86437470Y-73004680D01*
X92011500Y-73025000D02*
X91991180Y-73004680D01*
X72853550Y-78878430D02*
X85556090Y-78878430D01*
X86437470Y-77997050D02*
X86437470Y-73004680D01*
X86437470Y-73004680D02*
X86437470Y-67605520D01*
X86437470Y-67605520D02*
X86437470Y-66544190D01*
X86437470Y-66544190D02*
X85167470Y-65274190D01*
X84522310Y-65274190D02*
X85167470Y-65274190D01*
X85556090Y-78878430D02*
X86437470Y-77997050D01*
D23*
X67264000Y-64844000D02*
X64368300Y-67739700D01*
X64368300Y-67739700D02*
X64368300Y-82660100D01*
X64368300Y-82660100D02*
X63987300Y-83041100D01*
X55214000Y-64794000D02*
X58094500Y-67674500D01*
X61853700Y-88121100D02*
X63987300Y-88121100D01*
X60850400Y-87117800D02*
X61853700Y-88121100D01*
X60850400Y-84768300D02*
X60850400Y-87117800D01*
X58094500Y-82012400D02*
X60850400Y-84768300D01*
X58094500Y-67674500D02*
X58094500Y-82012400D01*
D22*
X82296000Y-49657000D02*
X80945600Y-48306600D01*
X63542800Y-48306600D02*
X61968000Y-46731800D01*
X80945600Y-48306600D02*
X63542800Y-48306600D01*
X48056800Y-87411560D02*
X48065460Y-87402900D01*
X48065460Y-87402900D02*
X51981100Y-87402900D01*
X57980200Y-47062000D02*
X57980200Y-46300000D01*
X62958600Y-52040400D02*
X57980200Y-47062000D01*
X62933200Y-52040400D02*
X62958600Y-52040400D01*
X48056800Y-67091560D02*
X48060840Y-67095600D01*
X48060840Y-67095600D02*
X51981100Y-67095600D01*
X57954800Y-50465600D02*
X56659400Y-49170200D01*
X61104400Y-48979700D02*
X64127000Y-52002300D01*
X64127000Y-52002300D02*
X65447800Y-52002300D01*
X65447800Y-52002300D02*
X66387600Y-52942100D01*
X66387600Y-52942100D02*
X72732900Y-52920900D01*
X89044400Y-51989600D02*
X89044400Y-51735600D01*
X87545800Y-53488200D02*
X89044400Y-51989600D01*
X80637000Y-51735600D02*
X89044400Y-51735600D01*
X79875000Y-50973600D02*
X80637000Y-51735600D01*
X79875000Y-50059200D02*
X79875000Y-50973600D01*
X89044400Y-50592100D02*
X92011500Y-47625000D01*
X89044400Y-51735600D02*
X89044400Y-50592100D01*
X82077180Y-62586480D02*
X82702020Y-61961640D01*
X82702020Y-61961640D02*
X82702020Y-57458220D01*
X82719800Y-57476000D02*
X82702020Y-57458220D01*
X82702020Y-57458220D02*
X80332200Y-55088400D01*
X80332200Y-55088400D02*
X64889000Y-55088400D01*
X64889000Y-55088400D02*
X54906800Y-45106200D01*
X79537180Y-62586480D02*
X82031460Y-60092200D01*
X82031460Y-60092200D02*
X82031460Y-57752860D01*
X64508000Y-55753000D02*
X80031600Y-55753000D01*
X80031600Y-55753000D02*
X82031460Y-57752860D01*
X82031460Y-57752860D02*
X82059400Y-57780800D01*
X64508000Y-55753000D02*
X55829700Y-47074700D01*
X55829700Y-47074700D02*
X55033800Y-47074700D01*
X64508000Y-55753000D02*
X64516000Y-55753000D01*
X67022600Y-56536200D02*
X74782300Y-56536200D01*
X74782300Y-56536200D02*
X75041380Y-56795280D01*
X76136120Y-56818140D02*
X75308080Y-57646180D01*
X75308080Y-57646180D02*
X61797820Y-57646180D01*
X61797820Y-57646180D02*
X58025920Y-53874280D01*
X58763780Y-58255780D02*
X55880000Y-55372000D01*
X77317220Y-58255780D02*
X58763780Y-58255780D01*
X78422120Y-57150880D02*
X77317220Y-58255780D01*
X75692000Y-45085000D02*
X62103000Y-45085000D01*
X62103000Y-45085000D02*
X60833000Y-46355000D01*
X48056800Y-77251560D02*
X48065460Y-77242900D01*
X48065460Y-77242900D02*
X51981100Y-77242900D01*
X80467200Y-54453400D02*
X85185640Y-59171840D01*
X85185640Y-59171840D02*
X87518240Y-59171840D01*
X86705440Y-62638940D02*
X92011500Y-67945000D01*
X87518240Y-59171840D02*
X86705440Y-59984640D01*
X86705440Y-59984640D02*
X86705440Y-62638940D01*
X65524000Y-54453400D02*
X80467200Y-54453400D01*
X80467200Y-54453400D02*
X80484600Y-54453400D01*
X65143000Y-54072400D02*
X65524000Y-54453400D01*
X80662400Y-53742200D02*
X85286860Y-58366660D01*
X66006600Y-53742200D02*
X80662400Y-53742200D01*
X65066800Y-52802400D02*
X66006600Y-53742200D01*
X88374220Y-60408820D02*
X87538560Y-61244480D01*
X88374220Y-58841640D02*
X88374220Y-60408820D01*
X87899240Y-58366660D02*
X88374220Y-58841640D01*
X85286860Y-58366660D02*
X87899240Y-58366660D01*
X89159080Y-62865000D02*
X92011500Y-62865000D01*
X87538560Y-61244480D02*
X89159080Y-62865000D01*
X87236300Y-56692800D02*
X87236300Y-57785000D01*
X87261700Y-56667400D02*
X87236300Y-56692800D01*
X85594200Y-57785000D02*
X87236300Y-57785000D01*
X87236300Y-57785000D02*
X92011500Y-57785000D01*
X77081000Y-49271800D02*
X85594200Y-57785000D01*
X64000000Y-49271800D02*
X77081000Y-49271800D01*
X90322400Y-54394100D02*
X92011500Y-52705000D01*
X87007700Y-54394100D02*
X90322400Y-54394100D01*
X85115400Y-52501800D02*
X87007700Y-54394100D01*
X81407000Y-52501800D02*
X85115400Y-52501800D01*
G36*
X90803700Y-40733980D02*
X90803700Y-40733980D01*
X90202591Y-41334041D01*
X89876872Y-42118459D01*
X89876130Y-42967815D01*
X90200480Y-43752800D01*
X90800541Y-44353909D01*
X91584959Y-44679628D01*
X92434315Y-44680370D01*
X93219300Y-44356020D01*
X93820409Y-43755959D01*
X94146128Y-42971541D01*
X94146870Y-42122185D01*
X93822520Y-41337200D01*
X93230654Y-40744300D01*
X93498094Y-40797497D01*
X93920357Y-41079643D01*
X94202503Y-41501906D01*
X94315000Y-42067466D01*
X94315000Y-87932534D01*
X94202503Y-88498094D01*
X93920357Y-88920357D01*
X93498094Y-89202503D01*
X92932533Y-89315000D01*
X65030826Y-89315000D01*
X65231715Y-89180770D01*
X65556571Y-88694589D01*
X65670645Y-88121100D01*
X65556571Y-87547611D01*
X65231715Y-87061430D01*
X64916934Y-86851100D01*
X65231715Y-86640770D01*
X65556571Y-86154589D01*
X65670645Y-85581100D01*
X65556571Y-85007611D01*
X65438337Y-84830660D01*
X67427600Y-84830660D01*
X67185477Y-84877637D01*
X66972673Y-85017427D01*
X66830223Y-85228460D01*
X66780160Y-85478100D01*
X66780160Y-88478100D01*
X66827137Y-88720223D01*
X66966927Y-88933027D01*
X67177960Y-89075477D01*
X67427600Y-89125540D01*
X70427600Y-89125540D01*
X70669723Y-89078563D01*
X70882527Y-88938773D01*
X71024977Y-88727740D01*
X71075040Y-88478100D01*
X71075040Y-85643735D01*
X72493630Y-85643735D01*
X72174861Y-85803518D01*
X71864877Y-86594287D01*
X71881103Y-87443487D01*
X72174861Y-88152682D01*
X72493630Y-88312465D01*
X73648390Y-87157705D01*
X74007600Y-87157705D01*
X72673235Y-88492070D01*
X72833018Y-88810839D01*
X73623787Y-89120823D01*
X74472987Y-89104597D01*
X75182182Y-88810839D01*
X75341965Y-88492070D01*
X74007600Y-87157705D01*
X73648390Y-87157705D01*
X73827995Y-86978100D01*
X72493630Y-85643735D01*
X71075040Y-85643735D01*
X71075040Y-85478100D01*
X71028063Y-85235977D01*
X70888273Y-85023173D01*
X70677240Y-84880723D01*
X70451122Y-84835377D01*
X74391413Y-84835377D01*
X73542213Y-84851603D01*
X72833018Y-85145361D01*
X72673235Y-85464130D01*
X74007600Y-86798495D01*
X75162360Y-85643735D01*
X75521570Y-85643735D01*
X74187205Y-86978100D01*
X75521570Y-88312465D01*
X75840339Y-88152682D01*
X76150323Y-87361913D01*
X76134097Y-86512713D01*
X75840339Y-85803518D01*
X75521570Y-85643735D01*
X75162360Y-85643735D01*
X75341965Y-85464130D01*
X75182182Y-85145361D01*
X74410171Y-84842730D01*
X78664785Y-84842730D01*
X77879800Y-85167080D01*
X77278691Y-85767141D01*
X76952972Y-86551559D01*
X76952230Y-87400915D01*
X77276580Y-88185900D01*
X77876641Y-88787009D01*
X78661059Y-89112728D01*
X79510415Y-89113470D01*
X80295400Y-88789120D01*
X80896509Y-88189059D01*
X81222228Y-87404641D01*
X81222970Y-86555285D01*
X80898620Y-85770300D01*
X80772276Y-85643735D01*
X82653630Y-85643735D01*
X82334861Y-85803518D01*
X82024877Y-86594287D01*
X82041103Y-87443487D01*
X82334861Y-88152682D01*
X82653630Y-88312465D01*
X83808390Y-87157705D01*
X84167600Y-87157705D01*
X82833235Y-88492070D01*
X82993018Y-88810839D01*
X83783787Y-89120823D01*
X84632987Y-89104597D01*
X85342182Y-88810839D01*
X85501965Y-88492070D01*
X84167600Y-87157705D01*
X83808390Y-87157705D01*
X83987995Y-86978100D01*
X82653630Y-85643735D01*
X80772276Y-85643735D01*
X80298559Y-85169191D01*
X79514141Y-84843472D01*
X78664785Y-84842730D01*
X74410171Y-84842730D01*
X74391413Y-84835377D01*
X84551413Y-84835377D01*
X83702213Y-84851603D01*
X82993018Y-85145361D01*
X82833235Y-85464130D01*
X84167600Y-86798495D01*
X85322360Y-85643735D01*
X85681570Y-85643735D01*
X84347205Y-86978100D01*
X85681570Y-88312465D01*
X86000339Y-88152682D01*
X86310323Y-87361913D01*
X86294097Y-86512713D01*
X86000339Y-85803518D01*
X85681570Y-85643735D01*
X85322360Y-85643735D01*
X85501965Y-85464130D01*
X85342182Y-85145361D01*
X84551413Y-84835377D01*
X74391413Y-84835377D01*
X74391413Y-84835377D01*
X70451122Y-84835377D01*
X70427600Y-84830660D01*
X67427600Y-84830660D01*
X65438337Y-84830660D01*
X65231715Y-84521430D01*
X65215933Y-84510885D01*
X65245423Y-84505163D01*
X65458227Y-84365373D01*
X65600677Y-84154340D01*
X65650740Y-83904700D01*
X65650740Y-83764021D01*
X90478583Y-83764021D01*
X89675214Y-84095967D01*
X89060027Y-84710081D01*
X88726680Y-85512870D01*
X88725921Y-86382117D01*
X89057867Y-87185486D01*
X89671981Y-87800673D01*
X90474770Y-88134020D01*
X91344017Y-88134779D01*
X92147386Y-87802833D01*
X92762573Y-87188719D01*
X93095920Y-86385930D01*
X93096679Y-85516683D01*
X92764733Y-84713314D01*
X92150619Y-84098127D01*
X91347830Y-83764780D01*
X90478583Y-83764021D01*
X65650740Y-83764021D01*
X65650740Y-82177500D01*
X65603763Y-81935377D01*
X65463973Y-81722573D01*
X65403300Y-81681618D01*
X65403300Y-77476905D01*
X65665043Y-78110372D01*
X66194839Y-78641093D01*
X66887405Y-78928672D01*
X67637305Y-78929326D01*
X68330372Y-78642957D01*
X68861093Y-78113161D01*
X69148672Y-77420595D01*
X69149326Y-76670695D01*
X68862957Y-75977628D01*
X68333161Y-75446907D01*
X67640595Y-75159328D01*
X66890695Y-75158674D01*
X66197628Y-75445043D01*
X65666907Y-75974839D01*
X65403300Y-76609674D01*
X65403300Y-68168412D01*
X66664784Y-66906927D01*
X66837459Y-66978628D01*
X67686815Y-66979370D01*
X68471800Y-66655020D01*
X69072909Y-66054959D01*
X69398628Y-65270541D01*
X69399370Y-64421185D01*
X69363440Y-64334227D01*
X84336192Y-64334227D01*
X83990651Y-64477002D01*
X83726051Y-64741141D01*
X83582673Y-65086432D01*
X83582347Y-65460308D01*
X83725122Y-65805849D01*
X83989261Y-66070449D01*
X84334552Y-66213827D01*
X84708428Y-66214153D01*
X84935838Y-66120189D01*
X85675470Y-66859821D01*
X85675470Y-77681419D01*
X85240460Y-78116430D01*
X73420798Y-78116430D01*
X73386599Y-78082171D01*
X73041308Y-77938793D01*
X72667432Y-77938467D01*
X72321891Y-78081242D01*
X72057291Y-78345381D01*
X71913913Y-78690672D01*
X71913587Y-79064548D01*
X72056362Y-79410089D01*
X72320501Y-79674689D01*
X72665792Y-79818067D01*
X73039668Y-79818393D01*
X73385209Y-79675618D01*
X73420458Y-79640430D01*
X85556090Y-79640430D01*
X85847695Y-79582426D01*
X86094905Y-79417245D01*
X86976286Y-78535865D01*
X87141467Y-78288654D01*
X87152736Y-78232000D01*
X90035250Y-78232000D01*
X89876500Y-78390750D01*
X89876500Y-79731309D01*
X89973173Y-79964698D01*
X90151801Y-80143327D01*
X90385190Y-80240000D01*
X91725750Y-80240000D01*
X91884500Y-80081250D01*
X91884500Y-78232000D01*
X92138500Y-78232000D01*
X92138500Y-80081250D01*
X92297250Y-80240000D01*
X93637810Y-80240000D01*
X93871199Y-80143327D01*
X94049827Y-79964698D01*
X94146500Y-79731309D01*
X94146500Y-78390750D01*
X93987750Y-78232000D01*
X92138500Y-78232000D01*
X91884500Y-78232000D01*
X91884500Y-78232000D01*
X90035250Y-78232000D01*
X87152736Y-78232000D01*
X87199470Y-77997050D01*
X87199470Y-75970000D01*
X90385190Y-75970000D01*
X90151801Y-76066673D01*
X89973173Y-76245302D01*
X89876500Y-76478691D01*
X89876500Y-77819250D01*
X90035250Y-77978000D01*
X91884500Y-77978000D01*
X91884500Y-76128750D01*
X91725750Y-75970000D01*
X92297250Y-75970000D01*
X92138500Y-76128750D01*
X92138500Y-77978000D01*
X93987750Y-77978000D01*
X94146500Y-77819250D01*
X94146500Y-76478691D01*
X94049827Y-76245302D01*
X93871199Y-76066673D01*
X93637810Y-75970000D01*
X92297250Y-75970000D01*
X91725750Y-75970000D01*
X91725750Y-75970000D01*
X90385190Y-75970000D01*
X87199470Y-75970000D01*
X87199470Y-73766680D01*
X90007883Y-73766680D01*
X90200480Y-74232800D01*
X90800541Y-74833909D01*
X91584959Y-75159628D01*
X92434315Y-75160370D01*
X93219300Y-74836020D01*
X93820409Y-74235959D01*
X94146128Y-73451541D01*
X94146870Y-72602185D01*
X93822520Y-71817200D01*
X93222459Y-71216091D01*
X92438041Y-70890372D01*
X91588685Y-70889630D01*
X90803700Y-71213980D01*
X90202591Y-71814041D01*
X90024604Y-72242680D01*
X87199470Y-72242680D01*
X87199470Y-66544190D01*
X87141466Y-66252585D01*
X86976285Y-66005374D01*
X85706285Y-64735375D01*
X85614295Y-64673909D01*
X85459075Y-64570194D01*
X85167470Y-64512190D01*
X85089558Y-64512190D01*
X85055359Y-64477931D01*
X84710068Y-64334553D01*
X84336192Y-64334227D01*
X69363440Y-64334227D01*
X69075020Y-63636200D01*
X68474959Y-63035091D01*
X67700435Y-62713480D01*
X70577330Y-62713480D01*
X70418580Y-62872230D01*
X70418580Y-63728789D01*
X70515253Y-63962178D01*
X70693881Y-64140807D01*
X70927270Y-64237480D01*
X71631430Y-64237480D01*
X71790180Y-64078730D01*
X71790180Y-62713480D01*
X70577330Y-62713480D01*
X67700435Y-62713480D01*
X67690541Y-62709372D01*
X66841185Y-62708630D01*
X66056200Y-63032980D01*
X65455091Y-63633041D01*
X65129372Y-64417459D01*
X65128630Y-65266815D01*
X65201387Y-65442901D01*
X63636444Y-67007844D01*
X63412085Y-67343623D01*
X63333299Y-67739700D01*
X63333300Y-67739705D01*
X63333300Y-78532293D01*
X63025020Y-77786200D01*
X62424959Y-77185091D01*
X61640541Y-76859372D01*
X60791185Y-76858630D01*
X60006200Y-77182980D01*
X59405091Y-77783041D01*
X59129500Y-78446737D01*
X59129500Y-67674505D01*
X59129501Y-67674500D01*
X59050715Y-67278423D01*
X58928557Y-67095600D01*
X58826356Y-66942644D01*
X58826353Y-66942642D01*
X57276927Y-65393216D01*
X57348628Y-65220541D01*
X57349370Y-64371185D01*
X57025020Y-63586200D01*
X56424959Y-62985091D01*
X55640541Y-62659372D01*
X54791185Y-62658630D01*
X54006200Y-62982980D01*
X53405091Y-63583041D01*
X53079372Y-64367459D01*
X53078630Y-65216815D01*
X53402980Y-66001800D01*
X54003041Y-66602909D01*
X54787459Y-66928628D01*
X55636815Y-66929370D01*
X55812901Y-66856613D01*
X57059500Y-68103211D01*
X57059500Y-76453299D01*
X56862957Y-75977628D01*
X56333161Y-75446907D01*
X55640595Y-75159328D01*
X54890695Y-75158674D01*
X54197628Y-75445043D01*
X53666907Y-75974839D01*
X53379328Y-76667405D01*
X53378674Y-77417305D01*
X53665043Y-78110372D01*
X54194839Y-78641093D01*
X54887405Y-78928672D01*
X55637305Y-78929326D01*
X56330372Y-78642957D01*
X56861093Y-78113161D01*
X57059500Y-77635345D01*
X57059500Y-82012395D01*
X57059499Y-82012400D01*
X57138285Y-82408477D01*
X57362644Y-82744256D01*
X59815400Y-85197011D01*
X59815400Y-87117795D01*
X59815399Y-87117800D01*
X59894185Y-87513877D01*
X60118544Y-87849656D01*
X61121842Y-88852953D01*
X61121844Y-88852956D01*
X61323129Y-88987449D01*
X61457622Y-89077315D01*
X61853700Y-89156100D01*
X62726401Y-89156100D01*
X62742885Y-89180770D01*
X62943774Y-89315000D01*
X49040927Y-89315000D01*
X49264600Y-89222580D01*
X49865709Y-88622519D01*
X50055729Y-88164900D01*
X51180905Y-88164900D01*
X51381460Y-88300277D01*
X51631100Y-88350340D01*
X52331100Y-88350340D01*
X52573223Y-88303363D01*
X52786027Y-88163573D01*
X52928477Y-87952540D01*
X52978540Y-87702900D01*
X52978540Y-87102900D01*
X52931563Y-86860777D01*
X52828358Y-86703667D01*
X52869427Y-86662598D01*
X52966100Y-86429209D01*
X52966100Y-86288650D01*
X52807350Y-86129900D01*
X52108100Y-86129900D01*
X52108100Y-86149900D01*
X51854100Y-86149900D01*
X51854100Y-86129900D01*
X51154850Y-86129900D01*
X50996100Y-86288650D01*
X50996100Y-86429209D01*
X51083785Y-86640900D01*
X50048443Y-86640900D01*
X49867820Y-86203760D01*
X49267759Y-85602651D01*
X48483341Y-85276932D01*
X47633985Y-85276190D01*
X46849000Y-85600540D01*
X46247891Y-86200601D01*
X45922172Y-86985019D01*
X45921430Y-87834375D01*
X46245780Y-88619360D01*
X46845841Y-89220469D01*
X47073497Y-89315000D01*
X47067466Y-89315000D01*
X46501906Y-89202503D01*
X46079643Y-88920357D01*
X45797497Y-88498094D01*
X45685000Y-87932533D01*
X45685000Y-85067900D01*
X51504790Y-85067900D01*
X51271401Y-85164573D01*
X51092773Y-85343202D01*
X50996100Y-85576591D01*
X50996100Y-85717150D01*
X51154850Y-85875900D01*
X51854100Y-85875900D01*
X51854100Y-85226650D01*
X51695350Y-85067900D01*
X52266850Y-85067900D01*
X52108100Y-85226650D01*
X52108100Y-85875900D01*
X52807350Y-85875900D01*
X52966100Y-85717150D01*
X52966100Y-85576591D01*
X52869427Y-85343202D01*
X52690799Y-85164573D01*
X52457410Y-85067900D01*
X52266850Y-85067900D01*
X51695350Y-85067900D01*
X51695350Y-85067900D01*
X51504790Y-85067900D01*
X45685000Y-85067900D01*
X45685000Y-80997195D01*
X46542830Y-80997195D01*
X46224061Y-81156978D01*
X45914077Y-81947747D01*
X45930303Y-82796947D01*
X46224061Y-83506142D01*
X46542830Y-83665925D01*
X47697590Y-82511165D01*
X48056800Y-82511165D01*
X46722435Y-83845530D01*
X46882218Y-84164299D01*
X47672987Y-84474283D01*
X48522187Y-84458057D01*
X49231382Y-84164299D01*
X49391165Y-83845530D01*
X49309656Y-83764021D01*
X56302883Y-83764021D01*
X55499514Y-84095967D01*
X54884327Y-84710081D01*
X54550980Y-85512870D01*
X54550221Y-86382117D01*
X54882167Y-87185486D01*
X55496281Y-87800673D01*
X56299070Y-88134020D01*
X57168317Y-88134779D01*
X57971686Y-87802833D01*
X58586873Y-87188719D01*
X58920220Y-86385930D01*
X58920979Y-85516683D01*
X58589033Y-84713314D01*
X57974919Y-84098127D01*
X57172130Y-83764780D01*
X56302883Y-83764021D01*
X49309656Y-83764021D01*
X48056800Y-82511165D01*
X47697590Y-82511165D01*
X47877195Y-82331560D01*
X46542830Y-80997195D01*
X45685000Y-80997195D01*
X45685000Y-80188837D01*
X48440613Y-80188837D01*
X47591413Y-80205063D01*
X46882218Y-80498821D01*
X46722435Y-80817590D01*
X48056800Y-82151955D01*
X49211560Y-80997195D01*
X49570770Y-80997195D01*
X48236405Y-82331560D01*
X49570770Y-83665925D01*
X49889539Y-83506142D01*
X50199523Y-82715373D01*
X50183297Y-81866173D01*
X49889539Y-81156978D01*
X49570770Y-80997195D01*
X49211560Y-80997195D01*
X49391165Y-80817590D01*
X49231382Y-80498821D01*
X48440613Y-80188837D01*
X45685000Y-80188837D01*
X45685000Y-75116190D01*
X47633985Y-75116190D01*
X46849000Y-75440540D01*
X46247891Y-76040601D01*
X45922172Y-76825019D01*
X45921430Y-77674375D01*
X46245780Y-78459360D01*
X46845841Y-79060469D01*
X47630259Y-79386188D01*
X48479615Y-79386930D01*
X49264600Y-79062580D01*
X49865709Y-78462519D01*
X50055729Y-78004900D01*
X51180905Y-78004900D01*
X51381460Y-78140277D01*
X51631100Y-78190340D01*
X52331100Y-78190340D01*
X52573223Y-78143363D01*
X52786027Y-78003573D01*
X52928477Y-77792540D01*
X52978540Y-77542900D01*
X52978540Y-76942900D01*
X52931563Y-76700777D01*
X52828358Y-76543667D01*
X52869427Y-76502598D01*
X52966100Y-76269209D01*
X52966100Y-76128650D01*
X52807350Y-75969900D01*
X52108100Y-75969900D01*
X52108100Y-75989900D01*
X51854100Y-75989900D01*
X51854100Y-75969900D01*
X51154850Y-75969900D01*
X50996100Y-76128650D01*
X50996100Y-76269209D01*
X51083785Y-76480900D01*
X50048443Y-76480900D01*
X49867820Y-76043760D01*
X49267759Y-75442651D01*
X48483341Y-75116932D01*
X47633985Y-75116190D01*
X45685000Y-75116190D01*
X45685000Y-74907900D01*
X51504790Y-74907900D01*
X51271401Y-75004573D01*
X51092773Y-75183202D01*
X50996100Y-75416591D01*
X50996100Y-75557150D01*
X51154850Y-75715900D01*
X51854100Y-75715900D01*
X51854100Y-75066650D01*
X51695350Y-74907900D01*
X52266850Y-74907900D01*
X52108100Y-75066650D01*
X52108100Y-75715900D01*
X52807350Y-75715900D01*
X52966100Y-75557150D01*
X52966100Y-75416591D01*
X52869427Y-75183202D01*
X52690799Y-75004573D01*
X52457410Y-74907900D01*
X52266850Y-74907900D01*
X51695350Y-74907900D01*
X51695350Y-74907900D01*
X51504790Y-74907900D01*
X45685000Y-74907900D01*
X45685000Y-70837195D01*
X46542830Y-70837195D01*
X46224061Y-70996978D01*
X45914077Y-71787747D01*
X45930303Y-72636947D01*
X46224061Y-73346142D01*
X46542830Y-73505925D01*
X47697590Y-72351165D01*
X48056800Y-72351165D01*
X46722435Y-73685530D01*
X46882218Y-74004299D01*
X47672987Y-74314283D01*
X48522187Y-74298057D01*
X49231382Y-74004299D01*
X49391165Y-73685530D01*
X48056800Y-72351165D01*
X47697590Y-72351165D01*
X47877195Y-72171560D01*
X46542830Y-70837195D01*
X45685000Y-70837195D01*
X45685000Y-70028837D01*
X48440613Y-70028837D01*
X47591413Y-70045063D01*
X46882218Y-70338821D01*
X46722435Y-70657590D01*
X48056800Y-71991955D01*
X49211560Y-70837195D01*
X49570770Y-70837195D01*
X48236405Y-72171560D01*
X49570770Y-73505925D01*
X49889539Y-73346142D01*
X50199523Y-72555373D01*
X50183297Y-71706173D01*
X49889539Y-70996978D01*
X49570770Y-70837195D01*
X49211560Y-70837195D01*
X49391165Y-70657590D01*
X49231382Y-70338821D01*
X48440613Y-70028837D01*
X45685000Y-70028837D01*
X45685000Y-64956190D01*
X47633985Y-64956190D01*
X46849000Y-65280540D01*
X46247891Y-65880601D01*
X45922172Y-66665019D01*
X45921430Y-67514375D01*
X46245780Y-68299360D01*
X46845841Y-68900469D01*
X47630259Y-69226188D01*
X48479615Y-69226930D01*
X49264600Y-68902580D01*
X49865709Y-68302519D01*
X50050456Y-67857600D01*
X51180905Y-67857600D01*
X51381460Y-67992977D01*
X51631100Y-68043040D01*
X52331100Y-68043040D01*
X52573223Y-67996063D01*
X52786027Y-67856273D01*
X52928477Y-67645240D01*
X52978540Y-67395600D01*
X52978540Y-66795600D01*
X52931563Y-66553477D01*
X52828358Y-66396367D01*
X52869427Y-66355298D01*
X52966100Y-66121909D01*
X52966100Y-65981350D01*
X52807350Y-65822600D01*
X52108100Y-65822600D01*
X52108100Y-65842600D01*
X51854100Y-65842600D01*
X51854100Y-65822600D01*
X51154850Y-65822600D01*
X50996100Y-65981350D01*
X50996100Y-66121909D01*
X51083785Y-66333600D01*
X50053691Y-66333600D01*
X49867820Y-65883760D01*
X49267759Y-65282651D01*
X48483341Y-64956932D01*
X47633985Y-64956190D01*
X45685000Y-64956190D01*
X45685000Y-64760600D01*
X51504790Y-64760600D01*
X51271401Y-64857273D01*
X51092773Y-65035902D01*
X50996100Y-65269291D01*
X50996100Y-65409850D01*
X51154850Y-65568600D01*
X51854100Y-65568600D01*
X51854100Y-64919350D01*
X51695350Y-64760600D01*
X52266850Y-64760600D01*
X52108100Y-64919350D01*
X52108100Y-65568600D01*
X52807350Y-65568600D01*
X52966100Y-65409850D01*
X52966100Y-65269291D01*
X52869427Y-65035902D01*
X52690799Y-64857273D01*
X52457410Y-64760600D01*
X52266850Y-64760600D01*
X51695350Y-64760600D01*
X51695350Y-64760600D01*
X51504790Y-64760600D01*
X45685000Y-64760600D01*
X45685000Y-62138560D01*
X46080550Y-62138560D01*
X45921800Y-62297310D01*
X45921800Y-63637869D01*
X46018473Y-63871258D01*
X46197101Y-64049887D01*
X46430490Y-64146560D01*
X47771050Y-64146560D01*
X47929800Y-63987810D01*
X47929800Y-62138560D01*
X48183800Y-62138560D01*
X48183800Y-63987810D01*
X48342550Y-64146560D01*
X49683110Y-64146560D01*
X49916499Y-64049887D01*
X50095127Y-63871258D01*
X50191800Y-63637869D01*
X50191800Y-62297310D01*
X50033050Y-62138560D01*
X48183800Y-62138560D01*
X47929800Y-62138560D01*
X47929800Y-62138560D01*
X46080550Y-62138560D01*
X45685000Y-62138560D01*
X45685000Y-59876560D01*
X46430490Y-59876560D01*
X46197101Y-59973233D01*
X46018473Y-60151862D01*
X45921800Y-60385251D01*
X45921800Y-61725810D01*
X46080550Y-61884560D01*
X47929800Y-61884560D01*
X47929800Y-60035310D01*
X47771050Y-59876560D01*
X48342550Y-59876560D01*
X48183800Y-60035310D01*
X48183800Y-61884560D01*
X50033050Y-61884560D01*
X50191800Y-61725810D01*
X50191800Y-60935480D01*
X70927270Y-60935480D01*
X70693881Y-61032153D01*
X70515253Y-61210782D01*
X70418580Y-61444171D01*
X70418580Y-62300730D01*
X70577330Y-62459480D01*
X71790180Y-62459480D01*
X71790180Y-61094230D01*
X71631430Y-60935480D01*
X70927270Y-60935480D01*
X50191800Y-60935480D01*
X50191800Y-60385251D01*
X50095127Y-60151862D01*
X49916499Y-59973233D01*
X49683110Y-59876560D01*
X48342550Y-59876560D01*
X47771050Y-59876560D01*
X47771050Y-59876560D01*
X46430490Y-59876560D01*
X45685000Y-59876560D01*
X45685000Y-59461400D01*
X52679600Y-59461400D01*
X52728201Y-59451733D01*
X52769403Y-59424203D01*
X52796933Y-59383001D01*
X52806600Y-59334400D01*
X52806600Y-44145037D01*
X75505882Y-44145037D01*
X75160341Y-44287812D01*
X75125092Y-44323000D01*
X62103000Y-44323000D01*
X61811395Y-44381004D01*
X61564184Y-44546185D01*
X60695290Y-45415079D01*
X60646882Y-45415037D01*
X60301341Y-45557812D01*
X60036741Y-45821951D01*
X59893363Y-46167242D01*
X59893037Y-46541118D01*
X60035812Y-46886659D01*
X60299951Y-47151259D01*
X60645242Y-47294637D01*
X61019118Y-47294963D01*
X61159809Y-47236830D01*
X61170812Y-47263459D01*
X61434951Y-47528059D01*
X61780242Y-47671437D01*
X61830050Y-47671480D01*
X63003985Y-48845416D01*
X63125684Y-48926733D01*
X63060363Y-49084042D01*
X63060037Y-49457918D01*
X63202812Y-49803459D01*
X63466951Y-50068059D01*
X63812242Y-50211437D01*
X64186118Y-50211763D01*
X64531659Y-50068988D01*
X64566908Y-50033800D01*
X76765370Y-50033800D01*
X79711770Y-52980200D01*
X73672649Y-52980200D01*
X73672863Y-52734782D01*
X73530088Y-52389241D01*
X73265949Y-52124641D01*
X72920658Y-51981263D01*
X72546782Y-51980937D01*
X72201241Y-52123712D01*
X72164092Y-52160796D01*
X66702174Y-52179044D01*
X65986615Y-51463485D01*
X65899441Y-51405237D01*
X65739405Y-51298304D01*
X65447800Y-51240300D01*
X64442630Y-51240300D01*
X62044321Y-48841991D01*
X62044363Y-48793582D01*
X61901588Y-48448041D01*
X61637449Y-48183441D01*
X61292158Y-48040063D01*
X60918282Y-48039737D01*
X60572741Y-48182512D01*
X60375370Y-48379539D01*
X58791839Y-46796009D01*
X58919837Y-46487758D01*
X58920163Y-46113882D01*
X58777388Y-45768341D01*
X58513249Y-45503741D01*
X58167958Y-45360363D01*
X57794082Y-45360037D01*
X57448541Y-45502812D01*
X57183941Y-45766951D01*
X57040563Y-46112242D01*
X57040519Y-46162289D01*
X55846721Y-44968491D01*
X55846763Y-44920082D01*
X55703988Y-44574541D01*
X55439849Y-44309941D01*
X55094558Y-44166563D01*
X54720682Y-44166237D01*
X54375141Y-44309012D01*
X54110541Y-44573151D01*
X53967163Y-44918442D01*
X53966837Y-45292318D01*
X54109612Y-45637859D01*
X54373751Y-45902459D01*
X54719042Y-46045837D01*
X54768850Y-46045880D01*
X54857716Y-46134746D01*
X54847682Y-46134737D01*
X54502141Y-46277512D01*
X54237541Y-46541651D01*
X54094163Y-46886942D01*
X54093837Y-47260818D01*
X54236612Y-47606359D01*
X54500751Y-47870959D01*
X54846042Y-48014337D01*
X55219918Y-48014663D01*
X55553995Y-47876625D01*
X56089028Y-48411658D01*
X55863141Y-48637151D01*
X55719763Y-48982442D01*
X55719437Y-49356318D01*
X55862212Y-49701859D01*
X56126351Y-49966459D01*
X56471642Y-50109837D01*
X56521450Y-50109880D01*
X57014879Y-50603310D01*
X57014837Y-50651718D01*
X57157612Y-50997259D01*
X57421751Y-51261859D01*
X57767042Y-51405237D01*
X58140918Y-51405563D01*
X58486459Y-51262788D01*
X58713506Y-51036136D01*
X63969185Y-56291816D01*
X64216396Y-56456997D01*
X64508000Y-56515000D01*
X66082818Y-56515000D01*
X66082637Y-56722318D01*
X66149517Y-56884180D01*
X62113450Y-56884180D01*
X58965841Y-53736571D01*
X58965883Y-53688162D01*
X58823108Y-53342621D01*
X58558969Y-53078021D01*
X58213678Y-52934643D01*
X57839802Y-52934317D01*
X57494261Y-53077092D01*
X57229661Y-53341231D01*
X57086283Y-53686522D01*
X57085957Y-54060398D01*
X57228732Y-54405939D01*
X57492871Y-54670539D01*
X57838162Y-54813917D01*
X57887970Y-54813960D01*
X60567790Y-57493780D01*
X59079411Y-57493780D01*
X56819921Y-55234291D01*
X56819963Y-55185882D01*
X56677188Y-54840341D01*
X56413049Y-54575741D01*
X56067758Y-54432363D01*
X55693882Y-54432037D01*
X55348341Y-54574812D01*
X55083741Y-54838951D01*
X54940363Y-55184242D01*
X54940037Y-55558118D01*
X55082812Y-55903659D01*
X55346951Y-56168259D01*
X55692242Y-56311637D01*
X55742050Y-56311680D01*
X58224965Y-58794596D01*
X58353134Y-58880235D01*
X58472175Y-58959776D01*
X58763780Y-59017780D01*
X77317220Y-59017780D01*
X77608825Y-58959776D01*
X77856035Y-58794595D01*
X78559830Y-58090801D01*
X78608238Y-58090843D01*
X78953779Y-57948068D01*
X79218379Y-57683929D01*
X79361757Y-57338638D01*
X79362083Y-56964762D01*
X79219308Y-56619221D01*
X79115269Y-56515000D01*
X79715970Y-56515000D01*
X81269460Y-58068490D01*
X81269460Y-59776569D01*
X80042400Y-61003629D01*
X79537180Y-60903135D01*
X78963691Y-61017209D01*
X78477510Y-61342065D01*
X78267180Y-61656846D01*
X78056850Y-61342065D01*
X77570669Y-61017209D01*
X76997180Y-60903135D01*
X76423691Y-61017209D01*
X75937510Y-61342065D01*
X75727180Y-61656846D01*
X75516850Y-61342065D01*
X75030669Y-61017209D01*
X74457180Y-60903135D01*
X73883691Y-61017209D01*
X73397510Y-61342065D01*
X73382680Y-61364260D01*
X73319107Y-61210782D01*
X73140479Y-61032153D01*
X72907090Y-60935480D01*
X72202930Y-60935480D01*
X72044180Y-61094230D01*
X72044180Y-62459480D01*
X72064180Y-62459480D01*
X72064180Y-62713480D01*
X72044180Y-62713480D01*
X72044180Y-64078730D01*
X72202930Y-64237480D01*
X72907090Y-64237480D01*
X73140479Y-64140807D01*
X73319107Y-63962178D01*
X73382680Y-63808700D01*
X73397510Y-63830895D01*
X73883691Y-64155751D01*
X74457180Y-64269825D01*
X75030669Y-64155751D01*
X75516850Y-63830895D01*
X75727180Y-63516114D01*
X75937510Y-63830895D01*
X76423691Y-64155751D01*
X76997180Y-64269825D01*
X77570669Y-64155751D01*
X78056850Y-63830895D01*
X78267180Y-63516114D01*
X78477510Y-63830895D01*
X78963691Y-64155751D01*
X79537180Y-64269825D01*
X80110669Y-64155751D01*
X80596850Y-63830895D01*
X80807180Y-63516114D01*
X81017510Y-63830895D01*
X81503691Y-64155751D01*
X82077180Y-64269825D01*
X82650669Y-64155751D01*
X83136850Y-63830895D01*
X83347180Y-63516114D01*
X83557510Y-63830895D01*
X84043691Y-64155751D01*
X84617180Y-64269825D01*
X85190669Y-64155751D01*
X85676850Y-63830895D01*
X86001706Y-63344714D01*
X86065130Y-63025858D01*
X86071300Y-63035091D01*
X86166625Y-63177755D01*
X90061851Y-67072981D01*
X89876872Y-67518459D01*
X89876130Y-68367815D01*
X90200480Y-69152800D01*
X90800541Y-69753909D01*
X91584959Y-70079628D01*
X92434315Y-70080370D01*
X93219300Y-69756020D01*
X93820409Y-69155959D01*
X94146128Y-68371541D01*
X94146870Y-67522185D01*
X93822520Y-66737200D01*
X93222459Y-66136091D01*
X92438041Y-65810372D01*
X91588685Y-65809630D01*
X91139401Y-65995271D01*
X87467440Y-62323310D01*
X87467440Y-62250990D01*
X88620264Y-63403815D01*
X88867475Y-63568996D01*
X89159080Y-63627000D01*
X90016279Y-63627000D01*
X90200480Y-64072800D01*
X90800541Y-64673909D01*
X91584959Y-64999628D01*
X92434315Y-65000370D01*
X93219300Y-64676020D01*
X93820409Y-64075959D01*
X94146128Y-63291541D01*
X94146870Y-62442185D01*
X93822520Y-61657200D01*
X93222459Y-61056091D01*
X92438041Y-60730372D01*
X91588685Y-60729630D01*
X90803700Y-61053980D01*
X90202591Y-61654041D01*
X90016167Y-62103000D01*
X89474711Y-62103000D01*
X88616190Y-61244480D01*
X88913036Y-60947635D01*
X89014224Y-60796196D01*
X89078216Y-60700425D01*
X89136220Y-60408820D01*
X89136220Y-58841640D01*
X89078216Y-58550035D01*
X89076188Y-58547000D01*
X90016279Y-58547000D01*
X90200480Y-58992800D01*
X90800541Y-59593909D01*
X91584959Y-59919628D01*
X92434315Y-59920370D01*
X93219300Y-59596020D01*
X93820409Y-58995959D01*
X94146128Y-58211541D01*
X94146870Y-57362185D01*
X93822520Y-56577200D01*
X93222459Y-55976091D01*
X92438041Y-55650372D01*
X91588685Y-55649630D01*
X90803700Y-55973980D01*
X90202591Y-56574041D01*
X90016167Y-57023000D01*
X88131643Y-57023000D01*
X88201337Y-56855158D01*
X88201663Y-56481282D01*
X88058888Y-56135741D01*
X87794749Y-55871141D01*
X87449458Y-55727763D01*
X87075582Y-55727437D01*
X86730041Y-55870212D01*
X86465441Y-56134351D01*
X86322063Y-56479642D01*
X86321737Y-56853518D01*
X86391766Y-57023000D01*
X85909830Y-57023000D01*
X82150630Y-53263800D01*
X84799770Y-53263800D01*
X86468884Y-54932915D01*
X86642624Y-55049004D01*
X86716095Y-55098096D01*
X87007700Y-55156100D01*
X90322400Y-55156100D01*
X90614005Y-55098096D01*
X90861215Y-54932915D01*
X91139481Y-54654649D01*
X91584959Y-54839628D01*
X92434315Y-54840370D01*
X93219300Y-54516020D01*
X93820409Y-53915959D01*
X94146128Y-53131541D01*
X94146870Y-52282185D01*
X93822520Y-51497200D01*
X93222459Y-50896091D01*
X92438041Y-50570372D01*
X91588685Y-50569630D01*
X90803700Y-50893980D01*
X90202591Y-51494041D01*
X89876872Y-52278459D01*
X89876130Y-53127815D01*
X90061771Y-53577099D01*
X90006770Y-53632100D01*
X88485475Y-53632100D01*
X88485480Y-53626150D01*
X89583215Y-52528416D01*
X89748396Y-52281205D01*
X89761379Y-52215934D01*
X89806400Y-51989600D01*
X89806400Y-50907730D01*
X91139481Y-49574649D01*
X91584959Y-49759628D01*
X92434315Y-49760370D01*
X93219300Y-49436020D01*
X93820409Y-48835959D01*
X94146128Y-48051541D01*
X94146870Y-47202185D01*
X93822520Y-46417200D01*
X93222459Y-45816091D01*
X92438041Y-45490372D01*
X91588685Y-45489630D01*
X90803700Y-45813980D01*
X90202591Y-46414041D01*
X89876872Y-47198459D01*
X89876130Y-48047815D01*
X90061771Y-48497099D01*
X88505585Y-50053285D01*
X88340404Y-50300495D01*
X88282400Y-50592100D01*
X88282400Y-50973600D01*
X85797647Y-50973600D01*
X86173188Y-50625379D01*
X86441983Y-50039946D01*
X86323367Y-49784000D01*
X84963000Y-49784000D01*
X84963000Y-49804000D01*
X84709000Y-49804000D01*
X84709000Y-49784000D01*
X84689000Y-49784000D01*
X84689000Y-49530000D01*
X84709000Y-49530000D01*
X84709000Y-48170164D01*
X84453056Y-48051025D01*
X85218944Y-48051025D01*
X84963000Y-48170164D01*
X84963000Y-49530000D01*
X86323367Y-49530000D01*
X86441983Y-49274054D01*
X86173188Y-48688621D01*
X85700818Y-48250615D01*
X85218944Y-48051025D01*
X84453056Y-48051025D01*
X84453056Y-48051025D01*
X83971182Y-48250615D01*
X83874164Y-48340575D01*
X83772673Y-48186073D01*
X83561640Y-48043623D01*
X83312000Y-47993560D01*
X81710190Y-47993560D01*
X81484415Y-47767785D01*
X81340708Y-47671763D01*
X81237205Y-47602604D01*
X80945600Y-47544600D01*
X63858431Y-47544600D01*
X62907921Y-46594091D01*
X62907963Y-46545682D01*
X62765188Y-46200141D01*
X62501049Y-45935541D01*
X62380250Y-45885381D01*
X62418631Y-45847000D01*
X75124752Y-45847000D01*
X75158951Y-45881259D01*
X75504242Y-46024637D01*
X75878118Y-46024963D01*
X76223659Y-45882188D01*
X76488259Y-45618049D01*
X76631637Y-45272758D01*
X76631963Y-44898882D01*
X76489188Y-44553341D01*
X76225049Y-44288741D01*
X75879758Y-44145363D01*
X75505882Y-44145037D01*
X52806600Y-44145037D01*
X52806600Y-41879421D01*
X82909383Y-41879421D01*
X82106014Y-42211367D01*
X81490827Y-42825481D01*
X81157480Y-43628270D01*
X81156721Y-44497517D01*
X81488667Y-45300886D01*
X82102781Y-45916073D01*
X82905570Y-46249420D01*
X83774817Y-46250179D01*
X84578186Y-45918233D01*
X85193373Y-45304119D01*
X85526720Y-44501330D01*
X85527479Y-43632083D01*
X85195533Y-42828714D01*
X84581419Y-42213527D01*
X83778630Y-41880180D01*
X82909383Y-41879421D01*
X52806600Y-41879421D01*
X52806600Y-40685000D01*
X90922240Y-40685000D01*
X90803700Y-40733980D01*
X90803700Y-40733980D01*
G37*
X90803700Y-40733980D02*
X90803700Y-40733980D01*
X90202591Y-41334041D01*
X89876872Y-42118459D01*
X89876130Y-42967815D01*
X90200480Y-43752800D01*
X90800541Y-44353909D01*
X91584959Y-44679628D01*
X92434315Y-44680370D01*
X93219300Y-44356020D01*
X93820409Y-43755959D01*
X94146128Y-42971541D01*
X94146870Y-42122185D01*
X93822520Y-41337200D01*
X93230654Y-40744300D01*
X93498094Y-40797497D01*
X93920357Y-41079643D01*
X94202503Y-41501906D01*
X94315000Y-42067466D01*
X94315000Y-87932534D01*
X94202503Y-88498094D01*
X93920357Y-88920357D01*
X93498094Y-89202503D01*
X92932533Y-89315000D01*
X65030826Y-89315000D01*
X65231715Y-89180770D01*
X65556571Y-88694589D01*
X65670645Y-88121100D01*
X65556571Y-87547611D01*
X65231715Y-87061430D01*
X64916934Y-86851100D01*
X65231715Y-86640770D01*
X65556571Y-86154589D01*
X65670645Y-85581100D01*
X65556571Y-85007611D01*
X65438337Y-84830660D01*
X67427600Y-84830660D01*
X67185477Y-84877637D01*
X66972673Y-85017427D01*
X66830223Y-85228460D01*
X66780160Y-85478100D01*
X66780160Y-88478100D01*
X66827137Y-88720223D01*
X66966927Y-88933027D01*
X67177960Y-89075477D01*
X67427600Y-89125540D01*
X70427600Y-89125540D01*
X70669723Y-89078563D01*
X70882527Y-88938773D01*
X71024977Y-88727740D01*
X71075040Y-88478100D01*
X71075040Y-85643735D01*
X72493630Y-85643735D01*
X72174861Y-85803518D01*
X71864877Y-86594287D01*
X71881103Y-87443487D01*
X72174861Y-88152682D01*
X72493630Y-88312465D01*
X73648390Y-87157705D01*
X74007600Y-87157705D01*
X72673235Y-88492070D01*
X72833018Y-88810839D01*
X73623787Y-89120823D01*
X74472987Y-89104597D01*
X75182182Y-88810839D01*
X75341965Y-88492070D01*
X74007600Y-87157705D01*
X73648390Y-87157705D01*
X73827995Y-86978100D01*
X72493630Y-85643735D01*
X71075040Y-85643735D01*
X71075040Y-85478100D01*
X71028063Y-85235977D01*
X70888273Y-85023173D01*
X70677240Y-84880723D01*
X70451122Y-84835377D01*
X74391413Y-84835377D01*
X73542213Y-84851603D01*
X72833018Y-85145361D01*
X72673235Y-85464130D01*
X74007600Y-86798495D01*
X75162360Y-85643735D01*
X75521570Y-85643735D01*
X74187205Y-86978100D01*
X75521570Y-88312465D01*
X75840339Y-88152682D01*
X76150323Y-87361913D01*
X76134097Y-86512713D01*
X75840339Y-85803518D01*
X75521570Y-85643735D01*
X75162360Y-85643735D01*
X75341965Y-85464130D01*
X75182182Y-85145361D01*
X74410171Y-84842730D01*
X78664785Y-84842730D01*
X77879800Y-85167080D01*
X77278691Y-85767141D01*
X76952972Y-86551559D01*
X76952230Y-87400915D01*
X77276580Y-88185900D01*
X77876641Y-88787009D01*
X78661059Y-89112728D01*
X79510415Y-89113470D01*
X80295400Y-88789120D01*
X80896509Y-88189059D01*
X81222228Y-87404641D01*
X81222970Y-86555285D01*
X80898620Y-85770300D01*
X80772276Y-85643735D01*
X82653630Y-85643735D01*
X82334861Y-85803518D01*
X82024877Y-86594287D01*
X82041103Y-87443487D01*
X82334861Y-88152682D01*
X82653630Y-88312465D01*
X83808390Y-87157705D01*
X84167600Y-87157705D01*
X82833235Y-88492070D01*
X82993018Y-88810839D01*
X83783787Y-89120823D01*
X84632987Y-89104597D01*
X85342182Y-88810839D01*
X85501965Y-88492070D01*
X84167600Y-87157705D01*
X83808390Y-87157705D01*
X83987995Y-86978100D01*
X82653630Y-85643735D01*
X80772276Y-85643735D01*
X80298559Y-85169191D01*
X79514141Y-84843472D01*
X78664785Y-84842730D01*
X74410171Y-84842730D01*
X74391413Y-84835377D01*
X84551413Y-84835377D01*
X83702213Y-84851603D01*
X82993018Y-85145361D01*
X82833235Y-85464130D01*
X84167600Y-86798495D01*
X85322360Y-85643735D01*
X85681570Y-85643735D01*
X84347205Y-86978100D01*
X85681570Y-88312465D01*
X86000339Y-88152682D01*
X86310323Y-87361913D01*
X86294097Y-86512713D01*
X86000339Y-85803518D01*
X85681570Y-85643735D01*
X85322360Y-85643735D01*
X85501965Y-85464130D01*
X85342182Y-85145361D01*
X84551413Y-84835377D01*
X74391413Y-84835377D01*
X74391413Y-84835377D01*
X70451122Y-84835377D01*
X70427600Y-84830660D01*
X67427600Y-84830660D01*
X65438337Y-84830660D01*
X65231715Y-84521430D01*
X65215933Y-84510885D01*
X65245423Y-84505163D01*
X65458227Y-84365373D01*
X65600677Y-84154340D01*
X65650740Y-83904700D01*
X65650740Y-83764021D01*
X90478583Y-83764021D01*
X89675214Y-84095967D01*
X89060027Y-84710081D01*
X88726680Y-85512870D01*
X88725921Y-86382117D01*
X89057867Y-87185486D01*
X89671981Y-87800673D01*
X90474770Y-88134020D01*
X91344017Y-88134779D01*
X92147386Y-87802833D01*
X92762573Y-87188719D01*
X93095920Y-86385930D01*
X93096679Y-85516683D01*
X92764733Y-84713314D01*
X92150619Y-84098127D01*
X91347830Y-83764780D01*
X90478583Y-83764021D01*
X65650740Y-83764021D01*
X65650740Y-82177500D01*
X65603763Y-81935377D01*
X65463973Y-81722573D01*
X65403300Y-81681618D01*
X65403300Y-77476905D01*
X65665043Y-78110372D01*
X66194839Y-78641093D01*
X66887405Y-78928672D01*
X67637305Y-78929326D01*
X68330372Y-78642957D01*
X68861093Y-78113161D01*
X69148672Y-77420595D01*
X69149326Y-76670695D01*
X68862957Y-75977628D01*
X68333161Y-75446907D01*
X67640595Y-75159328D01*
X66890695Y-75158674D01*
X66197628Y-75445043D01*
X65666907Y-75974839D01*
X65403300Y-76609674D01*
X65403300Y-68168412D01*
X66664784Y-66906927D01*
X66837459Y-66978628D01*
X67686815Y-66979370D01*
X68471800Y-66655020D01*
X69072909Y-66054959D01*
X69398628Y-65270541D01*
X69399370Y-64421185D01*
X69363440Y-64334227D01*
X84336192Y-64334227D01*
X83990651Y-64477002D01*
X83726051Y-64741141D01*
X83582673Y-65086432D01*
X83582347Y-65460308D01*
X83725122Y-65805849D01*
X83989261Y-66070449D01*
X84334552Y-66213827D01*
X84708428Y-66214153D01*
X84935838Y-66120189D01*
X85675470Y-66859821D01*
X85675470Y-77681419D01*
X85240460Y-78116430D01*
X73420798Y-78116430D01*
X73386599Y-78082171D01*
X73041308Y-77938793D01*
X72667432Y-77938467D01*
X72321891Y-78081242D01*
X72057291Y-78345381D01*
X71913913Y-78690672D01*
X71913587Y-79064548D01*
X72056362Y-79410089D01*
X72320501Y-79674689D01*
X72665792Y-79818067D01*
X73039668Y-79818393D01*
X73385209Y-79675618D01*
X73420458Y-79640430D01*
X85556090Y-79640430D01*
X85847695Y-79582426D01*
X86094905Y-79417245D01*
X86976286Y-78535865D01*
X87141467Y-78288654D01*
X87152736Y-78232000D01*
X90035250Y-78232000D01*
X89876500Y-78390750D01*
X89876500Y-79731309D01*
X89973173Y-79964698D01*
X90151801Y-80143327D01*
X90385190Y-80240000D01*
X91725750Y-80240000D01*
X91884500Y-80081250D01*
X91884500Y-78232000D01*
X92138500Y-78232000D01*
X92138500Y-80081250D01*
X92297250Y-80240000D01*
X93637810Y-80240000D01*
X93871199Y-80143327D01*
X94049827Y-79964698D01*
X94146500Y-79731309D01*
X94146500Y-78390750D01*
X93987750Y-78232000D01*
X92138500Y-78232000D01*
X91884500Y-78232000D01*
X91884500Y-78232000D01*
X90035250Y-78232000D01*
X87152736Y-78232000D01*
X87199470Y-77997050D01*
X87199470Y-75970000D01*
X90385190Y-75970000D01*
X90151801Y-76066673D01*
X89973173Y-76245302D01*
X89876500Y-76478691D01*
X89876500Y-77819250D01*
X90035250Y-77978000D01*
X91884500Y-77978000D01*
X91884500Y-76128750D01*
X91725750Y-75970000D01*
X92297250Y-75970000D01*
X92138500Y-76128750D01*
X92138500Y-77978000D01*
X93987750Y-77978000D01*
X94146500Y-77819250D01*
X94146500Y-76478691D01*
X94049827Y-76245302D01*
X93871199Y-76066673D01*
X93637810Y-75970000D01*
X92297250Y-75970000D01*
X91725750Y-75970000D01*
X91725750Y-75970000D01*
X90385190Y-75970000D01*
X87199470Y-75970000D01*
X87199470Y-73766680D01*
X90007883Y-73766680D01*
X90200480Y-74232800D01*
X90800541Y-74833909D01*
X91584959Y-75159628D01*
X92434315Y-75160370D01*
X93219300Y-74836020D01*
X93820409Y-74235959D01*
X94146128Y-73451541D01*
X94146870Y-72602185D01*
X93822520Y-71817200D01*
X93222459Y-71216091D01*
X92438041Y-70890372D01*
X91588685Y-70889630D01*
X90803700Y-71213980D01*
X90202591Y-71814041D01*
X90024604Y-72242680D01*
X87199470Y-72242680D01*
X87199470Y-66544190D01*
X87141466Y-66252585D01*
X86976285Y-66005374D01*
X85706285Y-64735375D01*
X85614295Y-64673909D01*
X85459075Y-64570194D01*
X85167470Y-64512190D01*
X85089558Y-64512190D01*
X85055359Y-64477931D01*
X84710068Y-64334553D01*
X84336192Y-64334227D01*
X69363440Y-64334227D01*
X69075020Y-63636200D01*
X68474959Y-63035091D01*
X67700435Y-62713480D01*
X70577330Y-62713480D01*
X70418580Y-62872230D01*
X70418580Y-63728789D01*
X70515253Y-63962178D01*
X70693881Y-64140807D01*
X70927270Y-64237480D01*
X71631430Y-64237480D01*
X71790180Y-64078730D01*
X71790180Y-62713480D01*
X70577330Y-62713480D01*
X67700435Y-62713480D01*
X67690541Y-62709372D01*
X66841185Y-62708630D01*
X66056200Y-63032980D01*
X65455091Y-63633041D01*
X65129372Y-64417459D01*
X65128630Y-65266815D01*
X65201387Y-65442901D01*
X63636444Y-67007844D01*
X63412085Y-67343623D01*
X63333299Y-67739700D01*
X63333300Y-67739705D01*
X63333300Y-78532293D01*
X63025020Y-77786200D01*
X62424959Y-77185091D01*
X61640541Y-76859372D01*
X60791185Y-76858630D01*
X60006200Y-77182980D01*
X59405091Y-77783041D01*
X59129500Y-78446737D01*
X59129500Y-67674505D01*
X59129501Y-67674500D01*
X59050715Y-67278423D01*
X58928557Y-67095600D01*
X58826356Y-66942644D01*
X58826353Y-66942642D01*
X57276927Y-65393216D01*
X57348628Y-65220541D01*
X57349370Y-64371185D01*
X57025020Y-63586200D01*
X56424959Y-62985091D01*
X55640541Y-62659372D01*
X54791185Y-62658630D01*
X54006200Y-62982980D01*
X53405091Y-63583041D01*
X53079372Y-64367459D01*
X53078630Y-65216815D01*
X53402980Y-66001800D01*
X54003041Y-66602909D01*
X54787459Y-66928628D01*
X55636815Y-66929370D01*
X55812901Y-66856613D01*
X57059500Y-68103211D01*
X57059500Y-76453299D01*
X56862957Y-75977628D01*
X56333161Y-75446907D01*
X55640595Y-75159328D01*
X54890695Y-75158674D01*
X54197628Y-75445043D01*
X53666907Y-75974839D01*
X53379328Y-76667405D01*
X53378674Y-77417305D01*
X53665043Y-78110372D01*
X54194839Y-78641093D01*
X54887405Y-78928672D01*
X55637305Y-78929326D01*
X56330372Y-78642957D01*
X56861093Y-78113161D01*
X57059500Y-77635345D01*
X57059500Y-82012395D01*
X57059499Y-82012400D01*
X57138285Y-82408477D01*
X57362644Y-82744256D01*
X59815400Y-85197011D01*
X59815400Y-87117795D01*
X59815399Y-87117800D01*
X59894185Y-87513877D01*
X60118544Y-87849656D01*
X61121842Y-88852953D01*
X61121844Y-88852956D01*
X61323129Y-88987449D01*
X61457622Y-89077315D01*
X61853700Y-89156100D01*
X62726401Y-89156100D01*
X62742885Y-89180770D01*
X62943774Y-89315000D01*
X49040927Y-89315000D01*
X49264600Y-89222580D01*
X49865709Y-88622519D01*
X50055729Y-88164900D01*
X51180905Y-88164900D01*
X51381460Y-88300277D01*
X51631100Y-88350340D01*
X52331100Y-88350340D01*
X52573223Y-88303363D01*
X52786027Y-88163573D01*
X52928477Y-87952540D01*
X52978540Y-87702900D01*
X52978540Y-87102900D01*
X52931563Y-86860777D01*
X52828358Y-86703667D01*
X52869427Y-86662598D01*
X52966100Y-86429209D01*
X52966100Y-86288650D01*
X52807350Y-86129900D01*
X52108100Y-86129900D01*
X52108100Y-86149900D01*
X51854100Y-86149900D01*
X51854100Y-86129900D01*
X51154850Y-86129900D01*
X50996100Y-86288650D01*
X50996100Y-86429209D01*
X51083785Y-86640900D01*
X50048443Y-86640900D01*
X49867820Y-86203760D01*
X49267759Y-85602651D01*
X48483341Y-85276932D01*
X47633985Y-85276190D01*
X46849000Y-85600540D01*
X46247891Y-86200601D01*
X45922172Y-86985019D01*
X45921430Y-87834375D01*
X46245780Y-88619360D01*
X46845841Y-89220469D01*
X47073497Y-89315000D01*
X47067466Y-89315000D01*
X46501906Y-89202503D01*
X46079643Y-88920357D01*
X45797497Y-88498094D01*
X45685000Y-87932533D01*
X45685000Y-85067900D01*
X51504790Y-85067900D01*
X51271401Y-85164573D01*
X51092773Y-85343202D01*
X50996100Y-85576591D01*
X50996100Y-85717150D01*
X51154850Y-85875900D01*
X51854100Y-85875900D01*
X51854100Y-85226650D01*
X51695350Y-85067900D01*
X52266850Y-85067900D01*
X52108100Y-85226650D01*
X52108100Y-85875900D01*
X52807350Y-85875900D01*
X52966100Y-85717150D01*
X52966100Y-85576591D01*
X52869427Y-85343202D01*
X52690799Y-85164573D01*
X52457410Y-85067900D01*
X52266850Y-85067900D01*
X51695350Y-85067900D01*
X51695350Y-85067900D01*
X51504790Y-85067900D01*
X45685000Y-85067900D01*
X45685000Y-80997195D01*
X46542830Y-80997195D01*
X46224061Y-81156978D01*
X45914077Y-81947747D01*
X45930303Y-82796947D01*
X46224061Y-83506142D01*
X46542830Y-83665925D01*
X47697590Y-82511165D01*
X48056800Y-82511165D01*
X46722435Y-83845530D01*
X46882218Y-84164299D01*
X47672987Y-84474283D01*
X48522187Y-84458057D01*
X49231382Y-84164299D01*
X49391165Y-83845530D01*
X49309656Y-83764021D01*
X56302883Y-83764021D01*
X55499514Y-84095967D01*
X54884327Y-84710081D01*
X54550980Y-85512870D01*
X54550221Y-86382117D01*
X54882167Y-87185486D01*
X55496281Y-87800673D01*
X56299070Y-88134020D01*
X57168317Y-88134779D01*
X57971686Y-87802833D01*
X58586873Y-87188719D01*
X58920220Y-86385930D01*
X58920979Y-85516683D01*
X58589033Y-84713314D01*
X57974919Y-84098127D01*
X57172130Y-83764780D01*
X56302883Y-83764021D01*
X49309656Y-83764021D01*
X48056800Y-82511165D01*
X47697590Y-82511165D01*
X47877195Y-82331560D01*
X46542830Y-80997195D01*
X45685000Y-80997195D01*
X45685000Y-80188837D01*
X48440613Y-80188837D01*
X47591413Y-80205063D01*
X46882218Y-80498821D01*
X46722435Y-80817590D01*
X48056800Y-82151955D01*
X49211560Y-80997195D01*
X49570770Y-80997195D01*
X48236405Y-82331560D01*
X49570770Y-83665925D01*
X49889539Y-83506142D01*
X50199523Y-82715373D01*
X50183297Y-81866173D01*
X49889539Y-81156978D01*
X49570770Y-80997195D01*
X49211560Y-80997195D01*
X49391165Y-80817590D01*
X49231382Y-80498821D01*
X48440613Y-80188837D01*
X45685000Y-80188837D01*
X45685000Y-75116190D01*
X47633985Y-75116190D01*
X46849000Y-75440540D01*
X46247891Y-76040601D01*
X45922172Y-76825019D01*
X45921430Y-77674375D01*
X46245780Y-78459360D01*
X46845841Y-79060469D01*
X47630259Y-79386188D01*
X48479615Y-79386930D01*
X49264600Y-79062580D01*
X49865709Y-78462519D01*
X50055729Y-78004900D01*
X51180905Y-78004900D01*
X51381460Y-78140277D01*
X51631100Y-78190340D01*
X52331100Y-78190340D01*
X52573223Y-78143363D01*
X52786027Y-78003573D01*
X52928477Y-77792540D01*
X52978540Y-77542900D01*
X52978540Y-76942900D01*
X52931563Y-76700777D01*
X52828358Y-76543667D01*
X52869427Y-76502598D01*
X52966100Y-76269209D01*
X52966100Y-76128650D01*
X52807350Y-75969900D01*
X52108100Y-75969900D01*
X52108100Y-75989900D01*
X51854100Y-75989900D01*
X51854100Y-75969900D01*
X51154850Y-75969900D01*
X50996100Y-76128650D01*
X50996100Y-76269209D01*
X51083785Y-76480900D01*
X50048443Y-76480900D01*
X49867820Y-76043760D01*
X49267759Y-75442651D01*
X48483341Y-75116932D01*
X47633985Y-75116190D01*
X45685000Y-75116190D01*
X45685000Y-74907900D01*
X51504790Y-74907900D01*
X51271401Y-75004573D01*
X51092773Y-75183202D01*
X50996100Y-75416591D01*
X50996100Y-75557150D01*
X51154850Y-75715900D01*
X51854100Y-75715900D01*
X51854100Y-75066650D01*
X51695350Y-74907900D01*
X52266850Y-74907900D01*
X52108100Y-75066650D01*
X52108100Y-75715900D01*
X52807350Y-75715900D01*
X52966100Y-75557150D01*
X52966100Y-75416591D01*
X52869427Y-75183202D01*
X52690799Y-75004573D01*
X52457410Y-74907900D01*
X52266850Y-74907900D01*
X51695350Y-74907900D01*
X51695350Y-74907900D01*
X51504790Y-74907900D01*
X45685000Y-74907900D01*
X45685000Y-70837195D01*
X46542830Y-70837195D01*
X46224061Y-70996978D01*
X45914077Y-71787747D01*
X45930303Y-72636947D01*
X46224061Y-73346142D01*
X46542830Y-73505925D01*
X47697590Y-72351165D01*
X48056800Y-72351165D01*
X46722435Y-73685530D01*
X46882218Y-74004299D01*
X47672987Y-74314283D01*
X48522187Y-74298057D01*
X49231382Y-74004299D01*
X49391165Y-73685530D01*
X48056800Y-72351165D01*
X47697590Y-72351165D01*
X47877195Y-72171560D01*
X46542830Y-70837195D01*
X45685000Y-70837195D01*
X45685000Y-70028837D01*
X48440613Y-70028837D01*
X47591413Y-70045063D01*
X46882218Y-70338821D01*
X46722435Y-70657590D01*
X48056800Y-71991955D01*
X49211560Y-70837195D01*
X49570770Y-70837195D01*
X48236405Y-72171560D01*
X49570770Y-73505925D01*
X49889539Y-73346142D01*
X50199523Y-72555373D01*
X50183297Y-71706173D01*
X49889539Y-70996978D01*
X49570770Y-70837195D01*
X49211560Y-70837195D01*
X49391165Y-70657590D01*
X49231382Y-70338821D01*
X48440613Y-70028837D01*
X45685000Y-70028837D01*
X45685000Y-64956190D01*
X47633985Y-64956190D01*
X46849000Y-65280540D01*
X46247891Y-65880601D01*
X45922172Y-66665019D01*
X45921430Y-67514375D01*
X46245780Y-68299360D01*
X46845841Y-68900469D01*
X47630259Y-69226188D01*
X48479615Y-69226930D01*
X49264600Y-68902580D01*
X49865709Y-68302519D01*
X50050456Y-67857600D01*
X51180905Y-67857600D01*
X51381460Y-67992977D01*
X51631100Y-68043040D01*
X52331100Y-68043040D01*
X52573223Y-67996063D01*
X52786027Y-67856273D01*
X52928477Y-67645240D01*
X52978540Y-67395600D01*
X52978540Y-66795600D01*
X52931563Y-66553477D01*
X52828358Y-66396367D01*
X52869427Y-66355298D01*
X52966100Y-66121909D01*
X52966100Y-65981350D01*
X52807350Y-65822600D01*
X52108100Y-65822600D01*
X52108100Y-65842600D01*
X51854100Y-65842600D01*
X51854100Y-65822600D01*
X51154850Y-65822600D01*
X50996100Y-65981350D01*
X50996100Y-66121909D01*
X51083785Y-66333600D01*
X50053691Y-66333600D01*
X49867820Y-65883760D01*
X49267759Y-65282651D01*
X48483341Y-64956932D01*
X47633985Y-64956190D01*
X45685000Y-64956190D01*
X45685000Y-64760600D01*
X51504790Y-64760600D01*
X51271401Y-64857273D01*
X51092773Y-65035902D01*
X50996100Y-65269291D01*
X50996100Y-65409850D01*
X51154850Y-65568600D01*
X51854100Y-65568600D01*
X51854100Y-64919350D01*
X51695350Y-64760600D01*
X52266850Y-64760600D01*
X52108100Y-64919350D01*
X52108100Y-65568600D01*
X52807350Y-65568600D01*
X52966100Y-65409850D01*
X52966100Y-65269291D01*
X52869427Y-65035902D01*
X52690799Y-64857273D01*
X52457410Y-64760600D01*
X52266850Y-64760600D01*
X51695350Y-64760600D01*
X51695350Y-64760600D01*
X51504790Y-64760600D01*
X45685000Y-64760600D01*
X45685000Y-62138560D01*
X46080550Y-62138560D01*
X45921800Y-62297310D01*
X45921800Y-63637869D01*
X46018473Y-63871258D01*
X46197101Y-64049887D01*
X46430490Y-64146560D01*
X47771050Y-64146560D01*
X47929800Y-63987810D01*
X47929800Y-62138560D01*
X48183800Y-62138560D01*
X48183800Y-63987810D01*
X48342550Y-64146560D01*
X49683110Y-64146560D01*
X49916499Y-64049887D01*
X50095127Y-63871258D01*
X50191800Y-63637869D01*
X50191800Y-62297310D01*
X50033050Y-62138560D01*
X48183800Y-62138560D01*
X47929800Y-62138560D01*
X47929800Y-62138560D01*
X46080550Y-62138560D01*
X45685000Y-62138560D01*
X45685000Y-59876560D01*
X46430490Y-59876560D01*
X46197101Y-59973233D01*
X46018473Y-60151862D01*
X45921800Y-60385251D01*
X45921800Y-61725810D01*
X46080550Y-61884560D01*
X47929800Y-61884560D01*
X47929800Y-60035310D01*
X47771050Y-59876560D01*
X48342550Y-59876560D01*
X48183800Y-60035310D01*
X48183800Y-61884560D01*
X50033050Y-61884560D01*
X50191800Y-61725810D01*
X50191800Y-60935480D01*
X70927270Y-60935480D01*
X70693881Y-61032153D01*
X70515253Y-61210782D01*
X70418580Y-61444171D01*
X70418580Y-62300730D01*
X70577330Y-62459480D01*
X71790180Y-62459480D01*
X71790180Y-61094230D01*
X71631430Y-60935480D01*
X70927270Y-60935480D01*
X50191800Y-60935480D01*
X50191800Y-60385251D01*
X50095127Y-60151862D01*
X49916499Y-59973233D01*
X49683110Y-59876560D01*
X48342550Y-59876560D01*
X47771050Y-59876560D01*
X47771050Y-59876560D01*
X46430490Y-59876560D01*
X45685000Y-59876560D01*
X45685000Y-59461400D01*
X52679600Y-59461400D01*
X52728201Y-59451733D01*
X52769403Y-59424203D01*
X52796933Y-59383001D01*
X52806600Y-59334400D01*
X52806600Y-44145037D01*
X75505882Y-44145037D01*
X75160341Y-44287812D01*
X75125092Y-44323000D01*
X62103000Y-44323000D01*
X61811395Y-44381004D01*
X61564184Y-44546185D01*
X60695290Y-45415079D01*
X60646882Y-45415037D01*
X60301341Y-45557812D01*
X60036741Y-45821951D01*
X59893363Y-46167242D01*
X59893037Y-46541118D01*
X60035812Y-46886659D01*
X60299951Y-47151259D01*
X60645242Y-47294637D01*
X61019118Y-47294963D01*
X61159809Y-47236830D01*
X61170812Y-47263459D01*
X61434951Y-47528059D01*
X61780242Y-47671437D01*
X61830050Y-47671480D01*
X63003985Y-48845416D01*
X63125684Y-48926733D01*
X63060363Y-49084042D01*
X63060037Y-49457918D01*
X63202812Y-49803459D01*
X63466951Y-50068059D01*
X63812242Y-50211437D01*
X64186118Y-50211763D01*
X64531659Y-50068988D01*
X64566908Y-50033800D01*
X76765370Y-50033800D01*
X79711770Y-52980200D01*
X73672649Y-52980200D01*
X73672863Y-52734782D01*
X73530088Y-52389241D01*
X73265949Y-52124641D01*
X72920658Y-51981263D01*
X72546782Y-51980937D01*
X72201241Y-52123712D01*
X72164092Y-52160796D01*
X66702174Y-52179044D01*
X65986615Y-51463485D01*
X65899441Y-51405237D01*
X65739405Y-51298304D01*
X65447800Y-51240300D01*
X64442630Y-51240300D01*
X62044321Y-48841991D01*
X62044363Y-48793582D01*
X61901588Y-48448041D01*
X61637449Y-48183441D01*
X61292158Y-48040063D01*
X60918282Y-48039737D01*
X60572741Y-48182512D01*
X60375370Y-48379539D01*
X58791839Y-46796009D01*
X58919837Y-46487758D01*
X58920163Y-46113882D01*
X58777388Y-45768341D01*
X58513249Y-45503741D01*
X58167958Y-45360363D01*
X57794082Y-45360037D01*
X57448541Y-45502812D01*
X57183941Y-45766951D01*
X57040563Y-46112242D01*
X57040519Y-46162289D01*
X55846721Y-44968491D01*
X55846763Y-44920082D01*
X55703988Y-44574541D01*
X55439849Y-44309941D01*
X55094558Y-44166563D01*
X54720682Y-44166237D01*
X54375141Y-44309012D01*
X54110541Y-44573151D01*
X53967163Y-44918442D01*
X53966837Y-45292318D01*
X54109612Y-45637859D01*
X54373751Y-45902459D01*
X54719042Y-46045837D01*
X54768850Y-46045880D01*
X54857716Y-46134746D01*
X54847682Y-46134737D01*
X54502141Y-46277512D01*
X54237541Y-46541651D01*
X54094163Y-46886942D01*
X54093837Y-47260818D01*
X54236612Y-47606359D01*
X54500751Y-47870959D01*
X54846042Y-48014337D01*
X55219918Y-48014663D01*
X55553995Y-47876625D01*
X56089028Y-48411658D01*
X55863141Y-48637151D01*
X55719763Y-48982442D01*
X55719437Y-49356318D01*
X55862212Y-49701859D01*
X56126351Y-49966459D01*
X56471642Y-50109837D01*
X56521450Y-50109880D01*
X57014879Y-50603310D01*
X57014837Y-50651718D01*
X57157612Y-50997259D01*
X57421751Y-51261859D01*
X57767042Y-51405237D01*
X58140918Y-51405563D01*
X58486459Y-51262788D01*
X58713506Y-51036136D01*
X63969185Y-56291816D01*
X64216396Y-56456997D01*
X64508000Y-56515000D01*
X66082818Y-56515000D01*
X66082637Y-56722318D01*
X66149517Y-56884180D01*
X62113450Y-56884180D01*
X58965841Y-53736571D01*
X58965883Y-53688162D01*
X58823108Y-53342621D01*
X58558969Y-53078021D01*
X58213678Y-52934643D01*
X57839802Y-52934317D01*
X57494261Y-53077092D01*
X57229661Y-53341231D01*
X57086283Y-53686522D01*
X57085957Y-54060398D01*
X57228732Y-54405939D01*
X57492871Y-54670539D01*
X57838162Y-54813917D01*
X57887970Y-54813960D01*
X60567790Y-57493780D01*
X59079411Y-57493780D01*
X56819921Y-55234291D01*
X56819963Y-55185882D01*
X56677188Y-54840341D01*
X56413049Y-54575741D01*
X56067758Y-54432363D01*
X55693882Y-54432037D01*
X55348341Y-54574812D01*
X55083741Y-54838951D01*
X54940363Y-55184242D01*
X54940037Y-55558118D01*
X55082812Y-55903659D01*
X55346951Y-56168259D01*
X55692242Y-56311637D01*
X55742050Y-56311680D01*
X58224965Y-58794596D01*
X58353134Y-58880235D01*
X58472175Y-58959776D01*
X58763780Y-59017780D01*
X77317220Y-59017780D01*
X77608825Y-58959776D01*
X77856035Y-58794595D01*
X78559830Y-58090801D01*
X78608238Y-58090843D01*
X78953779Y-57948068D01*
X79218379Y-57683929D01*
X79361757Y-57338638D01*
X79362083Y-56964762D01*
X79219308Y-56619221D01*
X79115269Y-56515000D01*
X79715970Y-56515000D01*
X81269460Y-58068490D01*
X81269460Y-59776569D01*
X80042400Y-61003629D01*
X79537180Y-60903135D01*
X78963691Y-61017209D01*
X78477510Y-61342065D01*
X78267180Y-61656846D01*
X78056850Y-61342065D01*
X77570669Y-61017209D01*
X76997180Y-60903135D01*
X76423691Y-61017209D01*
X75937510Y-61342065D01*
X75727180Y-61656846D01*
X75516850Y-61342065D01*
X75030669Y-61017209D01*
X74457180Y-60903135D01*
X73883691Y-61017209D01*
X73397510Y-61342065D01*
X73382680Y-61364260D01*
X73319107Y-61210782D01*
X73140479Y-61032153D01*
X72907090Y-60935480D01*
X72202930Y-60935480D01*
X72044180Y-61094230D01*
X72044180Y-62459480D01*
X72064180Y-62459480D01*
X72064180Y-62713480D01*
X72044180Y-62713480D01*
X72044180Y-64078730D01*
X72202930Y-64237480D01*
X72907090Y-64237480D01*
X73140479Y-64140807D01*
X73319107Y-63962178D01*
X73382680Y-63808700D01*
X73397510Y-63830895D01*
X73883691Y-64155751D01*
X74457180Y-64269825D01*
X75030669Y-64155751D01*
X75516850Y-63830895D01*
X75727180Y-63516114D01*
X75937510Y-63830895D01*
X76423691Y-64155751D01*
X76997180Y-64269825D01*
X77570669Y-64155751D01*
X78056850Y-63830895D01*
X78267180Y-63516114D01*
X78477510Y-63830895D01*
X78963691Y-64155751D01*
X79537180Y-64269825D01*
X80110669Y-64155751D01*
X80596850Y-63830895D01*
X80807180Y-63516114D01*
X81017510Y-63830895D01*
X81503691Y-64155751D01*
X82077180Y-64269825D01*
X82650669Y-64155751D01*
X83136850Y-63830895D01*
X83347180Y-63516114D01*
X83557510Y-63830895D01*
X84043691Y-64155751D01*
X84617180Y-64269825D01*
X85190669Y-64155751D01*
X85676850Y-63830895D01*
X86001706Y-63344714D01*
X86065130Y-63025858D01*
X86071300Y-63035091D01*
X86166625Y-63177755D01*
X90061851Y-67072981D01*
X89876872Y-67518459D01*
X89876130Y-68367815D01*
X90200480Y-69152800D01*
X90800541Y-69753909D01*
X91584959Y-70079628D01*
X92434315Y-70080370D01*
X93219300Y-69756020D01*
X93820409Y-69155959D01*
X94146128Y-68371541D01*
X94146870Y-67522185D01*
X93822520Y-66737200D01*
X93222459Y-66136091D01*
X92438041Y-65810372D01*
X91588685Y-65809630D01*
X91139401Y-65995271D01*
X87467440Y-62323310D01*
X87467440Y-62250990D01*
X88620264Y-63403815D01*
X88867475Y-63568996D01*
X89159080Y-63627000D01*
X90016279Y-63627000D01*
X90200480Y-64072800D01*
X90800541Y-64673909D01*
X91584959Y-64999628D01*
X92434315Y-65000370D01*
X93219300Y-64676020D01*
X93820409Y-64075959D01*
X94146128Y-63291541D01*
X94146870Y-62442185D01*
X93822520Y-61657200D01*
X93222459Y-61056091D01*
X92438041Y-60730372D01*
X91588685Y-60729630D01*
X90803700Y-61053980D01*
X90202591Y-61654041D01*
X90016167Y-62103000D01*
X89474711Y-62103000D01*
X88616190Y-61244480D01*
X88913036Y-60947635D01*
X89014224Y-60796196D01*
X89078216Y-60700425D01*
X89136220Y-60408820D01*
X89136220Y-58841640D01*
X89078216Y-58550035D01*
X89076188Y-58547000D01*
X90016279Y-58547000D01*
X90200480Y-58992800D01*
X90800541Y-59593909D01*
X91584959Y-59919628D01*
X92434315Y-59920370D01*
X93219300Y-59596020D01*
X93820409Y-58995959D01*
X94146128Y-58211541D01*
X94146870Y-57362185D01*
X93822520Y-56577200D01*
X93222459Y-55976091D01*
X92438041Y-55650372D01*
X91588685Y-55649630D01*
X90803700Y-55973980D01*
X90202591Y-56574041D01*
X90016167Y-57023000D01*
X88131643Y-57023000D01*
X88201337Y-56855158D01*
X88201663Y-56481282D01*
X88058888Y-56135741D01*
X87794749Y-55871141D01*
X87449458Y-55727763D01*
X87075582Y-55727437D01*
X86730041Y-55870212D01*
X86465441Y-56134351D01*
X86322063Y-56479642D01*
X86321737Y-56853518D01*
X86391766Y-57023000D01*
X85909830Y-57023000D01*
X82150630Y-53263800D01*
X84799770Y-53263800D01*
X86468884Y-54932915D01*
X86642624Y-55049004D01*
X86716095Y-55098096D01*
X87007700Y-55156100D01*
X90322400Y-55156100D01*
X90614005Y-55098096D01*
X90861215Y-54932915D01*
X91139481Y-54654649D01*
X91584959Y-54839628D01*
X92434315Y-54840370D01*
X93219300Y-54516020D01*
X93820409Y-53915959D01*
X94146128Y-53131541D01*
X94146870Y-52282185D01*
X93822520Y-51497200D01*
X93222459Y-50896091D01*
X92438041Y-50570372D01*
X91588685Y-50569630D01*
X90803700Y-50893980D01*
X90202591Y-51494041D01*
X89876872Y-52278459D01*
X89876130Y-53127815D01*
X90061771Y-53577099D01*
X90006770Y-53632100D01*
X88485475Y-53632100D01*
X88485480Y-53626150D01*
X89583215Y-52528416D01*
X89748396Y-52281205D01*
X89761379Y-52215934D01*
X89806400Y-51989600D01*
X89806400Y-50907730D01*
X91139481Y-49574649D01*
X91584959Y-49759628D01*
X92434315Y-49760370D01*
X93219300Y-49436020D01*
X93820409Y-48835959D01*
X94146128Y-48051541D01*
X94146870Y-47202185D01*
X93822520Y-46417200D01*
X93222459Y-45816091D01*
X92438041Y-45490372D01*
X91588685Y-45489630D01*
X90803700Y-45813980D01*
X90202591Y-46414041D01*
X89876872Y-47198459D01*
X89876130Y-48047815D01*
X90061771Y-48497099D01*
X88505585Y-50053285D01*
X88340404Y-50300495D01*
X88282400Y-50592100D01*
X88282400Y-50973600D01*
X85797647Y-50973600D01*
X86173188Y-50625379D01*
X86441983Y-50039946D01*
X86323367Y-49784000D01*
X84963000Y-49784000D01*
X84963000Y-49804000D01*
X84709000Y-49804000D01*
X84709000Y-49784000D01*
X84689000Y-49784000D01*
X84689000Y-49530000D01*
X84709000Y-49530000D01*
X84709000Y-48170164D01*
X84453056Y-48051025D01*
X85218944Y-48051025D01*
X84963000Y-48170164D01*
X84963000Y-49530000D01*
X86323367Y-49530000D01*
X86441983Y-49274054D01*
X86173188Y-48688621D01*
X85700818Y-48250615D01*
X85218944Y-48051025D01*
X84453056Y-48051025D01*
X84453056Y-48051025D01*
X83971182Y-48250615D01*
X83874164Y-48340575D01*
X83772673Y-48186073D01*
X83561640Y-48043623D01*
X83312000Y-47993560D01*
X81710190Y-47993560D01*
X81484415Y-47767785D01*
X81340708Y-47671763D01*
X81237205Y-47602604D01*
X80945600Y-47544600D01*
X63858431Y-47544600D01*
X62907921Y-46594091D01*
X62907963Y-46545682D01*
X62765188Y-46200141D01*
X62501049Y-45935541D01*
X62380250Y-45885381D01*
X62418631Y-45847000D01*
X75124752Y-45847000D01*
X75158951Y-45881259D01*
X75504242Y-46024637D01*
X75878118Y-46024963D01*
X76223659Y-45882188D01*
X76488259Y-45618049D01*
X76631637Y-45272758D01*
X76631963Y-44898882D01*
X76489188Y-44553341D01*
X76225049Y-44288741D01*
X75879758Y-44145363D01*
X75505882Y-44145037D01*
X52806600Y-44145037D01*
X52806600Y-41879421D01*
X82909383Y-41879421D01*
X82106014Y-42211367D01*
X81490827Y-42825481D01*
X81157480Y-43628270D01*
X81156721Y-44497517D01*
X81488667Y-45300886D01*
X82102781Y-45916073D01*
X82905570Y-46249420D01*
X83774817Y-46250179D01*
X84578186Y-45918233D01*
X85193373Y-45304119D01*
X85526720Y-44501330D01*
X85527479Y-43632083D01*
X85195533Y-42828714D01*
X84581419Y-42213527D01*
X83778630Y-41880180D01*
X82909383Y-41879421D01*
X52806600Y-41879421D01*
X52806600Y-40685000D01*
X90922240Y-40685000D01*
X90803700Y-40733980D01*
G36*
X63333300Y-81530060D02*
X62971300Y-81530060D01*
X62729177Y-81577037D01*
X62516373Y-81716827D01*
X62373923Y-81927860D01*
X62323860Y-82177500D01*
X62323860Y-83904700D01*
X62370837Y-84146823D01*
X62510627Y-84359627D01*
X62721660Y-84502077D01*
X62760263Y-84509818D01*
X62742885Y-84521430D01*
X62418029Y-85007611D01*
X62303955Y-85581100D01*
X62418029Y-86154589D01*
X62742885Y-86640770D01*
X63057666Y-86851100D01*
X62742885Y-87061430D01*
X62726401Y-87086100D01*
X62282411Y-87086100D01*
X61885400Y-86689088D01*
X61885400Y-84768305D01*
X61885401Y-84768300D01*
X61806615Y-84372223D01*
X61798199Y-84359627D01*
X61582256Y-84036444D01*
X61582253Y-84036442D01*
X59129500Y-81583688D01*
X59129500Y-79539929D01*
X59402980Y-80201800D01*
X60003041Y-80802909D01*
X60787459Y-81128628D01*
X61636815Y-81129370D01*
X62421800Y-80805020D01*
X63022909Y-80204959D01*
X63333300Y-79457455D01*
X63333300Y-81530060D01*
X63333300Y-81530060D01*
G37*
X63333300Y-81530060D02*
X62971300Y-81530060D01*
X62729177Y-81577037D01*
X62516373Y-81716827D01*
X62373923Y-81927860D01*
X62323860Y-82177500D01*
X62323860Y-83904700D01*
X62370837Y-84146823D01*
X62510627Y-84359627D01*
X62721660Y-84502077D01*
X62760263Y-84509818D01*
X62742885Y-84521430D01*
X62418029Y-85007611D01*
X62303955Y-85581100D01*
X62418029Y-86154589D01*
X62742885Y-86640770D01*
X63057666Y-86851100D01*
X62742885Y-87061430D01*
X62726401Y-87086100D01*
X62282411Y-87086100D01*
X61885400Y-86689088D01*
X61885400Y-84768305D01*
X61885401Y-84768300D01*
X61806615Y-84372223D01*
X61798199Y-84359627D01*
X61582256Y-84036444D01*
X61582253Y-84036442D01*
X59129500Y-81583688D01*
X59129500Y-79539929D01*
X59402980Y-80201800D01*
X60003041Y-80802909D01*
X60787459Y-81128628D01*
X61636815Y-81129370D01*
X62421800Y-80805020D01*
X63022909Y-80204959D01*
X63333300Y-79457455D01*
X63333300Y-81530060D01*
M02*
