G04 #@! TF.FileFunction,Legend,Top*
%FSLAX46Y46*%
G04 Gerber Fmt 4.6, Leading zero omitted, Abs format (unit mm)*
G04 Created by KiCad (PCBNEW 0.201506192325+5795~23~ubuntu14.04.1-product) date Wed 01 Jul 2015 18:25:52 BST*
%MOMM*%
G01*
G04 APERTURE LIST*
%ADD10C,0.100000*%
%ADD11C,0.150000*%
G04 APERTURE END LIST*
D10*
D11*
X69350000Y-64515904D02*
X69302381Y-64611142D01*
X69302381Y-64753999D01*
X69350000Y-64896857D01*
X69445238Y-64992095D01*
X69540476Y-65039714D01*
X69730952Y-65087333D01*
X69873810Y-65087333D01*
X70064286Y-65039714D01*
X70159524Y-64992095D01*
X70254762Y-64896857D01*
X70302381Y-64753999D01*
X70302381Y-64658761D01*
X70254762Y-64515904D01*
X70207143Y-64468285D01*
X69873810Y-64468285D01*
X69873810Y-64658761D01*
X70302381Y-64039714D02*
X69302381Y-64039714D01*
X70302381Y-63468285D01*
X69302381Y-63468285D01*
X70302381Y-62992095D02*
X69302381Y-62992095D01*
X69302381Y-62754000D01*
X69350000Y-62611142D01*
X69445238Y-62515904D01*
X69540476Y-62468285D01*
X69730952Y-62420666D01*
X69873810Y-62420666D01*
X70064286Y-62468285D01*
X70159524Y-62515904D01*
X70254762Y-62611142D01*
X70302381Y-62754000D01*
X70302381Y-62992095D01*
X87439500Y-80645000D02*
X87439500Y-40005000D01*
X87439500Y-40005000D02*
X95059500Y-40005000D01*
X95059500Y-40005000D02*
X95059500Y-80645000D01*
X95059500Y-80645000D02*
X87439500Y-80645000D01*
X64465200Y-89954100D02*
X94945200Y-89954100D01*
X94945200Y-89954100D02*
X94945200Y-82334100D01*
X94945200Y-82334100D02*
X64465200Y-82334100D01*
X64465200Y-82334100D02*
X64465200Y-89954100D01*
X68914000Y-63994000D02*
X68914000Y-60694000D01*
X68914000Y-60694000D02*
X53514000Y-60694000D01*
X53514000Y-60694000D02*
X53514000Y-64044000D01*
X62564000Y-80294000D02*
X68914000Y-80294000D01*
X68914000Y-80294000D02*
X68914000Y-65744000D01*
X59814000Y-80294000D02*
X53514000Y-80294000D01*
X53514000Y-80294000D02*
X53514000Y-65544000D01*
X53564000Y-80294000D02*
X59814000Y-80294000D01*
X65414000Y-64844000D02*
X62964000Y-64844000D01*
X57014000Y-64844000D02*
X59514000Y-64844000D01*
X67264000Y-75444000D02*
X67264000Y-72944000D01*
X61264000Y-76344000D02*
X61264000Y-77144000D01*
X55264000Y-72944000D02*
X55264000Y-75444000D01*
X61264000Y-69544000D02*
X61264000Y-68044000D01*
X61264000Y-68044000D02*
X58764000Y-63444000D01*
X64864000Y-69544000D02*
X64864000Y-76344000D01*
X61264000Y-69544000D02*
X64864000Y-69544000D01*
X61264000Y-76344000D02*
X64864000Y-76344000D01*
X55264000Y-72944000D02*
X59464000Y-72944000D01*
X63064000Y-72944000D02*
X67264000Y-72944000D01*
X63064000Y-70944000D02*
X59464000Y-74944000D01*
X63064000Y-74944000D02*
X59464000Y-74944000D01*
X59464000Y-74944000D02*
X59464000Y-70944000D01*
X59464000Y-70944000D02*
X63064000Y-70944000D01*
X63064000Y-70944000D02*
X63064000Y-74944000D01*
X83566000Y-48387000D02*
X86106000Y-48387000D01*
X80746000Y-48107000D02*
X82296000Y-48107000D01*
X83566000Y-48387000D02*
X83566000Y-50927000D01*
X82296000Y-51207000D02*
X80746000Y-51207000D01*
X80746000Y-51207000D02*
X80746000Y-48107000D01*
X83566000Y-50927000D02*
X86106000Y-50927000D01*
X86106000Y-50927000D02*
X86106000Y-48387000D01*
X45008800Y-59471560D02*
X45008800Y-89951560D01*
X45008800Y-89951560D02*
X52628800Y-89951560D01*
X52628800Y-89951560D02*
X52628800Y-59471560D01*
X52628800Y-59471560D02*
X45008800Y-59471560D01*
X73406000Y-62611000D02*
X86106000Y-62611000D01*
X86106000Y-62611000D02*
X86106000Y-65151000D01*
X86106000Y-65151000D02*
X73406000Y-65151000D01*
X70586000Y-62331000D02*
X72136000Y-62331000D01*
X73406000Y-62611000D02*
X73406000Y-65151000D01*
X72136000Y-65431000D02*
X70586000Y-65431000D01*
X70586000Y-65431000D02*
X70586000Y-62331000D01*
X76211150Y-76304670D02*
G75*
G03X76211150Y-76304670I-100000J0D01*
G01*
X76761150Y-76554670D02*
X76261150Y-76554670D01*
X76761150Y-79454670D02*
X76761150Y-76554670D01*
X76261150Y-79454670D02*
X76761150Y-79454670D01*
X76261150Y-76554670D02*
X76261150Y-79454670D01*
X61087000Y-84074000D02*
X61087000Y-89154000D01*
X61087000Y-89154000D02*
X63627000Y-89154000D01*
X63627000Y-89154000D02*
X63627000Y-84074000D01*
X63907000Y-81254000D02*
X63907000Y-82804000D01*
X63627000Y-84074000D02*
X61087000Y-84074000D01*
X60807000Y-82804000D02*
X60807000Y-81254000D01*
X60807000Y-81254000D02*
X63907000Y-81254000D01*
X83657950Y-78762750D02*
X81657950Y-78762750D01*
X81657950Y-80812750D02*
X83657950Y-80812750D01*
X85563350Y-71732150D02*
X85563350Y-69732150D01*
X83513350Y-69732150D02*
X83513350Y-71732150D01*
X76188350Y-74632150D02*
X76888350Y-74632150D01*
X76888350Y-75832150D02*
X76188350Y-75832150D01*
X72044000Y-50642000D02*
X72044000Y-49942000D01*
X73244000Y-49942000D02*
X73244000Y-50642000D01*
X80833410Y-78210410D02*
X80833410Y-77859890D01*
X80833410Y-74710290D02*
X80833410Y-75060810D01*
X84882990Y-78210410D02*
X84882990Y-77859890D01*
X80382110Y-78210410D02*
X80382110Y-77859890D01*
X80382110Y-74710290D02*
X80382110Y-75060810D01*
X84882990Y-74710290D02*
X84882990Y-75060810D01*
X80382110Y-78210410D02*
X84882990Y-78210410D01*
X80382110Y-74710290D02*
X84882990Y-74710290D01*
X73378060Y-72157140D02*
X73027540Y-72157140D01*
X69877940Y-72157140D02*
X70228460Y-72157140D01*
X73378060Y-68107560D02*
X73027540Y-68107560D01*
X73378060Y-72608440D02*
X73027540Y-72608440D01*
X69877940Y-72608440D02*
X70228460Y-72608440D01*
X69877940Y-68107560D02*
X70228460Y-68107560D01*
X73378060Y-72608440D02*
X73378060Y-68107560D01*
X69877940Y-72608440D02*
X69877940Y-68107560D01*
X73421240Y-60354160D02*
X73421240Y-60305900D01*
X72720200Y-57555180D02*
X73421240Y-57555180D01*
X73421240Y-57555180D02*
X73421240Y-57804100D01*
X73421240Y-60354160D02*
X73421240Y-60554820D01*
X73421240Y-60554820D02*
X72720200Y-60554820D01*
X86135160Y-53197760D02*
X86086900Y-53197760D01*
X83336180Y-53898800D02*
X83336180Y-53197760D01*
X83336180Y-53197760D02*
X83585100Y-53197760D01*
X86135160Y-53197760D02*
X86335820Y-53197760D01*
X86335820Y-53197760D02*
X86335820Y-53898800D01*
X73573000Y-79002000D02*
X73573000Y-80002000D01*
X72223000Y-80002000D02*
X72223000Y-79002000D01*
X73573000Y-76208000D02*
X73573000Y-77208000D01*
X72223000Y-77208000D02*
X72223000Y-76208000D01*
X78378430Y-79773150D02*
X79378430Y-79773150D01*
X79378430Y-81123150D02*
X78378430Y-81123150D01*
X75680950Y-79773150D02*
X76680950Y-79773150D01*
X76680950Y-81123150D02*
X75680950Y-81123150D01*
X74890000Y-59555000D02*
X74890000Y-58555000D01*
X76240000Y-58555000D02*
X76240000Y-59555000D01*
X80605000Y-59555000D02*
X80605000Y-58555000D01*
X81955000Y-58555000D02*
X81955000Y-59555000D01*
X80050000Y-58555000D02*
X80050000Y-59555000D01*
X78700000Y-59555000D02*
X78700000Y-58555000D01*
X78145000Y-58555000D02*
X78145000Y-59555000D01*
X76795000Y-59555000D02*
X76795000Y-58555000D01*
X77129000Y-49792000D02*
X77129000Y-50792000D01*
X75779000Y-50792000D02*
X75779000Y-49792000D01*
X79034000Y-49792000D02*
X79034000Y-50792000D01*
X77684000Y-50792000D02*
X77684000Y-49792000D01*
X75224000Y-49792000D02*
X75224000Y-50792000D01*
X73874000Y-50792000D02*
X73874000Y-49792000D01*
X59388000Y-86106000D02*
G75*
G03X59388000Y-86106000I-3000000J0D01*
G01*
X86693000Y-43815000D02*
G75*
G03X86693000Y-43815000I-3000000J0D01*
G01*
X88844381Y-61063095D02*
X87844381Y-61063095D01*
X87844381Y-60682142D01*
X87892000Y-60586904D01*
X87939619Y-60539285D01*
X88034857Y-60491666D01*
X88177714Y-60491666D01*
X88272952Y-60539285D01*
X88320571Y-60586904D01*
X88368190Y-60682142D01*
X88368190Y-61063095D01*
X87844381Y-60158333D02*
X87844381Y-59539285D01*
X88225333Y-59872619D01*
X88225333Y-59729761D01*
X88272952Y-59634523D01*
X88320571Y-59586904D01*
X88415810Y-59539285D01*
X88653905Y-59539285D01*
X88749143Y-59586904D01*
X88796762Y-59634523D01*
X88844381Y-59729761D01*
X88844381Y-60015476D01*
X88796762Y-60110714D01*
X88749143Y-60158333D01*
X79017905Y-84272381D02*
X79017905Y-83272381D01*
X79398858Y-83272381D01*
X79494096Y-83320000D01*
X79541715Y-83367619D01*
X79589334Y-83462857D01*
X79589334Y-83605714D01*
X79541715Y-83700952D01*
X79494096Y-83748571D01*
X79398858Y-83796190D01*
X79017905Y-83796190D01*
X80541715Y-84272381D02*
X79970286Y-84272381D01*
X80256000Y-84272381D02*
X80256000Y-83272381D01*
X80160762Y-83415238D01*
X80065524Y-83510476D01*
X79970286Y-83558095D01*
X60452095Y-64349381D02*
X60452095Y-65158905D01*
X60499714Y-65254143D01*
X60547333Y-65301762D01*
X60642571Y-65349381D01*
X60833048Y-65349381D01*
X60928286Y-65301762D01*
X60975905Y-65254143D01*
X61023524Y-65158905D01*
X61023524Y-64349381D01*
X61452095Y-64444619D02*
X61499714Y-64397000D01*
X61594952Y-64349381D01*
X61833048Y-64349381D01*
X61928286Y-64397000D01*
X61975905Y-64444619D01*
X62023524Y-64539857D01*
X62023524Y-64635095D01*
X61975905Y-64777952D01*
X61404476Y-65349381D01*
X62023524Y-65349381D01*
X86312381Y-50435333D02*
X87026667Y-50435333D01*
X87169524Y-50482953D01*
X87264762Y-50578191D01*
X87312381Y-50721048D01*
X87312381Y-50816286D01*
X87312381Y-49959143D02*
X86312381Y-49959143D01*
X86312381Y-49578190D01*
X86360000Y-49482952D01*
X86407619Y-49435333D01*
X86502857Y-49387714D01*
X86645714Y-49387714D01*
X86740952Y-49435333D01*
X86788571Y-49482952D01*
X86836190Y-49578190D01*
X86836190Y-49959143D01*
X86407619Y-49006762D02*
X86360000Y-48959143D01*
X86312381Y-48863905D01*
X86312381Y-48625809D01*
X86360000Y-48530571D01*
X86407619Y-48482952D01*
X86502857Y-48435333D01*
X86598095Y-48435333D01*
X86740952Y-48482952D01*
X87312381Y-49054381D01*
X87312381Y-48435333D01*
X81184858Y-52070571D02*
X81327715Y-52118190D01*
X81375334Y-52165810D01*
X81422953Y-52261048D01*
X81422953Y-52403905D01*
X81375334Y-52499143D01*
X81327715Y-52546762D01*
X81232477Y-52594381D01*
X80851524Y-52594381D01*
X80851524Y-51594381D01*
X81184858Y-51594381D01*
X81280096Y-51642000D01*
X81327715Y-51689619D01*
X81375334Y-51784857D01*
X81375334Y-51880095D01*
X81327715Y-51975333D01*
X81280096Y-52022952D01*
X81184858Y-52070571D01*
X80851524Y-52070571D01*
X82042000Y-51594381D02*
X82232477Y-51594381D01*
X82327715Y-51642000D01*
X82422953Y-51737238D01*
X82470572Y-51927714D01*
X82470572Y-52261048D01*
X82422953Y-52451524D01*
X82327715Y-52546762D01*
X82232477Y-52594381D01*
X82042000Y-52594381D01*
X81946762Y-52546762D01*
X81851524Y-52451524D01*
X81803905Y-52261048D01*
X81803905Y-51927714D01*
X81851524Y-51737238D01*
X81946762Y-51642000D01*
X82042000Y-51594381D01*
X83089619Y-51594381D02*
X83280096Y-51594381D01*
X83375334Y-51642000D01*
X83470572Y-51737238D01*
X83518191Y-51927714D01*
X83518191Y-52261048D01*
X83470572Y-52451524D01*
X83375334Y-52546762D01*
X83280096Y-52594381D01*
X83089619Y-52594381D01*
X82994381Y-52546762D01*
X82899143Y-52451524D01*
X82851524Y-52261048D01*
X82851524Y-51927714D01*
X82899143Y-51737238D01*
X82994381Y-51642000D01*
X83089619Y-51594381D01*
X83803905Y-51594381D02*
X84375334Y-51594381D01*
X84089619Y-52594381D02*
X84089619Y-51594381D01*
X78446334Y-71191381D02*
X77970143Y-71191381D01*
X77970143Y-70191381D01*
X79303477Y-71191381D02*
X78732048Y-71191381D01*
X79017762Y-71191381D02*
X79017762Y-70191381D01*
X78922524Y-70334238D01*
X78827286Y-70429476D01*
X78732048Y-70477095D01*
X51752381Y-75486095D02*
X50752381Y-75486095D01*
X50752381Y-75105142D01*
X50800000Y-75009904D01*
X50847619Y-74962285D01*
X50942857Y-74914666D01*
X51085714Y-74914666D01*
X51180952Y-74962285D01*
X51228571Y-75009904D01*
X51276190Y-75105142D01*
X51276190Y-75486095D01*
X50847619Y-74533714D02*
X50800000Y-74486095D01*
X50752381Y-74390857D01*
X50752381Y-74152761D01*
X50800000Y-74057523D01*
X50847619Y-74009904D01*
X50942857Y-73962285D01*
X51038095Y-73962285D01*
X51180952Y-74009904D01*
X51752381Y-74581333D01*
X51752381Y-73962285D01*
X77739905Y-66564381D02*
X77739905Y-65564381D01*
X78120858Y-65564381D01*
X78216096Y-65612000D01*
X78263715Y-65659619D01*
X78311334Y-65754857D01*
X78311334Y-65897714D01*
X78263715Y-65992952D01*
X78216096Y-66040571D01*
X78120858Y-66088190D01*
X77739905Y-66088190D01*
X79168477Y-65897714D02*
X79168477Y-66564381D01*
X78930381Y-65516762D02*
X78692286Y-66231048D01*
X79311334Y-66231048D01*
X77501810Y-61722571D02*
X77168476Y-61722571D01*
X77168476Y-62246381D02*
X77168476Y-61246381D01*
X77644667Y-61246381D01*
X77882762Y-61246381D02*
X78454191Y-61246381D01*
X78168476Y-62246381D02*
X78168476Y-61246381D01*
X78787524Y-62246381D02*
X78787524Y-61246381D01*
X79025619Y-61246381D01*
X79168477Y-61294000D01*
X79263715Y-61389238D01*
X79311334Y-61484476D01*
X79358953Y-61674952D01*
X79358953Y-61817810D01*
X79311334Y-62008286D01*
X79263715Y-62103524D01*
X79168477Y-62198762D01*
X79025619Y-62246381D01*
X78787524Y-62246381D01*
X79787524Y-62246381D02*
X79787524Y-61246381D01*
X74350667Y-44418762D02*
X74493524Y-44466381D01*
X74731620Y-44466381D01*
X74826858Y-44418762D01*
X74874477Y-44371143D01*
X74922096Y-44275905D01*
X74922096Y-44180667D01*
X74874477Y-44085429D01*
X74826858Y-44037810D01*
X74731620Y-43990190D01*
X74541143Y-43942571D01*
X74445905Y-43894952D01*
X74398286Y-43847333D01*
X74350667Y-43752095D01*
X74350667Y-43656857D01*
X74398286Y-43561619D01*
X74445905Y-43514000D01*
X74541143Y-43466381D01*
X74779239Y-43466381D01*
X74922096Y-43514000D01*
X75255429Y-43466381D02*
X75493524Y-44466381D01*
X75684001Y-43752095D01*
X75874477Y-44466381D01*
X76112572Y-43466381D01*
X77017334Y-44466381D02*
X76445905Y-44466381D01*
X76731619Y-44466381D02*
X76731619Y-43466381D01*
X76636381Y-43609238D01*
X76541143Y-43704476D01*
X76445905Y-43752095D01*
X74231619Y-48276381D02*
X73898285Y-47800190D01*
X73660190Y-48276381D02*
X73660190Y-47276381D01*
X74041143Y-47276381D01*
X74136381Y-47324000D01*
X74184000Y-47371619D01*
X74231619Y-47466857D01*
X74231619Y-47609714D01*
X74184000Y-47704952D01*
X74136381Y-47752571D01*
X74041143Y-47800190D01*
X73660190Y-47800190D01*
X74660190Y-47752571D02*
X74993524Y-47752571D01*
X75136381Y-48276381D02*
X74660190Y-48276381D01*
X74660190Y-47276381D01*
X75136381Y-47276381D01*
X75517333Y-48228762D02*
X75660190Y-48276381D01*
X75898286Y-48276381D01*
X75993524Y-48228762D01*
X76041143Y-48181143D01*
X76088762Y-48085905D01*
X76088762Y-47990667D01*
X76041143Y-47895429D01*
X75993524Y-47847810D01*
X75898286Y-47800190D01*
X75707809Y-47752571D01*
X75612571Y-47704952D01*
X75564952Y-47657333D01*
X75517333Y-47562095D01*
X75517333Y-47466857D01*
X75564952Y-47371619D01*
X75612571Y-47324000D01*
X75707809Y-47276381D01*
X75945905Y-47276381D01*
X76088762Y-47324000D01*
X76517333Y-47752571D02*
X76850667Y-47752571D01*
X76993524Y-48276381D02*
X76517333Y-48276381D01*
X76517333Y-47276381D01*
X76993524Y-47276381D01*
X77279238Y-47276381D02*
X77850667Y-47276381D01*
X77564952Y-48276381D02*
X77564952Y-47276381D01*
X73874381Y-80898905D02*
X74683905Y-80898905D01*
X74779143Y-80851286D01*
X74826762Y-80803667D01*
X74874381Y-80708429D01*
X74874381Y-80517952D01*
X74826762Y-80422714D01*
X74779143Y-80375095D01*
X74683905Y-80327476D01*
X73874381Y-80327476D01*
X74874381Y-79327476D02*
X74874381Y-79898905D01*
X74874381Y-79613191D02*
X73874381Y-79613191D01*
X74017238Y-79708429D01*
X74112476Y-79803667D01*
X74160095Y-79898905D01*
X59388381Y-83201333D02*
X60102667Y-83201333D01*
X60245524Y-83248953D01*
X60340762Y-83344191D01*
X60388381Y-83487048D01*
X60388381Y-83582286D01*
X60388381Y-82725143D02*
X59388381Y-82725143D01*
X59388381Y-82344190D01*
X59436000Y-82248952D01*
X59483619Y-82201333D01*
X59578857Y-82153714D01*
X59721714Y-82153714D01*
X59816952Y-82201333D01*
X59864571Y-82248952D01*
X59912190Y-82344190D01*
X59912190Y-82725143D01*
X60388381Y-81201333D02*
X60388381Y-81772762D01*
X60388381Y-81487048D02*
X59388381Y-81487048D01*
X59531238Y-81582286D01*
X59626476Y-81677524D01*
X59674095Y-81772762D01*
X82510334Y-81891143D02*
X82462715Y-81938762D01*
X82319858Y-81986381D01*
X82224620Y-81986381D01*
X82081762Y-81938762D01*
X81986524Y-81843524D01*
X81938905Y-81748286D01*
X81891286Y-81557810D01*
X81891286Y-81414952D01*
X81938905Y-81224476D01*
X81986524Y-81129238D01*
X82081762Y-81034000D01*
X82224620Y-80986381D01*
X82319858Y-80986381D01*
X82462715Y-81034000D01*
X82510334Y-81081619D01*
X83462715Y-81986381D02*
X82891286Y-81986381D01*
X83177000Y-81986381D02*
X83177000Y-80986381D01*
X83081762Y-81129238D01*
X82986524Y-81224476D01*
X82891286Y-81272095D01*
X84288334Y-68048143D02*
X84240715Y-68095762D01*
X84097858Y-68143381D01*
X84002620Y-68143381D01*
X83859762Y-68095762D01*
X83764524Y-68000524D01*
X83716905Y-67905286D01*
X83669286Y-67714810D01*
X83669286Y-67571952D01*
X83716905Y-67381476D01*
X83764524Y-67286238D01*
X83859762Y-67191000D01*
X84002620Y-67143381D01*
X84097858Y-67143381D01*
X84240715Y-67191000D01*
X84288334Y-67238619D01*
X84669286Y-67238619D02*
X84716905Y-67191000D01*
X84812143Y-67143381D01*
X85050239Y-67143381D01*
X85145477Y-67191000D01*
X85193096Y-67238619D01*
X85240715Y-67333857D01*
X85240715Y-67429095D01*
X85193096Y-67571952D01*
X84621667Y-68143381D01*
X85240715Y-68143381D01*
X74779143Y-75604666D02*
X74826762Y-75652285D01*
X74874381Y-75795142D01*
X74874381Y-75890380D01*
X74826762Y-76033238D01*
X74731524Y-76128476D01*
X74636286Y-76176095D01*
X74445810Y-76223714D01*
X74302952Y-76223714D01*
X74112476Y-76176095D01*
X74017238Y-76128476D01*
X73922000Y-76033238D01*
X73874381Y-75890380D01*
X73874381Y-75795142D01*
X73922000Y-75652285D01*
X73969619Y-75604666D01*
X73874381Y-75271333D02*
X73874381Y-74652285D01*
X74255333Y-74985619D01*
X74255333Y-74842761D01*
X74302952Y-74747523D01*
X74350571Y-74699904D01*
X74445810Y-74652285D01*
X74683905Y-74652285D01*
X74779143Y-74699904D01*
X74826762Y-74747523D01*
X74874381Y-74842761D01*
X74874381Y-75128476D01*
X74826762Y-75223714D01*
X74779143Y-75271333D01*
X73128143Y-53125666D02*
X73175762Y-53173285D01*
X73223381Y-53316142D01*
X73223381Y-53411380D01*
X73175762Y-53554238D01*
X73080524Y-53649476D01*
X72985286Y-53697095D01*
X72794810Y-53744714D01*
X72651952Y-53744714D01*
X72461476Y-53697095D01*
X72366238Y-53649476D01*
X72271000Y-53554238D01*
X72223381Y-53411380D01*
X72223381Y-53316142D01*
X72271000Y-53173285D01*
X72318619Y-53125666D01*
X72556714Y-52268523D02*
X73223381Y-52268523D01*
X72175762Y-52506619D02*
X72890048Y-52744714D01*
X72890048Y-52125666D01*
X82311905Y-74438381D02*
X82311905Y-73438381D01*
X82550000Y-73438381D01*
X82692858Y-73486000D01*
X82788096Y-73581238D01*
X82835715Y-73676476D01*
X82883334Y-73866952D01*
X82883334Y-74009810D01*
X82835715Y-74200286D01*
X82788096Y-74295524D01*
X82692858Y-74390762D01*
X82550000Y-74438381D01*
X82311905Y-74438381D01*
X83835715Y-74438381D02*
X83264286Y-74438381D01*
X83550000Y-74438381D02*
X83550000Y-73438381D01*
X83454762Y-73581238D01*
X83359524Y-73676476D01*
X83264286Y-73724095D01*
X79232095Y-78502381D02*
X79232095Y-77502381D01*
X79803524Y-78502381D02*
X79374952Y-77930952D01*
X79803524Y-77502381D02*
X79232095Y-78073810D01*
X85351905Y-78216667D02*
X85828096Y-78216667D01*
X85256667Y-78502381D02*
X85590000Y-77502381D01*
X85923334Y-78502381D01*
X69365905Y-74874381D02*
X69365905Y-73874381D01*
X69604000Y-73874381D01*
X69746858Y-73922000D01*
X69842096Y-74017238D01*
X69889715Y-74112476D01*
X69937334Y-74302952D01*
X69937334Y-74445810D01*
X69889715Y-74636286D01*
X69842096Y-74731524D01*
X69746858Y-74826762D01*
X69604000Y-74874381D01*
X69365905Y-74874381D01*
X70318286Y-73969619D02*
X70365905Y-73922000D01*
X70461143Y-73874381D01*
X70699239Y-73874381D01*
X70794477Y-73922000D01*
X70842096Y-73969619D01*
X70889715Y-74064857D01*
X70889715Y-74160095D01*
X70842096Y-74302952D01*
X70270667Y-74874381D01*
X70889715Y-74874381D01*
X73850381Y-73485905D02*
X72850381Y-73485905D01*
X73850381Y-72914476D02*
X73278952Y-73343048D01*
X72850381Y-72914476D02*
X73421810Y-73485905D01*
X73564667Y-67620095D02*
X73564667Y-67143904D01*
X73850381Y-67715333D02*
X72850381Y-67382000D01*
X73850381Y-67048666D01*
X72675762Y-57189619D02*
X72580524Y-57142000D01*
X72485286Y-57046762D01*
X72342429Y-56903905D01*
X72247190Y-56856286D01*
X72151952Y-56856286D01*
X72199571Y-57094381D02*
X72104333Y-57046762D01*
X72009095Y-56951524D01*
X71961476Y-56761048D01*
X71961476Y-56427714D01*
X72009095Y-56237238D01*
X72104333Y-56142000D01*
X72199571Y-56094381D01*
X72390048Y-56094381D01*
X72485286Y-56142000D01*
X72580524Y-56237238D01*
X72628143Y-56427714D01*
X72628143Y-56761048D01*
X72580524Y-56951524D01*
X72485286Y-57046762D01*
X72390048Y-57094381D01*
X72199571Y-57094381D01*
X73580524Y-57094381D02*
X73009095Y-57094381D01*
X73294809Y-57094381D02*
X73294809Y-56094381D01*
X73199571Y-56237238D01*
X73104333Y-56332476D01*
X73009095Y-56380095D01*
X84740762Y-56808619D02*
X84645524Y-56761000D01*
X84550286Y-56665762D01*
X84407429Y-56522905D01*
X84312190Y-56475286D01*
X84216952Y-56475286D01*
X84264571Y-56713381D02*
X84169333Y-56665762D01*
X84074095Y-56570524D01*
X84026476Y-56380048D01*
X84026476Y-56046714D01*
X84074095Y-55856238D01*
X84169333Y-55761000D01*
X84264571Y-55713381D01*
X84455048Y-55713381D01*
X84550286Y-55761000D01*
X84645524Y-55856238D01*
X84693143Y-56046714D01*
X84693143Y-56380048D01*
X84645524Y-56570524D01*
X84550286Y-56665762D01*
X84455048Y-56713381D01*
X84264571Y-56713381D01*
X85074095Y-55808619D02*
X85121714Y-55761000D01*
X85216952Y-55713381D01*
X85455048Y-55713381D01*
X85550286Y-55761000D01*
X85597905Y-55808619D01*
X85645524Y-55903857D01*
X85645524Y-55999095D01*
X85597905Y-56141952D01*
X85026476Y-56713381D01*
X85645524Y-56713381D01*
X71826381Y-79668666D02*
X71350190Y-80002000D01*
X71826381Y-80240095D02*
X70826381Y-80240095D01*
X70826381Y-79859142D01*
X70874000Y-79763904D01*
X70921619Y-79716285D01*
X71016857Y-79668666D01*
X71159714Y-79668666D01*
X71254952Y-79716285D01*
X71302571Y-79763904D01*
X71350190Y-79859142D01*
X71350190Y-80240095D01*
X71826381Y-78716285D02*
X71826381Y-79287714D01*
X71826381Y-79002000D02*
X70826381Y-79002000D01*
X70969238Y-79097238D01*
X71064476Y-79192476D01*
X71112095Y-79287714D01*
X71826381Y-76874666D02*
X71350190Y-77208000D01*
X71826381Y-77446095D02*
X70826381Y-77446095D01*
X70826381Y-77065142D01*
X70874000Y-76969904D01*
X70921619Y-76922285D01*
X71016857Y-76874666D01*
X71159714Y-76874666D01*
X71254952Y-76922285D01*
X71302571Y-76969904D01*
X71350190Y-77065142D01*
X71350190Y-77446095D01*
X70921619Y-76493714D02*
X70874000Y-76446095D01*
X70826381Y-76350857D01*
X70826381Y-76112761D01*
X70874000Y-76017523D01*
X70921619Y-75969904D01*
X71016857Y-75922285D01*
X71112095Y-75922285D01*
X71254952Y-75969904D01*
X71826381Y-76541333D01*
X71826381Y-75922285D01*
X78827334Y-82240381D02*
X78494000Y-81764190D01*
X78255905Y-82240381D02*
X78255905Y-81240381D01*
X78636858Y-81240381D01*
X78732096Y-81288000D01*
X78779715Y-81335619D01*
X78827334Y-81430857D01*
X78827334Y-81573714D01*
X78779715Y-81668952D01*
X78732096Y-81716571D01*
X78636858Y-81764190D01*
X78255905Y-81764190D01*
X79160667Y-81240381D02*
X79779715Y-81240381D01*
X79446381Y-81621333D01*
X79589239Y-81621333D01*
X79684477Y-81668952D01*
X79732096Y-81716571D01*
X79779715Y-81811810D01*
X79779715Y-82049905D01*
X79732096Y-82145143D01*
X79684477Y-82192762D01*
X79589239Y-82240381D01*
X79303524Y-82240381D01*
X79208286Y-82192762D01*
X79160667Y-82145143D01*
X76033334Y-82240381D02*
X75700000Y-81764190D01*
X75461905Y-82240381D02*
X75461905Y-81240381D01*
X75842858Y-81240381D01*
X75938096Y-81288000D01*
X75985715Y-81335619D01*
X76033334Y-81430857D01*
X76033334Y-81573714D01*
X75985715Y-81668952D01*
X75938096Y-81716571D01*
X75842858Y-81764190D01*
X75461905Y-81764190D01*
X76890477Y-81573714D02*
X76890477Y-82240381D01*
X76652381Y-81192762D02*
X76414286Y-81907048D01*
X77033334Y-81907048D01*
X75890381Y-56808666D02*
X75414190Y-57142000D01*
X75890381Y-57380095D02*
X74890381Y-57380095D01*
X74890381Y-56999142D01*
X74938000Y-56903904D01*
X74985619Y-56856285D01*
X75080857Y-56808666D01*
X75223714Y-56808666D01*
X75318952Y-56856285D01*
X75366571Y-56903904D01*
X75414190Y-56999142D01*
X75414190Y-57380095D01*
X74890381Y-55903904D02*
X74890381Y-56380095D01*
X75366571Y-56427714D01*
X75318952Y-56380095D01*
X75271333Y-56284857D01*
X75271333Y-56046761D01*
X75318952Y-55951523D01*
X75366571Y-55903904D01*
X75461810Y-55856285D01*
X75699905Y-55856285D01*
X75795143Y-55903904D01*
X75842762Y-55951523D01*
X75890381Y-56046761D01*
X75890381Y-56284857D01*
X75842762Y-56380095D01*
X75795143Y-56427714D01*
X81732381Y-56808666D02*
X81256190Y-57142000D01*
X81732381Y-57380095D02*
X80732381Y-57380095D01*
X80732381Y-56999142D01*
X80780000Y-56903904D01*
X80827619Y-56856285D01*
X80922857Y-56808666D01*
X81065714Y-56808666D01*
X81160952Y-56856285D01*
X81208571Y-56903904D01*
X81256190Y-56999142D01*
X81256190Y-57380095D01*
X80732381Y-55951523D02*
X80732381Y-56142000D01*
X80780000Y-56237238D01*
X80827619Y-56284857D01*
X80970476Y-56380095D01*
X81160952Y-56427714D01*
X81541905Y-56427714D01*
X81637143Y-56380095D01*
X81684762Y-56332476D01*
X81732381Y-56237238D01*
X81732381Y-56046761D01*
X81684762Y-55951523D01*
X81637143Y-55903904D01*
X81541905Y-55856285D01*
X81303810Y-55856285D01*
X81208571Y-55903904D01*
X81160952Y-55951523D01*
X81113333Y-56046761D01*
X81113333Y-56237238D01*
X81160952Y-56332476D01*
X81208571Y-56380095D01*
X81303810Y-56427714D01*
X79827381Y-56808666D02*
X79351190Y-57142000D01*
X79827381Y-57380095D02*
X78827381Y-57380095D01*
X78827381Y-56999142D01*
X78875000Y-56903904D01*
X78922619Y-56856285D01*
X79017857Y-56808666D01*
X79160714Y-56808666D01*
X79255952Y-56856285D01*
X79303571Y-56903904D01*
X79351190Y-56999142D01*
X79351190Y-57380095D01*
X78827381Y-56475333D02*
X78827381Y-55808666D01*
X79827381Y-56237238D01*
X77922381Y-56808666D02*
X77446190Y-57142000D01*
X77922381Y-57380095D02*
X76922381Y-57380095D01*
X76922381Y-56999142D01*
X76970000Y-56903904D01*
X77017619Y-56856285D01*
X77112857Y-56808666D01*
X77255714Y-56808666D01*
X77350952Y-56856285D01*
X77398571Y-56903904D01*
X77446190Y-56999142D01*
X77446190Y-57380095D01*
X77350952Y-56237238D02*
X77303333Y-56332476D01*
X77255714Y-56380095D01*
X77160476Y-56427714D01*
X77112857Y-56427714D01*
X77017619Y-56380095D01*
X76970000Y-56332476D01*
X76922381Y-56237238D01*
X76922381Y-56046761D01*
X76970000Y-55951523D01*
X77017619Y-55903904D01*
X77112857Y-55856285D01*
X77160476Y-55856285D01*
X77255714Y-55903904D01*
X77303333Y-55951523D01*
X77350952Y-56046761D01*
X77350952Y-56237238D01*
X77398571Y-56332476D01*
X77446190Y-56380095D01*
X77541429Y-56427714D01*
X77731905Y-56427714D01*
X77827143Y-56380095D01*
X77874762Y-56332476D01*
X77922381Y-56237238D01*
X77922381Y-56046761D01*
X77874762Y-55951523D01*
X77827143Y-55903904D01*
X77731905Y-55856285D01*
X77541429Y-55856285D01*
X77446190Y-55903904D01*
X77398571Y-55951523D01*
X77350952Y-56046761D01*
X76906381Y-52871666D02*
X76430190Y-53205000D01*
X76906381Y-53443095D02*
X75906381Y-53443095D01*
X75906381Y-53062142D01*
X75954000Y-52966904D01*
X76001619Y-52919285D01*
X76096857Y-52871666D01*
X76239714Y-52871666D01*
X76334952Y-52919285D01*
X76382571Y-52966904D01*
X76430190Y-53062142D01*
X76430190Y-53443095D01*
X76906381Y-52395476D02*
X76906381Y-52205000D01*
X76858762Y-52109761D01*
X76811143Y-52062142D01*
X76668286Y-51966904D01*
X76477810Y-51919285D01*
X76096857Y-51919285D01*
X76001619Y-51966904D01*
X75954000Y-52014523D01*
X75906381Y-52109761D01*
X75906381Y-52300238D01*
X75954000Y-52395476D01*
X76001619Y-52443095D01*
X76096857Y-52490714D01*
X76334952Y-52490714D01*
X76430190Y-52443095D01*
X76477810Y-52395476D01*
X76525429Y-52300238D01*
X76525429Y-52109761D01*
X76477810Y-52014523D01*
X76430190Y-51966904D01*
X76334952Y-51919285D01*
X78811381Y-53728857D02*
X78335190Y-54062191D01*
X78811381Y-54300286D02*
X77811381Y-54300286D01*
X77811381Y-53919333D01*
X77859000Y-53824095D01*
X77906619Y-53776476D01*
X78001857Y-53728857D01*
X78144714Y-53728857D01*
X78239952Y-53776476D01*
X78287571Y-53824095D01*
X78335190Y-53919333D01*
X78335190Y-54300286D01*
X78811381Y-52776476D02*
X78811381Y-53347905D01*
X78811381Y-53062191D02*
X77811381Y-53062191D01*
X77954238Y-53157429D01*
X78049476Y-53252667D01*
X78097095Y-53347905D01*
X77811381Y-52157429D02*
X77811381Y-52062190D01*
X77859000Y-51966952D01*
X77906619Y-51919333D01*
X78001857Y-51871714D01*
X78192333Y-51824095D01*
X78430429Y-51824095D01*
X78620905Y-51871714D01*
X78716143Y-51919333D01*
X78763762Y-51966952D01*
X78811381Y-52062190D01*
X78811381Y-52157429D01*
X78763762Y-52252667D01*
X78716143Y-52300286D01*
X78620905Y-52347905D01*
X78430429Y-52395524D01*
X78192333Y-52395524D01*
X78001857Y-52347905D01*
X77906619Y-52300286D01*
X77859000Y-52252667D01*
X77811381Y-52157429D01*
X75001381Y-53601857D02*
X74525190Y-53935191D01*
X75001381Y-54173286D02*
X74001381Y-54173286D01*
X74001381Y-53792333D01*
X74049000Y-53697095D01*
X74096619Y-53649476D01*
X74191857Y-53601857D01*
X74334714Y-53601857D01*
X74429952Y-53649476D01*
X74477571Y-53697095D01*
X74525190Y-53792333D01*
X74525190Y-54173286D01*
X75001381Y-52649476D02*
X75001381Y-53220905D01*
X75001381Y-52935191D02*
X74001381Y-52935191D01*
X74144238Y-53030429D01*
X74239476Y-53125667D01*
X74287095Y-53220905D01*
X75001381Y-51697095D02*
X75001381Y-52268524D01*
X75001381Y-51982810D02*
X74001381Y-51982810D01*
X74144238Y-52078048D01*
X74239476Y-52173286D01*
X74287095Y-52268524D01*
X59904381Y-51307905D02*
X60713905Y-51307905D01*
X60809143Y-51260286D01*
X60856762Y-51212667D01*
X60904381Y-51117429D01*
X60904381Y-50926952D01*
X60856762Y-50831714D01*
X60809143Y-50784095D01*
X60713905Y-50736476D01*
X59904381Y-50736476D01*
X59904381Y-50355524D02*
X59904381Y-49736476D01*
X60285333Y-50069810D01*
X60285333Y-49926952D01*
X60332952Y-49831714D01*
X60380571Y-49784095D01*
X60475810Y-49736476D01*
X60713905Y-49736476D01*
X60809143Y-49784095D01*
X60856762Y-49831714D01*
X60904381Y-49926952D01*
X60904381Y-50212667D01*
X60856762Y-50307905D01*
X60809143Y-50355524D01*
X62150571Y-53578286D02*
X62150571Y-53244952D01*
X62674381Y-53102095D02*
X62674381Y-53578286D01*
X61674381Y-53578286D01*
X61674381Y-53102095D01*
X62626762Y-52721143D02*
X62674381Y-52578286D01*
X62674381Y-52340190D01*
X62626762Y-52244952D01*
X62579143Y-52197333D01*
X62483905Y-52149714D01*
X62388667Y-52149714D01*
X62293429Y-52197333D01*
X62245810Y-52244952D01*
X62198190Y-52340190D01*
X62150571Y-52530667D01*
X62102952Y-52625905D01*
X62055333Y-52673524D01*
X61960095Y-52721143D01*
X61864857Y-52721143D01*
X61769619Y-52673524D01*
X61722000Y-52625905D01*
X61674381Y-52530667D01*
X61674381Y-52292571D01*
X61722000Y-52149714D01*
X62674381Y-51721143D02*
X61674381Y-51721143D01*
X61674381Y-51340190D01*
X61722000Y-51244952D01*
X61769619Y-51197333D01*
X61864857Y-51149714D01*
X62007714Y-51149714D01*
X62102952Y-51197333D01*
X62150571Y-51244952D01*
X62198190Y-51340190D01*
X62198190Y-51721143D01*
X62293429Y-50721143D02*
X62293429Y-49959238D01*
X62674381Y-48959238D02*
X62674381Y-49530667D01*
X62674381Y-49244953D02*
X61674381Y-49244953D01*
X61817238Y-49340191D01*
X61912476Y-49435429D01*
X61960095Y-49530667D01*
X61769619Y-48578286D02*
X61722000Y-48530667D01*
X61674381Y-48435429D01*
X61674381Y-48197333D01*
X61722000Y-48102095D01*
X61769619Y-48054476D01*
X61864857Y-48006857D01*
X61960095Y-48006857D01*
X62102952Y-48054476D01*
X62674381Y-48625905D01*
X62674381Y-48006857D01*
X62150571Y-47578286D02*
X62150571Y-47244952D01*
X62674381Y-47102095D02*
X62674381Y-47578286D01*
X61674381Y-47578286D01*
X61674381Y-47102095D01*
M02*
