G04 #@! TF.FileFunction,Legend,Top*
%FSLAX46Y46*%
G04 Gerber Fmt 4.6, Leading zero omitted, Abs format (unit mm)*
G04 Created by KiCad (PCBNEW 0.201506192325+5795~23~ubuntu14.04.1-product) date Sun 30 Aug 2015 22:32:50 BST*
%MOMM*%
G01*
G04 APERTURE LIST*
%ADD10C,0.100000*%
%ADD11C,0.150000*%
%ADD12C,0.152400*%
G04 APERTURE END LIST*
D10*
D11*
X69253100Y-63204876D02*
X69214395Y-63282285D01*
X69214395Y-63398400D01*
X69253100Y-63514514D01*
X69330510Y-63591923D01*
X69407919Y-63630628D01*
X69562738Y-63669333D01*
X69678852Y-63669333D01*
X69833671Y-63630628D01*
X69911081Y-63591923D01*
X69988490Y-63514514D01*
X70027195Y-63398400D01*
X70027195Y-63320990D01*
X69988490Y-63204876D01*
X69949786Y-63166171D01*
X69678852Y-63166171D01*
X69678852Y-63320990D01*
X70027195Y-62817828D02*
X69214395Y-62817828D01*
X70027195Y-62353371D01*
X69214395Y-62353371D01*
X70027195Y-61966323D02*
X69214395Y-61966323D01*
X69214395Y-61772799D01*
X69253100Y-61656685D01*
X69330510Y-61579276D01*
X69407919Y-61540571D01*
X69562738Y-61501866D01*
X69678852Y-61501866D01*
X69833671Y-61540571D01*
X69911081Y-61579276D01*
X69988490Y-61656685D01*
X70027195Y-61772799D01*
X70027195Y-61966323D01*
X87439500Y-80645000D02*
X87439500Y-40005000D01*
X87439500Y-40005000D02*
X95059500Y-40005000D01*
X95059500Y-40005000D02*
X95059500Y-80645000D01*
X95059500Y-80645000D02*
X87439500Y-80645000D01*
X68914000Y-63994000D02*
X68914000Y-60694000D01*
X68914000Y-60694000D02*
X53514000Y-60694000D01*
X53514000Y-60694000D02*
X53514000Y-64044000D01*
X62564000Y-80294000D02*
X68914000Y-80294000D01*
X68914000Y-80294000D02*
X68914000Y-65744000D01*
X59814000Y-80294000D02*
X53514000Y-80294000D01*
X53514000Y-80294000D02*
X53514000Y-65544000D01*
X53564000Y-80294000D02*
X59814000Y-80294000D01*
X65414000Y-64844000D02*
X62964000Y-64844000D01*
X57014000Y-64844000D02*
X59514000Y-64844000D01*
X67264000Y-75444000D02*
X67264000Y-72944000D01*
X61264000Y-76344000D02*
X61264000Y-77144000D01*
X55264000Y-72944000D02*
X55264000Y-75444000D01*
X61264000Y-69544000D02*
X61264000Y-68044000D01*
X61264000Y-68044000D02*
X58764000Y-63444000D01*
X64864000Y-69544000D02*
X64864000Y-76344000D01*
X61264000Y-69544000D02*
X64864000Y-69544000D01*
X61264000Y-76344000D02*
X64864000Y-76344000D01*
X55264000Y-72944000D02*
X59464000Y-72944000D01*
X63064000Y-72944000D02*
X67264000Y-72944000D01*
X63064000Y-70944000D02*
X59464000Y-74944000D01*
X63064000Y-74944000D02*
X59464000Y-74944000D01*
X59464000Y-74944000D02*
X59464000Y-70944000D01*
X59464000Y-70944000D02*
X63064000Y-70944000D01*
X63064000Y-70944000D02*
X63064000Y-74944000D01*
X83566000Y-48387000D02*
X86106000Y-48387000D01*
X80746000Y-48107000D02*
X82296000Y-48107000D01*
X83566000Y-48387000D02*
X83566000Y-50927000D01*
X82296000Y-51207000D02*
X80746000Y-51207000D01*
X80746000Y-51207000D02*
X80746000Y-48107000D01*
X83566000Y-50927000D02*
X86106000Y-50927000D01*
X86106000Y-50927000D02*
X86106000Y-48387000D01*
X45008800Y-59471560D02*
X45008800Y-89951560D01*
X45008800Y-89951560D02*
X52628800Y-89951560D01*
X52628800Y-89951560D02*
X52628800Y-59471560D01*
X52628800Y-59471560D02*
X45008800Y-59471560D01*
X73187180Y-61316480D02*
X85887180Y-61316480D01*
X85887180Y-61316480D02*
X85887180Y-63856480D01*
X85887180Y-63856480D02*
X73187180Y-63856480D01*
X70367180Y-61036480D02*
X71917180Y-61036480D01*
X73187180Y-61316480D02*
X73187180Y-63856480D01*
X71917180Y-64136480D02*
X70367180Y-64136480D01*
X70367180Y-64136480D02*
X70367180Y-61036480D01*
X76155270Y-73790070D02*
G75*
G03X76155270Y-73790070I-100000J0D01*
G01*
X76705270Y-74040070D02*
X76205270Y-74040070D01*
X76705270Y-76940070D02*
X76705270Y-74040070D01*
X76205270Y-76940070D02*
X76705270Y-76940070D01*
X76205270Y-74040070D02*
X76205270Y-76940070D01*
X62717300Y-84311100D02*
X62717300Y-89391100D01*
X62717300Y-89391100D02*
X65257300Y-89391100D01*
X65257300Y-89391100D02*
X65257300Y-84311100D01*
X65537300Y-81491100D02*
X65537300Y-83041100D01*
X65257300Y-84311100D02*
X62717300Y-84311100D01*
X62437300Y-83041100D02*
X62437300Y-81491100D01*
X62437300Y-81491100D02*
X65537300Y-81491100D01*
X83613500Y-76191000D02*
X81613500Y-76191000D01*
X81613500Y-78241000D02*
X83613500Y-78241000D01*
X85096080Y-69202420D02*
X85096080Y-67202420D01*
X83046080Y-67202420D02*
X83046080Y-69202420D01*
X76132470Y-72117550D02*
X76832470Y-72117550D01*
X76832470Y-73317550D02*
X76132470Y-73317550D01*
X72044000Y-50642000D02*
X72044000Y-49942000D01*
X73244000Y-49942000D02*
X73244000Y-50642000D01*
X80777530Y-75695810D02*
X80777530Y-75345290D01*
X80777530Y-72195690D02*
X80777530Y-72546210D01*
X84827110Y-75695810D02*
X84827110Y-75345290D01*
X80326230Y-75695810D02*
X80326230Y-75345290D01*
X80326230Y-72195690D02*
X80326230Y-72546210D01*
X84827110Y-72195690D02*
X84827110Y-72546210D01*
X80326230Y-75695810D02*
X84827110Y-75695810D01*
X80326230Y-72195690D02*
X84827110Y-72195690D01*
X73499600Y-70532420D02*
X73149080Y-70532420D01*
X69999480Y-70532420D02*
X70350000Y-70532420D01*
X73499600Y-66482840D02*
X73149080Y-66482840D01*
X73499600Y-70983720D02*
X73149080Y-70983720D01*
X69999480Y-70983720D02*
X70350000Y-70983720D01*
X69999480Y-66482840D02*
X70350000Y-66482840D01*
X73499600Y-70983720D02*
X73499600Y-66482840D01*
X69999480Y-70983720D02*
X69999480Y-66482840D01*
X71324140Y-59416560D02*
X71372400Y-59416560D01*
X74123120Y-58715520D02*
X74123120Y-59416560D01*
X74123120Y-59416560D02*
X73874200Y-59416560D01*
X71324140Y-59416560D02*
X71123480Y-59416560D01*
X71123480Y-59416560D02*
X71123480Y-58715520D01*
X85960840Y-54787360D02*
X85960840Y-54739100D01*
X85259800Y-51988380D02*
X85960840Y-51988380D01*
X85960840Y-51988380D02*
X85960840Y-52237300D01*
X85960840Y-54787360D02*
X85960840Y-54988020D01*
X85960840Y-54988020D02*
X85259800Y-54988020D01*
X73517120Y-76487400D02*
X73517120Y-77487400D01*
X72167120Y-77487400D02*
X72167120Y-76487400D01*
X73517120Y-73693400D02*
X73517120Y-74693400D01*
X72167120Y-74693400D02*
X72167120Y-73693400D01*
X78322550Y-77258550D02*
X79322550Y-77258550D01*
X79322550Y-78608550D02*
X78322550Y-78608550D01*
X75625070Y-77258550D02*
X76625070Y-77258550D01*
X76625070Y-78608550D02*
X75625070Y-78608550D01*
X74985500Y-53367300D02*
X73985500Y-53367300D01*
X73985500Y-52017300D02*
X74985500Y-52017300D01*
X80647800Y-59550800D02*
X80647800Y-58550800D01*
X81997800Y-58550800D02*
X81997800Y-59550800D01*
X80067400Y-58550800D02*
X80067400Y-59550800D01*
X78717400Y-59550800D02*
X78717400Y-58550800D01*
X78137000Y-58550800D02*
X78137000Y-59550800D01*
X76787000Y-59550800D02*
X76787000Y-58550800D01*
X77129000Y-49792000D02*
X77129000Y-50792000D01*
X75779000Y-50792000D02*
X75779000Y-49792000D01*
X74856600Y-59550800D02*
X74856600Y-58550800D01*
X76206600Y-58550800D02*
X76206600Y-59550800D01*
X75224000Y-49792000D02*
X75224000Y-50792000D01*
X73874000Y-50792000D02*
X73874000Y-49792000D01*
X85858600Y-58550800D02*
X85858600Y-59550800D01*
X84508600Y-59550800D02*
X84508600Y-58550800D01*
X83928200Y-58550800D02*
X83928200Y-59550800D01*
X82578200Y-59550800D02*
X82578200Y-58550800D01*
X77676000Y-50787800D02*
X77676000Y-49787800D01*
X79026000Y-49787800D02*
X79026000Y-50787800D01*
X86707600Y-90026100D02*
X66387600Y-90026100D01*
X66387600Y-82406100D02*
X86707600Y-82406100D01*
X86707600Y-90026100D02*
X86707600Y-82406100D01*
X66387600Y-82406100D02*
X66387600Y-90026100D01*
X59735600Y-85949400D02*
G75*
G03X59735600Y-85949400I-3000000J0D01*
G01*
X93911300Y-85949400D02*
G75*
G03X93911300Y-85949400I-3000000J0D01*
G01*
X86342100Y-44064800D02*
G75*
G03X86342100Y-44064800I-3000000J0D01*
G01*
X86736100Y-68716720D02*
X86736100Y-67166720D01*
X85536100Y-68716720D02*
X85536100Y-67166720D01*
X79270300Y-53067000D02*
X79270300Y-54617000D01*
X80470300Y-53067000D02*
X80470300Y-54617000D01*
X77759000Y-53067000D02*
X77759000Y-54617000D01*
X78959000Y-53067000D02*
X78959000Y-54617000D01*
X80598080Y-82055580D02*
X80598080Y-81705060D01*
X80598080Y-78555460D02*
X80598080Y-78905980D01*
X84647660Y-82055580D02*
X84647660Y-81705060D01*
X80146780Y-82055580D02*
X80146780Y-81705060D01*
X80146780Y-78555460D02*
X80146780Y-78905980D01*
X84647660Y-78555460D02*
X84647660Y-78905980D01*
X80146780Y-82055580D02*
X84647660Y-82055580D01*
X80146780Y-78555460D02*
X84647660Y-78555460D01*
X83226200Y-53892400D02*
X83226200Y-52342400D01*
X82026200Y-53892400D02*
X82026200Y-52342400D01*
X76260400Y-53067000D02*
X76260400Y-54617000D01*
X77460400Y-53067000D02*
X77460400Y-54617000D01*
X84651900Y-57076900D02*
X86201900Y-57076900D01*
X84651900Y-55876900D02*
X86201900Y-55876900D01*
X88844381Y-61063095D02*
X87844381Y-61063095D01*
X87844381Y-60682142D01*
X87892000Y-60586904D01*
X87939619Y-60539285D01*
X88034857Y-60491666D01*
X88177714Y-60491666D01*
X88272952Y-60539285D01*
X88320571Y-60586904D01*
X88368190Y-60682142D01*
X88368190Y-61063095D01*
X87844381Y-60158333D02*
X87844381Y-59539285D01*
X88225333Y-59872619D01*
X88225333Y-59729761D01*
X88272952Y-59634523D01*
X88320571Y-59586904D01*
X88415810Y-59539285D01*
X88653905Y-59539285D01*
X88749143Y-59586904D01*
X88796762Y-59634523D01*
X88844381Y-59729761D01*
X88844381Y-60015476D01*
X88796762Y-60110714D01*
X88749143Y-60158333D01*
X60452095Y-64349381D02*
X60452095Y-65158905D01*
X60499714Y-65254143D01*
X60547333Y-65301762D01*
X60642571Y-65349381D01*
X60833048Y-65349381D01*
X60928286Y-65301762D01*
X60975905Y-65254143D01*
X61023524Y-65158905D01*
X61023524Y-64349381D01*
X61452095Y-64444619D02*
X61499714Y-64397000D01*
X61594952Y-64349381D01*
X61833048Y-64349381D01*
X61928286Y-64397000D01*
X61975905Y-64444619D01*
X62023524Y-64539857D01*
X62023524Y-64635095D01*
X61975905Y-64777952D01*
X61404476Y-65349381D01*
X62023524Y-65349381D01*
X86414895Y-50279333D02*
X86995467Y-50279333D01*
X87111581Y-50318037D01*
X87188990Y-50395447D01*
X87227695Y-50511561D01*
X87227695Y-50588971D01*
X87227695Y-49892285D02*
X86414895Y-49892285D01*
X86414895Y-49582647D01*
X86453600Y-49505238D01*
X86492305Y-49466533D01*
X86569714Y-49427828D01*
X86685829Y-49427828D01*
X86763238Y-49466533D01*
X86801943Y-49505238D01*
X86840648Y-49582647D01*
X86840648Y-49892285D01*
X86492305Y-49118190D02*
X86453600Y-49079485D01*
X86414895Y-49002076D01*
X86414895Y-48808552D01*
X86453600Y-48731142D01*
X86492305Y-48692438D01*
X86569714Y-48653733D01*
X86647124Y-48653733D01*
X86763238Y-48692438D01*
X87227695Y-49156895D01*
X87227695Y-48653733D01*
X79964643Y-50709286D02*
X80003348Y-50593172D01*
X80042052Y-50554467D01*
X80119462Y-50515762D01*
X80235576Y-50515762D01*
X80312986Y-50554467D01*
X80351690Y-50593172D01*
X80390395Y-50670581D01*
X80390395Y-50980219D01*
X79577595Y-50980219D01*
X79577595Y-50709286D01*
X79616300Y-50631876D01*
X79655005Y-50593172D01*
X79732414Y-50554467D01*
X79809824Y-50554467D01*
X79887233Y-50593172D01*
X79925938Y-50631876D01*
X79964643Y-50709286D01*
X79964643Y-50980219D01*
X79577595Y-50012600D02*
X79577595Y-49857781D01*
X79616300Y-49780372D01*
X79693710Y-49702962D01*
X79848529Y-49664257D01*
X80119462Y-49664257D01*
X80274281Y-49702962D01*
X80351690Y-49780372D01*
X80390395Y-49857781D01*
X80390395Y-50012600D01*
X80351690Y-50090010D01*
X80274281Y-50167419D01*
X80119462Y-50206124D01*
X79848529Y-50206124D01*
X79693710Y-50167419D01*
X79616300Y-50090010D01*
X79577595Y-50012600D01*
X79577595Y-49161095D02*
X79577595Y-49006276D01*
X79616300Y-48928867D01*
X79693710Y-48851457D01*
X79848529Y-48812752D01*
X80119462Y-48812752D01*
X80274281Y-48851457D01*
X80351690Y-48928867D01*
X80390395Y-49006276D01*
X80390395Y-49161095D01*
X80351690Y-49238505D01*
X80274281Y-49315914D01*
X80119462Y-49354619D01*
X79848529Y-49354619D01*
X79693710Y-49315914D01*
X79616300Y-49238505D01*
X79577595Y-49161095D01*
X79577595Y-48580523D02*
X79577595Y-48116066D01*
X80390395Y-48348295D02*
X79577595Y-48348295D01*
X78421653Y-68592095D02*
X78034606Y-68592095D01*
X78034606Y-67779295D01*
X79118339Y-68592095D02*
X78653882Y-68592095D01*
X78886111Y-68592095D02*
X78886111Y-67779295D01*
X78808701Y-67895410D01*
X78731292Y-67972819D01*
X78653882Y-68011524D01*
X46477181Y-75477595D02*
X45477181Y-75477595D01*
X45477181Y-75096642D01*
X45524800Y-75001404D01*
X45572419Y-74953785D01*
X45667657Y-74906166D01*
X45810514Y-74906166D01*
X45905752Y-74953785D01*
X45953371Y-75001404D01*
X46000990Y-75096642D01*
X46000990Y-75477595D01*
X45572419Y-74525214D02*
X45524800Y-74477595D01*
X45477181Y-74382357D01*
X45477181Y-74144261D01*
X45524800Y-74049023D01*
X45572419Y-74001404D01*
X45667657Y-73953785D01*
X45762895Y-73953785D01*
X45905752Y-74001404D01*
X46477181Y-74572833D01*
X46477181Y-73953785D01*
X86943595Y-63172823D02*
X86130795Y-63172823D01*
X86130795Y-62863185D01*
X86169500Y-62785776D01*
X86208205Y-62747071D01*
X86285614Y-62708366D01*
X86401729Y-62708366D01*
X86479138Y-62747071D01*
X86517843Y-62785776D01*
X86556548Y-62863185D01*
X86556548Y-63172823D01*
X86401729Y-62011680D02*
X86943595Y-62011680D01*
X86092090Y-62205204D02*
X86672662Y-62398728D01*
X86672662Y-61895566D01*
X77527452Y-60698743D02*
X77256519Y-60698743D01*
X77256519Y-61124495D02*
X77256519Y-60311695D01*
X77643566Y-60311695D01*
X77837091Y-60311695D02*
X78301548Y-60311695D01*
X78069319Y-61124495D02*
X78069319Y-60311695D01*
X78572481Y-61124495D02*
X78572481Y-60311695D01*
X78766005Y-60311695D01*
X78882119Y-60350400D01*
X78959528Y-60427810D01*
X78998233Y-60505219D01*
X79036938Y-60660038D01*
X79036938Y-60776152D01*
X78998233Y-60930971D01*
X78959528Y-61008381D01*
X78882119Y-61085790D01*
X78766005Y-61124495D01*
X78572481Y-61124495D01*
X79385281Y-61124495D02*
X79385281Y-60311695D01*
X74600267Y-44342990D02*
X74716381Y-44381695D01*
X74909905Y-44381695D01*
X74987315Y-44342990D01*
X75026019Y-44304286D01*
X75064724Y-44226876D01*
X75064724Y-44149467D01*
X75026019Y-44072057D01*
X74987315Y-44033352D01*
X74909905Y-43994648D01*
X74755086Y-43955943D01*
X74677677Y-43917238D01*
X74638972Y-43878533D01*
X74600267Y-43801124D01*
X74600267Y-43723714D01*
X74638972Y-43646305D01*
X74677677Y-43607600D01*
X74755086Y-43568895D01*
X74948610Y-43568895D01*
X75064724Y-43607600D01*
X75335657Y-43568895D02*
X75529181Y-44381695D01*
X75684000Y-43801124D01*
X75838819Y-44381695D01*
X76032343Y-43568895D01*
X76767733Y-44381695D02*
X76303276Y-44381695D01*
X76535505Y-44381695D02*
X76535505Y-43568895D01*
X76458095Y-43685010D01*
X76380686Y-43762419D01*
X76303276Y-43801124D01*
X72503695Y-45224094D02*
X72116648Y-45495027D01*
X72503695Y-45688551D02*
X71690895Y-45688551D01*
X71690895Y-45378913D01*
X71729600Y-45301504D01*
X71768305Y-45262799D01*
X71845714Y-45224094D01*
X71961829Y-45224094D01*
X72039238Y-45262799D01*
X72077943Y-45301504D01*
X72116648Y-45378913D01*
X72116648Y-45688551D01*
X72077943Y-44875751D02*
X72077943Y-44604818D01*
X72503695Y-44488704D02*
X72503695Y-44875751D01*
X71690895Y-44875751D01*
X71690895Y-44488704D01*
X72464990Y-44179066D02*
X72503695Y-44062952D01*
X72503695Y-43869428D01*
X72464990Y-43792018D01*
X72426286Y-43753314D01*
X72348876Y-43714609D01*
X72271467Y-43714609D01*
X72194057Y-43753314D01*
X72155352Y-43792018D01*
X72116648Y-43869428D01*
X72077943Y-44024247D01*
X72039238Y-44101656D01*
X72000533Y-44140361D01*
X71923124Y-44179066D01*
X71845714Y-44179066D01*
X71768305Y-44140361D01*
X71729600Y-44101656D01*
X71690895Y-44024247D01*
X71690895Y-43830723D01*
X71729600Y-43714609D01*
X72077943Y-43366266D02*
X72077943Y-43095333D01*
X72503695Y-42979219D02*
X72503695Y-43366266D01*
X71690895Y-43366266D01*
X71690895Y-42979219D01*
X71690895Y-42746990D02*
X71690895Y-42282533D01*
X72503695Y-42514762D02*
X71690895Y-42514762D01*
X73799095Y-77835276D02*
X74457076Y-77835276D01*
X74534486Y-77796571D01*
X74573190Y-77757867D01*
X74611895Y-77680457D01*
X74611895Y-77525638D01*
X74573190Y-77448229D01*
X74534486Y-77409524D01*
X74457076Y-77370819D01*
X73799095Y-77370819D01*
X74611895Y-76558019D02*
X74611895Y-77022476D01*
X74611895Y-76790247D02*
X73799095Y-76790247D01*
X73915210Y-76867657D01*
X73992619Y-76945066D01*
X74031324Y-77022476D01*
X61121195Y-83282433D02*
X61701767Y-83282433D01*
X61817881Y-83321137D01*
X61895290Y-83398547D01*
X61933995Y-83514661D01*
X61933995Y-83592071D01*
X61933995Y-82895385D02*
X61121195Y-82895385D01*
X61121195Y-82585747D01*
X61159900Y-82508338D01*
X61198605Y-82469633D01*
X61276014Y-82430928D01*
X61392129Y-82430928D01*
X61469538Y-82469633D01*
X61508243Y-82508338D01*
X61546948Y-82585747D01*
X61546948Y-82895385D01*
X61933995Y-81656833D02*
X61933995Y-82121290D01*
X61933995Y-81889061D02*
X61121195Y-81889061D01*
X61237310Y-81966471D01*
X61314719Y-82043880D01*
X61353424Y-82121290D01*
X85386334Y-77480886D02*
X85347629Y-77519590D01*
X85231515Y-77558295D01*
X85154105Y-77558295D01*
X85037991Y-77519590D01*
X84960582Y-77442181D01*
X84921877Y-77364771D01*
X84883172Y-77209952D01*
X84883172Y-77093838D01*
X84921877Y-76939019D01*
X84960582Y-76861610D01*
X85037991Y-76784200D01*
X85154105Y-76745495D01*
X85231515Y-76745495D01*
X85347629Y-76784200D01*
X85386334Y-76822905D01*
X86160429Y-77558295D02*
X85695972Y-77558295D01*
X85928201Y-77558295D02*
X85928201Y-76745495D01*
X85850791Y-76861610D01*
X85773382Y-76939019D01*
X85695972Y-76977724D01*
X83852264Y-65451556D02*
X83813559Y-65490260D01*
X83697445Y-65528965D01*
X83620035Y-65528965D01*
X83503921Y-65490260D01*
X83426512Y-65412851D01*
X83387807Y-65335441D01*
X83349102Y-65180622D01*
X83349102Y-65064508D01*
X83387807Y-64909689D01*
X83426512Y-64832280D01*
X83503921Y-64754870D01*
X83620035Y-64716165D01*
X83697445Y-64716165D01*
X83813559Y-64754870D01*
X83852264Y-64793575D01*
X84161902Y-64793575D02*
X84200607Y-64754870D01*
X84278016Y-64716165D01*
X84471540Y-64716165D01*
X84548950Y-64754870D01*
X84587654Y-64793575D01*
X84626359Y-64870984D01*
X84626359Y-64948394D01*
X84587654Y-65064508D01*
X84123197Y-65528965D01*
X84626359Y-65528965D01*
X74839286Y-72855666D02*
X74877990Y-72894371D01*
X74916695Y-73010485D01*
X74916695Y-73087895D01*
X74877990Y-73204009D01*
X74800581Y-73281418D01*
X74723171Y-73320123D01*
X74568352Y-73358828D01*
X74452238Y-73358828D01*
X74297419Y-73320123D01*
X74220010Y-73281418D01*
X74142600Y-73204009D01*
X74103895Y-73087895D01*
X74103895Y-73010485D01*
X74142600Y-72894371D01*
X74181305Y-72855666D01*
X74103895Y-72584733D02*
X74103895Y-72081571D01*
X74413533Y-72352504D01*
X74413533Y-72236390D01*
X74452238Y-72158980D01*
X74490943Y-72120276D01*
X74568352Y-72081571D01*
X74761876Y-72081571D01*
X74839286Y-72120276D01*
X74877990Y-72158980D01*
X74916695Y-72236390D01*
X74916695Y-72468618D01*
X74877990Y-72546028D01*
X74839286Y-72584733D01*
X72959686Y-48179566D02*
X72998390Y-48218271D01*
X73037095Y-48334385D01*
X73037095Y-48411795D01*
X72998390Y-48527909D01*
X72920981Y-48605318D01*
X72843571Y-48644023D01*
X72688752Y-48682728D01*
X72572638Y-48682728D01*
X72417819Y-48644023D01*
X72340410Y-48605318D01*
X72263000Y-48527909D01*
X72224295Y-48411795D01*
X72224295Y-48334385D01*
X72263000Y-48218271D01*
X72301705Y-48179566D01*
X72495229Y-47482880D02*
X73037095Y-47482880D01*
X72185590Y-47676404D02*
X72766162Y-47869928D01*
X72766162Y-47366766D01*
X84782177Y-71894095D02*
X84782177Y-71081295D01*
X84975701Y-71081295D01*
X85091815Y-71120000D01*
X85169224Y-71197410D01*
X85207929Y-71274819D01*
X85246634Y-71429638D01*
X85246634Y-71545752D01*
X85207929Y-71700571D01*
X85169224Y-71777981D01*
X85091815Y-71855390D01*
X84975701Y-71894095D01*
X84782177Y-71894095D01*
X86020729Y-71894095D02*
X85556272Y-71894095D01*
X85788501Y-71894095D02*
X85788501Y-71081295D01*
X85711091Y-71197410D01*
X85633682Y-71274819D01*
X85556272Y-71313524D01*
X79176215Y-75987781D02*
X79176215Y-74987781D01*
X79747644Y-75987781D02*
X79319072Y-75416352D01*
X79747644Y-74987781D02*
X79176215Y-75559210D01*
X85296025Y-75702067D02*
X85772216Y-75702067D01*
X85200787Y-75987781D02*
X85534120Y-74987781D01*
X85867454Y-75987781D01*
X69846977Y-73214895D02*
X69846977Y-72402095D01*
X70040501Y-72402095D01*
X70156615Y-72440800D01*
X70234024Y-72518210D01*
X70272729Y-72595619D01*
X70311434Y-72750438D01*
X70311434Y-72866552D01*
X70272729Y-73021371D01*
X70234024Y-73098781D01*
X70156615Y-73176190D01*
X70040501Y-73214895D01*
X69846977Y-73214895D01*
X70621072Y-72479505D02*
X70659777Y-72440800D01*
X70737186Y-72402095D01*
X70930710Y-72402095D01*
X71008120Y-72440800D01*
X71046824Y-72479505D01*
X71085529Y-72556914D01*
X71085529Y-72634324D01*
X71046824Y-72750438D01*
X70582367Y-73214895D01*
X71085529Y-73214895D01*
X73971921Y-71861185D02*
X72971921Y-71861185D01*
X73971921Y-71289756D02*
X73400492Y-71718328D01*
X72971921Y-71289756D02*
X73543350Y-71861185D01*
X73686207Y-65995375D02*
X73686207Y-65519184D01*
X73971921Y-66090613D02*
X72971921Y-65757280D01*
X73971921Y-65423946D01*
X72545890Y-56925425D02*
X72468481Y-56886720D01*
X72391071Y-56809310D01*
X72274957Y-56693196D01*
X72197548Y-56654491D01*
X72120138Y-56654491D01*
X72158843Y-56848015D02*
X72081433Y-56809310D01*
X72004024Y-56731901D01*
X71965319Y-56577082D01*
X71965319Y-56306149D01*
X72004024Y-56151330D01*
X72081433Y-56073920D01*
X72158843Y-56035215D01*
X72313662Y-56035215D01*
X72391071Y-56073920D01*
X72468481Y-56151330D01*
X72507186Y-56306149D01*
X72507186Y-56577082D01*
X72468481Y-56731901D01*
X72391071Y-56809310D01*
X72313662Y-56848015D01*
X72158843Y-56848015D01*
X73281281Y-56848015D02*
X72816824Y-56848015D01*
X73049053Y-56848015D02*
X73049053Y-56035215D01*
X72971643Y-56151330D01*
X72894234Y-56228739D01*
X72816824Y-56267444D01*
X87236905Y-52299810D02*
X87198200Y-52377219D01*
X87120790Y-52454629D01*
X87004676Y-52570743D01*
X86965971Y-52648152D01*
X86965971Y-52725562D01*
X87159495Y-52686857D02*
X87120790Y-52764267D01*
X87043381Y-52841676D01*
X86888562Y-52880381D01*
X86617629Y-52880381D01*
X86462810Y-52841676D01*
X86385400Y-52764267D01*
X86346695Y-52686857D01*
X86346695Y-52532038D01*
X86385400Y-52454629D01*
X86462810Y-52377219D01*
X86617629Y-52338514D01*
X86888562Y-52338514D01*
X87043381Y-52377219D01*
X87120790Y-52454629D01*
X87159495Y-52532038D01*
X87159495Y-52686857D01*
X86424105Y-52028876D02*
X86385400Y-51990171D01*
X86346695Y-51912762D01*
X86346695Y-51719238D01*
X86385400Y-51641828D01*
X86424105Y-51603124D01*
X86501514Y-51564419D01*
X86578924Y-51564419D01*
X86695038Y-51603124D01*
X87159495Y-52067581D01*
X87159495Y-51564419D01*
X71685815Y-77122866D02*
X71298768Y-77393799D01*
X71685815Y-77587323D02*
X70873015Y-77587323D01*
X70873015Y-77277685D01*
X70911720Y-77200276D01*
X70950425Y-77161571D01*
X71027834Y-77122866D01*
X71143949Y-77122866D01*
X71221358Y-77161571D01*
X71260063Y-77200276D01*
X71298768Y-77277685D01*
X71298768Y-77587323D01*
X71685815Y-76348771D02*
X71685815Y-76813228D01*
X71685815Y-76580999D02*
X70873015Y-76580999D01*
X70989130Y-76658409D01*
X71066539Y-76735818D01*
X71105244Y-76813228D01*
X71685815Y-74328866D02*
X71298768Y-74599799D01*
X71685815Y-74793323D02*
X70873015Y-74793323D01*
X70873015Y-74483685D01*
X70911720Y-74406276D01*
X70950425Y-74367571D01*
X71027834Y-74328866D01*
X71143949Y-74328866D01*
X71221358Y-74367571D01*
X71260063Y-74406276D01*
X71298768Y-74483685D01*
X71298768Y-74793323D01*
X70950425Y-74019228D02*
X70911720Y-73980523D01*
X70873015Y-73903114D01*
X70873015Y-73709590D01*
X70911720Y-73632180D01*
X70950425Y-73593476D01*
X71027834Y-73554771D01*
X71105244Y-73554771D01*
X71221358Y-73593476D01*
X71685815Y-74057933D01*
X71685815Y-73554771D01*
X78012714Y-79577595D02*
X77741781Y-79190548D01*
X77548257Y-79577595D02*
X77548257Y-78764795D01*
X77857895Y-78764795D01*
X77935304Y-78803500D01*
X77974009Y-78842205D01*
X78012714Y-78919614D01*
X78012714Y-79035729D01*
X77974009Y-79113138D01*
X77935304Y-79151843D01*
X77857895Y-79190548D01*
X77548257Y-79190548D01*
X78283647Y-78764795D02*
X78786809Y-78764795D01*
X78515876Y-79074433D01*
X78631990Y-79074433D01*
X78709400Y-79113138D01*
X78748104Y-79151843D01*
X78786809Y-79229252D01*
X78786809Y-79422776D01*
X78748104Y-79500186D01*
X78709400Y-79538890D01*
X78631990Y-79577595D01*
X78399762Y-79577595D01*
X78322352Y-79538890D01*
X78283647Y-79500186D01*
X75274594Y-79633475D02*
X75003661Y-79246428D01*
X74810137Y-79633475D02*
X74810137Y-78820675D01*
X75119775Y-78820675D01*
X75197184Y-78859380D01*
X75235889Y-78898085D01*
X75274594Y-78975494D01*
X75274594Y-79091609D01*
X75235889Y-79169018D01*
X75197184Y-79207723D01*
X75119775Y-79246428D01*
X74810137Y-79246428D01*
X75971280Y-79091609D02*
X75971280Y-79633475D01*
X75777756Y-78781970D02*
X75584232Y-79362542D01*
X76087394Y-79362542D01*
X73087895Y-52853166D02*
X72700848Y-53124099D01*
X73087895Y-53317623D02*
X72275095Y-53317623D01*
X72275095Y-53007985D01*
X72313800Y-52930576D01*
X72352505Y-52891871D01*
X72429914Y-52853166D01*
X72546029Y-52853166D01*
X72623438Y-52891871D01*
X72662143Y-52930576D01*
X72700848Y-53007985D01*
X72700848Y-53317623D01*
X72275095Y-52117776D02*
X72275095Y-52504823D01*
X72662143Y-52543528D01*
X72623438Y-52504823D01*
X72584733Y-52427414D01*
X72584733Y-52233890D01*
X72623438Y-52156480D01*
X72662143Y-52117776D01*
X72739552Y-52079071D01*
X72933076Y-52079071D01*
X73010486Y-52117776D01*
X73049190Y-52156480D01*
X73087895Y-52233890D01*
X73087895Y-52427414D01*
X73049190Y-52504823D01*
X73010486Y-52543528D01*
X81736595Y-57120366D02*
X81349548Y-57391299D01*
X81736595Y-57584823D02*
X80923795Y-57584823D01*
X80923795Y-57275185D01*
X80962500Y-57197776D01*
X81001205Y-57159071D01*
X81078614Y-57120366D01*
X81194729Y-57120366D01*
X81272138Y-57159071D01*
X81310843Y-57197776D01*
X81349548Y-57275185D01*
X81349548Y-57584823D01*
X80923795Y-56423680D02*
X80923795Y-56578499D01*
X80962500Y-56655909D01*
X81001205Y-56694614D01*
X81117319Y-56772023D01*
X81272138Y-56810728D01*
X81581776Y-56810728D01*
X81659186Y-56772023D01*
X81697890Y-56733318D01*
X81736595Y-56655909D01*
X81736595Y-56501090D01*
X81697890Y-56423680D01*
X81659186Y-56384976D01*
X81581776Y-56346271D01*
X81388252Y-56346271D01*
X81310843Y-56384976D01*
X81272138Y-56423680D01*
X81233433Y-56501090D01*
X81233433Y-56655909D01*
X81272138Y-56733318D01*
X81310843Y-56772023D01*
X81388252Y-56810728D01*
X79818895Y-57145766D02*
X79431848Y-57416699D01*
X79818895Y-57610223D02*
X79006095Y-57610223D01*
X79006095Y-57300585D01*
X79044800Y-57223176D01*
X79083505Y-57184471D01*
X79160914Y-57145766D01*
X79277029Y-57145766D01*
X79354438Y-57184471D01*
X79393143Y-57223176D01*
X79431848Y-57300585D01*
X79431848Y-57610223D01*
X79006095Y-56874833D02*
X79006095Y-56332966D01*
X79818895Y-56681309D01*
X77850395Y-57120366D02*
X77463348Y-57391299D01*
X77850395Y-57584823D02*
X77037595Y-57584823D01*
X77037595Y-57275185D01*
X77076300Y-57197776D01*
X77115005Y-57159071D01*
X77192414Y-57120366D01*
X77308529Y-57120366D01*
X77385938Y-57159071D01*
X77424643Y-57197776D01*
X77463348Y-57275185D01*
X77463348Y-57584823D01*
X77385938Y-56655909D02*
X77347233Y-56733318D01*
X77308529Y-56772023D01*
X77231119Y-56810728D01*
X77192414Y-56810728D01*
X77115005Y-56772023D01*
X77076300Y-56733318D01*
X77037595Y-56655909D01*
X77037595Y-56501090D01*
X77076300Y-56423680D01*
X77115005Y-56384976D01*
X77192414Y-56346271D01*
X77231119Y-56346271D01*
X77308529Y-56384976D01*
X77347233Y-56423680D01*
X77385938Y-56501090D01*
X77385938Y-56655909D01*
X77424643Y-56733318D01*
X77463348Y-56772023D01*
X77540757Y-56810728D01*
X77695576Y-56810728D01*
X77772986Y-56772023D01*
X77811690Y-56733318D01*
X77850395Y-56655909D01*
X77850395Y-56501090D01*
X77811690Y-56423680D01*
X77772986Y-56384976D01*
X77695576Y-56346271D01*
X77540757Y-56346271D01*
X77463348Y-56384976D01*
X77424643Y-56423680D01*
X77385938Y-56501090D01*
X76847095Y-48395466D02*
X76460048Y-48666399D01*
X76847095Y-48859923D02*
X76034295Y-48859923D01*
X76034295Y-48550285D01*
X76073000Y-48472876D01*
X76111705Y-48434171D01*
X76189114Y-48395466D01*
X76305229Y-48395466D01*
X76382638Y-48434171D01*
X76421343Y-48472876D01*
X76460048Y-48550285D01*
X76460048Y-48859923D01*
X76847095Y-48008418D02*
X76847095Y-47853599D01*
X76808390Y-47776190D01*
X76769686Y-47737485D01*
X76653571Y-47660076D01*
X76498752Y-47621371D01*
X76189114Y-47621371D01*
X76111705Y-47660076D01*
X76073000Y-47698780D01*
X76034295Y-47776190D01*
X76034295Y-47931009D01*
X76073000Y-48008418D01*
X76111705Y-48047123D01*
X76189114Y-48085828D01*
X76382638Y-48085828D01*
X76460048Y-48047123D01*
X76498752Y-48008418D01*
X76537457Y-47931009D01*
X76537457Y-47776190D01*
X76498752Y-47698780D01*
X76460048Y-47660076D01*
X76382638Y-47621371D01*
D12*
X75932695Y-57126414D02*
X75545648Y-57397347D01*
X75932695Y-57590871D02*
X75119895Y-57590871D01*
X75119895Y-57281233D01*
X75158600Y-57203824D01*
X75197305Y-57165119D01*
X75274714Y-57126414D01*
X75390829Y-57126414D01*
X75468238Y-57165119D01*
X75506943Y-57203824D01*
X75545648Y-57281233D01*
X75545648Y-57590871D01*
X75932695Y-56352319D02*
X75932695Y-56816776D01*
X75932695Y-56584547D02*
X75119895Y-56584547D01*
X75236010Y-56661957D01*
X75313419Y-56739366D01*
X75352124Y-56816776D01*
X75119895Y-55849157D02*
X75119895Y-55771748D01*
X75158600Y-55694338D01*
X75197305Y-55655633D01*
X75274714Y-55616929D01*
X75429533Y-55578224D01*
X75623057Y-55578224D01*
X75777876Y-55616929D01*
X75855286Y-55655633D01*
X75893990Y-55694338D01*
X75932695Y-55771748D01*
X75932695Y-55849157D01*
X75893990Y-55926567D01*
X75855286Y-55965271D01*
X75777876Y-56003976D01*
X75623057Y-56042681D01*
X75429533Y-56042681D01*
X75274714Y-56003976D01*
X75197305Y-55965271D01*
X75158600Y-55926567D01*
X75119895Y-55849157D01*
D11*
X74942095Y-48388814D02*
X74555048Y-48659747D01*
X74942095Y-48853271D02*
X74129295Y-48853271D01*
X74129295Y-48543633D01*
X74168000Y-48466224D01*
X74206705Y-48427519D01*
X74284114Y-48388814D01*
X74400229Y-48388814D01*
X74477638Y-48427519D01*
X74516343Y-48466224D01*
X74555048Y-48543633D01*
X74555048Y-48853271D01*
X74942095Y-47614719D02*
X74942095Y-48079176D01*
X74942095Y-47846947D02*
X74129295Y-47846947D01*
X74245410Y-47924357D01*
X74322819Y-48001766D01*
X74361524Y-48079176D01*
X74942095Y-46840624D02*
X74942095Y-47305081D01*
X74942095Y-47072852D02*
X74129295Y-47072852D01*
X74245410Y-47150262D01*
X74322819Y-47227671D01*
X74361524Y-47305081D01*
X59904381Y-51307905D02*
X60713905Y-51307905D01*
X60809143Y-51260286D01*
X60856762Y-51212667D01*
X60904381Y-51117429D01*
X60904381Y-50926952D01*
X60856762Y-50831714D01*
X60809143Y-50784095D01*
X60713905Y-50736476D01*
X59904381Y-50736476D01*
X59904381Y-50355524D02*
X59904381Y-49736476D01*
X60285333Y-50069810D01*
X60285333Y-49926952D01*
X60332952Y-49831714D01*
X60380571Y-49784095D01*
X60475810Y-49736476D01*
X60713905Y-49736476D01*
X60809143Y-49784095D01*
X60856762Y-49831714D01*
X60904381Y-49926952D01*
X60904381Y-50212667D01*
X60856762Y-50307905D01*
X60809143Y-50355524D01*
X62150571Y-53578286D02*
X62150571Y-53244952D01*
X62674381Y-53102095D02*
X62674381Y-53578286D01*
X61674381Y-53578286D01*
X61674381Y-53102095D01*
X62626762Y-52721143D02*
X62674381Y-52578286D01*
X62674381Y-52340190D01*
X62626762Y-52244952D01*
X62579143Y-52197333D01*
X62483905Y-52149714D01*
X62388667Y-52149714D01*
X62293429Y-52197333D01*
X62245810Y-52244952D01*
X62198190Y-52340190D01*
X62150571Y-52530667D01*
X62102952Y-52625905D01*
X62055333Y-52673524D01*
X61960095Y-52721143D01*
X61864857Y-52721143D01*
X61769619Y-52673524D01*
X61722000Y-52625905D01*
X61674381Y-52530667D01*
X61674381Y-52292571D01*
X61722000Y-52149714D01*
X62674381Y-51721143D02*
X61674381Y-51721143D01*
X61674381Y-51340190D01*
X61722000Y-51244952D01*
X61769619Y-51197333D01*
X61864857Y-51149714D01*
X62007714Y-51149714D01*
X62102952Y-51197333D01*
X62150571Y-51244952D01*
X62198190Y-51340190D01*
X62198190Y-51721143D01*
X62293429Y-50721143D02*
X62293429Y-49959238D01*
X62674381Y-48959238D02*
X62674381Y-49530667D01*
X62674381Y-49244953D02*
X61674381Y-49244953D01*
X61817238Y-49340191D01*
X61912476Y-49435429D01*
X61960095Y-49530667D01*
X61769619Y-48578286D02*
X61722000Y-48530667D01*
X61674381Y-48435429D01*
X61674381Y-48197333D01*
X61722000Y-48102095D01*
X61769619Y-48054476D01*
X61864857Y-48006857D01*
X61960095Y-48006857D01*
X62102952Y-48054476D01*
X62674381Y-48625905D01*
X62674381Y-48006857D01*
X62150571Y-47578286D02*
X62150571Y-47244952D01*
X62674381Y-47102095D02*
X62674381Y-47578286D01*
X61674381Y-47578286D01*
X61674381Y-47102095D01*
X86956295Y-59615614D02*
X86569248Y-59886547D01*
X86956295Y-60080071D02*
X86143495Y-60080071D01*
X86143495Y-59770433D01*
X86182200Y-59693024D01*
X86220905Y-59654319D01*
X86298314Y-59615614D01*
X86414429Y-59615614D01*
X86491838Y-59654319D01*
X86530543Y-59693024D01*
X86569248Y-59770433D01*
X86569248Y-60080071D01*
X86956295Y-58841519D02*
X86956295Y-59305976D01*
X86956295Y-59073747D02*
X86143495Y-59073747D01*
X86259610Y-59151157D01*
X86337019Y-59228566D01*
X86375724Y-59305976D01*
X86220905Y-58531881D02*
X86182200Y-58493176D01*
X86143495Y-58415767D01*
X86143495Y-58222243D01*
X86182200Y-58144833D01*
X86220905Y-58106129D01*
X86298314Y-58067424D01*
X86375724Y-58067424D01*
X86491838Y-58106129D01*
X86956295Y-58570586D01*
X86956295Y-58067424D01*
X83641595Y-57126414D02*
X83254548Y-57397347D01*
X83641595Y-57590871D02*
X82828795Y-57590871D01*
X82828795Y-57281233D01*
X82867500Y-57203824D01*
X82906205Y-57165119D01*
X82983614Y-57126414D01*
X83099729Y-57126414D01*
X83177138Y-57165119D01*
X83215843Y-57203824D01*
X83254548Y-57281233D01*
X83254548Y-57590871D01*
X83641595Y-56352319D02*
X83641595Y-56816776D01*
X83641595Y-56584547D02*
X82828795Y-56584547D01*
X82944910Y-56661957D01*
X83022319Y-56739366D01*
X83061024Y-56816776D01*
X82828795Y-56081386D02*
X82828795Y-55578224D01*
X83138433Y-55849157D01*
X83138433Y-55733043D01*
X83177138Y-55655633D01*
X83215843Y-55616929D01*
X83293252Y-55578224D01*
X83486776Y-55578224D01*
X83564186Y-55616929D01*
X83602890Y-55655633D01*
X83641595Y-55733043D01*
X83641595Y-55965271D01*
X83602890Y-56042681D01*
X83564186Y-56081386D01*
X78752095Y-48388814D02*
X78365048Y-48659747D01*
X78752095Y-48853271D02*
X77939295Y-48853271D01*
X77939295Y-48543633D01*
X77978000Y-48466224D01*
X78016705Y-48427519D01*
X78094114Y-48388814D01*
X78210229Y-48388814D01*
X78287638Y-48427519D01*
X78326343Y-48466224D01*
X78365048Y-48543633D01*
X78365048Y-48853271D01*
X78752095Y-47614719D02*
X78752095Y-48079176D01*
X78752095Y-47846947D02*
X77939295Y-47846947D01*
X78055410Y-47924357D01*
X78132819Y-48001766D01*
X78171524Y-48079176D01*
X78210229Y-46918033D02*
X78752095Y-46918033D01*
X77900590Y-47111557D02*
X78481162Y-47305081D01*
X78481162Y-46801919D01*
X75822205Y-83722081D02*
X75822205Y-82722081D01*
X76203158Y-82722081D01*
X76298396Y-82769700D01*
X76346015Y-82817319D01*
X76393634Y-82912557D01*
X76393634Y-83055414D01*
X76346015Y-83150652D01*
X76298396Y-83198271D01*
X76203158Y-83245890D01*
X75822205Y-83245890D01*
X77346015Y-83722081D02*
X76774586Y-83722081D01*
X77060300Y-83722081D02*
X77060300Y-82722081D01*
X76965062Y-82864938D01*
X76869824Y-82960176D01*
X76774586Y-83007795D01*
X85620377Y-66775995D02*
X85620377Y-65963195D01*
X85813901Y-65963195D01*
X85930015Y-66001900D01*
X86007424Y-66079310D01*
X86046129Y-66156719D01*
X86084834Y-66311538D01*
X86084834Y-66427652D01*
X86046129Y-66582471D01*
X86007424Y-66659881D01*
X85930015Y-66737290D01*
X85813901Y-66775995D01*
X85620377Y-66775995D01*
X86355767Y-65963195D02*
X86858929Y-65963195D01*
X86587996Y-66272833D01*
X86704110Y-66272833D01*
X86781520Y-66311538D01*
X86820224Y-66350243D01*
X86858929Y-66427652D01*
X86858929Y-66621176D01*
X86820224Y-66698586D01*
X86781520Y-66737290D01*
X86704110Y-66775995D01*
X86471882Y-66775995D01*
X86394472Y-66737290D01*
X86355767Y-66698586D01*
X77520317Y-81281935D02*
X77520317Y-80469135D01*
X77713841Y-80469135D01*
X77829955Y-80507840D01*
X77907364Y-80585250D01*
X77946069Y-80662659D01*
X77984774Y-80817478D01*
X77984774Y-80933592D01*
X77946069Y-81088411D01*
X77907364Y-81165821D01*
X77829955Y-81243230D01*
X77713841Y-81281935D01*
X77520317Y-81281935D01*
X78681460Y-80469135D02*
X78526641Y-80469135D01*
X78449231Y-80507840D01*
X78410526Y-80546545D01*
X78333117Y-80662659D01*
X78294412Y-80817478D01*
X78294412Y-81127116D01*
X78333117Y-81204526D01*
X78371822Y-81243230D01*
X78449231Y-81281935D01*
X78604050Y-81281935D01*
X78681460Y-81243230D01*
X78720164Y-81204526D01*
X78758869Y-81127116D01*
X78758869Y-80933592D01*
X78720164Y-80856183D01*
X78681460Y-80817478D01*
X78604050Y-80778773D01*
X78449231Y-80778773D01*
X78371822Y-80817478D01*
X78333117Y-80856183D01*
X78294412Y-80933592D01*
X79235315Y-83707901D02*
X79235315Y-82707901D01*
X79806744Y-83707901D02*
X79378172Y-83136472D01*
X79806744Y-82707901D02*
X79235315Y-83279330D01*
X85059125Y-83372187D02*
X85535316Y-83372187D01*
X84963887Y-83657901D02*
X85297220Y-82657901D01*
X85630554Y-83657901D01*
M02*
