G04 #@! TF.FileFunction,Soldermask,Bot*
%FSLAX46Y46*%
G04 Gerber Fmt 4.6, Leading zero omitted, Abs format (unit mm)*
G04 Created by KiCad (PCBNEW 0.201506192325+5795~23~ubuntu14.04.1-product) date Sun 30 Aug 2015 22:32:50 BST*
%MOMM*%
G01*
G04 APERTURE LIST*
%ADD10C,0.100000*%
%ADD11R,3.000000X3.000000*%
%ADD12C,3.000000*%
%ADD13C,2.500000*%
%ADD14R,2.032000X2.032000*%
%ADD15O,2.032000X2.032000*%
%ADD16R,1.727200X2.032000*%
%ADD17O,1.727200X2.032000*%
%ADD18R,2.032000X1.727200*%
%ADD19O,2.032000X1.727200*%
%ADD20R,0.700000X0.600000*%
G04 APERTURE END LIST*
D10*
D11*
X92011500Y-78105000D03*
D12*
X92011500Y-73025000D03*
X92011500Y-67945000D03*
X92011500Y-62865000D03*
X92011500Y-57785000D03*
X92011500Y-52705000D03*
X92011500Y-47625000D03*
X92011500Y-42545000D03*
D13*
X67264000Y-77044000D03*
D12*
X67264000Y-64844000D03*
X55214000Y-64794000D03*
D13*
X55264000Y-77044000D03*
D12*
X61214000Y-78994000D03*
D14*
X82296000Y-49657000D03*
D15*
X84836000Y-49657000D03*
D11*
X48056800Y-62011560D03*
D12*
X48056800Y-67091560D03*
X48056800Y-72171560D03*
X48056800Y-77251560D03*
X48056800Y-82331560D03*
X48056800Y-87411560D03*
D16*
X71917180Y-62586480D03*
D17*
X74457180Y-62586480D03*
X76997180Y-62586480D03*
X79537180Y-62586480D03*
X82077180Y-62586480D03*
X84617180Y-62586480D03*
D18*
X63987300Y-83041100D03*
D19*
X63987300Y-85581100D03*
X63987300Y-88121100D03*
D11*
X68927600Y-86978100D03*
D12*
X74007600Y-86978100D03*
X79087600Y-86978100D03*
X84167600Y-86978100D03*
D20*
X51981100Y-86002900D03*
X51981100Y-87402900D03*
X51981100Y-75842900D03*
X51981100Y-77242900D03*
X51981100Y-65695600D03*
X51981100Y-67095600D03*
M02*
